G04 PROTEUS GERBER X2 FILE*
%TF.GenerationSoftware,Labcenter,Proteus,8.15-SP1-Build34318*%
%TF.CreationDate,2023-09-22T16:20:16+00:00*%
%TF.FileFunction,Legend,Top*%
%TF.FilePolarity,Positive*%
%TF.Part,Single*%
%TF.SameCoordinates,{3c8dde4f-ac42-4326-9e26-51d233c7aa90}*%
%FSLAX45Y45*%
%MOMM*%
G01*
%TA.AperFunction,Profile*%
%ADD19C,0.203200*%
%TA.AperFunction,Material*%
%ADD70C,0.203200*%
%TA.AperFunction,NonMaterial*%
%ADD71C,0.203200*%
%TD.AperFunction*%
D19*
X-8214500Y-7201500D02*
X+1472000Y-7201500D01*
X+1472000Y+6540500D01*
X-8214500Y+6540500D01*
X-8214500Y-7201500D01*
D70*
X-7531000Y+5404000D02*
X-6769000Y+5404000D01*
X-6769000Y+4388000D02*
X-7531000Y+4388000D01*
X-7531000Y+5404000D02*
X-7531000Y+4388000D01*
X-6769000Y+5404000D02*
X-6769000Y+4388000D01*
X-7254140Y+5579260D02*
X-7254140Y+5564020D01*
X-7238265Y+5548780D01*
X-7174765Y+5548780D01*
X-7158890Y+5564020D01*
X-7158890Y+5640220D01*
X-7111265Y+5624980D02*
X-7095390Y+5640220D01*
X-7047765Y+5640220D01*
X-7031890Y+5624980D01*
X-7031890Y+5609740D01*
X-7047765Y+5594500D01*
X-7095390Y+5594500D01*
X-7111265Y+5579260D01*
X-7111265Y+5548780D01*
X-7031890Y+5548780D01*
D71*
X-7320000Y+5969000D02*
X-7320966Y+5993052D01*
X-7328807Y+6041158D01*
X-7345161Y+6089264D01*
X-7371703Y+6137370D01*
X-7412212Y+6185389D01*
X-7460318Y+6222972D01*
X-7508424Y+6247479D01*
X-7556530Y+6262209D01*
X-7604636Y+6268606D01*
X-7620000Y+6269000D01*
X-7920000Y+5969000D02*
X-7919034Y+5993052D01*
X-7911193Y+6041158D01*
X-7894839Y+6089264D01*
X-7868297Y+6137370D01*
X-7827788Y+6185389D01*
X-7779682Y+6222972D01*
X-7731576Y+6247479D01*
X-7683470Y+6262209D01*
X-7635364Y+6268606D01*
X-7620000Y+6269000D01*
X-7920000Y+5969000D02*
X-7919034Y+5944948D01*
X-7911193Y+5896842D01*
X-7894839Y+5848736D01*
X-7868297Y+5800630D01*
X-7827788Y+5752611D01*
X-7779682Y+5715028D01*
X-7731576Y+5690521D01*
X-7683470Y+5675791D01*
X-7635364Y+5669394D01*
X-7620000Y+5669000D01*
X-7320000Y+5969000D02*
X-7320966Y+5944948D01*
X-7328807Y+5896842D01*
X-7345161Y+5848736D01*
X-7371703Y+5800630D01*
X-7412212Y+5752611D01*
X-7460318Y+5715028D01*
X-7508424Y+5690521D01*
X-7556530Y+5675791D01*
X-7604636Y+5669394D01*
X-7620000Y+5669000D01*
X+750326Y+5750000D02*
X+749359Y+5774077D01*
X+741510Y+5822233D01*
X+725140Y+5870389D01*
X+698573Y+5918545D01*
X+658024Y+5966614D01*
X+609868Y+6004240D01*
X+561712Y+6028776D01*
X+513556Y+6043524D01*
X+465400Y+6049931D01*
X+450000Y+6050326D01*
X+149674Y+5750000D02*
X+150641Y+5774077D01*
X+158490Y+5822233D01*
X+174860Y+5870389D01*
X+201427Y+5918545D01*
X+241976Y+5966614D01*
X+290132Y+6004240D01*
X+338288Y+6028776D01*
X+386444Y+6043524D01*
X+434600Y+6049931D01*
X+450000Y+6050326D01*
X+149674Y+5750000D02*
X+150641Y+5725923D01*
X+158490Y+5677767D01*
X+174860Y+5629611D01*
X+201427Y+5581455D01*
X+241976Y+5533386D01*
X+290132Y+5495760D01*
X+338288Y+5471224D01*
X+386444Y+5456476D01*
X+434600Y+5450069D01*
X+450000Y+5449674D01*
X+750326Y+5750000D02*
X+749359Y+5725923D01*
X+741510Y+5677767D01*
X+725140Y+5629611D01*
X+698573Y+5581455D01*
X+658024Y+5533386D01*
X+609868Y+5495760D01*
X+561712Y+5471224D01*
X+513556Y+5456476D01*
X+465400Y+5450069D01*
X+450000Y+5449674D01*
X-29258Y-6407000D02*
X-30296Y-6381079D01*
X-38719Y-6329236D01*
X-56283Y-6277393D01*
X-84771Y-6225550D01*
X-128221Y-6173775D01*
X-180064Y-6133009D01*
X-231907Y-6106380D01*
X-283750Y-6090301D01*
X-335593Y-6083196D01*
X-353560Y-6082698D01*
X-677862Y-6407000D02*
X-676824Y-6381079D01*
X-668401Y-6329236D01*
X-650837Y-6277393D01*
X-622349Y-6225550D01*
X-578899Y-6173775D01*
X-527056Y-6133009D01*
X-475213Y-6106380D01*
X-423370Y-6090301D01*
X-371527Y-6083196D01*
X-353560Y-6082698D01*
X-677862Y-6407000D02*
X-676824Y-6432921D01*
X-668401Y-6484764D01*
X-650837Y-6536607D01*
X-622349Y-6588450D01*
X-578899Y-6640225D01*
X-527056Y-6680991D01*
X-475213Y-6707620D01*
X-423370Y-6723699D01*
X-371527Y-6730804D01*
X-353560Y-6731302D01*
X-29258Y-6407000D02*
X-30296Y-6432921D01*
X-38719Y-6484764D01*
X-56283Y-6536607D01*
X-84771Y-6588450D01*
X-128221Y-6640225D01*
X-180064Y-6680991D01*
X-231907Y-6707620D01*
X-283750Y-6723699D01*
X-335593Y-6730804D01*
X-353560Y-6731302D01*
X-7296000Y-6757000D02*
X-7297037Y-6731102D01*
X-7305454Y-6679305D01*
X-7323002Y-6627508D01*
X-7351466Y-6575711D01*
X-7394881Y-6523982D01*
X-7446678Y-6483257D01*
X-7498475Y-6456654D01*
X-7550272Y-6440592D01*
X-7602069Y-6433497D01*
X-7620000Y-6433000D01*
X-7944000Y-6757000D02*
X-7942963Y-6731102D01*
X-7934546Y-6679305D01*
X-7916998Y-6627508D01*
X-7888534Y-6575711D01*
X-7845119Y-6523982D01*
X-7793322Y-6483257D01*
X-7741525Y-6456654D01*
X-7689728Y-6440592D01*
X-7637931Y-6433497D01*
X-7620000Y-6433000D01*
X-7944000Y-6757000D02*
X-7942963Y-6782898D01*
X-7934546Y-6834695D01*
X-7916998Y-6886492D01*
X-7888534Y-6938289D01*
X-7845119Y-6990018D01*
X-7793322Y-7030743D01*
X-7741525Y-7057346D01*
X-7689728Y-7073408D01*
X-7637931Y-7080503D01*
X-7620000Y-7081000D01*
X-7296000Y-6757000D02*
X-7297037Y-6782898D01*
X-7305454Y-6834695D01*
X-7323002Y-6886492D01*
X-7351466Y-6938289D01*
X-7394881Y-6990018D01*
X-7446678Y-7030743D01*
X-7498475Y-7057346D01*
X-7550272Y-7073408D01*
X-7602069Y-7080503D01*
X-7620000Y-7081000D01*
X-7957300Y+3980700D02*
X-8058900Y+3980700D01*
X-8109700Y+4031500D01*
X-8109700Y+4082300D01*
X-8058900Y+4133100D01*
X-7957300Y+4133100D01*
X-8008100Y+3980700D02*
X-8008100Y+4133100D01*
X-8109700Y+4260100D02*
X-7957300Y+4260100D01*
X-8058900Y+4463300D02*
X-7957300Y+4463300D01*
X-8109700Y+4463300D02*
X-8109700Y+4463300D01*
X-7957300Y+4590300D02*
X-8058900Y+4590300D01*
X-8033500Y+4590300D02*
X-8058900Y+4615700D01*
X-8008100Y+4666500D01*
X-8058900Y+4717300D01*
X-8033500Y+4742700D01*
X-7957300Y+4742700D01*
X-8008100Y+4793500D02*
X-8008100Y+4945900D01*
X-8033500Y+4945900D01*
X-8058900Y+4920500D01*
X-8058900Y+4818900D01*
X-8033500Y+4793500D01*
X-7982700Y+4793500D01*
X-7957300Y+4818900D01*
X-7957300Y+4920500D01*
X-7957300Y+4996700D02*
X-8058900Y+4996700D01*
X-8033500Y+4996700D02*
X-8058900Y+5022100D01*
X-8058900Y+5123700D01*
X-8033500Y+5149100D01*
X-7957300Y+5149100D01*
X-8109700Y+5225300D02*
X-7982700Y+5225300D01*
X-7957300Y+5250700D01*
X-7957300Y+5326900D01*
X-7982700Y+5352300D01*
X-8058900Y+5199900D02*
X-8058900Y+5326900D01*
X-8058900Y+5428500D02*
X-8058900Y+5530100D01*
X-8033500Y+5555500D01*
X-7957300Y+5555500D01*
X-7957300Y+5428500D01*
X-7982700Y+5403100D01*
X-8008100Y+5428500D01*
X-8008100Y+5555500D01*
X-8033500Y+5758700D02*
X-8058900Y+5733300D01*
X-8058900Y+5631700D01*
X-8033500Y+5606300D01*
X-7982700Y+5606300D01*
X-7957300Y+5631700D01*
X-7957300Y+5733300D01*
X-7982700Y+5758700D01*
X-8058900Y+5885700D02*
X-7957300Y+5885700D01*
X-8109700Y+5885700D02*
X-8109700Y+5885700D01*
X-8033500Y+6012700D02*
X-8058900Y+6038100D01*
X-8058900Y+6139700D01*
X-8033500Y+6165100D01*
X-7982700Y+6165100D01*
X-7957300Y+6139700D01*
X-7957300Y+6038100D01*
X-7982700Y+6012700D01*
X-8033500Y+6012700D01*
X-7957300Y+6215900D02*
X-8058900Y+6215900D01*
X-8033500Y+6215900D02*
X-8058900Y+6241300D01*
X-8058900Y+6342900D01*
X-8033500Y+6368300D01*
X-7957300Y+6368300D01*
X-7487500Y+5316500D02*
X-7335100Y+5316500D01*
X-7411300Y+5367300D02*
X-7411300Y+5265700D01*
X-7503005Y+4585500D02*
X-7376005Y+4585500D01*
D70*
X-6350000Y+4650000D02*
X-6350000Y+5650000D01*
X-3350000Y+5650000D02*
X-3350000Y+4650000D01*
X-6350000Y+5650000D02*
X-3350000Y+5650000D01*
X-6350000Y+4650000D02*
X-3350000Y+4650000D01*
X-3217920Y+4959500D02*
X-3309360Y+4959500D01*
X-3309360Y+5054750D01*
X-3263640Y+4959500D02*
X-3263640Y+5023000D01*
X-3309360Y+5086500D02*
X-3233160Y+5086500D01*
X-3217920Y+5102375D01*
X-3217920Y+5165875D01*
X-3233160Y+5181750D01*
X-3309360Y+5181750D01*
X-3278880Y+5245250D02*
X-3309360Y+5277000D01*
X-3217920Y+5277000D01*
X-2538520Y+4324500D02*
X-2218480Y+4324500D01*
X-2218480Y+4959500D01*
X-2538520Y+4959500D01*
X-2538520Y+4324500D01*
X-2378500Y+4324500D02*
X-2378500Y+4261000D01*
X-2378500Y+4959500D02*
X-2378500Y+5023000D01*
X-2226100Y+4819800D02*
X-2530900Y+4819800D01*
X-2336400Y+4465000D02*
X-2427840Y+4465000D01*
X-2427840Y+4528500D01*
X-2397360Y+4560250D01*
X-2366880Y+4560250D01*
X-2336400Y+4528500D01*
X-2336400Y+4465000D01*
X-2397360Y+4623750D02*
X-2427840Y+4655500D01*
X-2336400Y+4655500D01*
X-2000000Y+4750000D02*
X-1979553Y+4745825D01*
X-1960644Y+4733008D01*
X-1943640Y+4711108D01*
X-1928906Y+4679688D01*
X-1916809Y+4638306D01*
X-1907715Y+4586523D01*
X-1901990Y+4523901D01*
X-1900000Y+4450000D01*
X-2000000Y+4750000D02*
X-2020447Y+4745825D01*
X-2039356Y+4733008D01*
X-2056360Y+4711108D01*
X-2071094Y+4679688D01*
X-2083191Y+4638306D01*
X-2092285Y+4586523D01*
X-2098010Y+4523901D01*
X-2100000Y+4450000D01*
X-2000000Y+4200000D02*
X-1979553Y+4204077D01*
X-1960644Y+4216211D01*
X-1943640Y+4236255D01*
X-1928906Y+4264062D01*
X-1916809Y+4299487D01*
X-1907715Y+4342383D01*
X-1901990Y+4392603D01*
X-1900000Y+4450000D01*
X-2000000Y+4200000D02*
X-2020447Y+4204077D01*
X-2039356Y+4216211D01*
X-2056360Y+4236255D01*
X-2071094Y+4264062D01*
X-2083191Y+4299487D01*
X-2092285Y+4342383D01*
X-2098010Y+4392603D01*
X-2100000Y+4450000D01*
X-1933160Y+4943250D02*
X-1917920Y+4927375D01*
X-1917920Y+4879750D01*
X-1948400Y+4848000D01*
X-1978880Y+4848000D01*
X-2009360Y+4879750D01*
X-2009360Y+4927375D01*
X-1994120Y+4943250D01*
X-1994120Y+5070250D02*
X-2009360Y+5054375D01*
X-2009360Y+5006750D01*
X-1994120Y+4990875D01*
X-1933160Y+4990875D01*
X-1917920Y+5006750D01*
X-1917920Y+5054375D01*
X-1933160Y+5070250D01*
X-1948400Y+5070250D01*
X-1963640Y+5054375D01*
X-1963640Y+4990875D01*
X-7396000Y+3273000D02*
X-7396827Y+3293483D01*
X-7403545Y+3334450D01*
X-7417563Y+3375417D01*
X-7440341Y+3416384D01*
X-7475141Y+3457229D01*
X-7516108Y+3488845D01*
X-7557075Y+3509392D01*
X-7598042Y+3521629D01*
X-7639009Y+3526762D01*
X-7650000Y+3527000D01*
X-7904000Y+3273000D02*
X-7903173Y+3293483D01*
X-7896455Y+3334450D01*
X-7882437Y+3375417D01*
X-7859659Y+3416384D01*
X-7824859Y+3457229D01*
X-7783892Y+3488845D01*
X-7742925Y+3509392D01*
X-7701958Y+3521629D01*
X-7660991Y+3526762D01*
X-7650000Y+3527000D01*
X-7904000Y+3273000D02*
X-7903173Y+3252517D01*
X-7896455Y+3211550D01*
X-7882437Y+3170583D01*
X-7859659Y+3129616D01*
X-7824859Y+3088771D01*
X-7783892Y+3057155D01*
X-7742925Y+3036608D01*
X-7701958Y+3024371D01*
X-7660991Y+3019238D01*
X-7650000Y+3019000D01*
X-7396000Y+3273000D02*
X-7396827Y+3252517D01*
X-7403545Y+3211550D01*
X-7417563Y+3170583D01*
X-7440341Y+3129616D01*
X-7475141Y+3088771D01*
X-7516108Y+3057155D01*
X-7557075Y+3036608D01*
X-7598042Y+3024371D01*
X-7639009Y+3019238D01*
X-7650000Y+3019000D01*
X-7396000Y+3590500D02*
X-7396000Y+3463500D01*
X-7332500Y+3527000D02*
X-7459500Y+3527000D01*
X-7350420Y+2827750D02*
X-7441860Y+2827750D01*
X-7441860Y+2891250D01*
X-7411380Y+2923000D01*
X-7380900Y+2923000D01*
X-7350420Y+2891250D01*
X-7350420Y+2827750D01*
X-7426620Y+3050000D02*
X-7441860Y+3034125D01*
X-7441860Y+2986500D01*
X-7426620Y+2970625D01*
X-7365660Y+2970625D01*
X-7350420Y+2986500D01*
X-7350420Y+3034125D01*
X-7365660Y+3050000D01*
X-7380900Y+3050000D01*
X-7396140Y+3034125D01*
X-7396140Y+2970625D01*
X-7073000Y+3400000D02*
X-6946000Y+3400000D01*
X-6946000Y+3336500D02*
X-6438000Y+3336500D01*
X-6438000Y+3463500D01*
X-6946000Y+3463500D01*
X-6946000Y+3336500D01*
X-6438000Y+3400000D02*
X-6311000Y+3400000D01*
X-6895200Y+3364440D02*
X-6895200Y+3455880D01*
X-6815825Y+3455880D01*
X-6799950Y+3440640D01*
X-6799950Y+3425400D01*
X-6815825Y+3410160D01*
X-6895200Y+3410160D01*
X-6815825Y+3410160D02*
X-6799950Y+3394920D01*
X-6799950Y+3364440D01*
X-6736450Y+3425400D02*
X-6704700Y+3455880D01*
X-6704700Y+3364440D01*
X-6625325Y+3440640D02*
X-6609450Y+3455880D01*
X-6561825Y+3455880D01*
X-6545950Y+3440640D01*
X-6545950Y+3425400D01*
X-6561825Y+3410160D01*
X-6609450Y+3410160D01*
X-6625325Y+3394920D01*
X-6625325Y+3364440D01*
X-6545950Y+3364440D01*
X-7396000Y+3873000D02*
X-7396827Y+3893483D01*
X-7403545Y+3934450D01*
X-7417563Y+3975417D01*
X-7440341Y+4016384D01*
X-7475141Y+4057229D01*
X-7516108Y+4088845D01*
X-7557075Y+4109392D01*
X-7598042Y+4121629D01*
X-7639009Y+4126762D01*
X-7650000Y+4127000D01*
X-7904000Y+3873000D02*
X-7903173Y+3893483D01*
X-7896455Y+3934450D01*
X-7882437Y+3975417D01*
X-7859659Y+4016384D01*
X-7824859Y+4057229D01*
X-7783892Y+4088845D01*
X-7742925Y+4109392D01*
X-7701958Y+4121629D01*
X-7660991Y+4126762D01*
X-7650000Y+4127000D01*
X-7904000Y+3873000D02*
X-7903173Y+3852517D01*
X-7896455Y+3811550D01*
X-7882437Y+3770583D01*
X-7859659Y+3729616D01*
X-7824859Y+3688771D01*
X-7783892Y+3657155D01*
X-7742925Y+3636608D01*
X-7701958Y+3624371D01*
X-7660991Y+3619238D01*
X-7650000Y+3619000D01*
X-7396000Y+3873000D02*
X-7396827Y+3852517D01*
X-7403545Y+3811550D01*
X-7417563Y+3770583D01*
X-7440341Y+3729616D01*
X-7475141Y+3688771D01*
X-7516108Y+3657155D01*
X-7557075Y+3636608D01*
X-7598042Y+3624371D01*
X-7639009Y+3619238D01*
X-7650000Y+3619000D01*
X-7396000Y+4190500D02*
X-7396000Y+4063500D01*
X-7332500Y+4127000D02*
X-7459500Y+4127000D01*
X-7350420Y+3427750D02*
X-7441860Y+3427750D01*
X-7441860Y+3491250D01*
X-7411380Y+3523000D01*
X-7380900Y+3523000D01*
X-7350420Y+3491250D01*
X-7350420Y+3427750D01*
X-7441860Y+3570625D02*
X-7441860Y+3650000D01*
X-7426620Y+3650000D01*
X-7350420Y+3570625D01*
X-7073000Y+4000000D02*
X-6946000Y+4000000D01*
X-6946000Y+3936500D02*
X-6438000Y+3936500D01*
X-6438000Y+4063500D01*
X-6946000Y+4063500D01*
X-6946000Y+3936500D01*
X-6438000Y+4000000D02*
X-6311000Y+4000000D01*
X-6882500Y+3951740D02*
X-6882500Y+4043180D01*
X-6803125Y+4043180D01*
X-6787250Y+4027940D01*
X-6787250Y+4012700D01*
X-6803125Y+3997460D01*
X-6882500Y+3997460D01*
X-6803125Y+3997460D02*
X-6787250Y+3982220D01*
X-6787250Y+3951740D01*
X-6723750Y+4012700D02*
X-6692000Y+4043180D01*
X-6692000Y+3951740D01*
X-6612625Y+4027940D02*
X-6596750Y+4043180D01*
X-6549125Y+4043180D01*
X-6533250Y+4027940D01*
X-6533250Y+4012700D01*
X-6549125Y+3997460D01*
X-6533250Y+3982220D01*
X-6533250Y+3966980D01*
X-6549125Y+3951740D01*
X-6596750Y+3951740D01*
X-6612625Y+3966980D01*
X-6580875Y+3997460D02*
X-6549125Y+3997460D01*
X-3184620Y+4382920D02*
X-2917920Y+4382920D01*
X-2917920Y+4901080D01*
X-3184620Y+4901080D01*
X-3184620Y+4382920D01*
X-3182080Y+4464200D02*
X-2920460Y+4464200D01*
X-3050000Y+4311800D02*
X-3050000Y+4382920D01*
X-3050000Y+4901080D02*
X-3050000Y+4972200D01*
X-3009360Y+4527700D02*
X-3100800Y+4527700D01*
X-3100800Y+4591200D01*
X-3070320Y+4622950D01*
X-3039840Y+4622950D01*
X-3009360Y+4591200D01*
X-3009360Y+4527700D01*
X-3055080Y+4686450D02*
X-3070320Y+4670575D01*
X-3085560Y+4670575D01*
X-3100800Y+4686450D01*
X-3100800Y+4734075D01*
X-3085560Y+4749950D01*
X-3070320Y+4749950D01*
X-3055080Y+4734075D01*
X-3055080Y+4686450D01*
X-3039840Y+4670575D01*
X-3024600Y+4670575D01*
X-3009360Y+4686450D01*
X-3009360Y+4734075D01*
X-3024600Y+4749950D01*
X-3039840Y+4749950D01*
X-3055080Y+4734075D01*
X-3894500Y+3421100D02*
X-3894500Y+3548100D01*
X-3958000Y+3548100D02*
X-3831000Y+3548100D01*
X-3831000Y+4056100D01*
X-3958000Y+4056100D01*
X-3958000Y+3548100D01*
X-3894500Y+4056100D02*
X-3894500Y+4183100D01*
X-3846240Y+3611600D02*
X-3937680Y+3611600D01*
X-3937680Y+3690975D01*
X-3922440Y+3706850D01*
X-3907200Y+3706850D01*
X-3891960Y+3690975D01*
X-3891960Y+3611600D01*
X-3891960Y+3690975D02*
X-3876720Y+3706850D01*
X-3846240Y+3706850D01*
X-3907200Y+3770350D02*
X-3937680Y+3802100D01*
X-3846240Y+3802100D01*
X-3937680Y+3881475D02*
X-3937680Y+3960850D01*
X-3922440Y+3960850D01*
X-3846240Y+3881475D01*
X-5904000Y+4390500D02*
X-5904000Y+4009500D01*
X-5777000Y+4441300D02*
X-5800688Y+4439117D01*
X-5823633Y+4433362D01*
X-5864312Y+4415900D01*
X-5904000Y+4390500D01*
X-5777000Y+4441300D02*
X-5725065Y+4440438D01*
X-5677037Y+4429046D01*
X-5633846Y+4408204D01*
X-5596422Y+4378991D01*
X-5565695Y+4342484D01*
X-5542596Y+4299764D01*
X-5528054Y+4251910D01*
X-5523000Y+4200000D01*
X-5777000Y+3958700D02*
X-5800688Y+3960883D01*
X-5823633Y+3966638D01*
X-5864312Y+3984100D01*
X-5904000Y+4009500D01*
X-5777000Y+3958700D02*
X-5725065Y+3959562D01*
X-5677037Y+3970954D01*
X-5633846Y+3991796D01*
X-5596422Y+4021009D01*
X-5565695Y+4057516D01*
X-5542596Y+4100236D01*
X-5528054Y+4148090D01*
X-5523000Y+4200000D01*
X-5566180Y+4352400D02*
X-5596660Y+4384150D01*
X-5596660Y+4415900D01*
X-5566180Y+4447650D01*
X-5535700Y+4447650D01*
X-5505220Y+4415900D01*
X-5505220Y+4384150D01*
X-5535700Y+4352400D01*
X-5566180Y+4352400D01*
X-5535700Y+4415900D02*
X-5505220Y+4447650D01*
X-5596660Y+4495275D02*
X-5596660Y+4574650D01*
X-5581420Y+4574650D01*
X-5505220Y+4495275D01*
X-4266000Y+3411000D02*
X-4266000Y+3538000D01*
X-4329500Y+3538000D02*
X-4202500Y+3538000D01*
X-4202500Y+4046000D01*
X-4329500Y+4046000D01*
X-4329500Y+3538000D01*
X-4266000Y+4046000D02*
X-4266000Y+4173000D01*
X-4230440Y+3601500D02*
X-4321880Y+3601500D01*
X-4321880Y+3680875D01*
X-4306640Y+3696750D01*
X-4291400Y+3696750D01*
X-4276160Y+3680875D01*
X-4276160Y+3601500D01*
X-4276160Y+3680875D02*
X-4260920Y+3696750D01*
X-4230440Y+3696750D01*
X-4291400Y+3760250D02*
X-4321880Y+3792000D01*
X-4230440Y+3792000D01*
X-4291400Y+3950750D02*
X-4276160Y+3934875D01*
X-4276160Y+3887250D01*
X-4291400Y+3871375D01*
X-4306640Y+3871375D01*
X-4321880Y+3887250D01*
X-4321880Y+3934875D01*
X-4306640Y+3950750D01*
X-4245680Y+3950750D01*
X-4230440Y+3934875D01*
X-4230440Y+3887250D01*
X-3182080Y+2832920D02*
X-2915380Y+2832920D01*
X-2915380Y+3351080D01*
X-3182080Y+3351080D01*
X-3182080Y+2832920D01*
X-2917920Y+3269800D02*
X-3179540Y+3269800D01*
X-3050000Y+3422200D02*
X-3050000Y+3351080D01*
X-3050000Y+2832920D02*
X-3050000Y+2761800D01*
X-2999200Y+2952300D02*
X-3090640Y+2952300D01*
X-3090640Y+3015800D01*
X-3060160Y+3047550D01*
X-3029680Y+3047550D01*
X-2999200Y+3015800D01*
X-2999200Y+2952300D01*
X-3060160Y+3174550D02*
X-3044920Y+3158675D01*
X-3044920Y+3111050D01*
X-3060160Y+3095175D01*
X-3075400Y+3095175D01*
X-3090640Y+3111050D01*
X-3090640Y+3158675D01*
X-3075400Y+3174550D01*
X-3014440Y+3174550D01*
X-2999200Y+3158675D01*
X-2999200Y+3111050D01*
X-5977000Y+3223000D02*
X-5215000Y+3223000D01*
X-5215000Y+3477000D01*
X-5977000Y+3477000D01*
X-5977000Y+3223000D01*
X-5977000Y+3477000D02*
X-5977000Y+3604000D01*
X-5215000Y+3604000D01*
X-5215000Y+3477000D01*
X-5977000Y+3477000D02*
X-5850000Y+3604000D01*
X-5850000Y+3477000D02*
X-5723000Y+3604000D01*
X-5723000Y+3477000D02*
X-5596000Y+3604000D01*
X-5596000Y+3477000D02*
X-5469000Y+3604000D01*
X-5469000Y+3477000D02*
X-5342000Y+3604000D01*
X-5342000Y+3477000D02*
X-5215000Y+3604000D01*
X-5723000Y+3736080D02*
X-5723000Y+3659880D01*
X-5707125Y+3644640D01*
X-5643625Y+3644640D01*
X-5627750Y+3659880D01*
X-5627750Y+3736080D01*
X-5580125Y+3720840D02*
X-5564250Y+3736080D01*
X-5516625Y+3736080D01*
X-5500750Y+3720840D01*
X-5500750Y+3705600D01*
X-5516625Y+3690360D01*
X-5500750Y+3675120D01*
X-5500750Y+3659880D01*
X-5516625Y+3644640D01*
X-5564250Y+3644640D01*
X-5580125Y+3659880D01*
X-5548375Y+3690360D02*
X-5516625Y+3690360D01*
X-5400000Y+2900000D02*
X-5404175Y+2879553D01*
X-5416992Y+2860645D01*
X-5438891Y+2843640D01*
X-5470312Y+2828906D01*
X-5511694Y+2816809D01*
X-5563476Y+2807715D01*
X-5626099Y+2801990D01*
X-5700000Y+2800000D01*
X-5400000Y+2900000D02*
X-5404175Y+2920447D01*
X-5416992Y+2939355D01*
X-5438891Y+2956360D01*
X-5470312Y+2971094D01*
X-5511694Y+2983191D01*
X-5563476Y+2992285D01*
X-5626099Y+2998010D01*
X-5700000Y+3000000D01*
X-5950000Y+2900000D02*
X-5945923Y+2879553D01*
X-5933789Y+2860645D01*
X-5913745Y+2843640D01*
X-5885938Y+2828906D01*
X-5850513Y+2816809D01*
X-5807617Y+2807715D01*
X-5757397Y+2801990D01*
X-5700000Y+2800000D01*
X-5950000Y+2900000D02*
X-5945923Y+2920447D01*
X-5933789Y+2939355D01*
X-5913745Y+2956360D01*
X-5885938Y+2971094D01*
X-5850513Y+2983191D01*
X-5807617Y+2992285D01*
X-5757397Y+2998010D01*
X-5700000Y+3000000D01*
X-5722250Y+2656160D02*
X-5738125Y+2640920D01*
X-5785750Y+2640920D01*
X-5817500Y+2671400D01*
X-5817500Y+2701880D01*
X-5785750Y+2732360D01*
X-5738125Y+2732360D01*
X-5722250Y+2717120D01*
X-5658750Y+2701880D02*
X-5627000Y+2732360D01*
X-5627000Y+2640920D01*
X-5563500Y+2656160D02*
X-5563500Y+2717120D01*
X-5547625Y+2732360D01*
X-5484125Y+2732360D01*
X-5468250Y+2717120D01*
X-5468250Y+2656160D01*
X-5484125Y+2640920D01*
X-5547625Y+2640920D01*
X-5563500Y+2656160D01*
X-5563500Y+2640920D02*
X-5468250Y+2732360D01*
X-5950000Y+3750000D02*
X-5945825Y+3770447D01*
X-5933008Y+3789355D01*
X-5911109Y+3806360D01*
X-5879688Y+3821094D01*
X-5838306Y+3833191D01*
X-5786524Y+3842285D01*
X-5723901Y+3848010D01*
X-5650000Y+3850000D01*
X-5950000Y+3750000D02*
X-5945825Y+3729553D01*
X-5933008Y+3710645D01*
X-5911109Y+3693640D01*
X-5879688Y+3678906D01*
X-5838306Y+3666809D01*
X-5786524Y+3657715D01*
X-5723901Y+3651990D01*
X-5650000Y+3650000D01*
X-5400000Y+3750000D02*
X-5404077Y+3770447D01*
X-5416211Y+3789355D01*
X-5436255Y+3806360D01*
X-5464062Y+3821094D01*
X-5499487Y+3833191D01*
X-5542383Y+3842285D01*
X-5592603Y+3848010D01*
X-5650000Y+3850000D01*
X-5400000Y+3750000D02*
X-5404077Y+3729553D01*
X-5416211Y+3710645D01*
X-5436255Y+3693640D01*
X-5464062Y+3678906D01*
X-5499487Y+3666809D01*
X-5542383Y+3657715D01*
X-5592603Y+3651990D01*
X-5650000Y+3650000D01*
X-5754750Y+3932880D02*
X-5770625Y+3917640D01*
X-5818250Y+3917640D01*
X-5850000Y+3948120D01*
X-5850000Y+3978600D01*
X-5818250Y+4009080D01*
X-5770625Y+4009080D01*
X-5754750Y+3993840D01*
X-5627750Y+3978600D02*
X-5643625Y+3963360D01*
X-5691250Y+3963360D01*
X-5707125Y+3978600D01*
X-5707125Y+3993840D01*
X-5691250Y+4009080D01*
X-5643625Y+4009080D01*
X-5627750Y+3993840D01*
X-5627750Y+3932880D01*
X-5643625Y+3917640D01*
X-5691250Y+3917640D01*
X-7572600Y-2223900D02*
X-4143600Y-2223900D01*
X-4143600Y-1715900D01*
X-7572600Y-1715900D01*
X-7572600Y-2223900D02*
X-7572600Y-2096900D01*
X-7572600Y-1715900D02*
X-7572600Y-1842900D01*
X-7572600Y-2096900D02*
X-7546632Y-2094373D01*
X-7522618Y-2087102D01*
X-7501023Y-2075552D01*
X-7482311Y-2060189D01*
X-7466948Y-2041477D01*
X-7455398Y-2019881D01*
X-7448127Y-1995867D01*
X-7445600Y-1969900D01*
X-7572600Y-1842900D02*
X-7546632Y-1845427D01*
X-7522618Y-1852698D01*
X-7501023Y-1864247D01*
X-7482311Y-1879611D01*
X-7466948Y-1898323D01*
X-7455398Y-1919918D01*
X-7448127Y-1943932D01*
X-7445600Y-1969900D01*
X-7514616Y-2183260D02*
X-7514641Y-2182663D01*
X-7514843Y-2181467D01*
X-7515267Y-2180271D01*
X-7515961Y-2179075D01*
X-7517021Y-2177896D01*
X-7518217Y-2177033D01*
X-7519413Y-2176484D01*
X-7520609Y-2176175D01*
X-7521800Y-2176076D01*
X-7528984Y-2183260D02*
X-7528959Y-2182663D01*
X-7528757Y-2181467D01*
X-7528333Y-2180271D01*
X-7527639Y-2179075D01*
X-7526579Y-2177896D01*
X-7525383Y-2177033D01*
X-7524187Y-2176484D01*
X-7522991Y-2176175D01*
X-7521800Y-2176076D01*
X-7528984Y-2183260D02*
X-7528959Y-2183857D01*
X-7528757Y-2185053D01*
X-7528333Y-2186249D01*
X-7527639Y-2187445D01*
X-7526579Y-2188624D01*
X-7525383Y-2189487D01*
X-7524187Y-2190036D01*
X-7522991Y-2190345D01*
X-7521800Y-2190444D01*
X-7514616Y-2183260D02*
X-7514641Y-2183857D01*
X-7514843Y-2185053D01*
X-7515267Y-2186249D01*
X-7515961Y-2187445D01*
X-7517021Y-2188624D01*
X-7518217Y-2189487D01*
X-7519413Y-2190036D01*
X-7520609Y-2190345D01*
X-7521800Y-2190444D01*
X-7704680Y-2096900D02*
X-7628480Y-2096900D01*
X-7613240Y-2081025D01*
X-7613240Y-2017525D01*
X-7628480Y-2001650D01*
X-7704680Y-2001650D01*
X-7689440Y-1954025D02*
X-7704680Y-1938150D01*
X-7704680Y-1890525D01*
X-7689440Y-1874650D01*
X-7674200Y-1874650D01*
X-7658960Y-1890525D01*
X-7658960Y-1938150D01*
X-7643720Y-1954025D01*
X-7613240Y-1954025D01*
X-7613240Y-1874650D01*
X-5580000Y-1130000D02*
X-5575825Y-1109553D01*
X-5563008Y-1090645D01*
X-5541109Y-1073640D01*
X-5509688Y-1058906D01*
X-5468306Y-1046809D01*
X-5416524Y-1037715D01*
X-5353901Y-1031990D01*
X-5280000Y-1030000D01*
X-5580000Y-1130000D02*
X-5575825Y-1150447D01*
X-5563008Y-1169355D01*
X-5541109Y-1186360D01*
X-5509688Y-1201094D01*
X-5468306Y-1213191D01*
X-5416524Y-1222285D01*
X-5353901Y-1228010D01*
X-5280000Y-1230000D01*
X-5030000Y-1130000D02*
X-5034077Y-1109553D01*
X-5046211Y-1090645D01*
X-5066255Y-1073640D01*
X-5094062Y-1058906D01*
X-5129487Y-1046809D01*
X-5172383Y-1037715D01*
X-5222603Y-1031990D01*
X-5280000Y-1030000D01*
X-5030000Y-1130000D02*
X-5034077Y-1150447D01*
X-5046211Y-1169355D01*
X-5066255Y-1186360D01*
X-5094062Y-1201094D01*
X-5129487Y-1213191D01*
X-5172383Y-1222285D01*
X-5222603Y-1228010D01*
X-5280000Y-1230000D01*
X-5448250Y-947120D02*
X-5464125Y-962360D01*
X-5511750Y-962360D01*
X-5543500Y-931880D01*
X-5543500Y-901400D01*
X-5511750Y-870920D01*
X-5464125Y-870920D01*
X-5448250Y-886160D01*
X-5384750Y-901400D02*
X-5353000Y-870920D01*
X-5353000Y-962360D01*
X-5257750Y-901400D02*
X-5226000Y-870920D01*
X-5226000Y-962360D01*
X-5003200Y-3366695D02*
X-5765200Y-3366695D01*
X-5892200Y-3239695D01*
X-5892200Y-2985695D01*
X-5765200Y-2858695D01*
X-5003200Y-2858695D01*
X-4876200Y-2985695D01*
X-4876200Y-3239695D01*
X-5003200Y-3366695D01*
X-5511200Y-3407335D02*
X-5415950Y-3498775D01*
X-5511200Y-3498775D02*
X-5415950Y-3407335D01*
X-5352450Y-3437815D02*
X-5320700Y-3407335D01*
X-5320700Y-3498775D01*
X-6080000Y-3540000D02*
X-6075825Y-3519553D01*
X-6063008Y-3500645D01*
X-6041109Y-3483640D01*
X-6009688Y-3468906D01*
X-5968306Y-3456809D01*
X-5916524Y-3447715D01*
X-5853901Y-3441990D01*
X-5780000Y-3440000D01*
X-6080000Y-3540000D02*
X-6075825Y-3560447D01*
X-6063008Y-3579355D01*
X-6041109Y-3596360D01*
X-6009688Y-3611094D01*
X-5968306Y-3623191D01*
X-5916524Y-3632285D01*
X-5853901Y-3638010D01*
X-5780000Y-3640000D01*
X-5530000Y-3540000D02*
X-5534077Y-3519553D01*
X-5546211Y-3500645D01*
X-5566255Y-3483640D01*
X-5594062Y-3468906D01*
X-5629487Y-3456809D01*
X-5672383Y-3447715D01*
X-5722603Y-3441990D01*
X-5780000Y-3440000D01*
X-5530000Y-3540000D02*
X-5534077Y-3560447D01*
X-5546211Y-3579355D01*
X-5566255Y-3596360D01*
X-5594062Y-3611094D01*
X-5629487Y-3623191D01*
X-5672383Y-3632285D01*
X-5722603Y-3638010D01*
X-5780000Y-3640000D01*
X-5872050Y-3788920D02*
X-5887925Y-3804160D01*
X-5935550Y-3804160D01*
X-5967300Y-3773680D01*
X-5967300Y-3743200D01*
X-5935550Y-3712720D01*
X-5887925Y-3712720D01*
X-5872050Y-3727960D01*
X-5824425Y-3727960D02*
X-5808550Y-3712720D01*
X-5760925Y-3712720D01*
X-5745050Y-3727960D01*
X-5745050Y-3743200D01*
X-5760925Y-3758440D01*
X-5808550Y-3758440D01*
X-5824425Y-3773680D01*
X-5824425Y-3804160D01*
X-5745050Y-3804160D01*
X-4683005Y-3549205D02*
X-4687180Y-3569652D01*
X-4699997Y-3588560D01*
X-4721897Y-3605565D01*
X-4753318Y-3620299D01*
X-4794700Y-3632396D01*
X-4846482Y-3641490D01*
X-4909104Y-3647215D01*
X-4983005Y-3649205D01*
X-4683005Y-3549205D02*
X-4687180Y-3528758D01*
X-4699997Y-3509850D01*
X-4721897Y-3492845D01*
X-4753318Y-3478111D01*
X-4794700Y-3466014D01*
X-4846482Y-3456920D01*
X-4909104Y-3451195D01*
X-4983005Y-3449205D01*
X-5233005Y-3549205D02*
X-5228928Y-3569652D01*
X-5216794Y-3588560D01*
X-5196750Y-3605565D01*
X-5168942Y-3620299D01*
X-5133517Y-3632396D01*
X-5090622Y-3641490D01*
X-5040402Y-3647215D01*
X-4983005Y-3649205D01*
X-5233005Y-3549205D02*
X-5228928Y-3528758D01*
X-5216794Y-3509850D01*
X-5196750Y-3492845D01*
X-5168942Y-3478111D01*
X-5133517Y-3466014D01*
X-5090622Y-3456920D01*
X-5040402Y-3451195D01*
X-4983005Y-3449205D01*
X-4941755Y-3793045D02*
X-4957630Y-3808285D01*
X-5005255Y-3808285D01*
X-5037005Y-3777805D01*
X-5037005Y-3747325D01*
X-5005255Y-3716845D01*
X-4957630Y-3716845D01*
X-4941755Y-3732085D01*
X-4814755Y-3777805D02*
X-4910005Y-3777805D01*
X-4846505Y-3716845D01*
X-4846505Y-3808285D01*
X-7902800Y-1423800D02*
X-7267800Y-1423800D01*
X-7267800Y-661800D01*
X-7902800Y-661800D01*
X-7902800Y-1423800D01*
X-7775800Y-1423800D02*
X-7775800Y-661800D01*
X-7673920Y-1169800D02*
X-7658680Y-1169800D01*
X-7643440Y-1153925D01*
X-7643440Y-1090425D01*
X-7658680Y-1074550D01*
X-7734880Y-1074550D01*
X-7704400Y-1011050D02*
X-7734880Y-979300D01*
X-7643440Y-979300D01*
X-6327000Y+2800000D02*
X-6454000Y+2800000D01*
X-6962000Y+2736500D02*
X-6454000Y+2736500D01*
X-6454000Y+2863500D01*
X-6962000Y+2863500D01*
X-6962000Y+2736500D01*
X-6962000Y+2800000D02*
X-7089000Y+2800000D01*
X-6898500Y+2756820D02*
X-6898500Y+2848260D01*
X-6819125Y+2848260D01*
X-6803250Y+2833020D01*
X-6803250Y+2817780D01*
X-6819125Y+2802540D01*
X-6898500Y+2802540D01*
X-6819125Y+2802540D02*
X-6803250Y+2787300D01*
X-6803250Y+2756820D01*
X-6755625Y+2833020D02*
X-6739750Y+2848260D01*
X-6692125Y+2848260D01*
X-6676250Y+2833020D01*
X-6676250Y+2817780D01*
X-6692125Y+2802540D01*
X-6739750Y+2802540D01*
X-6755625Y+2787300D01*
X-6755625Y+2756820D01*
X-6676250Y+2756820D01*
X-6612750Y+2817780D02*
X-6581000Y+2848260D01*
X-6581000Y+2756820D01*
X-6327000Y+2190000D02*
X-6454000Y+2190000D01*
X-6962000Y+2126500D02*
X-6454000Y+2126500D01*
X-6454000Y+2253500D01*
X-6962000Y+2253500D01*
X-6962000Y+2126500D01*
X-6962000Y+2190000D02*
X-7089000Y+2190000D01*
X-6898500Y+2134120D02*
X-6898500Y+2225560D01*
X-6819125Y+2225560D01*
X-6803250Y+2210320D01*
X-6803250Y+2195080D01*
X-6819125Y+2179840D01*
X-6898500Y+2179840D01*
X-6819125Y+2179840D02*
X-6803250Y+2164600D01*
X-6803250Y+2134120D01*
X-6755625Y+2210320D02*
X-6739750Y+2225560D01*
X-6692125Y+2225560D01*
X-6676250Y+2210320D01*
X-6676250Y+2195080D01*
X-6692125Y+2179840D01*
X-6739750Y+2179840D01*
X-6755625Y+2164600D01*
X-6755625Y+2134120D01*
X-6676250Y+2134120D01*
X-6549250Y+2164600D02*
X-6644500Y+2164600D01*
X-6581000Y+2225560D01*
X-6581000Y+2134120D01*
X-7396000Y+2673000D02*
X-7396827Y+2693483D01*
X-7403545Y+2734450D01*
X-7417563Y+2775417D01*
X-7440341Y+2816384D01*
X-7475141Y+2857229D01*
X-7516108Y+2888845D01*
X-7557075Y+2909392D01*
X-7598042Y+2921629D01*
X-7639009Y+2926762D01*
X-7650000Y+2927000D01*
X-7904000Y+2673000D02*
X-7903173Y+2693483D01*
X-7896455Y+2734450D01*
X-7882437Y+2775417D01*
X-7859659Y+2816384D01*
X-7824859Y+2857229D01*
X-7783892Y+2888845D01*
X-7742925Y+2909392D01*
X-7701958Y+2921629D01*
X-7660991Y+2926762D01*
X-7650000Y+2927000D01*
X-7904000Y+2673000D02*
X-7903173Y+2652517D01*
X-7896455Y+2611550D01*
X-7882437Y+2570583D01*
X-7859659Y+2529616D01*
X-7824859Y+2488771D01*
X-7783892Y+2457155D01*
X-7742925Y+2436608D01*
X-7701958Y+2424371D01*
X-7660991Y+2419238D01*
X-7650000Y+2419000D01*
X-7396000Y+2673000D02*
X-7396827Y+2652517D01*
X-7403545Y+2611550D01*
X-7417563Y+2570583D01*
X-7440341Y+2529616D01*
X-7475141Y+2488771D01*
X-7516108Y+2457155D01*
X-7557075Y+2436608D01*
X-7598042Y+2424371D01*
X-7639009Y+2419238D01*
X-7650000Y+2419000D01*
X-7396000Y+2990500D02*
X-7396000Y+2863500D01*
X-7332500Y+2927000D02*
X-7459500Y+2927000D01*
X-7378220Y+2209450D02*
X-7469660Y+2209450D01*
X-7469660Y+2272950D01*
X-7439180Y+2304700D01*
X-7408700Y+2304700D01*
X-7378220Y+2272950D01*
X-7378220Y+2209450D01*
X-7439180Y+2368200D02*
X-7469660Y+2399950D01*
X-7378220Y+2399950D01*
X-7454420Y+2479325D02*
X-7469660Y+2495200D01*
X-7469660Y+2542825D01*
X-7454420Y+2558700D01*
X-7439180Y+2558700D01*
X-7423940Y+2542825D01*
X-7423940Y+2495200D01*
X-7408700Y+2479325D01*
X-7378220Y+2479325D01*
X-7378220Y+2558700D01*
X-7396000Y+2063000D02*
X-7396827Y+2083483D01*
X-7403545Y+2124450D01*
X-7417563Y+2165417D01*
X-7440341Y+2206384D01*
X-7475141Y+2247229D01*
X-7516108Y+2278845D01*
X-7557075Y+2299392D01*
X-7598042Y+2311629D01*
X-7639009Y+2316762D01*
X-7650000Y+2317000D01*
X-7904000Y+2063000D02*
X-7903173Y+2083483D01*
X-7896455Y+2124450D01*
X-7882437Y+2165417D01*
X-7859659Y+2206384D01*
X-7824859Y+2247229D01*
X-7783892Y+2278845D01*
X-7742925Y+2299392D01*
X-7701958Y+2311629D01*
X-7660991Y+2316762D01*
X-7650000Y+2317000D01*
X-7904000Y+2063000D02*
X-7903173Y+2042517D01*
X-7896455Y+2001550D01*
X-7882437Y+1960583D01*
X-7859659Y+1919616D01*
X-7824859Y+1878771D01*
X-7783892Y+1847155D01*
X-7742925Y+1826608D01*
X-7701958Y+1814371D01*
X-7660991Y+1809238D01*
X-7650000Y+1809000D01*
X-7396000Y+2063000D02*
X-7396827Y+2042517D01*
X-7403545Y+2001550D01*
X-7417563Y+1960583D01*
X-7440341Y+1919616D01*
X-7475141Y+1878771D01*
X-7516108Y+1847155D01*
X-7557075Y+1826608D01*
X-7598042Y+1814371D01*
X-7639009Y+1809238D01*
X-7650000Y+1809000D01*
X-7396000Y+2380500D02*
X-7396000Y+2253500D01*
X-7332500Y+2317000D02*
X-7459500Y+2317000D01*
X-7352820Y+1586750D02*
X-7444260Y+1586750D01*
X-7444260Y+1650250D01*
X-7413780Y+1682000D01*
X-7383300Y+1682000D01*
X-7352820Y+1650250D01*
X-7352820Y+1586750D01*
X-7413780Y+1745500D02*
X-7444260Y+1777250D01*
X-7352820Y+1777250D01*
X-7444260Y+1936000D02*
X-7444260Y+1856625D01*
X-7413780Y+1856625D01*
X-7413780Y+1920125D01*
X-7398540Y+1936000D01*
X-7368060Y+1936000D01*
X-7352820Y+1920125D01*
X-7352820Y+1872500D01*
X-7368060Y+1856625D01*
X-7396000Y+1467000D02*
X-7396827Y+1487483D01*
X-7403545Y+1528450D01*
X-7417563Y+1569417D01*
X-7440341Y+1610384D01*
X-7475141Y+1651229D01*
X-7516108Y+1682845D01*
X-7557075Y+1703392D01*
X-7598042Y+1715629D01*
X-7639009Y+1720762D01*
X-7650000Y+1721000D01*
X-7904000Y+1467000D02*
X-7903173Y+1487483D01*
X-7896455Y+1528450D01*
X-7882437Y+1569417D01*
X-7859659Y+1610384D01*
X-7824859Y+1651229D01*
X-7783892Y+1682845D01*
X-7742925Y+1703392D01*
X-7701958Y+1715629D01*
X-7660991Y+1720762D01*
X-7650000Y+1721000D01*
X-7904000Y+1467000D02*
X-7903173Y+1446517D01*
X-7896455Y+1405550D01*
X-7882437Y+1364583D01*
X-7859659Y+1323616D01*
X-7824859Y+1282771D01*
X-7783892Y+1251155D01*
X-7742925Y+1230608D01*
X-7701958Y+1218371D01*
X-7660991Y+1213238D01*
X-7650000Y+1213000D01*
X-7396000Y+1467000D02*
X-7396827Y+1446517D01*
X-7403545Y+1405550D01*
X-7417563Y+1364583D01*
X-7440341Y+1323616D01*
X-7475141Y+1282771D01*
X-7516108Y+1251155D01*
X-7557075Y+1230608D01*
X-7598042Y+1218371D01*
X-7639009Y+1213238D01*
X-7650000Y+1213000D01*
X-7396000Y+1784500D02*
X-7396000Y+1657500D01*
X-7332500Y+1721000D02*
X-7459500Y+1721000D01*
X-7390920Y+990750D02*
X-7482360Y+990750D01*
X-7482360Y+1054250D01*
X-7451880Y+1086000D01*
X-7421400Y+1086000D01*
X-7390920Y+1054250D01*
X-7390920Y+990750D01*
X-7451880Y+1149500D02*
X-7482360Y+1181250D01*
X-7390920Y+1181250D01*
X-7467120Y+1340000D02*
X-7482360Y+1324125D01*
X-7482360Y+1276500D01*
X-7467120Y+1260625D01*
X-7406160Y+1260625D01*
X-7390920Y+1276500D01*
X-7390920Y+1324125D01*
X-7406160Y+1340000D01*
X-7421400Y+1340000D01*
X-7436640Y+1324125D01*
X-7436640Y+1260625D01*
X-7396000Y+867000D02*
X-7396827Y+887483D01*
X-7403545Y+928450D01*
X-7417563Y+969417D01*
X-7440341Y+1010384D01*
X-7475141Y+1051229D01*
X-7516108Y+1082845D01*
X-7557075Y+1103392D01*
X-7598042Y+1115629D01*
X-7639009Y+1120762D01*
X-7650000Y+1121000D01*
X-7904000Y+867000D02*
X-7903173Y+887483D01*
X-7896455Y+928450D01*
X-7882437Y+969417D01*
X-7859659Y+1010384D01*
X-7824859Y+1051229D01*
X-7783892Y+1082845D01*
X-7742925Y+1103392D01*
X-7701958Y+1115629D01*
X-7660991Y+1120762D01*
X-7650000Y+1121000D01*
X-7904000Y+867000D02*
X-7903173Y+846517D01*
X-7896455Y+805550D01*
X-7882437Y+764583D01*
X-7859659Y+723616D01*
X-7824859Y+682771D01*
X-7783892Y+651155D01*
X-7742925Y+630608D01*
X-7701958Y+618371D01*
X-7660991Y+613238D01*
X-7650000Y+613000D01*
X-7396000Y+867000D02*
X-7396827Y+846517D01*
X-7403545Y+805550D01*
X-7417563Y+764583D01*
X-7440341Y+723616D01*
X-7475141Y+682771D01*
X-7516108Y+651155D01*
X-7557075Y+630608D01*
X-7598042Y+618371D01*
X-7639009Y+613238D01*
X-7650000Y+613000D01*
X-7396000Y+1184500D02*
X-7396000Y+1057500D01*
X-7332500Y+1121000D02*
X-7459500Y+1121000D01*
X-7378220Y+390750D02*
X-7469660Y+390750D01*
X-7469660Y+454250D01*
X-7439180Y+486000D01*
X-7408700Y+486000D01*
X-7378220Y+454250D01*
X-7378220Y+390750D01*
X-7439180Y+549500D02*
X-7469660Y+581250D01*
X-7378220Y+581250D01*
X-7469660Y+660625D02*
X-7469660Y+740000D01*
X-7454420Y+740000D01*
X-7378220Y+660625D01*
X-6327000Y+1590000D02*
X-6454000Y+1590000D01*
X-6962000Y+1526500D02*
X-6454000Y+1526500D01*
X-6454000Y+1653500D01*
X-6962000Y+1653500D01*
X-6962000Y+1526500D01*
X-6962000Y+1590000D02*
X-7089000Y+1590000D01*
X-6898500Y+1546820D02*
X-6898500Y+1638260D01*
X-6819125Y+1638260D01*
X-6803250Y+1623020D01*
X-6803250Y+1607780D01*
X-6819125Y+1592540D01*
X-6898500Y+1592540D01*
X-6819125Y+1592540D02*
X-6803250Y+1577300D01*
X-6803250Y+1546820D01*
X-6755625Y+1623020D02*
X-6739750Y+1638260D01*
X-6692125Y+1638260D01*
X-6676250Y+1623020D01*
X-6676250Y+1607780D01*
X-6692125Y+1592540D01*
X-6739750Y+1592540D01*
X-6755625Y+1577300D01*
X-6755625Y+1546820D01*
X-6676250Y+1546820D01*
X-6549250Y+1638260D02*
X-6628625Y+1638260D01*
X-6628625Y+1607780D01*
X-6565125Y+1607780D01*
X-6549250Y+1592540D01*
X-6549250Y+1562060D01*
X-6565125Y+1546820D01*
X-6612750Y+1546820D01*
X-6628625Y+1562060D01*
X-6327000Y+990000D02*
X-6454000Y+990000D01*
X-6962000Y+926500D02*
X-6454000Y+926500D01*
X-6454000Y+1053500D01*
X-6962000Y+1053500D01*
X-6962000Y+926500D01*
X-6962000Y+990000D02*
X-7089000Y+990000D01*
X-6885800Y+946820D02*
X-6885800Y+1038260D01*
X-6806425Y+1038260D01*
X-6790550Y+1023020D01*
X-6790550Y+1007780D01*
X-6806425Y+992540D01*
X-6885800Y+992540D01*
X-6806425Y+992540D02*
X-6790550Y+977300D01*
X-6790550Y+946820D01*
X-6742925Y+1023020D02*
X-6727050Y+1038260D01*
X-6679425Y+1038260D01*
X-6663550Y+1023020D01*
X-6663550Y+1007780D01*
X-6679425Y+992540D01*
X-6727050Y+992540D01*
X-6742925Y+977300D01*
X-6742925Y+946820D01*
X-6663550Y+946820D01*
X-6536550Y+1023020D02*
X-6552425Y+1038260D01*
X-6600050Y+1038260D01*
X-6615925Y+1023020D01*
X-6615925Y+962060D01*
X-6600050Y+946820D01*
X-6552425Y+946820D01*
X-6536550Y+962060D01*
X-6536550Y+977300D01*
X-6552425Y+992540D01*
X-6615925Y+992540D01*
X-4697000Y-297000D02*
X-4443000Y-297000D01*
X-4443000Y+211000D01*
X-4697000Y+211000D01*
X-4697000Y-297000D01*
X-4737640Y-297000D02*
X-4829080Y-297000D01*
X-4829080Y-217625D01*
X-4813840Y-201750D01*
X-4798600Y-201750D01*
X-4783360Y-217625D01*
X-4768120Y-201750D01*
X-4752880Y-201750D01*
X-4737640Y-217625D01*
X-4737640Y-297000D01*
X-4783360Y-297000D02*
X-4783360Y-217625D01*
X-4829080Y-170000D02*
X-4752880Y-170000D01*
X-4737640Y-154125D01*
X-4737640Y-90625D01*
X-4752880Y-74750D01*
X-4829080Y-74750D01*
X-4829080Y-43000D02*
X-4829080Y+52250D01*
X-4737640Y-43000D01*
X-4737640Y+52250D01*
X-4798600Y+115750D02*
X-4829080Y+147500D01*
X-4737640Y+147500D01*
D71*
X+470000Y+1770000D02*
X+466360Y+1874440D01*
X+436912Y+2083321D01*
X+376167Y+2292202D01*
X+279778Y+2501083D01*
X+138960Y+2709964D01*
X-57525Y+2912056D01*
X-266406Y+3061094D01*
X-475287Y+3163662D01*
X-684168Y+3229589D01*
X-893049Y+3263735D01*
X-1030000Y+3270000D01*
X-2530000Y+1770000D02*
X-2526360Y+1874440D01*
X-2496912Y+2083321D01*
X-2436167Y+2292202D01*
X-2339778Y+2501083D01*
X-2198960Y+2709964D01*
X-2002475Y+2912056D01*
X-1793594Y+3061094D01*
X-1584713Y+3163662D01*
X-1375832Y+3229589D01*
X-1166951Y+3263735D01*
X-1030000Y+3270000D01*
X-2530000Y+1770000D02*
X-2526360Y+1665560D01*
X-2496912Y+1456679D01*
X-2436167Y+1247798D01*
X-2339778Y+1038917D01*
X-2198960Y+830036D01*
X-2002475Y+627944D01*
X-1793594Y+478906D01*
X-1584713Y+376338D01*
X-1375832Y+310411D01*
X-1166951Y+276265D01*
X-1030000Y+270000D01*
X+470000Y+1770000D02*
X+466360Y+1665560D01*
X+436912Y+1456679D01*
X+376167Y+1247798D01*
X+279778Y+1038917D01*
X+138960Y+830036D01*
X-57525Y+627944D01*
X-266406Y+478906D01*
X-475287Y+376338D01*
X-684168Y+310411D01*
X-893049Y+276265D01*
X-1030000Y+270000D01*
X-860000Y+1590000D02*
X-860502Y+1602258D01*
X-864578Y+1626775D01*
X-873094Y+1651292D01*
X-886968Y+1675809D01*
X-908194Y+1700161D01*
X-932711Y+1718555D01*
X-957228Y+1730411D01*
X-981745Y+1737315D01*
X-1006262Y+1739953D01*
X-1010000Y+1740000D01*
X-1160000Y+1590000D02*
X-1159498Y+1602258D01*
X-1155422Y+1626775D01*
X-1146906Y+1651292D01*
X-1133032Y+1675809D01*
X-1111806Y+1700161D01*
X-1087289Y+1718555D01*
X-1062772Y+1730411D01*
X-1038255Y+1737315D01*
X-1013738Y+1739953D01*
X-1010000Y+1740000D01*
X-1160000Y+1590000D02*
X-1159498Y+1577742D01*
X-1155422Y+1553225D01*
X-1146906Y+1528708D01*
X-1133032Y+1504191D01*
X-1111806Y+1479839D01*
X-1087289Y+1461445D01*
X-1062772Y+1449589D01*
X-1038255Y+1442685D01*
X-1013738Y+1440047D01*
X-1010000Y+1440000D01*
X-860000Y+1590000D02*
X-860502Y+1577742D01*
X-864578Y+1553225D01*
X-873094Y+1528708D01*
X-886968Y+1504191D01*
X-908194Y+1479839D01*
X-932711Y+1461445D01*
X-957228Y+1449589D01*
X-981745Y+1442685D01*
X-1006262Y+1440047D01*
X-1010000Y+1440000D01*
X-1610000Y+2036800D02*
X-1610000Y+2189200D01*
X-1483000Y+2189200D01*
X-1457600Y+2163800D01*
X-1457600Y+2138400D01*
X-1483000Y+2113000D01*
X-1457600Y+2087600D01*
X-1457600Y+2062200D01*
X-1483000Y+2036800D01*
X-1610000Y+2036800D01*
X-1610000Y+2113000D02*
X-1483000Y+2113000D01*
X-1406800Y+2189200D02*
X-1406800Y+2062200D01*
X-1381400Y+2036800D01*
X-1279800Y+2036800D01*
X-1254400Y+2062200D01*
X-1254400Y+2189200D01*
X-1203600Y+2189200D02*
X-1051200Y+2189200D01*
X-1203600Y+2036800D01*
X-1051200Y+2036800D01*
X-1000400Y+2189200D02*
X-848000Y+2189200D01*
X-1000400Y+2036800D01*
X-848000Y+2036800D01*
X-644800Y+2036800D02*
X-797200Y+2036800D01*
X-797200Y+2189200D01*
X-644800Y+2189200D01*
X-797200Y+2113000D02*
X-695600Y+2113000D01*
X-594000Y+2036800D02*
X-594000Y+2189200D01*
X-467000Y+2189200D01*
X-441600Y+2163800D01*
X-441600Y+2138400D01*
X-467000Y+2113000D01*
X-594000Y+2113000D01*
X-467000Y+2113000D02*
X-441600Y+2087600D01*
X-441600Y+2036800D01*
D70*
X-819160Y-4746000D02*
X-57160Y-4746000D01*
X-57160Y-5762000D02*
X-819160Y-5762000D01*
X-819160Y-4746000D02*
X-819160Y-5762000D01*
X-57160Y-4746000D02*
X-57160Y-5762000D01*
X+44440Y-5381000D02*
X+59680Y-5381000D01*
X+74920Y-5365125D01*
X+74920Y-5301625D01*
X+59680Y-5285750D01*
X-16520Y-5285750D01*
X-16520Y-5158750D02*
X-16520Y-5238125D01*
X+13960Y-5238125D01*
X+13960Y-5174625D01*
X+29200Y-5158750D01*
X+59680Y-5158750D01*
X+74920Y-5174625D01*
X+74920Y-5222250D01*
X+59680Y-5238125D01*
X-6141000Y-1880000D02*
X-6268000Y-1880000D01*
X-6776000Y-1943500D02*
X-6268000Y-1943500D01*
X-6268000Y-1816500D01*
X-6776000Y-1816500D01*
X-6776000Y-1943500D01*
X-6776000Y-1880000D02*
X-6903000Y-1880000D01*
X-6712500Y-1925580D02*
X-6712500Y-1834140D01*
X-6633125Y-1834140D01*
X-6617250Y-1849380D01*
X-6617250Y-1864620D01*
X-6633125Y-1879860D01*
X-6712500Y-1879860D01*
X-6633125Y-1879860D02*
X-6617250Y-1895100D01*
X-6617250Y-1925580D01*
X-6569625Y-1849380D02*
X-6553750Y-1834140D01*
X-6506125Y-1834140D01*
X-6490250Y-1849380D01*
X-6490250Y-1864620D01*
X-6506125Y-1879860D01*
X-6553750Y-1879860D01*
X-6569625Y-1895100D01*
X-6569625Y-1925580D01*
X-6490250Y-1925580D01*
X-6442625Y-1834140D02*
X-6363250Y-1834140D01*
X-6363250Y-1849380D01*
X-6442625Y-1925580D01*
X-6650000Y-3739000D02*
X-6650000Y-3612000D01*
X-6713500Y-3612000D02*
X-6586500Y-3612000D01*
X-6586500Y-3104000D01*
X-6713500Y-3104000D01*
X-6713500Y-3612000D01*
X-6650000Y-3104000D02*
X-6650000Y-2977000D01*
X-6604140Y-3548500D02*
X-6695580Y-3548500D01*
X-6695580Y-3469125D01*
X-6680340Y-3453250D01*
X-6665100Y-3453250D01*
X-6649860Y-3469125D01*
X-6649860Y-3548500D01*
X-6649860Y-3469125D02*
X-6634620Y-3453250D01*
X-6604140Y-3453250D01*
X-6680340Y-3405625D02*
X-6695580Y-3389750D01*
X-6695580Y-3342125D01*
X-6680340Y-3326250D01*
X-6665100Y-3326250D01*
X-6649860Y-3342125D01*
X-6649860Y-3389750D01*
X-6634620Y-3405625D01*
X-6604140Y-3405625D01*
X-6604140Y-3326250D01*
X-6649860Y-3262750D02*
X-6665100Y-3278625D01*
X-6680340Y-3278625D01*
X-6695580Y-3262750D01*
X-6695580Y-3215125D01*
X-6680340Y-3199250D01*
X-6665100Y-3199250D01*
X-6649860Y-3215125D01*
X-6649860Y-3262750D01*
X-6634620Y-3278625D01*
X-6619380Y-3278625D01*
X-6604140Y-3262750D01*
X-6604140Y-3215125D01*
X-6619380Y-3199250D01*
X-6634620Y-3199250D01*
X-6649860Y-3215125D01*
X-2915160Y-5185000D02*
X-3042160Y-5185000D01*
X-3169160Y-5058000D02*
X-3195036Y-5060436D01*
X-3219008Y-5067485D01*
X-3240598Y-5078762D01*
X-3259330Y-5093878D01*
X-3274729Y-5112446D01*
X-3286318Y-5134081D01*
X-3293620Y-5158394D01*
X-3296160Y-5185000D01*
X-3169160Y-5058000D02*
X-3142554Y-5060436D01*
X-3118241Y-5067485D01*
X-3096606Y-5078762D01*
X-3078038Y-5093878D01*
X-3062922Y-5112446D01*
X-3051645Y-5134081D01*
X-3044596Y-5158394D01*
X-3042160Y-5185000D01*
X-3296160Y-5185000D02*
X-3423160Y-5185000D01*
X-2915160Y-4423000D02*
X-3423160Y-4423000D01*
X-2915160Y-5185000D02*
X-2915160Y-4423000D01*
X-3423160Y-5185000D02*
X-3423160Y-4423000D01*
X-3296160Y-5225640D02*
X-3296160Y-5301840D01*
X-3280285Y-5317080D01*
X-3216785Y-5317080D01*
X-3200910Y-5301840D01*
X-3200910Y-5225640D01*
X-3073910Y-5286600D02*
X-3169160Y-5286600D01*
X-3105660Y-5225640D01*
X-3105660Y-5317080D01*
X-2039240Y-6732080D02*
X-1521080Y-6732080D01*
X-1521080Y-6465380D01*
X-2039240Y-6465380D01*
X-2039240Y-6732080D01*
X-1957960Y-6467920D02*
X-1957960Y-6729540D01*
X-2110360Y-6600000D02*
X-2039240Y-6600000D01*
X-1521080Y-6600000D02*
X-1449960Y-6600000D01*
X-1970660Y-6674740D02*
X-1970660Y-6583300D01*
X-1907160Y-6583300D01*
X-1875410Y-6613780D01*
X-1875410Y-6644260D01*
X-1907160Y-6674740D01*
X-1970660Y-6674740D01*
X-1811910Y-6613780D02*
X-1780160Y-6583300D01*
X-1780160Y-6674740D01*
X-1684910Y-6629020D02*
X-1700785Y-6613780D01*
X-1700785Y-6598540D01*
X-1684910Y-6583300D01*
X-1637285Y-6583300D01*
X-1621410Y-6598540D01*
X-1621410Y-6613780D01*
X-1637285Y-6629020D01*
X-1684910Y-6629020D01*
X-1700785Y-6644260D01*
X-1700785Y-6659500D01*
X-1684910Y-6674740D01*
X-1637285Y-6674740D01*
X-1621410Y-6659500D01*
X-1621410Y-6644260D01*
X-1637285Y-6629020D01*
X-1415160Y-6100000D02*
X-1542160Y-6100000D01*
X-2050160Y-6163500D02*
X-1542160Y-6163500D01*
X-1542160Y-6036500D01*
X-2050160Y-6036500D01*
X-2050160Y-6163500D01*
X-2050160Y-6100000D02*
X-2177160Y-6100000D01*
X-1986660Y-6145580D02*
X-1986660Y-6054140D01*
X-1907285Y-6054140D01*
X-1891410Y-6069380D01*
X-1891410Y-6084620D01*
X-1907285Y-6099860D01*
X-1986660Y-6099860D01*
X-1907285Y-6099860D02*
X-1891410Y-6115100D01*
X-1891410Y-6145580D01*
X-1827910Y-6084620D02*
X-1796160Y-6054140D01*
X-1796160Y-6145580D01*
X-1700910Y-6099860D02*
X-1716785Y-6084620D01*
X-1716785Y-6069380D01*
X-1700910Y-6054140D01*
X-1653285Y-6054140D01*
X-1637410Y-6069380D01*
X-1637410Y-6084620D01*
X-1653285Y-6099860D01*
X-1700910Y-6099860D01*
X-1716785Y-6115100D01*
X-1716785Y-6130340D01*
X-1700910Y-6145580D01*
X-1653285Y-6145580D01*
X-1637410Y-6130340D01*
X-1637410Y-6115100D01*
X-1653285Y-6099860D01*
X-2177160Y-5650000D02*
X-2050160Y-5650000D01*
X-2050160Y-5713500D02*
X-1542160Y-5713500D01*
X-1542160Y-5586500D01*
X-2050160Y-5586500D01*
X-2050160Y-5713500D01*
X-1542160Y-5650000D02*
X-1415160Y-5650000D01*
X-1986660Y-5695860D02*
X-1986660Y-5604420D01*
X-1907285Y-5604420D01*
X-1891410Y-5619660D01*
X-1891410Y-5634900D01*
X-1907285Y-5650140D01*
X-1986660Y-5650140D01*
X-1907285Y-5650140D02*
X-1891410Y-5665380D01*
X-1891410Y-5695860D01*
X-1843785Y-5619660D02*
X-1827910Y-5604420D01*
X-1780285Y-5604420D01*
X-1764410Y-5619660D01*
X-1764410Y-5634900D01*
X-1780285Y-5650140D01*
X-1827910Y-5650140D01*
X-1843785Y-5665380D01*
X-1843785Y-5695860D01*
X-1764410Y-5695860D01*
X-1637410Y-5634900D02*
X-1653285Y-5650140D01*
X-1700910Y-5650140D01*
X-1716785Y-5634900D01*
X-1716785Y-5619660D01*
X-1700910Y-5604420D01*
X-1653285Y-5604420D01*
X-1637410Y-5619660D01*
X-1637410Y-5680620D01*
X-1653285Y-5695860D01*
X-1700910Y-5695860D01*
X-7153000Y-2080000D02*
X-7026000Y-2080000D01*
X-7026000Y-2143500D02*
X-6518000Y-2143500D01*
X-6518000Y-2016500D01*
X-7026000Y-2016500D01*
X-7026000Y-2143500D01*
X-6518000Y-2080000D02*
X-6391000Y-2080000D01*
X-6962500Y-2125860D02*
X-6962500Y-2034420D01*
X-6883125Y-2034420D01*
X-6867250Y-2049660D01*
X-6867250Y-2064900D01*
X-6883125Y-2080140D01*
X-6962500Y-2080140D01*
X-6883125Y-2080140D02*
X-6867250Y-2095380D01*
X-6867250Y-2125860D01*
X-6819625Y-2049660D02*
X-6803750Y-2034420D01*
X-6756125Y-2034420D01*
X-6740250Y-2049660D01*
X-6740250Y-2064900D01*
X-6756125Y-2080140D01*
X-6740250Y-2095380D01*
X-6740250Y-2110620D01*
X-6756125Y-2125860D01*
X-6803750Y-2125860D01*
X-6819625Y-2110620D01*
X-6787875Y-2080140D02*
X-6756125Y-2080140D01*
X-6708500Y-2110620D02*
X-6708500Y-2049660D01*
X-6692625Y-2034420D01*
X-6629125Y-2034420D01*
X-6613250Y-2049660D01*
X-6613250Y-2110620D01*
X-6629125Y-2125860D01*
X-6692625Y-2125860D01*
X-6708500Y-2110620D01*
X-6708500Y-2125860D02*
X-6613250Y-2034420D01*
X-2055240Y-5284620D02*
X-1537080Y-5284620D01*
X-1537080Y-5017920D01*
X-2055240Y-5017920D01*
X-2055240Y-5284620D01*
X-1618360Y-5282080D02*
X-1618360Y-5020460D01*
X-1465960Y-5150000D02*
X-1537080Y-5150000D01*
X-2055240Y-5150000D02*
X-2126360Y-5150000D01*
X-1986660Y-5216700D02*
X-1986660Y-5125260D01*
X-1923160Y-5125260D01*
X-1891410Y-5155740D01*
X-1891410Y-5186220D01*
X-1923160Y-5216700D01*
X-1986660Y-5216700D01*
X-1827910Y-5155740D02*
X-1796160Y-5125260D01*
X-1796160Y-5216700D01*
X-1637410Y-5155740D02*
X-1653285Y-5170980D01*
X-1700910Y-5170980D01*
X-1716785Y-5155740D01*
X-1716785Y-5140500D01*
X-1700910Y-5125260D01*
X-1653285Y-5125260D01*
X-1637410Y-5140500D01*
X-1637410Y-5201460D01*
X-1653285Y-5216700D01*
X-1700910Y-5216700D01*
D71*
X+827800Y-3750000D02*
X+853200Y-3724600D01*
X+853200Y-3623000D01*
X+827800Y-3597600D01*
X+802400Y-3597600D01*
X+777000Y-3623000D01*
X+777000Y-3724600D01*
X+751600Y-3750000D01*
X+726200Y-3750000D01*
X+700800Y-3724600D01*
X+700800Y-3623000D01*
X+726200Y-3597600D01*
X+751600Y-3521400D02*
X+751600Y-3419800D01*
X+777000Y-3394400D01*
X+853200Y-3394400D01*
X+853200Y-3521400D01*
X+827800Y-3546800D01*
X+802400Y-3521400D01*
X+802400Y-3394400D01*
X+700800Y-3267400D02*
X+853200Y-3267400D01*
X+751600Y-3064200D02*
X+853200Y-3064200D01*
X+700800Y-3064200D02*
X+700800Y-3064200D01*
X+777000Y-2784800D02*
X+751600Y-2810200D01*
X+751600Y-2911800D01*
X+777000Y-2937200D01*
X+827800Y-2937200D01*
X+853200Y-2911800D01*
X+853200Y-2810200D01*
X+827800Y-2784800D01*
X+853200Y-2784800D02*
X+700800Y-2784800D01*
X+751600Y-2708600D02*
X+751600Y-2607000D01*
X+777000Y-2581600D01*
X+853200Y-2581600D01*
X+853200Y-2708600D01*
X+827800Y-2734000D01*
X+802400Y-2708600D01*
X+802400Y-2581600D01*
X+751600Y-2302200D02*
X+751600Y-2200600D01*
X+777000Y-2175200D01*
X+853200Y-2175200D01*
X+853200Y-2302200D01*
X+827800Y-2327600D01*
X+802400Y-2302200D01*
X+802400Y-2175200D01*
X+700800Y-1921200D02*
X+700800Y-1768800D01*
X+700800Y-1845000D02*
X+853200Y-1845000D01*
X+853200Y-1718000D02*
X+751600Y-1718000D01*
X+777000Y-1718000D02*
X+751600Y-1692600D01*
X+751600Y-1591000D01*
X+777000Y-1565600D01*
X+751600Y-1489400D02*
X+751600Y-1387800D01*
X+777000Y-1362400D01*
X+853200Y-1362400D01*
X+853200Y-1489400D01*
X+827800Y-1514800D01*
X+802400Y-1489400D01*
X+802400Y-1362400D01*
X+853200Y-1311600D02*
X+751600Y-1311600D01*
X+777000Y-1311600D02*
X+751600Y-1286200D01*
X+751600Y-1184600D01*
X+777000Y-1159200D01*
X+853200Y-1159200D01*
X+751600Y-981400D02*
X+751600Y-1083000D01*
X+777000Y-1108400D01*
X+802400Y-1083000D01*
X+802400Y-981400D01*
X+827800Y-956000D01*
X+853200Y-981400D01*
X+853200Y-1108400D01*
X+853200Y-879800D02*
X+726200Y-879800D01*
X+700800Y-854400D01*
X+700800Y-778200D01*
X+726200Y-752800D01*
X+777000Y-905200D02*
X+777000Y-803600D01*
X+777000Y-702000D02*
X+751600Y-676600D01*
X+751600Y-575000D01*
X+777000Y-549600D01*
X+827800Y-549600D01*
X+853200Y-575000D01*
X+853200Y-676600D01*
X+827800Y-702000D01*
X+777000Y-702000D01*
X+853200Y-498800D02*
X+751600Y-498800D01*
X+777000Y-498800D02*
X+751600Y-473400D01*
X+751600Y-371800D01*
X+777000Y-346400D01*
X+853200Y-295600D02*
X+751600Y-295600D01*
X+777000Y-295600D02*
X+751600Y-270200D01*
X+802400Y-219400D01*
X+751600Y-168600D01*
X+777000Y-143200D01*
X+853200Y-143200D01*
X+751600Y-67000D02*
X+751600Y+34600D01*
X+777000Y+60000D01*
X+853200Y+60000D01*
X+853200Y-67000D01*
X+827800Y-92400D01*
X+802400Y-67000D01*
X+802400Y+60000D01*
X+777000Y+263200D02*
X+751600Y+237800D01*
X+751600Y+136200D01*
X+777000Y+110800D01*
X+827800Y+110800D01*
X+853200Y+136200D01*
X+853200Y+237800D01*
X+827800Y+263200D01*
X+853200Y+263200D02*
X+700800Y+263200D01*
X+777000Y+314000D02*
X+751600Y+339400D01*
X+751600Y+441000D01*
X+777000Y+466400D01*
X+827800Y+466400D01*
X+853200Y+441000D01*
X+853200Y+339400D01*
X+827800Y+314000D01*
X+777000Y+314000D01*
X+853200Y+517200D02*
X+751600Y+517200D01*
X+777000Y+517200D02*
X+751600Y+542600D01*
X+751600Y+644200D01*
X+777000Y+669600D01*
X-6850000Y-6027800D02*
X-6824600Y-6053200D01*
X-6723000Y-6053200D01*
X-6697600Y-6027800D01*
X-6697600Y-6002400D01*
X-6723000Y-5977000D01*
X-6824600Y-5977000D01*
X-6850000Y-5951600D01*
X-6850000Y-5926200D01*
X-6824600Y-5900800D01*
X-6723000Y-5900800D01*
X-6697600Y-5926200D01*
X-6646800Y-6002400D02*
X-6494400Y-6002400D01*
X-6494400Y-5977000D01*
X-6519800Y-5951600D01*
X-6621400Y-5951600D01*
X-6646800Y-5977000D01*
X-6646800Y-6027800D01*
X-6621400Y-6053200D01*
X-6519800Y-6053200D01*
X-6443600Y-6053200D02*
X-6443600Y-5951600D01*
X-6443600Y-5977000D02*
X-6418200Y-5951600D01*
X-6316600Y-5951600D01*
X-6291200Y-5977000D01*
X-6291200Y-6053200D01*
X-6113400Y-5951600D02*
X-6215000Y-5951600D01*
X-6240400Y-5977000D01*
X-6215000Y-6002400D01*
X-6113400Y-6002400D01*
X-6088000Y-6027800D01*
X-6113400Y-6053200D01*
X-6240400Y-6053200D01*
X-6011800Y-5951600D02*
X-5910200Y-5951600D01*
X-5884800Y-5977000D01*
X-5884800Y-6053200D01*
X-6011800Y-6053200D01*
X-6037200Y-6027800D01*
X-6011800Y-6002400D01*
X-5884800Y-6002400D01*
X-5681600Y-5977000D02*
X-5707000Y-5951600D01*
X-5808600Y-5951600D01*
X-5834000Y-5977000D01*
X-5834000Y-6027800D01*
X-5808600Y-6053200D01*
X-5707000Y-6053200D01*
X-5681600Y-6027800D01*
X-5681600Y-6053200D02*
X-5681600Y-5900800D01*
X-5630800Y-5977000D02*
X-5605400Y-5951600D01*
X-5503800Y-5951600D01*
X-5478400Y-5977000D01*
X-5478400Y-6027800D01*
X-5503800Y-6053200D01*
X-5605400Y-6053200D01*
X-5630800Y-6027800D01*
X-5630800Y-5977000D01*
X-5072000Y-5977000D02*
X-5097400Y-5951600D01*
X-5199000Y-5951600D01*
X-5224400Y-5977000D01*
X-5224400Y-6027800D01*
X-5199000Y-6053200D01*
X-5097400Y-6053200D01*
X-5072000Y-6027800D01*
X-5072000Y-6053200D02*
X-5072000Y-5900800D01*
X-5021200Y-6002400D02*
X-4868800Y-6002400D01*
X-4868800Y-5977000D01*
X-4894200Y-5951600D01*
X-4995800Y-5951600D01*
X-5021200Y-5977000D01*
X-5021200Y-6027800D01*
X-4995800Y-6053200D01*
X-4894200Y-6053200D01*
X-4741800Y-5900800D02*
X-4741800Y-6053200D01*
X-4284600Y-5951600D02*
X-4386200Y-5951600D01*
X-4411600Y-5977000D01*
X-4386200Y-6002400D01*
X-4284600Y-6002400D01*
X-4259200Y-6027800D01*
X-4284600Y-6053200D01*
X-4411600Y-6053200D01*
X-4208400Y-6002400D02*
X-4056000Y-6002400D01*
X-4056000Y-5977000D01*
X-4081400Y-5951600D01*
X-4183000Y-5951600D01*
X-4208400Y-5977000D01*
X-4208400Y-6027800D01*
X-4183000Y-6053200D01*
X-4081400Y-6053200D01*
X-3852800Y-5977000D02*
X-3878200Y-5951600D01*
X-3979800Y-5951600D01*
X-4005200Y-5977000D01*
X-4005200Y-6027800D01*
X-3979800Y-6053200D01*
X-3878200Y-6053200D01*
X-3852800Y-6027800D01*
X-3802000Y-5951600D02*
X-3802000Y-6027800D01*
X-3776600Y-6053200D01*
X-3675000Y-6053200D01*
X-3649600Y-6027800D01*
X-3649600Y-6053200D02*
X-3649600Y-5951600D01*
X-3598800Y-6053200D02*
X-3598800Y-5951600D01*
X-3598800Y-5977000D02*
X-3573400Y-5951600D01*
X-3471800Y-5951600D01*
X-3446400Y-5977000D01*
X-3446400Y-6053200D01*
X-3243200Y-5977000D02*
X-3268600Y-5951600D01*
X-3370200Y-5951600D01*
X-3395600Y-5977000D01*
X-3395600Y-6027800D01*
X-3370200Y-6053200D01*
X-3268600Y-6053200D01*
X-3243200Y-6027800D01*
X-3243200Y-6053200D02*
X-3243200Y-5900800D01*
X-3167000Y-5951600D02*
X-3065400Y-5951600D01*
X-3040000Y-5977000D01*
X-3040000Y-6053200D01*
X-3167000Y-6053200D01*
X-3192400Y-6027800D01*
X-3167000Y-6002400D01*
X-3040000Y-6002400D01*
X-2989200Y-6053200D02*
X-2989200Y-5951600D01*
X-2989200Y-5977000D02*
X-2963800Y-5951600D01*
X-2862200Y-5951600D01*
X-2836800Y-5977000D01*
X-2709800Y-5951600D02*
X-2709800Y-6053200D01*
X-2709800Y-5900800D02*
X-2709800Y-5900800D01*
X-2582800Y-5977000D02*
X-2557400Y-5951600D01*
X-2455800Y-5951600D01*
X-2430400Y-5977000D01*
X-2430400Y-6027800D01*
X-2455800Y-6053200D01*
X-2557400Y-6053200D01*
X-2582800Y-6027800D01*
X-2582800Y-5977000D01*
D70*
X-7881000Y-3608000D02*
X-7246000Y-3608000D01*
X-7246000Y-2846000D01*
X-7881000Y-2846000D01*
X-7881000Y-3608000D01*
X-7754000Y-3608000D02*
X-7754000Y-2846000D01*
X-7652120Y-3354000D02*
X-7636880Y-3354000D01*
X-7621640Y-3338125D01*
X-7621640Y-3274625D01*
X-7636880Y-3258750D01*
X-7713080Y-3258750D01*
X-7697840Y-3131750D02*
X-7713080Y-3147625D01*
X-7713080Y-3195250D01*
X-7697840Y-3211125D01*
X-7636880Y-3211125D01*
X-7621640Y-3195250D01*
X-7621640Y-3147625D01*
X-7636880Y-3131750D01*
X-7652120Y-3131750D01*
X-7667360Y-3147625D01*
X-7667360Y-3211125D01*
D71*
X-7946800Y-3850000D02*
X-8099200Y-3850000D01*
X-8099200Y-3723000D01*
X-8073800Y-3697600D01*
X-8048400Y-3697600D01*
X-8023000Y-3723000D01*
X-8023000Y-3850000D01*
X-8048400Y-3646800D02*
X-7972200Y-3646800D01*
X-7946800Y-3621400D01*
X-7946800Y-3519800D01*
X-7972200Y-3494400D01*
X-7946800Y-3494400D02*
X-8048400Y-3494400D01*
X-8099200Y-3367400D02*
X-7946800Y-3367400D01*
X-8048400Y-3113400D02*
X-8048400Y-3215000D01*
X-8023000Y-3240400D01*
X-7997600Y-3215000D01*
X-7997600Y-3113400D01*
X-7972200Y-3088000D01*
X-7946800Y-3113400D01*
X-7946800Y-3240400D01*
X-8048400Y-3011800D02*
X-8048400Y-2910200D01*
X-8023000Y-2884800D01*
X-7946800Y-2884800D01*
X-7946800Y-3011800D01*
X-7972200Y-3037200D01*
X-7997600Y-3011800D01*
X-7997600Y-2884800D01*
X-8023000Y-2681600D02*
X-8048400Y-2707000D01*
X-8048400Y-2808600D01*
X-8023000Y-2834000D01*
X-7972200Y-2834000D01*
X-7946800Y-2808600D01*
X-7946800Y-2707000D01*
X-7972200Y-2681600D01*
X-7946800Y-2681600D02*
X-8099200Y-2681600D01*
X-8023000Y-2630800D02*
X-8048400Y-2605400D01*
X-8048400Y-2503800D01*
X-8023000Y-2478400D01*
X-7972200Y-2478400D01*
X-7946800Y-2503800D01*
X-7946800Y-2605400D01*
X-7972200Y-2630800D01*
X-8023000Y-2630800D01*
X-7946800Y-2427600D02*
X-8048400Y-2427600D01*
X-8023000Y-2427600D02*
X-8048400Y-2402200D01*
X-8048400Y-2300600D01*
X-8023000Y-2275200D01*
X-8099200Y-1600000D02*
X-8099200Y-1447600D01*
X-8099200Y-1523800D02*
X-7946800Y-1523800D01*
X-8099200Y-1396800D02*
X-7946800Y-1244400D01*
X-7946800Y-1396800D02*
X-8099200Y-1244400D01*
X-7946800Y-812600D02*
X-8073800Y-939600D01*
X-8099200Y-914200D01*
X-8099200Y-863400D01*
X-8073800Y-838000D01*
X-7997600Y-965000D01*
X-7972200Y-965000D01*
X-7946800Y-939600D01*
X-7946800Y-888800D01*
X-8023000Y-812600D01*
X-7946800Y-584000D02*
X-8099200Y-584000D01*
X-8099200Y-457000D01*
X-8073800Y-431600D01*
X-8048400Y-431600D01*
X-8023000Y-457000D01*
X-8023000Y-584000D01*
X-8023000Y-457000D02*
X-7997600Y-431600D01*
X-7946800Y-431600D01*
X-8099200Y-380800D02*
X-7946800Y-228400D01*
X-7946800Y-380800D02*
X-8099200Y-228400D01*
X-7350000Y+3666800D02*
X-7350000Y+3819200D01*
X-7197600Y+3819200D01*
X-7350000Y+3743000D02*
X-7248400Y+3743000D01*
X-7146800Y+3768400D02*
X-7146800Y+3692200D01*
X-7121400Y+3666800D01*
X-7019800Y+3666800D01*
X-6994400Y+3692200D01*
X-6994400Y+3666800D02*
X-6994400Y+3768400D01*
X-6816600Y+3768400D02*
X-6918200Y+3768400D01*
X-6943600Y+3743000D01*
X-6918200Y+3717600D01*
X-6816600Y+3717600D01*
X-6791200Y+3692200D01*
X-6816600Y+3666800D01*
X-6943600Y+3666800D01*
X-6664200Y+3768400D02*
X-6664200Y+3666800D01*
X-6664200Y+3819200D02*
X-6664200Y+3819200D01*
X-6537200Y+3743000D02*
X-6511800Y+3768400D01*
X-6410200Y+3768400D01*
X-6384800Y+3743000D01*
X-6384800Y+3692200D01*
X-6410200Y+3666800D01*
X-6511800Y+3666800D01*
X-6537200Y+3692200D01*
X-6537200Y+3666800D02*
X-6537200Y+3819200D01*
X-6257800Y+3819200D02*
X-6257800Y+3666800D01*
X-6130800Y+3717600D02*
X-5978400Y+3717600D01*
X-5978400Y+3743000D01*
X-6003800Y+3768400D01*
X-6105400Y+3768400D01*
X-6130800Y+3743000D01*
X-6130800Y+3692200D01*
X-6105400Y+3666800D01*
X-6003800Y+3666800D01*
X-7420000Y+3066800D02*
X-7420000Y+3168400D01*
X-7369200Y+3219200D01*
X-7318400Y+3219200D01*
X-7267600Y+3168400D01*
X-7267600Y+3066800D01*
X-7420000Y+3117600D02*
X-7267600Y+3117600D01*
X-7140600Y+3219200D02*
X-7140600Y+3066800D01*
X-6937400Y+3168400D02*
X-6937400Y+3066800D01*
X-6937400Y+3219200D02*
X-6937400Y+3219200D01*
X-6810400Y+3066800D02*
X-6810400Y+3168400D01*
X-6810400Y+3143000D02*
X-6785000Y+3168400D01*
X-6734200Y+3117600D01*
X-6683400Y+3168400D01*
X-6658000Y+3143000D01*
X-6658000Y+3066800D01*
X-6607200Y+3117600D02*
X-6454800Y+3117600D01*
X-6454800Y+3143000D01*
X-6480200Y+3168400D01*
X-6581800Y+3168400D01*
X-6607200Y+3143000D01*
X-6607200Y+3092200D01*
X-6581800Y+3066800D01*
X-6480200Y+3066800D01*
X-6404000Y+3066800D02*
X-6404000Y+3168400D01*
X-6404000Y+3143000D02*
X-6378600Y+3168400D01*
X-6277000Y+3168400D01*
X-6251600Y+3143000D01*
X-6251600Y+3066800D01*
X-6175400Y+3219200D02*
X-6175400Y+3092200D01*
X-6150000Y+3066800D01*
X-6073800Y+3066800D01*
X-6048400Y+3092200D01*
X-6200800Y+3168400D02*
X-6073800Y+3168400D01*
X-5972200Y+3168400D02*
X-5870600Y+3168400D01*
X-5845200Y+3143000D01*
X-5845200Y+3066800D01*
X-5972200Y+3066800D01*
X-5997600Y+3092200D01*
X-5972200Y+3117600D01*
X-5845200Y+3117600D01*
X-5642000Y+3143000D02*
X-5667400Y+3168400D01*
X-5769000Y+3168400D01*
X-5794400Y+3143000D01*
X-5794400Y+3092200D01*
X-5769000Y+3066800D01*
X-5667400Y+3066800D01*
X-5642000Y+3092200D01*
X-5515000Y+3168400D02*
X-5515000Y+3066800D01*
X-5515000Y+3219200D02*
X-5515000Y+3219200D01*
X-5388000Y+3143000D02*
X-5362600Y+3168400D01*
X-5261000Y+3168400D01*
X-5235600Y+3143000D01*
X-5235600Y+3092200D01*
X-5261000Y+3066800D01*
X-5362600Y+3066800D01*
X-5388000Y+3092200D01*
X-5388000Y+3143000D01*
X-5184800Y+3066800D02*
X-5184800Y+3168400D01*
X-5184800Y+3143000D02*
X-5159400Y+3168400D01*
X-5057800Y+3168400D01*
X-5032400Y+3143000D01*
X-5032400Y+3066800D01*
X-6988400Y+2407600D02*
X-6937600Y+2407600D01*
X-6937600Y+2356800D01*
X-7039200Y+2356800D01*
X-7090000Y+2407600D01*
X-7090000Y+2458400D01*
X-7039200Y+2509200D01*
X-6963000Y+2509200D01*
X-6937600Y+2483800D01*
X-6886800Y+2407600D02*
X-6734400Y+2407600D01*
X-6734400Y+2433000D01*
X-6759800Y+2458400D01*
X-6861400Y+2458400D01*
X-6886800Y+2433000D01*
X-6886800Y+2382200D01*
X-6861400Y+2356800D01*
X-6759800Y+2356800D01*
X-6683600Y+2356800D02*
X-6683600Y+2458400D01*
X-6683600Y+2433000D02*
X-6658200Y+2458400D01*
X-6556600Y+2458400D01*
X-6531200Y+2433000D01*
X-6531200Y+2356800D01*
X-6480400Y+2407600D02*
X-6328000Y+2407600D01*
X-6328000Y+2433000D01*
X-6353400Y+2458400D01*
X-6455000Y+2458400D01*
X-6480400Y+2433000D01*
X-6480400Y+2382200D01*
X-6455000Y+2356800D01*
X-6353400Y+2356800D01*
X-6277200Y+2356800D02*
X-6277200Y+2458400D01*
X-6277200Y+2433000D02*
X-6251800Y+2458400D01*
X-6150200Y+2458400D01*
X-6124800Y+2433000D01*
X-6048600Y+2458400D02*
X-5947000Y+2458400D01*
X-5921600Y+2433000D01*
X-5921600Y+2356800D01*
X-6048600Y+2356800D01*
X-6074000Y+2382200D01*
X-6048600Y+2407600D01*
X-5921600Y+2407600D01*
X-5794600Y+2509200D02*
X-5794600Y+2356800D01*
X-7350000Y+759200D02*
X-7197600Y+759200D01*
X-7273800Y+759200D02*
X-7273800Y+606800D01*
X-7146800Y+606800D02*
X-7146800Y+708400D01*
X-7146800Y+683000D02*
X-7121400Y+708400D01*
X-7019800Y+708400D01*
X-6994400Y+683000D01*
X-6918200Y+708400D02*
X-6816600Y+708400D01*
X-6791200Y+683000D01*
X-6791200Y+606800D01*
X-6918200Y+606800D01*
X-6943600Y+632200D01*
X-6918200Y+657600D01*
X-6791200Y+657600D01*
X-6740400Y+606800D02*
X-6740400Y+708400D01*
X-6740400Y+683000D02*
X-6715000Y+708400D01*
X-6613400Y+708400D01*
X-6588000Y+683000D01*
X-6588000Y+606800D01*
X-6410200Y+708400D02*
X-6511800Y+708400D01*
X-6537200Y+683000D01*
X-6511800Y+657600D01*
X-6410200Y+657600D01*
X-6384800Y+632200D01*
X-6410200Y+606800D01*
X-6537200Y+606800D01*
X-6308600Y+606800D02*
X-6308600Y+733800D01*
X-6283200Y+759200D01*
X-6207000Y+759200D01*
X-6181600Y+733800D01*
X-6334000Y+683000D02*
X-6232400Y+683000D01*
X-6130800Y+683000D02*
X-6105400Y+708400D01*
X-6003800Y+708400D01*
X-5978400Y+683000D01*
X-5978400Y+632200D01*
X-6003800Y+606800D01*
X-6105400Y+606800D01*
X-6130800Y+632200D01*
X-6130800Y+683000D01*
X-5927600Y+606800D02*
X-5927600Y+708400D01*
X-5927600Y+683000D02*
X-5902200Y+708400D01*
X-5800600Y+708400D01*
X-5775200Y+683000D01*
X-5724400Y+606800D02*
X-5724400Y+708400D01*
X-5724400Y+683000D02*
X-5699000Y+708400D01*
X-5648200Y+657600D01*
X-5597400Y+708400D01*
X-5572000Y+683000D01*
X-5572000Y+606800D01*
X-5495800Y+708400D02*
X-5394200Y+708400D01*
X-5368800Y+683000D01*
X-5368800Y+606800D01*
X-5495800Y+606800D01*
X-5521200Y+632200D01*
X-5495800Y+657600D01*
X-5368800Y+657600D01*
X-5165600Y+683000D02*
X-5191000Y+708400D01*
X-5292600Y+708400D01*
X-5318000Y+683000D01*
X-5318000Y+632200D01*
X-5292600Y+606800D01*
X-5191000Y+606800D01*
X-5165600Y+632200D01*
X-5165600Y+606800D02*
X-5165600Y+759200D01*
X-5114800Y+683000D02*
X-5089400Y+708400D01*
X-4987800Y+708400D01*
X-4962400Y+683000D01*
X-4962400Y+632200D01*
X-4987800Y+606800D01*
X-5089400Y+606800D01*
X-5114800Y+632200D01*
X-5114800Y+683000D01*
X-4911600Y+606800D02*
X-4911600Y+708400D01*
X-4911600Y+683000D02*
X-4886200Y+708400D01*
X-4784600Y+708400D01*
X-4759200Y+683000D01*
X-7284600Y+1399200D02*
X-7183000Y+1399200D01*
X-7233800Y+1399200D02*
X-7233800Y+1246800D01*
X-7284600Y+1246800D02*
X-7183000Y+1246800D01*
X-7106800Y+1246800D02*
X-7106800Y+1348400D01*
X-7106800Y+1323000D02*
X-7081400Y+1348400D01*
X-6979800Y+1348400D01*
X-6954400Y+1323000D01*
X-6954400Y+1246800D01*
X-6827400Y+1348400D02*
X-6827400Y+1246800D01*
X-6827400Y+1399200D02*
X-6827400Y+1399200D01*
X-6675000Y+1399200D02*
X-6675000Y+1272200D01*
X-6649600Y+1246800D01*
X-6573400Y+1246800D01*
X-6548000Y+1272200D01*
X-6700400Y+1348400D02*
X-6573400Y+1348400D01*
X-7210000Y+626800D02*
X-7210000Y+779200D01*
X-7057600Y+626800D01*
X-7057600Y+779200D01*
X-7006800Y+703000D02*
X-6981400Y+728400D01*
X-6879800Y+728400D01*
X-6854400Y+703000D01*
X-6854400Y+652200D01*
X-6879800Y+626800D01*
X-6981400Y+626800D01*
X-7006800Y+652200D01*
X-7006800Y+703000D01*
X-6803600Y+626800D02*
X-6803600Y+728400D01*
X-6803600Y+703000D02*
X-6778200Y+728400D01*
X-6676600Y+728400D01*
X-6651200Y+703000D01*
X-6600400Y+626800D02*
X-6600400Y+728400D01*
X-6600400Y+703000D02*
X-6575000Y+728400D01*
X-6524200Y+677600D01*
X-6473400Y+728400D01*
X-6448000Y+703000D01*
X-6448000Y+626800D01*
X-6371800Y+728400D02*
X-6270200Y+728400D01*
X-6244800Y+703000D01*
X-6244800Y+626800D01*
X-6371800Y+626800D01*
X-6397200Y+652200D01*
X-6371800Y+677600D01*
X-6244800Y+677600D01*
X-6117800Y+779200D02*
X-6117800Y+626800D01*
D70*
X-888000Y-2842000D02*
X+128000Y-2842000D01*
X-888000Y-1318000D02*
X+128000Y-1318000D01*
X+128000Y-2842000D02*
X+128000Y-1318000D01*
X-888000Y-1318000D02*
X-888000Y-2842000D01*
X-959120Y-2207000D02*
X-943880Y-2207000D01*
X-928640Y-2191125D01*
X-928640Y-2127625D01*
X-943880Y-2111750D01*
X-1020080Y-2111750D01*
X-1004840Y-2064125D02*
X-1020080Y-2048250D01*
X-1020080Y-2000625D01*
X-1004840Y-1984750D01*
X-989600Y-1984750D01*
X-974360Y-2000625D01*
X-959120Y-1984750D01*
X-943880Y-1984750D01*
X-928640Y-2000625D01*
X-928640Y-2048250D01*
X-943880Y-2064125D01*
X-974360Y-2032375D02*
X-974360Y-2000625D01*
X-3007000Y-1781000D02*
X-2753000Y-1781000D01*
X-2753000Y-1019000D01*
X-3007000Y-1019000D01*
X-3007000Y-1781000D01*
X-2753000Y-1019000D02*
X-2626000Y-1019000D01*
X-2626000Y-1781000D01*
X-2753000Y-1781000D01*
X-2753000Y-1019000D02*
X-2626000Y-1146000D01*
X-2753000Y-1146000D02*
X-2626000Y-1273000D01*
X-2753000Y-1273000D02*
X-2626000Y-1400000D01*
X-2753000Y-1400000D02*
X-2626000Y-1527000D01*
X-2753000Y-1527000D02*
X-2626000Y-1654000D01*
X-2753000Y-1654000D02*
X-2626000Y-1781000D01*
X-2554880Y-1527000D02*
X-2585360Y-1495250D01*
X-2585360Y-1463500D01*
X-2554880Y-1431750D01*
X-2524400Y-1431750D01*
X-2493920Y-1463500D01*
X-2493920Y-1495250D01*
X-2524400Y-1527000D01*
X-2554880Y-1527000D01*
X-2524400Y-1463500D02*
X-2493920Y-1431750D01*
X-2554880Y-1368250D02*
X-2585360Y-1336500D01*
X-2493920Y-1336500D01*
X-2997000Y-3141000D02*
X-2743000Y-3141000D01*
X-2743000Y-2379000D01*
X-2997000Y-2379000D01*
X-2997000Y-3141000D01*
X-2743000Y-2379000D02*
X-2616000Y-2379000D01*
X-2616000Y-3141000D01*
X-2743000Y-3141000D01*
X-2743000Y-2379000D02*
X-2616000Y-2506000D01*
X-2743000Y-2506000D02*
X-2616000Y-2633000D01*
X-2743000Y-2633000D02*
X-2616000Y-2760000D01*
X-2743000Y-2760000D02*
X-2616000Y-2887000D01*
X-2743000Y-2887000D02*
X-2616000Y-3014000D01*
X-2743000Y-3014000D02*
X-2616000Y-3141000D01*
X-2544880Y-2887000D02*
X-2575360Y-2855250D01*
X-2575360Y-2823500D01*
X-2544880Y-2791750D01*
X-2514400Y-2791750D01*
X-2483920Y-2823500D01*
X-2483920Y-2855250D01*
X-2514400Y-2887000D01*
X-2544880Y-2887000D01*
X-2514400Y-2823500D02*
X-2483920Y-2791750D01*
X-2560120Y-2744125D02*
X-2575360Y-2728250D01*
X-2575360Y-2680625D01*
X-2560120Y-2664750D01*
X-2544880Y-2664750D01*
X-2529640Y-2680625D01*
X-2529640Y-2728250D01*
X-2514400Y-2744125D01*
X-2483920Y-2744125D01*
X-2483920Y-2664750D01*
X-2064620Y-3021080D02*
X-1797920Y-3021080D01*
X-1797920Y-2502920D01*
X-2064620Y-2502920D01*
X-2064620Y-3021080D01*
X-2062080Y-2939800D02*
X-1800460Y-2939800D01*
X-1930000Y-3092200D02*
X-1930000Y-3021080D01*
X-1930000Y-2502920D02*
X-1930000Y-2431800D01*
X-2105260Y-2889000D02*
X-2196700Y-2889000D01*
X-2196700Y-2825500D01*
X-2166220Y-2793750D01*
X-2135740Y-2793750D01*
X-2105260Y-2825500D01*
X-2105260Y-2889000D01*
X-2196700Y-2666750D02*
X-2196700Y-2746125D01*
X-2166220Y-2746125D01*
X-2166220Y-2682625D01*
X-2150980Y-2666750D01*
X-2120500Y-2666750D01*
X-2105260Y-2682625D01*
X-2105260Y-2730250D01*
X-2120500Y-2746125D01*
X-2062080Y-1627080D02*
X-1795380Y-1627080D01*
X-1795380Y-1108920D01*
X-2062080Y-1108920D01*
X-2062080Y-1627080D01*
X-1797920Y-1190200D02*
X-2059540Y-1190200D01*
X-1930000Y-1037800D02*
X-1930000Y-1108920D01*
X-1930000Y-1627080D02*
X-1930000Y-1698200D01*
X-1663300Y-1495000D02*
X-1754740Y-1495000D01*
X-1754740Y-1431500D01*
X-1724260Y-1399750D01*
X-1693780Y-1399750D01*
X-1663300Y-1431500D01*
X-1663300Y-1495000D01*
X-1693780Y-1272750D02*
X-1693780Y-1368000D01*
X-1754740Y-1304500D01*
X-1663300Y-1304500D01*
X-2481000Y-3540000D02*
X-2608000Y-3540000D01*
X-3116000Y-3603500D02*
X-2608000Y-3603500D01*
X-2608000Y-3476500D01*
X-3116000Y-3476500D01*
X-3116000Y-3603500D01*
X-3116000Y-3540000D02*
X-3243000Y-3540000D01*
X-3042500Y-3575580D02*
X-3042500Y-3484140D01*
X-2963125Y-3484140D01*
X-2947250Y-3499380D01*
X-2947250Y-3514620D01*
X-2963125Y-3529860D01*
X-3042500Y-3529860D01*
X-2963125Y-3529860D02*
X-2947250Y-3545100D01*
X-2947250Y-3575580D01*
X-2899625Y-3499380D02*
X-2883750Y-3484140D01*
X-2836125Y-3484140D01*
X-2820250Y-3499380D01*
X-2820250Y-3514620D01*
X-2836125Y-3529860D01*
X-2883750Y-3529860D01*
X-2899625Y-3545100D01*
X-2899625Y-3575580D01*
X-2820250Y-3575580D01*
X-2788500Y-3560340D02*
X-2788500Y-3499380D01*
X-2772625Y-3484140D01*
X-2709125Y-3484140D01*
X-2693250Y-3499380D01*
X-2693250Y-3560340D01*
X-2709125Y-3575580D01*
X-2772625Y-3575580D01*
X-2788500Y-3560340D01*
X-2788500Y-3575580D02*
X-2693250Y-3484140D01*
X-3121080Y-4042080D02*
X-2602920Y-4042080D01*
X-2602920Y-3775380D01*
X-3121080Y-3775380D01*
X-3121080Y-4042080D01*
X-3039800Y-3777920D02*
X-3039800Y-4039540D01*
X-3192200Y-3910000D02*
X-3121080Y-3910000D01*
X-2602920Y-3910000D02*
X-2531800Y-3910000D01*
X-3052500Y-3734740D02*
X-3052500Y-3643300D01*
X-2989000Y-3643300D01*
X-2957250Y-3673780D01*
X-2957250Y-3704260D01*
X-2989000Y-3734740D01*
X-3052500Y-3734740D01*
X-2893750Y-3673780D02*
X-2862000Y-3643300D01*
X-2862000Y-3734740D01*
X-2766750Y-3673780D02*
X-2735000Y-3643300D01*
X-2735000Y-3734740D01*
X-2487000Y-660000D02*
X-2614000Y-660000D01*
X-3122000Y-723500D02*
X-2614000Y-723500D01*
X-2614000Y-596500D01*
X-3122000Y-596500D01*
X-3122000Y-723500D01*
X-3122000Y-660000D02*
X-3249000Y-660000D01*
X-3005000Y-715580D02*
X-3005000Y-624140D01*
X-2925625Y-624140D01*
X-2909750Y-639380D01*
X-2909750Y-654620D01*
X-2925625Y-669860D01*
X-3005000Y-669860D01*
X-2925625Y-669860D02*
X-2909750Y-685100D01*
X-2909750Y-715580D01*
X-2782750Y-624140D02*
X-2862125Y-624140D01*
X-2862125Y-654620D01*
X-2798625Y-654620D01*
X-2782750Y-669860D01*
X-2782750Y-700340D01*
X-2798625Y-715580D01*
X-2846250Y-715580D01*
X-2862125Y-700340D01*
X-3131080Y-372080D02*
X-2612920Y-372080D01*
X-2612920Y-105380D01*
X-3131080Y-105380D01*
X-3131080Y-372080D01*
X-3049800Y-107920D02*
X-3049800Y-369540D01*
X-3202200Y-240000D02*
X-3131080Y-240000D01*
X-2612920Y-240000D02*
X-2541800Y-240000D01*
X-3062500Y-64740D02*
X-3062500Y+26700D01*
X-2999000Y+26700D01*
X-2967250Y-3780D01*
X-2967250Y-34260D01*
X-2999000Y-64740D01*
X-3062500Y-64740D01*
X-2903750Y-3780D02*
X-2872000Y+26700D01*
X-2872000Y-64740D01*
X-2808500Y-49500D02*
X-2808500Y+11460D01*
X-2792625Y+26700D01*
X-2729125Y+26700D01*
X-2713250Y+11460D01*
X-2713250Y-49500D01*
X-2729125Y-64740D01*
X-2792625Y-64740D01*
X-2808500Y-49500D01*
X-2808500Y-64740D02*
X-2713250Y+26700D01*
M02*
