G04 PROTEUS GERBER X2 FILE*
%TF.GenerationSoftware,Labcenter,Proteus,8.15-SP1-Build34318*%
%TF.CreationDate,2023-09-22T16:20:16+00:00*%
%TF.FileFunction,AssemblyDrawing,Top*%
%TF.FilePolarity,Positive*%
%TF.Part,Single*%
%TF.SameCoordinates,{3c8dde4f-ac42-4326-9e26-51d233c7aa90}*%
%FSLAX45Y45*%
%MOMM*%
G01*
%TA.AperFunction,Profile*%
%ADD19C,0.203200*%
%TA.AperFunction,Material*%
%ADD70C,0.203200*%
%ADD73C,1.219200*%
%ADD30C,0.229610*%
%ADD31C,0.562240*%
%ADD32C,0.812800*%
%ADD33C,0.224020*%
%ADD34C,0.133060*%
%ADD35C,0.190500*%
%ADD36C,0.110230*%
%ADD37C,0.914400*%
%ADD38C,0.186690*%
%ADD39C,0.609600*%
%ADD40C,0.127000*%
%ADD41C,1.016000*%
%ADD42C,0.507080*%
%ADD43C,0.237060*%
%ADD44C,0.211660*%
%ADD45C,0.082550*%
%ADD46C,0.221140*%
%ADD47C,0.331890*%
%TD.AperFunction*%
D19*
X-8214500Y-7201500D02*
X+1472000Y-7201500D01*
X+1472000Y+6540500D01*
X-8214500Y+6540500D01*
X-8214500Y-7201500D01*
D70*
X-7541160Y+4377840D02*
X-6758840Y+4377840D01*
X-6758840Y+5414160D01*
X-7541160Y+5414160D01*
X-7541160Y+4377840D01*
D73*
X-7150000Y+5150000D02*
X-7150000Y+5150000D01*
D30*
X-7356654Y+4710478D02*
X-7356654Y+4687516D01*
X-7330823Y+4664555D01*
X-7227496Y+4664555D01*
X-7201664Y+4687516D01*
X-7201664Y+4802324D01*
X-7124169Y+4779363D02*
X-7098337Y+4802324D01*
X-7020842Y+4802324D01*
X-6995010Y+4779363D01*
X-6995010Y+4756401D01*
X-7020842Y+4733440D01*
X-7098337Y+4733440D01*
X-7124169Y+4710478D01*
X-7124169Y+4664555D01*
X-6995010Y+4664555D01*
D70*
X-6360160Y+4639840D02*
X-3339840Y+4639840D01*
X-3339840Y+5660160D01*
X-6360160Y+5660160D01*
X-6360160Y+4639840D01*
D73*
X-3550000Y+5150000D02*
X-3550000Y+5150000D01*
D31*
X-5744584Y+4981328D02*
X-5744584Y+5318672D01*
X-5365072Y+5318672D01*
X-5744584Y+5150000D02*
X-5491576Y+5150000D01*
X-5238568Y+5318672D02*
X-5238568Y+5037552D01*
X-5175316Y+4981328D01*
X-4922308Y+4981328D01*
X-4859056Y+5037552D01*
X-4859056Y+5318672D01*
X-4606048Y+5206224D02*
X-4479544Y+5318672D01*
X-4479544Y+4981328D01*
D70*
X-2548680Y+4045100D02*
X-2208320Y+4045100D01*
X-2208320Y+5238900D01*
X-2548680Y+5238900D01*
X-2548680Y+4045100D01*
D32*
X-2378500Y+5150000D02*
X-2378500Y+5150000D01*
D33*
X-2311291Y+4375605D02*
X-2445708Y+4375605D01*
X-2445708Y+4476417D01*
X-2400902Y+4526823D01*
X-2356097Y+4526823D01*
X-2311291Y+4476417D01*
X-2311291Y+4375605D01*
X-2400902Y+4627636D02*
X-2445708Y+4678042D01*
X-2311291Y+4678042D01*
D70*
X-2110160Y+4189840D02*
X-1889840Y+4189840D01*
X-1889840Y+4760160D01*
X-2110160Y+4760160D01*
X-2110160Y+4189840D01*
D32*
X-2000000Y+4650000D02*
X-2000000Y+4650000D01*
D34*
X-1973386Y+4369660D02*
X-1960080Y+4354690D01*
X-1960080Y+4309780D01*
X-1986693Y+4279841D01*
X-2013306Y+4279841D01*
X-2039919Y+4309780D01*
X-2039919Y+4354690D01*
X-2026613Y+4369660D01*
X-2026613Y+4489419D02*
X-2039919Y+4474449D01*
X-2039919Y+4429539D01*
X-2026613Y+4414569D01*
X-1973386Y+4414569D01*
X-1960080Y+4429539D01*
X-1960080Y+4474449D01*
X-1973386Y+4489419D01*
X-1986693Y+4489419D01*
X-2000000Y+4474449D01*
X-2000000Y+4414569D01*
D70*
X-7914160Y+3008840D02*
X-7322340Y+3008840D01*
X-7322340Y+3600660D01*
X-7914160Y+3600660D01*
X-7914160Y+3008840D01*
D32*
X-7650000Y+3146000D02*
X-7650000Y+3146000D01*
D35*
X-7789700Y+3336500D02*
X-7789700Y+3450800D01*
X-7703975Y+3450800D01*
X-7661113Y+3412700D01*
X-7661113Y+3374600D01*
X-7703975Y+3336500D01*
X-7789700Y+3336500D01*
X-7489663Y+3431750D02*
X-7511094Y+3450800D01*
X-7575388Y+3450800D01*
X-7596819Y+3431750D01*
X-7596819Y+3355550D01*
X-7575388Y+3336500D01*
X-7511094Y+3336500D01*
X-7489663Y+3355550D01*
X-7489663Y+3374600D01*
X-7511094Y+3393650D01*
X-7596819Y+3393650D01*
D70*
X-7288900Y+3311100D02*
X-6095100Y+3311100D01*
X-6095100Y+3488900D01*
X-7288900Y+3488900D01*
X-7288900Y+3311100D01*
D32*
X-7200000Y+3400000D02*
X-7200000Y+3400000D01*
D36*
X-6776048Y+3366929D02*
X-6776048Y+3433070D01*
X-6714041Y+3433070D01*
X-6701639Y+3422047D01*
X-6701639Y+3411023D01*
X-6714041Y+3400000D01*
X-6776048Y+3400000D01*
X-6714041Y+3400000D02*
X-6701639Y+3388976D01*
X-6701639Y+3366929D01*
X-6652033Y+3411023D02*
X-6627230Y+3433070D01*
X-6627230Y+3366929D01*
X-6565223Y+3422047D02*
X-6552821Y+3433070D01*
X-6515617Y+3433070D01*
X-6503215Y+3422047D01*
X-6503215Y+3411023D01*
X-6515617Y+3400000D01*
X-6552821Y+3400000D01*
X-6565223Y+3388976D01*
X-6565223Y+3366929D01*
X-6503215Y+3366929D01*
D70*
X-7914160Y+3608840D02*
X-7322340Y+3608840D01*
X-7322340Y+4200660D01*
X-7914160Y+4200660D01*
X-7914160Y+3608840D01*
D32*
X-7650000Y+3746000D02*
X-7650000Y+3746000D01*
D35*
X-7789700Y+3936500D02*
X-7789700Y+4050800D01*
X-7703975Y+4050800D01*
X-7661113Y+4012700D01*
X-7661113Y+3974600D01*
X-7703975Y+3936500D01*
X-7789700Y+3936500D01*
X-7596819Y+4050800D02*
X-7489663Y+4050800D01*
X-7489663Y+4031750D01*
X-7596819Y+3936500D01*
D70*
X-7288900Y+3911100D02*
X-6095100Y+3911100D01*
X-6095100Y+4088900D01*
X-7288900Y+4088900D01*
X-7288900Y+3911100D01*
D32*
X-7200000Y+4000000D02*
X-7200000Y+4000000D01*
D36*
X-6776048Y+3966929D02*
X-6776048Y+4033070D01*
X-6714041Y+4033070D01*
X-6701639Y+4022047D01*
X-6701639Y+4011023D01*
X-6714041Y+4000000D01*
X-6776048Y+4000000D01*
X-6714041Y+4000000D02*
X-6701639Y+3988976D01*
X-6701639Y+3966929D01*
X-6652033Y+4011023D02*
X-6627230Y+4033070D01*
X-6627230Y+3966929D01*
X-6565223Y+4022047D02*
X-6552821Y+4033070D01*
X-6515617Y+4033070D01*
X-6503215Y+4022047D01*
X-6503215Y+4011023D01*
X-6515617Y+4000000D01*
X-6503215Y+3988976D01*
X-6503215Y+3977952D01*
X-6515617Y+3966929D01*
X-6552821Y+3966929D01*
X-6565223Y+3977952D01*
X-6540420Y+4000000D02*
X-6515617Y+4000000D01*
D70*
X-3194780Y+4019700D02*
X-2907760Y+4019700D01*
X-2907760Y+5264300D01*
X-3194780Y+5264300D01*
X-3194780Y+4019700D01*
D37*
X-3050000Y+4134000D02*
X-3050000Y+4134000D01*
D38*
X-2995263Y+4553989D02*
X-3107277Y+4553989D01*
X-3107277Y+4637999D01*
X-3069939Y+4680004D01*
X-3032601Y+4680004D01*
X-2995263Y+4637999D01*
X-2995263Y+4553989D01*
X-3051270Y+4764015D02*
X-3069939Y+4743012D01*
X-3088608Y+4743012D01*
X-3107277Y+4764015D01*
X-3107277Y+4827023D01*
X-3088608Y+4848025D01*
X-3069939Y+4848025D01*
X-3051270Y+4827023D01*
X-3051270Y+4764015D01*
X-3032601Y+4743012D01*
X-3013932Y+4743012D01*
X-2995263Y+4764015D01*
X-2995263Y+4827023D01*
X-3013932Y+4848025D01*
X-3032601Y+4848025D01*
X-3051270Y+4827023D01*
D70*
X-3983400Y+3205200D02*
X-3805600Y+3205200D01*
X-3805600Y+4399000D01*
X-3983400Y+4399000D01*
X-3983400Y+3205200D01*
D32*
X-3894500Y+3294100D02*
X-3894500Y+3294100D01*
D36*
X-3861429Y+3718052D02*
X-3927570Y+3718052D01*
X-3927570Y+3780059D01*
X-3916547Y+3792461D01*
X-3905523Y+3792461D01*
X-3894500Y+3780059D01*
X-3894500Y+3718052D01*
X-3894500Y+3780059D02*
X-3883476Y+3792461D01*
X-3861429Y+3792461D01*
X-3905523Y+3842067D02*
X-3927570Y+3866870D01*
X-3861429Y+3866870D01*
X-3927570Y+3928877D02*
X-3927570Y+3990885D01*
X-3916547Y+3990885D01*
X-3861429Y+3928877D01*
D70*
X-5914160Y+3935840D02*
X-5512840Y+3935840D01*
X-5512840Y+4464160D01*
X-5914160Y+4464160D01*
X-5914160Y+3935840D01*
D39*
X-5777000Y+4327000D02*
X-5777000Y+4327000D01*
D40*
X-5827800Y+4128880D02*
X-5799225Y+4154280D01*
X-5770650Y+4154280D01*
X-5742075Y+4128880D01*
X-5742075Y+4103480D01*
X-5770650Y+4078080D01*
X-5799225Y+4078080D01*
X-5827800Y+4103480D01*
X-5827800Y+4128880D01*
X-5770650Y+4103480D02*
X-5742075Y+4078080D01*
X-5699213Y+4154280D02*
X-5627775Y+4154280D01*
X-5627775Y+4141580D01*
X-5699213Y+4078080D01*
D70*
X-4354900Y+3195100D02*
X-4177100Y+3195100D01*
X-4177100Y+4388900D01*
X-4354900Y+4388900D01*
X-4354900Y+3195100D01*
D32*
X-4266000Y+3284000D02*
X-4266000Y+3284000D01*
D36*
X-4232929Y+3707952D02*
X-4299070Y+3707952D01*
X-4299070Y+3769959D01*
X-4288047Y+3782361D01*
X-4277023Y+3782361D01*
X-4266000Y+3769959D01*
X-4266000Y+3707952D01*
X-4266000Y+3769959D02*
X-4254976Y+3782361D01*
X-4232929Y+3782361D01*
X-4277023Y+3831967D02*
X-4299070Y+3856770D01*
X-4232929Y+3856770D01*
X-4277023Y+3980785D02*
X-4266000Y+3968383D01*
X-4266000Y+3931179D01*
X-4277023Y+3918777D01*
X-4288047Y+3918777D01*
X-4299070Y+3931179D01*
X-4299070Y+3968383D01*
X-4288047Y+3980785D01*
X-4243952Y+3980785D01*
X-4232929Y+3968383D01*
X-4232929Y+3931179D01*
D70*
X-3192240Y+2469700D02*
X-2905220Y+2469700D01*
X-2905220Y+3714300D01*
X-3192240Y+3714300D01*
X-3192240Y+2469700D01*
D37*
X-3050000Y+3600000D02*
X-3050000Y+3600000D01*
D38*
X-2992723Y+2843969D02*
X-3104737Y+2843969D01*
X-3104737Y+2927979D01*
X-3067399Y+2969984D01*
X-3030061Y+2969984D01*
X-2992723Y+2927979D01*
X-2992723Y+2843969D01*
X-3067399Y+3138005D02*
X-3048730Y+3117003D01*
X-3048730Y+3053995D01*
X-3067399Y+3032992D01*
X-3086068Y+3032992D01*
X-3104737Y+3053995D01*
X-3104737Y+3117003D01*
X-3086068Y+3138005D01*
X-3011392Y+3138005D01*
X-2992723Y+3117003D01*
X-2992723Y+3053995D01*
D70*
X-5987160Y+3212840D02*
X-5204840Y+3212840D01*
X-5204840Y+3614160D01*
X-5987160Y+3614160D01*
X-5987160Y+3212840D01*
D41*
X-5850000Y+3350000D02*
X-5850000Y+3350000D01*
D35*
X-5674231Y+3470903D02*
X-5674231Y+3375230D01*
X-5652705Y+3356096D01*
X-5566600Y+3356096D01*
X-5545073Y+3375230D01*
X-5545073Y+3470903D01*
X-5480494Y+3451769D02*
X-5458968Y+3470903D01*
X-5394389Y+3470903D01*
X-5372862Y+3451769D01*
X-5372862Y+3432634D01*
X-5394389Y+3413500D01*
X-5372862Y+3394365D01*
X-5372862Y+3375230D01*
X-5394389Y+3356096D01*
X-5458968Y+3356096D01*
X-5480494Y+3375230D01*
X-5437441Y+3413500D02*
X-5394389Y+3413500D01*
D70*
X-5960160Y+2789840D02*
X-5389840Y+2789840D01*
X-5389840Y+3010160D01*
X-5960160Y+3010160D01*
X-5960160Y+2789840D01*
D32*
X-5500000Y+2900000D02*
X-5500000Y+2900000D01*
D34*
X-5840219Y+2873386D02*
X-5855189Y+2860080D01*
X-5900099Y+2860080D01*
X-5930038Y+2886693D01*
X-5930038Y+2913306D01*
X-5900099Y+2939919D01*
X-5855189Y+2939919D01*
X-5840219Y+2926613D01*
X-5780340Y+2913306D02*
X-5750400Y+2939919D01*
X-5750400Y+2860080D01*
X-5690520Y+2873386D02*
X-5690520Y+2926613D01*
X-5675551Y+2939919D01*
X-5615671Y+2939919D01*
X-5600701Y+2926613D01*
X-5600701Y+2873386D01*
X-5615671Y+2860080D01*
X-5675551Y+2860080D01*
X-5690520Y+2873386D01*
X-5690520Y+2860080D02*
X-5600701Y+2939919D01*
D70*
X-5960160Y+3639840D02*
X-5389840Y+3639840D01*
X-5389840Y+3860160D01*
X-5960160Y+3860160D01*
X-5960160Y+3639840D01*
D32*
X-5850000Y+3750000D02*
X-5850000Y+3750000D01*
D34*
X-5629540Y+3723386D02*
X-5644510Y+3710080D01*
X-5689420Y+3710080D01*
X-5719359Y+3736693D01*
X-5719359Y+3763306D01*
X-5689420Y+3789919D01*
X-5644510Y+3789919D01*
X-5629540Y+3776613D01*
X-5509781Y+3763306D02*
X-5524751Y+3750000D01*
X-5569661Y+3750000D01*
X-5584631Y+3763306D01*
X-5584631Y+3776613D01*
X-5569661Y+3789919D01*
X-5524751Y+3789919D01*
X-5509781Y+3776613D01*
X-5509781Y+3723386D01*
X-5524751Y+3710080D01*
X-5569661Y+3710080D01*
D70*
X-7582760Y-2414400D02*
X-4133440Y-2414400D01*
X-4133440Y-1525400D01*
X-7582760Y-1525400D01*
X-7582760Y-2414400D01*
D41*
X-7511100Y-2350900D02*
X-7511100Y-2350900D01*
D42*
X-6253246Y-1817774D02*
X-6253246Y-2071317D01*
X-6196199Y-2122025D01*
X-5968011Y-2122025D01*
X-5910964Y-2071317D01*
X-5910964Y-1817774D01*
X-5739823Y-1868483D02*
X-5682776Y-1817774D01*
X-5511635Y-1817774D01*
X-5454588Y-1868483D01*
X-5454588Y-1919191D01*
X-5511635Y-1969900D01*
X-5682776Y-1969900D01*
X-5739823Y-2020608D01*
X-5739823Y-2122025D01*
X-5454588Y-2122025D01*
D70*
X-5590160Y-1240160D02*
X-5019840Y-1240160D01*
X-5019840Y-1019840D01*
X-5590160Y-1019840D01*
X-5590160Y-1240160D01*
D32*
X-5480000Y-1130000D02*
X-5480000Y-1130000D01*
D34*
X-5319419Y-1156614D02*
X-5334389Y-1169920D01*
X-5379299Y-1169920D01*
X-5409238Y-1143307D01*
X-5409238Y-1116694D01*
X-5379299Y-1090081D01*
X-5334389Y-1090081D01*
X-5319419Y-1103387D01*
X-5259540Y-1116694D02*
X-5229600Y-1090081D01*
X-5229600Y-1169920D01*
X-5139781Y-1116694D02*
X-5109841Y-1090081D01*
X-5109841Y-1169920D01*
D70*
X-5902360Y-3376855D02*
X-4866040Y-3376855D01*
X-4866040Y-2848535D01*
X-5902360Y-2848535D01*
X-5902360Y-3376855D01*
D32*
X-5130200Y-3112695D02*
X-5130200Y-3112695D01*
D43*
X-5749959Y-3041576D02*
X-5589940Y-3183815D01*
X-5749959Y-3183815D02*
X-5589940Y-3041576D01*
X-5483261Y-3088989D02*
X-5429921Y-3041576D01*
X-5429921Y-3183815D01*
D70*
X-6090160Y-3650160D02*
X-5519840Y-3650160D01*
X-5519840Y-3429840D01*
X-6090160Y-3429840D01*
X-6090160Y-3650160D01*
D32*
X-5980000Y-3540000D02*
X-5980000Y-3540000D01*
D34*
X-5759540Y-3566614D02*
X-5774510Y-3579920D01*
X-5819420Y-3579920D01*
X-5849359Y-3553307D01*
X-5849359Y-3526694D01*
X-5819420Y-3500081D01*
X-5774510Y-3500081D01*
X-5759540Y-3513387D01*
X-5714631Y-3513387D02*
X-5699661Y-3500081D01*
X-5654751Y-3500081D01*
X-5639781Y-3513387D01*
X-5639781Y-3526694D01*
X-5654751Y-3540000D01*
X-5699661Y-3540000D01*
X-5714631Y-3553307D01*
X-5714631Y-3579920D01*
X-5639781Y-3579920D01*
D70*
X-5243165Y-3659365D02*
X-4672845Y-3659365D01*
X-4672845Y-3439045D01*
X-5243165Y-3439045D01*
X-5243165Y-3659365D01*
D32*
X-4783005Y-3549205D02*
X-4783005Y-3549205D01*
D34*
X-5063345Y-3575819D02*
X-5078315Y-3589125D01*
X-5123225Y-3589125D01*
X-5153164Y-3562512D01*
X-5153164Y-3535899D01*
X-5123225Y-3509286D01*
X-5078315Y-3509286D01*
X-5063345Y-3522592D01*
X-4943586Y-3562512D02*
X-5033405Y-3562512D01*
X-4973526Y-3509286D01*
X-4973526Y-3589125D01*
D70*
X-7912960Y-1433960D02*
X-7257640Y-1433960D01*
X-7257640Y-651640D01*
X-7912960Y-651640D01*
X-7912960Y-1433960D01*
D41*
X-7521800Y-1169800D02*
X-7521800Y-1169800D01*
D44*
X-7775799Y-906487D02*
X-7775799Y-927654D01*
X-7751987Y-948820D01*
X-7656738Y-948820D01*
X-7632925Y-927654D01*
X-7632925Y-821821D01*
X-7537676Y-864154D02*
X-7490051Y-821821D01*
X-7490051Y-948820D01*
D70*
X-7304900Y+2711100D02*
X-6111100Y+2711100D01*
X-6111100Y+2888900D01*
X-7304900Y+2888900D01*
X-7304900Y+2711100D01*
D32*
X-6200000Y+2800000D02*
X-6200000Y+2800000D01*
D36*
X-6921588Y+2766929D02*
X-6921588Y+2833070D01*
X-6859581Y+2833070D01*
X-6847179Y+2822047D01*
X-6847179Y+2811023D01*
X-6859581Y+2800000D01*
X-6921588Y+2800000D01*
X-6859581Y+2800000D02*
X-6847179Y+2788976D01*
X-6847179Y+2766929D01*
X-6809975Y+2822047D02*
X-6797573Y+2833070D01*
X-6760369Y+2833070D01*
X-6747967Y+2822047D01*
X-6747967Y+2811023D01*
X-6760369Y+2800000D01*
X-6797573Y+2800000D01*
X-6809975Y+2788976D01*
X-6809975Y+2766929D01*
X-6747967Y+2766929D01*
X-6698361Y+2811023D02*
X-6673558Y+2833070D01*
X-6673558Y+2766929D01*
D70*
X-7304900Y+2101100D02*
X-6111100Y+2101100D01*
X-6111100Y+2278900D01*
X-7304900Y+2278900D01*
X-7304900Y+2101100D01*
D32*
X-6200000Y+2190000D02*
X-6200000Y+2190000D01*
D36*
X-6921588Y+2156929D02*
X-6921588Y+2223070D01*
X-6859581Y+2223070D01*
X-6847179Y+2212047D01*
X-6847179Y+2201023D01*
X-6859581Y+2190000D01*
X-6921588Y+2190000D01*
X-6859581Y+2190000D02*
X-6847179Y+2178976D01*
X-6847179Y+2156929D01*
X-6809975Y+2212047D02*
X-6797573Y+2223070D01*
X-6760369Y+2223070D01*
X-6747967Y+2212047D01*
X-6747967Y+2201023D01*
X-6760369Y+2190000D01*
X-6797573Y+2190000D01*
X-6809975Y+2178976D01*
X-6809975Y+2156929D01*
X-6747967Y+2156929D01*
X-6648755Y+2178976D02*
X-6723164Y+2178976D01*
X-6673558Y+2223070D01*
X-6673558Y+2156929D01*
D70*
X-7914160Y+2408840D02*
X-7322340Y+2408840D01*
X-7322340Y+3000660D01*
X-7914160Y+3000660D01*
X-7914160Y+2408840D01*
D32*
X-7650000Y+2546000D02*
X-7650000Y+2546000D01*
D35*
X-7875425Y+2736500D02*
X-7875425Y+2850800D01*
X-7789700Y+2850800D01*
X-7746838Y+2812700D01*
X-7746838Y+2774600D01*
X-7789700Y+2736500D01*
X-7875425Y+2736500D01*
X-7661113Y+2812700D02*
X-7618250Y+2850800D01*
X-7618250Y+2736500D01*
X-7511094Y+2831750D02*
X-7489663Y+2850800D01*
X-7425369Y+2850800D01*
X-7403938Y+2831750D01*
X-7403938Y+2812700D01*
X-7425369Y+2793650D01*
X-7489663Y+2793650D01*
X-7511094Y+2774600D01*
X-7511094Y+2736500D01*
X-7403938Y+2736500D01*
D70*
X-7914160Y+1798840D02*
X-7322340Y+1798840D01*
X-7322340Y+2390660D01*
X-7914160Y+2390660D01*
X-7914160Y+1798840D01*
D32*
X-7650000Y+1936000D02*
X-7650000Y+1936000D01*
D35*
X-7875425Y+2126500D02*
X-7875425Y+2240800D01*
X-7789700Y+2240800D01*
X-7746838Y+2202700D01*
X-7746838Y+2164600D01*
X-7789700Y+2126500D01*
X-7875425Y+2126500D01*
X-7661113Y+2202700D02*
X-7618250Y+2240800D01*
X-7618250Y+2126500D01*
X-7403938Y+2240800D02*
X-7511094Y+2240800D01*
X-7511094Y+2202700D01*
X-7425369Y+2202700D01*
X-7403938Y+2183650D01*
X-7403938Y+2145550D01*
X-7425369Y+2126500D01*
X-7489663Y+2126500D01*
X-7511094Y+2145550D01*
D70*
X-7914160Y+1202840D02*
X-7322340Y+1202840D01*
X-7322340Y+1794660D01*
X-7914160Y+1794660D01*
X-7914160Y+1202840D01*
D32*
X-7650000Y+1340000D02*
X-7650000Y+1340000D01*
D35*
X-7875425Y+1530500D02*
X-7875425Y+1644800D01*
X-7789700Y+1644800D01*
X-7746838Y+1606700D01*
X-7746838Y+1568600D01*
X-7789700Y+1530500D01*
X-7875425Y+1530500D01*
X-7661113Y+1606700D02*
X-7618250Y+1644800D01*
X-7618250Y+1530500D01*
X-7403938Y+1625750D02*
X-7425369Y+1644800D01*
X-7489663Y+1644800D01*
X-7511094Y+1625750D01*
X-7511094Y+1549550D01*
X-7489663Y+1530500D01*
X-7425369Y+1530500D01*
X-7403938Y+1549550D01*
X-7403938Y+1568600D01*
X-7425369Y+1587650D01*
X-7511094Y+1587650D01*
D70*
X-7914160Y+602840D02*
X-7322340Y+602840D01*
X-7322340Y+1194660D01*
X-7914160Y+1194660D01*
X-7914160Y+602840D01*
D32*
X-7650000Y+740000D02*
X-7650000Y+740000D01*
D35*
X-7875425Y+930500D02*
X-7875425Y+1044800D01*
X-7789700Y+1044800D01*
X-7746838Y+1006700D01*
X-7746838Y+968600D01*
X-7789700Y+930500D01*
X-7875425Y+930500D01*
X-7661113Y+1006700D02*
X-7618250Y+1044800D01*
X-7618250Y+930500D01*
X-7511094Y+1044800D02*
X-7403938Y+1044800D01*
X-7403938Y+1025750D01*
X-7511094Y+930500D01*
D70*
X-7304900Y+1501100D02*
X-6111100Y+1501100D01*
X-6111100Y+1678900D01*
X-7304900Y+1678900D01*
X-7304900Y+1501100D01*
D32*
X-6200000Y+1590000D02*
X-6200000Y+1590000D01*
D36*
X-6921588Y+1556929D02*
X-6921588Y+1623070D01*
X-6859581Y+1623070D01*
X-6847179Y+1612047D01*
X-6847179Y+1601023D01*
X-6859581Y+1590000D01*
X-6921588Y+1590000D01*
X-6859581Y+1590000D02*
X-6847179Y+1578976D01*
X-6847179Y+1556929D01*
X-6809975Y+1612047D02*
X-6797573Y+1623070D01*
X-6760369Y+1623070D01*
X-6747967Y+1612047D01*
X-6747967Y+1601023D01*
X-6760369Y+1590000D01*
X-6797573Y+1590000D01*
X-6809975Y+1578976D01*
X-6809975Y+1556929D01*
X-6747967Y+1556929D01*
X-6648755Y+1623070D02*
X-6710763Y+1623070D01*
X-6710763Y+1601023D01*
X-6661157Y+1601023D01*
X-6648755Y+1590000D01*
X-6648755Y+1567952D01*
X-6661157Y+1556929D01*
X-6698361Y+1556929D01*
X-6710763Y+1567952D01*
D70*
X-7304900Y+901100D02*
X-6111100Y+901100D01*
X-6111100Y+1078900D01*
X-7304900Y+1078900D01*
X-7304900Y+901100D01*
D32*
X-6200000Y+990000D02*
X-6200000Y+990000D01*
D36*
X-6921588Y+956929D02*
X-6921588Y+1023070D01*
X-6859581Y+1023070D01*
X-6847179Y+1012047D01*
X-6847179Y+1001023D01*
X-6859581Y+990000D01*
X-6921588Y+990000D01*
X-6859581Y+990000D02*
X-6847179Y+978976D01*
X-6847179Y+956929D01*
X-6809975Y+1012047D02*
X-6797573Y+1023070D01*
X-6760369Y+1023070D01*
X-6747967Y+1012047D01*
X-6747967Y+1001023D01*
X-6760369Y+990000D01*
X-6797573Y+990000D01*
X-6809975Y+978976D01*
X-6809975Y+956929D01*
X-6747967Y+956929D01*
X-6648755Y+1012047D02*
X-6661157Y+1023070D01*
X-6698361Y+1023070D01*
X-6710763Y+1012047D01*
X-6710763Y+967952D01*
X-6698361Y+956929D01*
X-6661157Y+956929D01*
X-6648755Y+967952D01*
X-6648755Y+978976D01*
X-6661157Y+990000D01*
X-6710763Y+990000D01*
D70*
X-4707160Y-307160D02*
X-4432840Y-307160D01*
X-4432840Y+221160D01*
X-4707160Y+221160D01*
X-4707160Y-307160D01*
D32*
X-4570000Y-170000D02*
X-4570000Y-170000D01*
D45*
X-4545235Y-102690D02*
X-4594765Y-102690D01*
X-4594765Y-56256D01*
X-4586510Y-46969D01*
X-4578255Y-46969D01*
X-4570000Y-56256D01*
X-4561745Y-46969D01*
X-4553490Y-46969D01*
X-4545235Y-56256D01*
X-4545235Y-102690D01*
X-4570000Y-102690D02*
X-4570000Y-56256D01*
X-4594765Y-28395D02*
X-4553490Y-28395D01*
X-4545235Y-19109D01*
X-4545235Y+18039D01*
X-4553490Y+27326D01*
X-4594765Y+27326D01*
X-4594765Y+45900D02*
X-4594765Y+101621D01*
X-4545235Y+45900D01*
X-4545235Y+101621D01*
X-4578255Y+138768D02*
X-4594765Y+157342D01*
X-4545235Y+157342D01*
D70*
X-829320Y-5772160D02*
X-47000Y-5772160D01*
X-47000Y-4735840D01*
X-829320Y-4735840D01*
X-829320Y-5772160D01*
D73*
X-438160Y-5000000D02*
X-438160Y-5000000D01*
D30*
X-644814Y-5439522D02*
X-644814Y-5462484D01*
X-618983Y-5485445D01*
X-515656Y-5485445D01*
X-489824Y-5462484D01*
X-489824Y-5347676D01*
X-283170Y-5347676D02*
X-412329Y-5347676D01*
X-412329Y-5393599D01*
X-309002Y-5393599D01*
X-283170Y-5416560D01*
X-283170Y-5462484D01*
X-309002Y-5485445D01*
X-386497Y-5485445D01*
X-412329Y-5462484D01*
D70*
X-7118900Y-1968900D02*
X-5925100Y-1968900D01*
X-5925100Y-1791100D01*
X-7118900Y-1791100D01*
X-7118900Y-1968900D01*
D32*
X-6014000Y-1880000D02*
X-6014000Y-1880000D01*
D36*
X-6735588Y-1913071D02*
X-6735588Y-1846930D01*
X-6673581Y-1846930D01*
X-6661179Y-1857953D01*
X-6661179Y-1868977D01*
X-6673581Y-1880000D01*
X-6735588Y-1880000D01*
X-6673581Y-1880000D02*
X-6661179Y-1891024D01*
X-6661179Y-1913071D01*
X-6623975Y-1857953D02*
X-6611573Y-1846930D01*
X-6574369Y-1846930D01*
X-6561967Y-1857953D01*
X-6561967Y-1868977D01*
X-6574369Y-1880000D01*
X-6611573Y-1880000D01*
X-6623975Y-1891024D01*
X-6623975Y-1913071D01*
X-6561967Y-1913071D01*
X-6524763Y-1846930D02*
X-6462755Y-1846930D01*
X-6462755Y-1857953D01*
X-6524763Y-1913071D01*
D70*
X-6738900Y-3954900D02*
X-6561100Y-3954900D01*
X-6561100Y-2761100D01*
X-6738900Y-2761100D01*
X-6738900Y-3954900D01*
D32*
X-6650000Y-3866000D02*
X-6650000Y-3866000D01*
D36*
X-6616929Y-3442048D02*
X-6683070Y-3442048D01*
X-6683070Y-3380041D01*
X-6672047Y-3367639D01*
X-6661023Y-3367639D01*
X-6650000Y-3380041D01*
X-6650000Y-3442048D01*
X-6650000Y-3380041D02*
X-6638976Y-3367639D01*
X-6616929Y-3367639D01*
X-6672047Y-3330435D02*
X-6683070Y-3318033D01*
X-6683070Y-3280829D01*
X-6672047Y-3268427D01*
X-6661023Y-3268427D01*
X-6650000Y-3280829D01*
X-6650000Y-3318033D01*
X-6638976Y-3330435D01*
X-6616929Y-3330435D01*
X-6616929Y-3268427D01*
X-6650000Y-3218821D02*
X-6661023Y-3231223D01*
X-6672047Y-3231223D01*
X-6683070Y-3218821D01*
X-6683070Y-3181617D01*
X-6672047Y-3169215D01*
X-6661023Y-3169215D01*
X-6650000Y-3181617D01*
X-6650000Y-3218821D01*
X-6638976Y-3231223D01*
X-6627952Y-3231223D01*
X-6616929Y-3218821D01*
X-6616929Y-3181617D01*
X-6627952Y-3169215D01*
X-6638976Y-3169215D01*
X-6650000Y-3181617D01*
D70*
X-3613660Y-5195160D02*
X-2724660Y-5195160D01*
X-2724660Y-4412840D01*
X-3613660Y-4412840D01*
X-3613660Y-5195160D01*
D41*
X-2788160Y-5058000D02*
X-2788160Y-5058000D01*
D46*
X-3292655Y-5003034D02*
X-3182080Y-5003034D01*
X-3159965Y-4978155D01*
X-3159965Y-4878638D01*
X-3182080Y-4853759D01*
X-3292655Y-4853759D01*
X-3204195Y-4654725D02*
X-3204195Y-4804000D01*
X-3292655Y-4704483D01*
X-3159965Y-4704483D01*
D70*
X-2402460Y-6742240D02*
X-1157860Y-6742240D01*
X-1157860Y-6455220D01*
X-2402460Y-6455220D01*
X-2402460Y-6742240D01*
D37*
X-2288160Y-6600000D02*
X-2288160Y-6600000D01*
D38*
X-1952181Y-6654737D02*
X-1952181Y-6542723D01*
X-1868171Y-6542723D01*
X-1826166Y-6580061D01*
X-1826166Y-6617399D01*
X-1868171Y-6654737D01*
X-1952181Y-6654737D01*
X-1742155Y-6580061D02*
X-1700150Y-6542723D01*
X-1700150Y-6654737D01*
X-1574134Y-6598730D02*
X-1595137Y-6580061D01*
X-1595137Y-6561392D01*
X-1574134Y-6542723D01*
X-1511126Y-6542723D01*
X-1490124Y-6561392D01*
X-1490124Y-6580061D01*
X-1511126Y-6598730D01*
X-1574134Y-6598730D01*
X-1595137Y-6617399D01*
X-1595137Y-6636068D01*
X-1574134Y-6654737D01*
X-1511126Y-6654737D01*
X-1490124Y-6636068D01*
X-1490124Y-6617399D01*
X-1511126Y-6598730D01*
D70*
X-2393060Y-6188900D02*
X-1199260Y-6188900D01*
X-1199260Y-6011100D01*
X-2393060Y-6011100D01*
X-2393060Y-6188900D01*
D32*
X-1288160Y-6100000D02*
X-1288160Y-6100000D01*
D36*
X-2009748Y-6133071D02*
X-2009748Y-6066930D01*
X-1947741Y-6066930D01*
X-1935339Y-6077953D01*
X-1935339Y-6088977D01*
X-1947741Y-6100000D01*
X-2009748Y-6100000D01*
X-1947741Y-6100000D02*
X-1935339Y-6111024D01*
X-1935339Y-6133071D01*
X-1885733Y-6088977D02*
X-1860930Y-6066930D01*
X-1860930Y-6133071D01*
X-1786521Y-6100000D02*
X-1798923Y-6088977D01*
X-1798923Y-6077953D01*
X-1786521Y-6066930D01*
X-1749317Y-6066930D01*
X-1736915Y-6077953D01*
X-1736915Y-6088977D01*
X-1749317Y-6100000D01*
X-1786521Y-6100000D01*
X-1798923Y-6111024D01*
X-1798923Y-6122048D01*
X-1786521Y-6133071D01*
X-1749317Y-6133071D01*
X-1736915Y-6122048D01*
X-1736915Y-6111024D01*
X-1749317Y-6100000D01*
D70*
X-2393060Y-5738900D02*
X-1199260Y-5738900D01*
X-1199260Y-5561100D01*
X-2393060Y-5561100D01*
X-2393060Y-5738900D01*
D32*
X-2304160Y-5650000D02*
X-2304160Y-5650000D01*
D36*
X-1880208Y-5683071D02*
X-1880208Y-5616930D01*
X-1818201Y-5616930D01*
X-1805799Y-5627953D01*
X-1805799Y-5638977D01*
X-1818201Y-5650000D01*
X-1880208Y-5650000D01*
X-1818201Y-5650000D02*
X-1805799Y-5661024D01*
X-1805799Y-5683071D01*
X-1768595Y-5627953D02*
X-1756193Y-5616930D01*
X-1718989Y-5616930D01*
X-1706587Y-5627953D01*
X-1706587Y-5638977D01*
X-1718989Y-5650000D01*
X-1756193Y-5650000D01*
X-1768595Y-5661024D01*
X-1768595Y-5683071D01*
X-1706587Y-5683071D01*
X-1607375Y-5638977D02*
X-1619777Y-5650000D01*
X-1656981Y-5650000D01*
X-1669383Y-5638977D01*
X-1669383Y-5627953D01*
X-1656981Y-5616930D01*
X-1619777Y-5616930D01*
X-1607375Y-5627953D01*
X-1607375Y-5672048D01*
X-1619777Y-5683071D01*
X-1656981Y-5683071D01*
D70*
X-7368900Y-2168900D02*
X-6175100Y-2168900D01*
X-6175100Y-1991100D01*
X-7368900Y-1991100D01*
X-7368900Y-2168900D01*
D32*
X-7280000Y-2080000D02*
X-7280000Y-2080000D01*
D36*
X-6856048Y-2113071D02*
X-6856048Y-2046930D01*
X-6794041Y-2046930D01*
X-6781639Y-2057953D01*
X-6781639Y-2068977D01*
X-6794041Y-2080000D01*
X-6856048Y-2080000D01*
X-6794041Y-2080000D02*
X-6781639Y-2091024D01*
X-6781639Y-2113071D01*
X-6744435Y-2057953D02*
X-6732033Y-2046930D01*
X-6694829Y-2046930D01*
X-6682427Y-2057953D01*
X-6682427Y-2068977D01*
X-6694829Y-2080000D01*
X-6682427Y-2091024D01*
X-6682427Y-2102048D01*
X-6694829Y-2113071D01*
X-6732033Y-2113071D01*
X-6744435Y-2102048D01*
X-6719632Y-2080000D02*
X-6694829Y-2080000D01*
X-6657624Y-2102048D02*
X-6657624Y-2057953D01*
X-6645223Y-2046930D01*
X-6595617Y-2046930D01*
X-6583215Y-2057953D01*
X-6583215Y-2102048D01*
X-6595617Y-2113071D01*
X-6645223Y-2113071D01*
X-6657624Y-2102048D01*
X-6657624Y-2113071D02*
X-6583215Y-2046930D01*
D70*
X-2418460Y-5294780D02*
X-1173860Y-5294780D01*
X-1173860Y-5007760D01*
X-2418460Y-5007760D01*
X-2418460Y-5294780D01*
D37*
X-1288160Y-5150000D02*
X-1288160Y-5150000D01*
D38*
X-2128201Y-5207277D02*
X-2128201Y-5095263D01*
X-2044191Y-5095263D01*
X-2002186Y-5132601D01*
X-2002186Y-5169939D01*
X-2044191Y-5207277D01*
X-2128201Y-5207277D01*
X-1918175Y-5132601D02*
X-1876170Y-5095263D01*
X-1876170Y-5207277D01*
X-1666144Y-5132601D02*
X-1687146Y-5151270D01*
X-1750154Y-5151270D01*
X-1771157Y-5132601D01*
X-1771157Y-5113932D01*
X-1750154Y-5095263D01*
X-1687146Y-5095263D01*
X-1666144Y-5113932D01*
X-1666144Y-5188608D01*
X-1687146Y-5207277D01*
X-1750154Y-5207277D01*
D70*
X-7891160Y-3618160D02*
X-7235840Y-3618160D01*
X-7235840Y-2835840D01*
X-7891160Y-2835840D01*
X-7891160Y-3618160D01*
D41*
X-7500000Y-3354000D02*
X-7500000Y-3354000D01*
D44*
X-7753999Y-3090687D02*
X-7753999Y-3111854D01*
X-7730187Y-3133020D01*
X-7634938Y-3133020D01*
X-7611125Y-3111854D01*
X-7611125Y-3006021D01*
X-7420626Y-3027187D02*
X-7444439Y-3006021D01*
X-7515876Y-3006021D01*
X-7539688Y-3027187D01*
X-7539688Y-3111854D01*
X-7515876Y-3133020D01*
X-7444439Y-3133020D01*
X-7420626Y-3111854D01*
X-7420626Y-3090687D01*
X-7444439Y-3069520D01*
X-7539688Y-3069520D01*
D70*
X-898160Y-2852160D02*
X+138160Y-2852160D01*
X+138160Y-1307840D01*
X-898160Y-1307840D01*
X-898160Y-2852160D01*
D73*
X-380000Y-2588000D02*
X-380000Y-2588000D01*
D47*
X-346811Y-2216143D02*
X-313621Y-2216143D01*
X-280432Y-2178806D01*
X-280432Y-2029454D01*
X-313621Y-1992116D01*
X-479568Y-1992116D01*
X-446379Y-1880103D02*
X-479568Y-1842765D01*
X-479568Y-1730751D01*
X-446379Y-1693413D01*
X-413189Y-1693413D01*
X-380000Y-1730751D01*
X-346811Y-1693413D01*
X-313621Y-1693413D01*
X-280432Y-1730751D01*
X-280432Y-1842765D01*
X-313621Y-1880103D01*
X-380000Y-1805427D02*
X-380000Y-1730751D01*
D70*
X-3017160Y-1791160D02*
X-2615840Y-1791160D01*
X-2615840Y-1008840D01*
X-3017160Y-1008840D01*
X-3017160Y-1791160D01*
D41*
X-2880000Y-1146000D02*
X-2880000Y-1146000D01*
D35*
X-2835634Y-1666191D02*
X-2873903Y-1623139D01*
X-2873903Y-1580086D01*
X-2835634Y-1537033D01*
X-2797365Y-1537033D01*
X-2759096Y-1580086D01*
X-2759096Y-1623139D01*
X-2797365Y-1666191D01*
X-2835634Y-1666191D01*
X-2797365Y-1580086D02*
X-2759096Y-1537033D01*
X-2835634Y-1450928D02*
X-2873903Y-1407875D01*
X-2759096Y-1407875D01*
D70*
X-3007160Y-3151160D02*
X-2605840Y-3151160D01*
X-2605840Y-2368840D01*
X-3007160Y-2368840D01*
X-3007160Y-3151160D01*
D41*
X-2870000Y-2506000D02*
X-2870000Y-2506000D01*
D35*
X-2825634Y-3026191D02*
X-2863903Y-2983139D01*
X-2863903Y-2940086D01*
X-2825634Y-2897033D01*
X-2787365Y-2897033D01*
X-2749096Y-2940086D01*
X-2749096Y-2983139D01*
X-2787365Y-3026191D01*
X-2825634Y-3026191D01*
X-2787365Y-2940086D02*
X-2749096Y-2897033D01*
X-2844769Y-2832454D02*
X-2863903Y-2810928D01*
X-2863903Y-2746349D01*
X-2844769Y-2724822D01*
X-2825634Y-2724822D01*
X-2806500Y-2746349D01*
X-2806500Y-2810928D01*
X-2787365Y-2832454D01*
X-2749096Y-2832454D01*
X-2749096Y-2724822D01*
D70*
X-2074780Y-3384300D02*
X-1787760Y-3384300D01*
X-1787760Y-2139700D01*
X-2074780Y-2139700D01*
X-2074780Y-3384300D01*
D37*
X-1930000Y-3270000D02*
X-1930000Y-3270000D01*
D38*
X-1875263Y-2850011D02*
X-1987277Y-2850011D01*
X-1987277Y-2766001D01*
X-1949939Y-2723996D01*
X-1912601Y-2723996D01*
X-1875263Y-2766001D01*
X-1875263Y-2850011D01*
X-1987277Y-2555975D02*
X-1987277Y-2660988D01*
X-1949939Y-2660988D01*
X-1949939Y-2576977D01*
X-1931270Y-2555975D01*
X-1893932Y-2555975D01*
X-1875263Y-2576977D01*
X-1875263Y-2639985D01*
X-1893932Y-2660988D01*
D70*
X-2072240Y-1990300D02*
X-1785220Y-1990300D01*
X-1785220Y-745700D01*
X-2072240Y-745700D01*
X-2072240Y-1990300D01*
D37*
X-1930000Y-860000D02*
X-1930000Y-860000D01*
D38*
X-1872723Y-1616031D02*
X-1984737Y-1616031D01*
X-1984737Y-1532021D01*
X-1947399Y-1490016D01*
X-1910061Y-1490016D01*
X-1872723Y-1532021D01*
X-1872723Y-1616031D01*
X-1910061Y-1321995D02*
X-1910061Y-1448010D01*
X-1984737Y-1364000D01*
X-1872723Y-1364000D01*
D70*
X-3458900Y-3628900D02*
X-2265100Y-3628900D01*
X-2265100Y-3451100D01*
X-3458900Y-3451100D01*
X-3458900Y-3628900D01*
D32*
X-2354000Y-3540000D02*
X-2354000Y-3540000D01*
D36*
X-3075588Y-3573071D02*
X-3075588Y-3506930D01*
X-3013581Y-3506930D01*
X-3001179Y-3517953D01*
X-3001179Y-3528977D01*
X-3013581Y-3540000D01*
X-3075588Y-3540000D01*
X-3013581Y-3540000D02*
X-3001179Y-3551024D01*
X-3001179Y-3573071D01*
X-2963975Y-3517953D02*
X-2951573Y-3506930D01*
X-2914369Y-3506930D01*
X-2901967Y-3517953D01*
X-2901967Y-3528977D01*
X-2914369Y-3540000D01*
X-2951573Y-3540000D01*
X-2963975Y-3551024D01*
X-2963975Y-3573071D01*
X-2901967Y-3573071D01*
X-2877164Y-3562048D02*
X-2877164Y-3517953D01*
X-2864763Y-3506930D01*
X-2815157Y-3506930D01*
X-2802755Y-3517953D01*
X-2802755Y-3562048D01*
X-2815157Y-3573071D01*
X-2864763Y-3573071D01*
X-2877164Y-3562048D01*
X-2877164Y-3573071D02*
X-2802755Y-3506930D01*
D70*
X-3484300Y-4052240D02*
X-2239700Y-4052240D01*
X-2239700Y-3765220D01*
X-3484300Y-3765220D01*
X-3484300Y-4052240D01*
D37*
X-3370000Y-3910000D02*
X-3370000Y-3910000D01*
D38*
X-3034021Y-3964737D02*
X-3034021Y-3852723D01*
X-2950011Y-3852723D01*
X-2908006Y-3890061D01*
X-2908006Y-3927399D01*
X-2950011Y-3964737D01*
X-3034021Y-3964737D01*
X-2823995Y-3890061D02*
X-2781990Y-3852723D01*
X-2781990Y-3964737D01*
X-2655974Y-3890061D02*
X-2613969Y-3852723D01*
X-2613969Y-3964737D01*
D70*
X-3464900Y-748900D02*
X-2271100Y-748900D01*
X-2271100Y-571100D01*
X-3464900Y-571100D01*
X-3464900Y-748900D01*
D32*
X-2360000Y-660000D02*
X-2360000Y-660000D01*
D36*
X-3031982Y-693071D02*
X-3031982Y-626930D01*
X-2969975Y-626930D01*
X-2957573Y-637953D01*
X-2957573Y-648977D01*
X-2969975Y-660000D01*
X-3031982Y-660000D01*
X-2969975Y-660000D02*
X-2957573Y-671024D01*
X-2957573Y-693071D01*
X-2858361Y-626930D02*
X-2920369Y-626930D01*
X-2920369Y-648977D01*
X-2870763Y-648977D01*
X-2858361Y-660000D01*
X-2858361Y-682048D01*
X-2870763Y-693071D01*
X-2907967Y-693071D01*
X-2920369Y-682048D01*
D70*
X-3494300Y-382240D02*
X-2249700Y-382240D01*
X-2249700Y-95220D01*
X-3494300Y-95220D01*
X-3494300Y-382240D01*
D37*
X-3380000Y-240000D02*
X-3380000Y-240000D01*
D38*
X-3044021Y-294737D02*
X-3044021Y-182723D01*
X-2960011Y-182723D01*
X-2918006Y-220061D01*
X-2918006Y-257399D01*
X-2960011Y-294737D01*
X-3044021Y-294737D01*
X-2833995Y-220061D02*
X-2791990Y-182723D01*
X-2791990Y-294737D01*
X-2707979Y-276068D02*
X-2707979Y-201392D01*
X-2686977Y-182723D01*
X-2602966Y-182723D01*
X-2581964Y-201392D01*
X-2581964Y-276068D01*
X-2602966Y-294737D01*
X-2686977Y-294737D01*
X-2707979Y-276068D01*
X-2707979Y-294737D02*
X-2581964Y-182723D01*
M02*
