G04 PROTEUS GERBER X2 FILE*
%TF.GenerationSoftware,Labcenter,Proteus,8.15-SP1-Build34318*%
%TF.CreationDate,2023-09-22T14:22:51+00:00*%
%TF.FileFunction,Plated,1,0,PTH*%
%TF.FilePolarity,Positive*%
%TF.Part,Single*%
%TF.SameCoordinates,{a03bde03-d8f0-4a32-bc8c-763bbf401456}*%
%FSLAX45Y45*%
%MOMM*%
G01*
%TA.AperFunction,ViaDrill*%
%ADD65C,0.508000*%
%TA.AperFunction,ComponentDrill*%
%ADD66C,1.524000*%
%TA.AperFunction,OtherDrill,Unknown*%
%ADD67C,3.000000*%
%TA.AperFunction,ComponentDrill*%
%ADD68C,1.016000*%
%ADD69C,0.762000*%
%TA.AperFunction,ComponentDrill*%
%ADD74C,0.635000*%
%TA.AperFunction,ComponentDrill*%
%ADD75C,4.064000*%
%TD.AperFunction*%
D65*
X+1092200Y+1625600D03*
X+1079500Y-1000000D03*
D66*
X-7150000Y+5150000D03*
X-7150000Y+4649620D03*
D67*
X-7620000Y+5969000D03*
X+3759200Y+5969000D03*
X-7620000Y-6157000D03*
X+4946440Y-6107000D03*
D66*
X-3550000Y+5150000D03*
X-6150000Y+5150000D03*
D68*
X-2378500Y+4134000D03*
D69*
X-2378500Y+5150000D03*
X-2000000Y+4650000D03*
X-2000000Y+4300000D03*
D68*
X-1678500Y+5150000D03*
X-1678500Y+4134000D03*
X-7650000Y+3400000D03*
D69*
X-7650000Y+3146000D03*
X-7200000Y+3400000D03*
X-6184000Y+3400000D03*
D68*
X-7650000Y+4000000D03*
D69*
X-7650000Y+3746000D03*
X-7200000Y+4000000D03*
X-6184000Y+4000000D03*
X-1350000Y+4300000D03*
X-1350000Y+4650000D03*
D68*
X-1104000Y+3500000D03*
D69*
X-850000Y+3500000D03*
X-2366000Y+2250000D03*
X-1350000Y+2250000D03*
D68*
X-2374900Y+3594100D03*
X-2374900Y+2578100D03*
X-3050000Y+5150000D03*
X-3050000Y+4134000D03*
D69*
X-3894500Y+3294100D03*
X-3894500Y+4310100D03*
X-5777000Y+4327000D03*
X-5650000Y+4200000D03*
X-5777000Y+4073000D03*
X-4266000Y+3284000D03*
X-4266000Y+4300000D03*
D68*
X-3050000Y+2584000D03*
X-3050000Y+3600000D03*
X-3086100Y+1651000D03*
D69*
X-3086100Y+1397000D03*
X-3517900Y+1301000D03*
X-3517900Y+1651000D03*
X-4622800Y+1651000D03*
X-4622800Y+1397000D03*
X-4622800Y+1143000D03*
X-4622800Y+889000D03*
X-4622800Y+635000D03*
X-4622800Y+381000D03*
X-4622800Y+127000D03*
X-3860800Y+127000D03*
X-3860800Y+381000D03*
X-3860800Y+635000D03*
X-3860800Y+889000D03*
X-3860800Y+1143000D03*
X-3860800Y+1397000D03*
X-3860800Y+1651000D03*
X-3500000Y+650000D03*
X-2484000Y+650000D03*
D74*
X-1642400Y+491400D03*
X-1769400Y+364400D03*
X-1642400Y+237400D03*
D69*
X-1121700Y+1685200D03*
X-1121700Y+669200D03*
X-3500000Y+900000D03*
X-2484000Y+900000D03*
D74*
X-1693200Y+1177200D03*
X-1820200Y+1050200D03*
X-1693200Y+923200D03*
D69*
X-2163100Y+1685200D03*
X-2163100Y+669200D03*
X-50800Y+787400D03*
X-50800Y+533400D03*
X-50800Y+279400D03*
X-50800Y+1879600D03*
X-50800Y+1625600D03*
X-50800Y+1371600D03*
X-355600Y+1028700D03*
X-355600Y+12700D03*
X-355600Y+1371600D03*
X-355600Y+2387600D03*
X+419100Y+12700D03*
X+419100Y+1028700D03*
X+419100Y+1371600D03*
X+419100Y+2387600D03*
D66*
X+2106440Y-1463180D03*
X+3193560Y-1463180D03*
D75*
X+2650000Y-150000D03*
X+2650000Y-3147200D03*
D66*
X+2098040Y+3850120D03*
X+3185160Y+3850120D03*
D75*
X+2641600Y+5163300D03*
X+2641600Y+2166100D03*
D68*
X+750000Y-316000D03*
X+750000Y+700000D03*
X+736600Y+1054100D03*
X+736600Y+2070100D03*
D69*
X-5850000Y+3350000D03*
X-5596000Y+3350000D03*
X-5342000Y+3350000D03*
X-5500000Y+2900000D03*
X-5850000Y+2900000D03*
X-5850000Y+3750000D03*
X-5500000Y+3750000D03*
X-7511100Y-2350900D03*
X-7257100Y-2350900D03*
X-7003100Y-2350900D03*
X-6749100Y-2350900D03*
X-6495100Y-2350900D03*
X-6241100Y-2350900D03*
X-5987100Y-2350900D03*
X-5733100Y-2350900D03*
X-5479100Y-2350900D03*
X-5225100Y-2350900D03*
X-4971100Y-2350900D03*
X-4717100Y-2350900D03*
X-4463100Y-2350900D03*
X-4209100Y-2350900D03*
X-4209100Y-1588900D03*
X-4463100Y-1588900D03*
X-4717100Y-1588900D03*
X-4971100Y-1588900D03*
X-5225100Y-1588900D03*
X-5479100Y-1588900D03*
X-5733100Y-1588900D03*
X-5987100Y-1588900D03*
X-6241100Y-1588900D03*
X-6495100Y-1588900D03*
X-6749100Y-1588900D03*
X-7003100Y-1588900D03*
X-7257100Y-1588900D03*
X-7509100Y-1588900D03*
X-5480000Y-1130000D03*
X-5130000Y-1130000D03*
X-2300800Y-1064600D03*
X-2300800Y-2080600D03*
X-2021400Y-2080600D03*
X-2021400Y-1064600D03*
X-1742000Y-1064600D03*
X-1742000Y-2080600D03*
X-5130200Y-3112695D03*
X-5638200Y-3112695D03*
X-5980000Y-3540000D03*
X-5630000Y-3540000D03*
X-4783005Y-3549205D03*
X-5133005Y-3549205D03*
X-4336300Y+1930400D03*
X-4686300Y+1930400D03*
X-4804000Y+2300000D03*
X-4296000Y+2300000D03*
X-4550000Y+2300000D03*
X-4016000Y+2300000D03*
X-3000000Y+2300000D03*
X-7521800Y-1169800D03*
X-7521800Y-915800D03*
D66*
X+4862400Y+469900D03*
X+4862400Y+977900D03*
X+4862400Y+1485900D03*
D69*
X-264000Y-1880000D03*
X-1280000Y-1880000D03*
X-264000Y-1580000D03*
X-1280000Y-1580000D03*
D68*
X-2680000Y-2896000D03*
X-2680000Y-1880000D03*
X-2700000Y-500000D03*
X-2700000Y-1516000D03*
D69*
X-6200000Y+2800000D03*
X-7216000Y+2800000D03*
X-6200000Y+2200000D03*
X-7216000Y+2200000D03*
X-6200000Y+1600000D03*
X-7216000Y+1600000D03*
X-6200000Y+1000000D03*
X-7216000Y+1000000D03*
D68*
X-7650000Y+2800000D03*
D69*
X-7650000Y+2546000D03*
D68*
X-7650000Y+2200000D03*
D69*
X-7650000Y+1946000D03*
D68*
X-7650000Y+1600000D03*
D69*
X-7650000Y+1346000D03*
D68*
X-7650000Y+1000000D03*
D69*
X-7650000Y+746000D03*
D68*
X-7650000Y+404000D03*
D69*
X-7650000Y+150000D03*
D68*
X-7650000Y-196000D03*
D69*
X-7650000Y-450000D03*
X-6200000Y+400000D03*
X-7216000Y+400000D03*
X-6200000Y-200000D03*
X-7216000Y-200000D03*
D68*
X-3980000Y-3830000D03*
X-3980000Y-4084000D03*
D66*
X+4861840Y-4700000D03*
X+4861840Y-5200380D03*
D69*
X-6014000Y-1880000D03*
X-7030000Y-1880000D03*
X-6650000Y-3866000D03*
X-6650000Y-2850000D03*
X+2511840Y-4758000D03*
X+2511840Y-4504000D03*
X+2511840Y-4250000D03*
X+1749840Y-4250000D03*
X+1749840Y-4504000D03*
X+1749840Y-4758000D03*
D68*
X+4027840Y-6300000D03*
X+3011840Y-6300000D03*
D69*
X+4011840Y-5800000D03*
X+2995840Y-5800000D03*
X+2995840Y-5350000D03*
X+4011840Y-5350000D03*
X-7280000Y-2080000D03*
X-6264000Y-2080000D03*
D68*
X+2995840Y-4850000D03*
X+4011840Y-4850000D03*
D69*
X-3700000Y-2326000D03*
X-3700000Y-1310000D03*
X-3350000Y-2326000D03*
X-3350000Y-1310000D03*
D68*
X-3350000Y-3626000D03*
X-3350000Y-2610000D03*
X-3690000Y-3636000D03*
X-3690000Y-2620000D03*
D69*
X-7500000Y-3354000D03*
X-7500000Y-3100000D03*
M02*
