G04 PROTEUS GERBER X2 FILE*
%TF.GenerationSoftware,Labcenter,Proteus,8.15-SP1-Build34318*%
%TF.CreationDate,2023-09-22T16:19:49+00:00*%
%TF.FileFunction,Soldermask,Bot*%
%TF.FilePolarity,Negative*%
%TF.Part,Single*%
%TF.SameCoordinates,{735288ba-824c-4c16-a6a1-7709d7ab745a}*%
%FSLAX45Y45*%
%MOMM*%
G01*
%TA.AperFunction,Material*%
%ADD21C,3.302000*%
%TA.AperFunction,Material*%
%ADD22C,6.604000*%
%AMPPAD015*
4,1,36,
-0.952500,1.079500,
0.952500,1.079500,
0.978470,1.076970,
1.002480,1.069700,
1.024080,1.058150,
1.042790,1.042790,
1.058150,1.024070,
1.069700,1.002480,
1.076970,0.978470,
1.079500,0.952500,
1.079500,-0.952500,
1.076970,-0.978470,
1.069700,-1.002480,
1.058150,-1.024070,
1.042790,-1.042790,
1.024080,-1.058150,
1.002480,-1.069700,
0.978470,-1.076970,
0.952500,-1.079500,
-0.952500,-1.079500,
-0.978470,-1.076970,
-1.002480,-1.069700,
-1.024080,-1.058150,
-1.042790,-1.042790,
-1.058150,-1.024070,
-1.069700,-1.002480,
-1.076970,-0.978470,
-1.079500,-0.952500,
-1.079500,0.952500,
-1.076970,0.978470,
-1.069700,1.002480,
-1.058150,1.024070,
-1.042790,1.042790,
-1.024080,1.058150,
-1.002480,1.069700,
-0.978470,1.076970,
-0.952500,1.079500,
0*%
%TA.AperFunction,Material*%
%ADD23PPAD015*%
%ADD24C,2.286000*%
%AMPPAD017*
4,1,36,
1.143000,1.016000,
1.143000,-1.016000,
1.140470,-1.041970,
1.133200,-1.065980,
1.121650,-1.087580,
1.106290,-1.106290,
1.087570,-1.121650,
1.065980,-1.133200,
1.041970,-1.140470,
1.016000,-1.143000,
-1.016000,-1.143000,
-1.041970,-1.140470,
-1.065980,-1.133200,
-1.087570,-1.121650,
-1.106290,-1.106290,
-1.121650,-1.087580,
-1.133200,-1.065980,
-1.140470,-1.041970,
-1.143000,-1.016000,
-1.143000,1.016000,
-1.140470,1.041970,
-1.133200,1.065980,
-1.121650,1.087580,
-1.106290,1.106290,
-1.087570,1.121650,
-1.065980,1.133200,
-1.041970,1.140470,
-1.016000,1.143000,
1.016000,1.143000,
1.041970,1.140470,
1.065980,1.133200,
1.087570,1.121650,
1.106290,1.106290,
1.121650,1.087580,
1.133200,1.065980,
1.140470,1.041970,
1.143000,1.016000,
0*%
%ADD25PPAD017*%
%AMPPAD018*
4,1,36,
-1.016000,1.143000,
1.016000,1.143000,
1.041970,1.140470,
1.065980,1.133200,
1.087580,1.121650,
1.106290,1.106290,
1.121650,1.087570,
1.133200,1.065980,
1.140470,1.041970,
1.143000,1.016000,
1.143000,-1.016000,
1.140470,-1.041970,
1.133200,-1.065980,
1.121650,-1.087570,
1.106290,-1.106290,
1.087580,-1.121650,
1.065980,-1.133200,
1.041970,-1.140470,
1.016000,-1.143000,
-1.016000,-1.143000,
-1.041970,-1.140470,
-1.065980,-1.133200,
-1.087580,-1.121650,
-1.106290,-1.106290,
-1.121650,-1.087570,
-1.133200,-1.065980,
-1.140470,-1.041970,
-1.143000,-1.016000,
-1.143000,1.016000,
-1.140470,1.041970,
-1.133200,1.065980,
-1.121650,1.087570,
-1.106290,1.106290,
-1.087580,1.121650,
-1.065980,1.133200,
-1.041970,1.140470,
-1.016000,1.143000,
0*%
%ADD26PPAD018*%
%ADD27C,2.540000*%
%TA.AperFunction,Material*%
%ADD28C,1.778000*%
%AMPPAD021*
4,1,8,
0.509800,-1.397000,
-0.509800,-1.397000,
-0.889000,-1.017800,
-0.889000,1.017800,
-0.509800,1.397000,
0.509800,1.397000,
0.889000,1.017800,
0.889000,-1.017800,
0.509800,-1.397000,
0*%
%ADD29PPAD021*%
%AMPPAD022*
4,1,8,
1.397000,0.509800,
1.397000,-0.509800,
1.017800,-0.889000,
-1.017800,-0.889000,
-1.397000,-0.509800,
-1.397000,0.509800,
-1.017800,0.889000,
1.017800,0.889000,
1.397000,0.509800,
0*%
%TA.AperFunction,Material*%
%ADD72PPAD022*%
%AMPPAD023*
4,1,68,
-1.016000,1.270000,
1.016000,1.270000,
1.042400,1.268720,
1.067930,1.264950,
1.092490,1.258800,
1.115960,1.250400,
1.138220,1.239870,
1.159150,1.227300,
1.178650,1.212840,
1.196580,1.196580,
1.212840,1.178640,
1.227300,1.159150,
1.239860,1.138220,
1.250400,1.115960,
1.258800,1.092490,
1.264950,1.067930,
1.268720,1.042400,
1.270000,1.016000,
1.270000,-1.016000,
1.268720,-1.042400,
1.264950,-1.067930,
1.258800,-1.092490,
1.250400,-1.115960,
1.239860,-1.138220,
1.227300,-1.159150,
1.212840,-1.178640,
1.196580,-1.196580,
1.178650,-1.212840,
1.159150,-1.227300,
1.138220,-1.239870,
1.115960,-1.250400,
1.092490,-1.258800,
1.067930,-1.264950,
1.042400,-1.268720,
1.016000,-1.270000,
-1.016000,-1.270000,
-1.042400,-1.268720,
-1.067930,-1.264950,
-1.092490,-1.258800,
-1.115960,-1.250400,
-1.138220,-1.239870,
-1.159150,-1.227300,
-1.178650,-1.212840,
-1.196580,-1.196580,
-1.212840,-1.178640,
-1.227300,-1.159150,
-1.239860,-1.138220,
-1.250400,-1.115960,
-1.258800,-1.092490,
-1.264950,-1.067930,
-1.268720,-1.042400,
-1.270000,-1.016000,
-1.270000,1.016000,
-1.268720,1.042400,
-1.264950,1.067930,
-1.258800,1.092490,
-1.250400,1.115960,
-1.239860,1.138220,
-1.227300,1.159150,
-1.212840,1.178640,
-1.196580,1.196580,
-1.178650,1.212840,
-1.159150,1.227300,
-1.138220,1.239870,
-1.115960,1.250400,
-1.092490,1.258800,
-1.067930,1.264950,
-1.042400,1.268720,
-1.016000,1.270000,
0*%
%ADD73PPAD023*%
%TA.AperFunction,Profile*%
%ADD20C,0.203200*%
%TD.AperFunction*%
D21*
X-7150000Y+5150000D03*
X-7150000Y+4649620D03*
D22*
X-7620000Y+5969000D03*
X+450000Y+5750000D03*
X-7650000Y-6750000D03*
X-353560Y-6407000D03*
D21*
X-3550000Y+5150000D03*
X-6150000Y+5150000D03*
D23*
X-2378500Y+4134000D03*
D24*
X-2378500Y+5150000D03*
X-2000000Y+4650000D03*
X-2000000Y+4300000D03*
D25*
X-7650000Y+3400000D03*
D24*
X-7650000Y+3146000D03*
X-7200000Y+3400000D03*
X-6184000Y+3400000D03*
D25*
X-7650000Y+4000000D03*
D24*
X-7650000Y+3746000D03*
X-7200000Y+4000000D03*
X-6184000Y+4000000D03*
D26*
X-3050000Y+5150000D03*
D27*
X-3050000Y+4134000D03*
D24*
X-3894500Y+3294100D03*
X-3894500Y+4310100D03*
D28*
X-5777000Y+4327000D03*
X-5650000Y+4200000D03*
X-5777000Y+4073000D03*
D24*
X-4266000Y+3284000D03*
X-4266000Y+4300000D03*
D26*
X-3050000Y+2584000D03*
D27*
X-3050000Y+3600000D03*
D29*
X-5850000Y+3350000D03*
X-5596000Y+3350000D03*
X-5342000Y+3350000D03*
D24*
X-5500000Y+2900000D03*
X-5850000Y+2900000D03*
X-5850000Y+3750000D03*
X-5500000Y+3750000D03*
D29*
X-7511100Y-2350900D03*
X-7257100Y-2350900D03*
X-7003100Y-2350900D03*
X-6749100Y-2350900D03*
X-6495100Y-2350900D03*
X-6241100Y-2350900D03*
X-5987100Y-2350900D03*
X-5733100Y-2350900D03*
X-5479100Y-2350900D03*
X-5225100Y-2350900D03*
X-4971100Y-2350900D03*
X-4717100Y-2350900D03*
X-4463100Y-2350900D03*
X-4209100Y-2350900D03*
X-4209100Y-1588900D03*
X-4463100Y-1588900D03*
X-4717100Y-1588900D03*
X-4971100Y-1588900D03*
X-5225100Y-1588900D03*
X-5479100Y-1588900D03*
X-5733100Y-1588900D03*
X-5987100Y-1588900D03*
X-6241100Y-1588900D03*
X-6495100Y-1588900D03*
X-6749100Y-1588900D03*
X-7003100Y-1588900D03*
X-7257100Y-1588900D03*
X-7509100Y-1588900D03*
D24*
X-5480000Y-1130000D03*
X-5130000Y-1130000D03*
X-5130200Y-3112695D03*
X-5638200Y-3112695D03*
X-5980000Y-3540000D03*
X-5630000Y-3540000D03*
X-4783005Y-3549205D03*
X-5133005Y-3549205D03*
D72*
X-7521800Y-1169800D03*
X-7521800Y-915800D03*
D24*
X-6200000Y+2800000D03*
X-7216000Y+2800000D03*
X-6200000Y+2190000D03*
X-7216000Y+2190000D03*
D25*
X-7650000Y+2800000D03*
D24*
X-7650000Y+2546000D03*
D25*
X-7650000Y+2190000D03*
D24*
X-7650000Y+1936000D03*
D25*
X-7650000Y+1594000D03*
D24*
X-7650000Y+1340000D03*
D25*
X-7650000Y+994000D03*
D24*
X-7650000Y+740000D03*
X-6200000Y+1590000D03*
X-7216000Y+1590000D03*
X-6200000Y+990000D03*
X-7216000Y+990000D03*
D25*
X-4570000Y-170000D03*
X-4570000Y+84000D03*
D21*
X-438160Y-5000000D03*
X-438160Y-5500380D03*
D24*
X-6014000Y-1880000D03*
X-7030000Y-1880000D03*
X-6650000Y-3866000D03*
X-6650000Y-2850000D03*
D72*
X-2788160Y-5058000D03*
X-2788160Y-4804000D03*
X-2788160Y-4550000D03*
X-3550160Y-4550000D03*
X-3550160Y-4804000D03*
X-3550160Y-5058000D03*
D26*
X-1272160Y-6600000D03*
D27*
X-2288160Y-6600000D03*
D24*
X-1288160Y-6100000D03*
X-2304160Y-6100000D03*
X-2304160Y-5650000D03*
X-1288160Y-5650000D03*
X-7280000Y-2080000D03*
X-6264000Y-2080000D03*
D26*
X-2304160Y-5150000D03*
D27*
X-1288160Y-5150000D03*
D72*
X-7500000Y-3354000D03*
X-7500000Y-3100000D03*
D21*
X-380000Y-2588000D03*
X-380000Y-2080000D03*
X-380000Y-1572000D03*
D72*
X-2880000Y-1146000D03*
X-2880000Y-1400000D03*
X-2880000Y-1654000D03*
X-2870000Y-2506000D03*
X-2870000Y-2760000D03*
X-2870000Y-3014000D03*
D73*
X-1930000Y-2254000D03*
D27*
X-1930000Y-3270000D03*
D73*
X-1930000Y-1876000D03*
D27*
X-1930000Y-860000D03*
D24*
X-2354000Y-3540000D03*
X-3370000Y-3540000D03*
D73*
X-2354000Y-3910000D03*
D27*
X-3370000Y-3910000D03*
D24*
X-2360000Y-660000D03*
X-3376000Y-660000D03*
D27*
X-2364000Y-240000D03*
X-3380000Y-240000D03*
D20*
X-8214500Y-7201500D02*
X+1472000Y-7201500D01*
X+1472000Y+6540500D01*
X-8214500Y+6540500D01*
X-8214500Y-7201500D01*
M02*
