G04 PROTEUS GERBER X2 FILE*
%TF.GenerationSoftware,Labcenter,Proteus,8.15-SP1-Build34318*%
%TF.CreationDate,2023-09-22T16:19:49+00:00*%
%TF.FileFunction,Copper,L2,Bot*%
%TF.FilePolarity,Positive*%
%TF.Part,Single*%
%TF.SameCoordinates,{735288ba-824c-4c16-a6a1-7709d7ab745a}*%
%FSLAX45Y45*%
%MOMM*%
G01*
%TA.AperFunction,Conductor*%
%ADD10C,1.016000*%
%ADD11C,1.524000*%
%ADD12C,5.080000*%
%TA.AperFunction,ComponentPad*%
%ADD13C,3.048000*%
%TA.AperFunction,OtherPad,Unknown*%
%ADD14C,6.350000*%
%TA.AperFunction,ComponentPad*%
%ADD15R,1.905000X1.905000*%
%ADD16C,2.032000*%
%ADD17R,2.032000X2.032000*%
%ADD18C,2.286000*%
%TA.AperFunction,ComponentPad*%
%ADD19C,1.524000*%
%AMDIL010*
4,1,8,
-0.762000,0.965200,-0.457200,1.270000,0.457200,1.270000,0.762000,0.965200,0.762000,-0.965200,
0.457200,-1.270000,-0.457200,-1.270000,-0.762000,-0.965200,-0.762000,0.965200,
0*%
%ADD70DIL010*%
%AMDIL011*
4,1,8,
-1.270000,0.457200,-0.965200,0.762000,0.965200,0.762000,1.270000,0.457200,1.270000,-0.457200,
0.965200,-0.762000,-0.965200,-0.762000,-1.270000,-0.457200,-1.270000,0.457200,
0*%
%TA.AperFunction,ComponentPad*%
%ADD71DIL011*%
%TA.AperFunction,Profile*%
%ADD20C,0.203200*%
%TD.AperFunction*%
%TA.AperFunction,Conductor*%
G36*
X-8051940Y+6201598D02*
X-8051940Y+6377940D01*
X-7875598Y+6377940D01*
X-8051940Y+6201598D01*
G37*
%TD.AperFunction*%
%TA.AperFunction,Conductor*%
G36*
X+1309440Y-4247600D02*
X-3451286Y-4247600D01*
X-3525087Y-4321401D01*
X-3829559Y-4321401D01*
X-3829559Y-4652193D01*
X-4064167Y-4886801D01*
X-7325833Y-4886801D01*
X-7602113Y-4610521D01*
X-7602113Y-3582599D01*
X-7220601Y-3582599D01*
X-7220601Y-3577199D01*
X-6980167Y-3577199D01*
X-6853199Y-3704167D01*
X-6853199Y-3709990D01*
X-6903999Y-3760790D01*
X-6903999Y-3971210D01*
X-6755210Y-4119999D01*
X-6544790Y-4119999D01*
X-6396001Y-3971210D01*
X-6396001Y-3760790D01*
X-6446801Y-3709990D01*
X-6446801Y-3535833D01*
X-6811833Y-3170801D01*
X-6913435Y-3170801D01*
X-6800922Y-3058288D01*
X-6755210Y-3103999D01*
X-6544790Y-3103999D01*
X-6396001Y-2955210D01*
X-6396001Y-2744790D01*
X-6510492Y-2630299D01*
X-5682299Y-2630299D01*
X-5682299Y-2858696D01*
X-5743410Y-2858696D01*
X-5892199Y-3007485D01*
X-5892199Y-3217905D01*
X-5779657Y-3330448D01*
X-5805000Y-3355791D01*
X-5874790Y-3286001D01*
X-6085210Y-3286001D01*
X-6233999Y-3434790D01*
X-6233999Y-3645210D01*
X-6085210Y-3793999D01*
X-5874790Y-3793999D01*
X-5805000Y-3724209D01*
X-5735210Y-3793999D01*
X-5524790Y-3793999D01*
X-5386105Y-3655314D01*
X-5238215Y-3803204D01*
X-5027795Y-3803204D01*
X-4958005Y-3733414D01*
X-4888215Y-3803204D01*
X-4677795Y-3803204D01*
X-4529006Y-3654415D01*
X-4529006Y-3443995D01*
X-4677795Y-3295206D01*
X-4888215Y-3295206D01*
X-4958006Y-3364997D01*
X-4990649Y-3332353D01*
X-4876201Y-3217905D01*
X-4876201Y-3007485D01*
X-5021901Y-2861785D01*
X-5021901Y-2630299D01*
X-4666299Y-2630299D01*
X-4666299Y-2641067D01*
X-3573199Y-3734167D01*
X-3573199Y-3736030D01*
X-3636699Y-3799530D01*
X-3636699Y-4020470D01*
X-3480470Y-4176699D01*
X-3259530Y-4176699D01*
X-3103301Y-4020470D01*
X-3103301Y-3799530D01*
X-3166801Y-3736030D01*
X-3166801Y-3696010D01*
X-3116001Y-3645210D01*
X-3116001Y-3434790D01*
X-3264790Y-3286001D01*
X-3446633Y-3286001D01*
X-4023435Y-2709199D01*
X-3149399Y-2709199D01*
X-3149399Y-3242599D01*
X-2590601Y-3242599D01*
X-2590601Y-3124134D01*
X-2548336Y-3166399D01*
X-2196699Y-3166399D01*
X-2196699Y-3336801D01*
X-2197990Y-3336801D01*
X-2248790Y-3286001D01*
X-2459210Y-3286001D01*
X-2607999Y-3434790D01*
X-2607999Y-3645210D01*
X-2597208Y-3656001D01*
X-2607999Y-3656001D01*
X-2607999Y-4163999D01*
X-2100001Y-4163999D01*
X-2100001Y-3743199D01*
X-1945833Y-3743199D01*
X-1726801Y-3524167D01*
X-1726801Y-3443970D01*
X-1663301Y-3380470D01*
X-1663301Y-3166399D01*
X-383665Y-3166399D01*
X+26398Y-2756336D01*
X+26398Y-2486398D01*
X+268336Y-2486398D01*
X+856399Y-1898336D01*
X+856399Y+4078336D01*
X+492367Y+4442367D01*
X-615164Y+5549899D01*
X-1831364Y+5549899D01*
X-1837864Y+5556399D01*
X-3375165Y+5556399D01*
X-3454646Y+5635880D01*
X-3646530Y+5556399D01*
X-3711836Y+5556399D01*
X-3758016Y+5510219D01*
X-3956399Y+5428046D01*
X-3956399Y+4981664D01*
X-3718336Y+4743601D01*
X-2253999Y+4743601D01*
X-2253999Y+4544790D01*
X-2184209Y+4475000D01*
X-2253999Y+4405210D01*
X-2253999Y+4381649D01*
X-2626149Y+4381649D01*
X-2626149Y+3886351D01*
X-2130851Y+3886351D01*
X-2130851Y+4071642D01*
X-2105210Y+4046001D01*
X-1894790Y+4046001D01*
X-1746001Y+4194790D01*
X-1746001Y+4405210D01*
X-1815791Y+4475000D01*
X-1746001Y+4544790D01*
X-1746001Y+4737101D01*
X-951835Y+4737101D01*
X+43601Y+3741665D01*
X+43601Y-1561665D01*
X+26398Y-1578868D01*
X+26398Y-1403664D01*
X-461665Y-915601D01*
X-1663301Y-915601D01*
X-1663301Y-749530D01*
X-1819530Y-593301D01*
X-1909333Y-593301D01*
X-2045833Y-456801D01*
X-2203632Y-456801D01*
X-2097301Y-350470D01*
X-2097301Y-129530D01*
X-2253530Y+26699D01*
X-2474470Y+26699D01*
X-2630699Y-129530D01*
X-2630699Y-350470D01*
X-2520189Y-460980D01*
X-2613999Y-554790D01*
X-2613999Y-765210D01*
X-2465210Y-913999D01*
X-2254790Y-913999D01*
X-2209079Y-868288D01*
X-2196699Y-880667D01*
X-2196699Y-915601D01*
X-2535410Y-915601D01*
X-2600601Y-980792D01*
X-2600601Y-917401D01*
X-3159399Y-917401D01*
X-3159399Y-942801D01*
X-3850367Y-942801D01*
X-4217067Y-1309501D01*
X-4259901Y-1309501D01*
X-4259901Y-1037268D01*
X-4085832Y-863199D01*
X-3532010Y-863199D01*
X-3481210Y-913999D01*
X-3270790Y-913999D01*
X-3122001Y-765210D01*
X-3122001Y-554790D01*
X-3172801Y-503990D01*
X-3172801Y-409970D01*
X-3113301Y-350470D01*
X-3113301Y-129530D01*
X-3269530Y+26699D01*
X-3490470Y+26699D01*
X-3646699Y-129530D01*
X-3646699Y-350470D01*
X-3579199Y-417970D01*
X-3579199Y-456801D01*
X-4254166Y-456801D01*
X-4513901Y-716536D01*
X-4513901Y-423999D01*
X-4316001Y-423999D01*
X-4316001Y+337999D01*
X-4744904Y+337999D01*
X-4744904Y+3328174D01*
X-4676277Y+3396801D01*
X-4512408Y+3396801D01*
X-4519999Y+3389210D01*
X-4519999Y+3178790D01*
X-4371210Y+3030001D01*
X-4160790Y+3030001D01*
X-4075200Y+3115591D01*
X-3999710Y+3040101D01*
X-3789290Y+3040101D01*
X-3640501Y+3188890D01*
X-3640501Y+3396801D01*
X-3223970Y+3396801D01*
X-3160470Y+3333301D01*
X-2939530Y+3333301D01*
X-2783301Y+3489530D01*
X-2783301Y+3710470D01*
X-2939530Y+3866699D01*
X-3160470Y+3866699D01*
X-3223970Y+3803199D01*
X-4844611Y+3803199D01*
X-5113401Y+3534409D01*
X-5113401Y+3629399D01*
X-5261392Y+3629399D01*
X-5246001Y+3644790D01*
X-5246001Y+3855210D01*
X-5387592Y+3996801D01*
X-5285083Y+3996801D01*
X-5163708Y+3875426D01*
X-3815832Y+3875426D01*
X-3809332Y+3881926D01*
X-3175095Y+3881926D01*
X-3160470Y+3867301D01*
X-2939530Y+3867301D01*
X-2783301Y+4023530D01*
X-2783301Y+4244470D01*
X-2939530Y+4400699D01*
X-3160470Y+4400699D01*
X-3272845Y+4288324D01*
X-3640501Y+4288324D01*
X-3640501Y+4415310D01*
X-3789290Y+4564099D01*
X-3999710Y+4564099D01*
X-4085300Y+4478509D01*
X-4160790Y+4553999D01*
X-4232633Y+4553999D01*
X-4451124Y+4772490D01*
X-5952776Y+4772490D01*
X-5743602Y+4981664D01*
X-5743602Y+5318336D01*
X-5981664Y+5556398D01*
X-6318336Y+5556398D01*
X-6332455Y+5542279D01*
X-6541437Y+5542279D01*
X-6555557Y+5556399D01*
X-6892229Y+5556399D01*
X-6892230Y+5556398D01*
X-7318336Y+5556399D01*
X-7556399Y+5318336D01*
X-7556399Y+4981664D01*
X-7402703Y+4827968D01*
X-7454799Y+4775872D01*
X-7454799Y+4523368D01*
X-7276252Y+4344821D01*
X-7023748Y+4344821D01*
X-6927092Y+4441477D01*
X-6927092Y+3497190D01*
X-6776702Y+3346801D01*
X-6437999Y+3346801D01*
X-6437999Y+3294790D01*
X-6289210Y+3146001D01*
X-6078790Y+3146001D01*
X-6078599Y+3146192D01*
X-6078599Y+3070601D01*
X-6038608Y+3070601D01*
X-6075000Y+3034209D01*
X-6094790Y+3053999D01*
X-6305210Y+3053999D01*
X-6356010Y+3003199D01*
X-6474167Y+3003199D01*
X-7072079Y+2405287D01*
X-7110790Y+2443999D01*
X-7321210Y+2443999D01*
X-7372011Y+2393198D01*
X-7396001Y+2393198D01*
X-7396001Y+2596801D01*
X-7372010Y+2596801D01*
X-7321210Y+2546001D01*
X-7110790Y+2546001D01*
X-6962001Y+2694790D01*
X-6962001Y+2905210D01*
X-7110790Y+3053999D01*
X-7321210Y+3053999D01*
X-7372011Y+3003198D01*
X-7396001Y+3003198D01*
X-7396001Y+3196801D01*
X-7356010Y+3196801D01*
X-7305210Y+3146001D01*
X-7094790Y+3146001D01*
X-6946001Y+3294790D01*
X-6946001Y+3505210D01*
X-7094790Y+3653999D01*
X-7305210Y+3653999D01*
X-7356010Y+3603199D01*
X-7396001Y+3603199D01*
X-7396001Y+3796801D01*
X-7356010Y+3796801D01*
X-7305210Y+3746001D01*
X-7094790Y+3746001D01*
X-6946001Y+3894790D01*
X-6946001Y+4105210D01*
X-7094790Y+4253999D01*
X-7305210Y+4253999D01*
X-7356010Y+4203199D01*
X-7396001Y+4203199D01*
X-7396001Y+4253999D01*
X-7903999Y+4253999D01*
X-7903999Y+634790D01*
X-7755210Y+486001D01*
X-7544790Y+486001D01*
X-7396001Y+634790D01*
X-7396001Y+786801D01*
X-7372010Y+786801D01*
X-7321210Y+736001D01*
X-7206299Y+736001D01*
X-7206299Y-783915D01*
X-7242401Y-747813D01*
X-7242401Y-687201D01*
X-7801199Y-687201D01*
X-7801199Y-1398399D01*
X-7737699Y-1398399D01*
X-7737699Y-1868299D01*
X-7427508Y-1868299D01*
X-7436010Y-1876801D01*
X-7504167Y-1876801D01*
X-7698867Y-2071501D01*
X-7739699Y-2071501D01*
X-7739699Y-2147701D01*
X-7795067Y-2147701D01*
X-8008511Y-2361145D01*
X-8008511Y-4778855D01*
X-7494167Y-5293199D01*
X-3895833Y-5293199D01*
X-3829559Y-5226925D01*
X-3829559Y-5286599D01*
X-3540560Y-5286599D01*
X-3540560Y-7038940D01*
X-7274402Y-7038940D01*
X-7180101Y-6944639D01*
X-7180101Y-6555361D01*
X-7455361Y-6280101D01*
X-7844639Y-6280101D01*
X-8051940Y-6487402D01*
X-8051940Y+5736402D01*
X-7814639Y+5499101D01*
X-7425361Y+5499101D01*
X-7150101Y+5774361D01*
X-7150101Y+6163639D01*
X-7364402Y+6377940D01*
X+1309440Y+6377940D01*
X+1309440Y-4247600D01*
G37*
%TD.AperFunction*%
%LPC*%
G36*
X-19899Y+5555361D02*
X-19899Y+5944639D01*
X+255361Y+6219899D01*
X+644639Y+6219899D01*
X+919899Y+5944639D01*
X+919899Y+5555361D01*
X+644639Y+5280101D01*
X+255361Y+5280101D01*
X-19899Y+5555361D01*
G37*
G36*
X-3303999Y+2837999D02*
X-2796001Y+2837999D01*
X-2796001Y+2330001D01*
X-3303999Y+2330001D01*
X-3303999Y+2837999D01*
G37*
%LPD*%
%TA.AperFunction,Conductor*%
G36*
X-5683199Y-973990D02*
X-5733999Y-1024790D01*
X-5733999Y-1235210D01*
X-5695899Y-1273310D01*
X-5695899Y-1309501D01*
X-5783901Y-1309501D01*
X-5783901Y+861267D01*
X-5946001Y+1023367D01*
X-5946001Y+1095210D01*
X-6094790Y+1243999D01*
X-6258635Y+1243999D01*
X-6166633Y+1336001D01*
X-6094790Y+1336001D01*
X-5946001Y+1484790D01*
X-5946001Y+1695210D01*
X-6094790Y+1843999D01*
X-6258635Y+1843999D01*
X-6166633Y+1936001D01*
X-6094790Y+1936001D01*
X-5946001Y+2084790D01*
X-5946001Y+2295210D01*
X-6094790Y+2443999D01*
X-6305210Y+2443999D01*
X-6453999Y+2295210D01*
X-6453999Y+2223367D01*
X-6799901Y+1877465D01*
X-6799901Y+2102733D01*
X-6330922Y+2571712D01*
X-6305210Y+2546001D01*
X-6094790Y+2546001D01*
X-5975000Y+2665791D01*
X-5955210Y+2646001D01*
X-5744790Y+2646001D01*
X-5683199Y+2707592D01*
X-5683199Y-973990D01*
G37*
%TD.AperFunction*%
%TA.AperFunction,Conductor*%
G36*
X-7321210Y+1936001D02*
X-7206299Y+1936001D01*
X-7206299Y+1843999D01*
X-7321210Y+1843999D01*
X-7372010Y+1793199D01*
X-7396001Y+1793199D01*
X-7396001Y+1986801D01*
X-7372010Y+1986801D01*
X-7321210Y+1936001D01*
G37*
%TD.AperFunction*%
%TA.AperFunction,Conductor*%
G36*
X-7321210Y+1336001D02*
X-7206299Y+1336001D01*
X-7206299Y+1243999D01*
X-7321210Y+1243999D01*
X-7372010Y+1193199D01*
X-7396001Y+1193199D01*
X-7396001Y+1386801D01*
X-7372010Y+1386801D01*
X-7321210Y+1336001D01*
G37*
%TD.AperFunction*%
%TA.AperFunction,Conductor*%
G36*
X-628893Y-1897842D02*
X-684799Y-1953748D01*
X-684799Y-2206252D01*
X-628893Y-2262159D01*
X-720335Y-2353601D01*
X-1676001Y-2353601D01*
X-1676001Y-1728399D01*
X-798336Y-1728399D01*
X-628893Y-1897842D01*
G37*
%TD.AperFunction*%
%TA.AperFunction,Conductor*%
G36*
X-3159399Y-1374599D02*
X-3159399Y-1882599D01*
X-2600601Y-1882599D01*
X-2600601Y-1663208D01*
X-2535410Y-1728399D01*
X-2183999Y-1728399D01*
X-2183999Y-2353601D01*
X-2548336Y-2353601D01*
X-2590601Y-2395866D01*
X-2590601Y-2277401D01*
X-3149399Y-2277401D01*
X-3149399Y-2302801D01*
X-3969833Y-2302801D01*
X-3980501Y-2292133D01*
X-3980501Y-2071501D01*
X-5614135Y-2071501D01*
X-5410933Y-1868299D01*
X-3980501Y-1868299D01*
X-3980501Y-1647667D01*
X-3682033Y-1349199D01*
X-3159399Y-1349199D01*
X-3159399Y-1374599D01*
G37*
%TD.AperFunction*%
D10*
X-7509100Y-1588900D02*
X-7519800Y-1588900D01*
X-7519800Y-1163097D01*
X-7514274Y-1157571D01*
X-7534500Y-1169800D01*
X-7521800Y-1169800D01*
X-7257100Y-1588900D02*
X-7267800Y-1588900D01*
X-7267800Y-1009780D01*
X-7361780Y-915800D01*
X-7521800Y-915800D01*
D11*
X-6150000Y+5150000D02*
X-6650000Y+5150000D01*
D10*
X-5850000Y+2900000D02*
X-5850000Y+3072469D01*
X-5811130Y+3111339D01*
X-5768469Y+3154000D01*
X-5642000Y+3154000D01*
X-5596000Y+3200000D01*
X-5596000Y+3350000D01*
X-5596000Y+3654000D01*
X-5500000Y+3750000D01*
D11*
X-6650000Y+5150000D02*
X-6723893Y+5150000D01*
D10*
X-5342000Y+3350000D02*
X-5342000Y+3071600D01*
X-5412000Y+3001600D01*
X-5500000Y+2900000D01*
X-5777000Y+4327000D02*
X-5777000Y+4567030D01*
X-5774739Y+4569291D01*
X-4535291Y+4569291D01*
X-4266000Y+4300000D01*
X-5777000Y+4073000D02*
X-5850000Y+4000000D01*
X-5850000Y+3851600D01*
X-5850000Y+3750000D01*
X-4200000Y+4078625D02*
X-4125975Y+4078625D01*
X-5650000Y+4200000D02*
X-5200916Y+4200000D01*
X-5079541Y+4078625D01*
X-4200000Y+4078625D01*
X-4125975Y+4078625D02*
X-3900000Y+4078625D01*
X-4266000Y+3284000D02*
X-4266000Y+3596844D01*
X-4269156Y+3600000D01*
X-5850000Y+3350000D02*
X-5850000Y+3550000D01*
X-5850000Y+3750000D01*
X-5248656Y-1748656D02*
X-5248656Y-1612456D01*
X-5225100Y-1588900D01*
X-5733100Y-2350900D02*
X-5733100Y-2233100D01*
X-5580000Y-2080000D01*
X-5248656Y-1748656D02*
X-5225100Y-1725100D01*
X-5225100Y-1588900D01*
X-2304160Y-5650000D02*
X-2710160Y-5650000D01*
X-2788160Y-5572000D01*
X-2788160Y-5058000D01*
X-438160Y-5000000D02*
X-438160Y-4800000D01*
X-2784160Y-4800000D01*
X-2788160Y-4804000D01*
X-1272160Y-6600000D02*
X-442159Y-5769999D01*
X-442159Y-5500380D01*
X-438160Y-5500380D01*
X-2304160Y-5150000D02*
X-2028160Y-5150000D01*
X-1918160Y-5260000D01*
X-1918160Y-5970000D01*
X-2048160Y-6100000D01*
X-2304160Y-6100000D01*
X-1288160Y-5150000D02*
X-1423306Y-5150000D01*
X-1638160Y-5364854D01*
X-1638160Y-6280839D01*
X-1963480Y-6606159D01*
X-2282001Y-6606159D01*
X-2288160Y-6600000D01*
X-1288160Y-6100000D02*
X-1280206Y-6092046D01*
X-1280206Y-5751600D01*
X-1288160Y-5650000D01*
D12*
X-6723893Y+5135880D02*
X-6164120Y+5135880D01*
X-6150000Y+5150000D01*
X-3050000Y+5150000D02*
X-3062700Y+5150000D01*
D11*
X-3056200Y+5156500D02*
X-3062700Y+5150000D01*
X-3075400Y+5137300D01*
X-3050000Y+5150000D01*
X-2000000Y+4650000D02*
X-2000000Y+5137300D01*
X-2006200Y+5143500D01*
X-2012700Y+5150000D01*
D10*
X-3900000Y+4078625D02*
X-3900000Y+4085125D01*
X-3894500Y+4085125D01*
X-3098875Y+4085125D01*
X-3050000Y+4134000D01*
X-3894500Y+4310100D02*
X-3894500Y+4085125D01*
X-3894500Y+4084125D01*
X-3900000Y+4078625D01*
D12*
X-2006200Y+5143500D02*
X-2006200Y+5150000D01*
X-2012700Y+5150000D01*
X-2019300Y+5150000D01*
X-2378500Y+5150000D01*
X-2901800Y+5150000D01*
X-3050000Y+5150000D01*
X-3062700Y+5150000D02*
X-3543500Y+5150000D01*
X-3550000Y+5156500D01*
X-3550000Y+5150000D01*
D11*
X-3543500Y+5150000D01*
X-3062700Y+5150000D02*
X-3050000Y+5150000D01*
D10*
X-4269156Y+3600000D02*
X-3050000Y+3600000D01*
D12*
X-7669500Y+5919500D02*
X-6832782Y+5919500D01*
X-6800781Y+5887499D01*
D11*
X-6723893Y+5150000D02*
X-6723893Y+5164120D01*
X-7135880Y+5164120D01*
X-7150000Y+5150000D01*
D12*
X-6723893Y+5150000D01*
X-6723893Y+5135880D01*
X-7620000Y+5969000D02*
X-7669500Y+5919500D01*
X-7731201Y+5857799D01*
X-7731201Y+5239278D01*
D10*
X-5492700Y-1588900D02*
X-5479100Y-1588900D01*
X-5492700Y-1588900D02*
X-5492700Y-1130000D01*
X-5480000Y-1130000D01*
X-6014000Y-1880000D02*
X-5710000Y-1880000D01*
X-5492700Y-1662700D01*
X-5492700Y-1588900D01*
X-7280000Y-2080000D02*
X-7420000Y-2080000D01*
X-7511100Y-2171100D01*
X-7511100Y-2350900D01*
X-6014000Y-1880000D02*
X-6180000Y-1880000D01*
X-6264000Y-1964000D01*
X-6264000Y-2080000D01*
X-5580000Y-2080000D02*
X-5345655Y-2080000D01*
X-5248656Y-1983001D01*
X-5248656Y-1980000D01*
X-5248656Y-1748656D01*
X-6670000Y+3550000D02*
X-6723893Y+3603893D01*
X-6723893Y+3581358D01*
X-6670000Y+3550000D02*
X-6692535Y+3550000D01*
X-6723893Y+3581358D01*
X-6723893Y+3603893D02*
X-6723893Y+5135880D01*
X-6184000Y+4000000D02*
X-6184000Y+4319291D01*
X-5934000Y+4569291D01*
X-5950000Y+4569291D01*
X-5934000Y+4569291D02*
X-5774739Y+4569291D01*
X-6184000Y+3400000D02*
X-6184000Y+3548113D01*
X-6182113Y+3550000D01*
X-5850000Y+3550000D02*
X-6182113Y+3550000D01*
X-6670000Y+3550000D01*
X-7200000Y+4000000D02*
X-7650000Y+4000000D01*
X-7200000Y+3400000D02*
X-7650000Y+3400000D01*
X-7216000Y+2800000D02*
X-7650000Y+2800000D01*
X-7003100Y-1588900D02*
X-7003100Y+2186900D01*
X-6390000Y+2800000D01*
X-6200000Y+2800000D01*
X-7030000Y-2324000D02*
X-7003100Y-2350900D01*
X-7030000Y-1880000D02*
X-7030000Y-2324000D01*
X-7500000Y-3354000D02*
X-7500000Y-3374000D01*
X-6896000Y-3374000D01*
X-6650000Y-3620000D01*
X-6650000Y-3866000D01*
X-7003100Y-2350900D02*
X-7003100Y-2973100D01*
X-7130000Y-3100000D01*
X-7500000Y-3100000D01*
X-5225100Y-2960000D02*
X-5225100Y-3017795D01*
X-5225100Y-3457110D01*
X-5133005Y-3549205D01*
X-5225100Y-2350900D02*
X-5225100Y-2960000D01*
X-5225100Y-3017795D02*
X-5130200Y-3112695D01*
X-5479100Y-2870000D02*
X-5479100Y-2953595D01*
X-5479100Y-2350900D02*
X-5479100Y-2870000D01*
X-5480000Y-1130000D02*
X-5480000Y+2880000D01*
X-5500000Y+2900000D01*
X-4269156Y+3600000D02*
X-4760444Y+3600000D01*
X-4948103Y+3412341D01*
X-4948103Y-1565903D01*
X-4971100Y-1588900D01*
X-5225100Y-1250000D02*
X-5225100Y-1225100D01*
X-5225100Y+2798682D01*
X-5140351Y+2883431D01*
X-5140351Y+3656571D01*
X-5046922Y+3750000D01*
X-5500000Y+3750000D02*
X-5046922Y+3750000D01*
X-4986470Y+3810452D01*
X-3542044Y+3810452D01*
X-3483682Y+3868814D01*
X-2722379Y+3868814D01*
X-5225100Y-1588900D02*
X-5225100Y-1250000D01*
X-5225100Y-1225100D02*
X-5150000Y-1150000D01*
X-5130000Y-1130000D01*
X-5638200Y-3112695D02*
X-5491795Y-3112695D01*
X-5479100Y-3100000D01*
X-5479100Y-2953595D02*
X-5479100Y-3100000D01*
X-5479100Y-3389100D01*
X-5630000Y-3540000D01*
X-4209100Y-1588900D02*
X-3766200Y-1146000D01*
X-2880000Y-1146000D01*
X-4209100Y-2350900D02*
X-4054000Y-2506000D01*
X-2870000Y-2506000D01*
D11*
X-2870000Y-2760000D02*
X-2380000Y-2760000D01*
X-1930000Y-3270000D02*
X-1930000Y-2760000D01*
X-1930000Y-2728188D01*
X-1930800Y-2727388D01*
D12*
X-2367074Y-1322000D02*
X-2332000Y-1322000D01*
D11*
X-2367074Y-1322000D02*
X-2443909Y-1398835D01*
X-2753000Y-1398835D02*
X-2878835Y-1398835D01*
X-2880000Y-1400000D01*
X-1930000Y-860000D02*
X-1930000Y-920000D01*
X-1930000Y-1100000D02*
X-2152000Y-1322000D01*
X-2228835Y-1398835D01*
X-2408835Y-1398835D01*
X-2443909Y-1398835D01*
X-2753000Y-1398835D01*
X-2880000Y-1400000D01*
X-2332000Y-1322000D02*
X-2408835Y-1398835D01*
X-1930000Y-920000D02*
X-1930000Y-1100000D01*
X-1930000Y-1286531D01*
X-1925166Y-1291365D01*
D10*
X-3370000Y-3910000D02*
X-3370000Y-3540000D01*
X-2354000Y-3540000D02*
X-2030000Y-3540000D01*
X-1930000Y-3440000D01*
X-1930000Y-3270000D01*
X-3370000Y-3540000D02*
X-3480000Y-3540000D01*
X-4463100Y-2556900D01*
X-4463100Y-2350900D01*
X-1930000Y-860000D02*
X-2130000Y-660000D01*
X-2360000Y-660000D01*
X-3376000Y-660000D02*
X-3376000Y-244000D01*
X-3380000Y-240000D01*
X-3376000Y-660000D02*
X-4169999Y-660000D01*
X-4463100Y-953101D01*
X-4463100Y-1588900D01*
X-7216000Y+2190000D02*
X-7650000Y+2190000D01*
X-7216000Y+1590000D02*
X-7590000Y+1590000D01*
X-7600000Y+1600000D01*
X-7650000Y+1594000D01*
X-7216000Y+990000D02*
X-7646000Y+990000D01*
X-7650000Y+994000D01*
X-5987100Y-1588900D02*
X-5987100Y+777100D01*
X-6200000Y+990000D01*
X-6241100Y-1588900D02*
X-6241100Y+486103D01*
X-6470643Y+715646D01*
X-6470643Y+1319357D01*
X-6200000Y+1590000D01*
X-6495100Y-1588900D02*
X-6495100Y+319321D01*
X-6707811Y+532032D01*
X-6707811Y+1682189D01*
X-6200000Y+2190000D01*
X-3550160Y-4804000D02*
X-3694000Y-4804000D01*
X-3980000Y-5090000D01*
X-7410000Y-5090000D01*
X-7805312Y-4694688D01*
X-7805312Y-2445312D01*
X-7710900Y-2350900D01*
X-7511100Y-2350900D01*
D12*
X-2000000Y-2760000D02*
X-1930000Y-2760000D01*
X-552000Y-2760000D01*
X-380000Y-2588000D01*
X-2380000Y-2760000D02*
X-2000000Y-2760000D01*
X-380000Y-1572000D02*
X-630000Y-1322000D01*
X-2152000Y-1322000D01*
X-2332000Y-1322000D01*
D10*
X-4717100Y-1588900D02*
X-4717100Y-317100D01*
X-4570000Y-170000D01*
D11*
X-1672000Y+5143500D02*
X-1678500Y+5150000D01*
D12*
X+100000Y-2080000D02*
X+450000Y-1730000D01*
X+450000Y-1600000D01*
X+450000Y+3910000D01*
X+205000Y+4155000D01*
X-783500Y+5143500D01*
X-1672000Y+5143500D01*
X-1750000Y+5143500D01*
X-2006200Y+5143500D01*
D11*
X-380000Y-2080000D02*
X+100000Y-2080000D01*
X+190000Y-2080000D01*
X+450000Y-1820000D01*
X+450000Y-1730000D01*
X+450000Y-1600000D01*
X+450000Y+3910000D01*
X+205000Y+4155000D01*
X-783500Y+5143500D01*
X-8051940Y+6201598D02*
X-8051940Y+6377940D01*
X-7875598Y+6377940D01*
X-8051940Y+6201598D01*
X+1309440Y-4247600D02*
X-3451286Y-4247600D01*
X-3525087Y-4321401D01*
X-3829559Y-4321401D01*
X-3829559Y-4652193D01*
X-4064167Y-4886801D01*
X-7325833Y-4886801D01*
X-7602113Y-4610521D01*
X-7602113Y-3582599D01*
X-7220601Y-3582599D01*
X-7220601Y-3577199D01*
X-6980167Y-3577199D01*
X-6853199Y-3704167D01*
X-6853199Y-3709990D01*
X-6903999Y-3760790D01*
X-6903999Y-3971210D01*
X-6755210Y-4119999D01*
X-6544790Y-4119999D01*
X-6396001Y-3971210D01*
X-6396001Y-3760790D01*
X-6446801Y-3709990D01*
X-6446801Y-3535833D01*
X-6811833Y-3170801D01*
X-6913435Y-3170801D01*
X-6800922Y-3058288D01*
X-6755210Y-3103999D01*
X-6544790Y-3103999D01*
X-6396001Y-2955210D01*
X-6396001Y-2744790D01*
X-6510492Y-2630299D01*
X-5682299Y-2630299D01*
X-5682299Y-2858696D01*
X-5743410Y-2858696D01*
X-5892199Y-3007485D01*
X-5892199Y-3217905D01*
X-5779657Y-3330448D01*
X-5805000Y-3355791D01*
X-5874790Y-3286001D01*
X-6085210Y-3286001D01*
X-6233999Y-3434790D01*
X-6233999Y-3645210D01*
X-6085210Y-3793999D01*
X-5874790Y-3793999D01*
X-5805000Y-3724209D01*
X-5735210Y-3793999D01*
X-5524790Y-3793999D01*
X-5386105Y-3655314D01*
X-5238215Y-3803204D01*
X-5027795Y-3803204D01*
X-4958005Y-3733414D01*
X-4888215Y-3803204D01*
X-4677795Y-3803204D01*
X-4529006Y-3654415D01*
X-4529006Y-3443995D01*
X-4677795Y-3295206D01*
X-4888215Y-3295206D01*
X-4958006Y-3364997D01*
X-4990649Y-3332353D01*
X-4876201Y-3217905D01*
X-4876201Y-3007485D01*
X-5021901Y-2861785D01*
X-5021901Y-2630299D01*
X-4666299Y-2630299D01*
X-4666299Y-2641067D01*
X-3573199Y-3734167D01*
X-3573199Y-3736030D01*
X-3636699Y-3799530D01*
X-3636699Y-4020470D01*
X-3480470Y-4176699D01*
X-3259530Y-4176699D01*
X-3103301Y-4020470D01*
X-3103301Y-3799530D01*
X-3166801Y-3736030D01*
X-3166801Y-3696010D01*
X-3116001Y-3645210D01*
X-3116001Y-3434790D01*
X-3264790Y-3286001D01*
X-3446633Y-3286001D01*
X-4023435Y-2709199D01*
X-3149399Y-2709199D01*
X-3149399Y-3242599D01*
X-2590601Y-3242599D01*
X-2590601Y-3124134D01*
X-2548336Y-3166399D01*
X-2196699Y-3166399D01*
X-2196699Y-3336801D01*
X-2197990Y-3336801D01*
X-2248790Y-3286001D01*
X-2459210Y-3286001D01*
X-2607999Y-3434790D01*
X-2607999Y-3645210D01*
X-2597208Y-3656001D01*
X-2607999Y-3656001D01*
X-2607999Y-4163999D01*
X-2100001Y-4163999D01*
X-2100001Y-3743199D01*
X-1945833Y-3743199D01*
X-1726801Y-3524167D01*
X-1726801Y-3443970D01*
X-1663301Y-3380470D01*
X-1663301Y-3166399D01*
X-383665Y-3166399D01*
X+26398Y-2756336D01*
X+26398Y-2486398D01*
X+268336Y-2486398D01*
X+856399Y-1898336D01*
X+856399Y+4078336D01*
X+492367Y+4442367D01*
X-615164Y+5549899D01*
X-1831364Y+5549899D01*
X-1837864Y+5556399D01*
X-3375165Y+5556399D01*
X-3454646Y+5635880D01*
X-3646530Y+5556399D01*
X-3711836Y+5556399D01*
X-3758016Y+5510219D01*
X-3956399Y+5428046D01*
X-3956399Y+4981664D01*
X-3718336Y+4743601D01*
X-2253999Y+4743601D01*
X-2253999Y+4544790D01*
X-2184209Y+4475000D01*
X-2253999Y+4405210D01*
X-2253999Y+4381649D01*
X-2626149Y+4381649D01*
X-2626149Y+3886351D01*
X-2130851Y+3886351D01*
X-2130851Y+4071642D01*
X-2105210Y+4046001D01*
X-1894790Y+4046001D01*
X-1746001Y+4194790D01*
X-1746001Y+4405210D01*
X-1815791Y+4475000D01*
X-1746001Y+4544790D01*
X-1746001Y+4737101D01*
X-951835Y+4737101D01*
X+43601Y+3741665D01*
X+43601Y-1561665D01*
X+26398Y-1578868D01*
X+26398Y-1403664D01*
X-461665Y-915601D01*
X-1663301Y-915601D01*
X-1663301Y-749530D01*
X-1819530Y-593301D01*
X-1909333Y-593301D01*
X-2045833Y-456801D01*
X-2203632Y-456801D01*
X-2097301Y-350470D01*
X-2097301Y-129530D01*
X-2253530Y+26699D01*
X-2474470Y+26699D01*
X-2630699Y-129530D01*
X-2630699Y-350470D01*
X-2520189Y-460980D01*
X-2613999Y-554790D01*
X-2613999Y-765210D01*
X-2465210Y-913999D01*
X-2254790Y-913999D01*
X-2209079Y-868288D01*
X-2196699Y-880667D01*
X-2196699Y-915601D01*
X-2535410Y-915601D01*
X-2600601Y-980792D01*
X-2600601Y-917401D01*
X-3159399Y-917401D01*
X-3159399Y-942801D01*
X-3850367Y-942801D01*
X-4217067Y-1309501D01*
X-4259901Y-1309501D01*
X-4259901Y-1037268D01*
X-4085832Y-863199D01*
X-3532010Y-863199D01*
X-3481210Y-913999D01*
X-3270790Y-913999D01*
X-3122001Y-765210D01*
X-3122001Y-554790D01*
X-3172801Y-503990D01*
X-3172801Y-409970D01*
X-3113301Y-350470D01*
X-3113301Y-129530D01*
X-3269530Y+26699D01*
X-3490470Y+26699D01*
X-3646699Y-129530D01*
X-3646699Y-350470D01*
X-3579199Y-417970D01*
X-3579199Y-456801D01*
X-4254166Y-456801D01*
X-4513901Y-716536D01*
X-4513901Y-423999D01*
X-4316001Y-423999D01*
X-4316001Y+337999D01*
X-4744904Y+337999D01*
X-4744904Y+3328174D01*
X-4676277Y+3396801D01*
X-4512408Y+3396801D01*
X-4519999Y+3389210D01*
X-4519999Y+3178790D01*
X-4371210Y+3030001D01*
X-4160790Y+3030001D01*
X-4075200Y+3115591D01*
X-3999710Y+3040101D01*
X-3789290Y+3040101D01*
X-3640501Y+3188890D01*
X-3640501Y+3396801D01*
X-3223970Y+3396801D01*
X-3160470Y+3333301D01*
X-2939530Y+3333301D01*
X-2783301Y+3489530D01*
X-2783301Y+3710470D01*
X-2939530Y+3866699D01*
X-3160470Y+3866699D01*
X-3223970Y+3803199D01*
X-4844611Y+3803199D01*
X-5113401Y+3534409D01*
X-5113401Y+3629399D01*
X-5261392Y+3629399D01*
X-5246001Y+3644790D01*
X-5246001Y+3855210D01*
X-5387592Y+3996801D01*
X-5285083Y+3996801D01*
X-5163708Y+3875426D01*
X-3815832Y+3875426D01*
X-3809332Y+3881926D01*
X-3175095Y+3881926D01*
X-3160470Y+3867301D01*
X-2939530Y+3867301D01*
X-2783301Y+4023530D01*
X-2783301Y+4244470D01*
X-2939530Y+4400699D01*
X-3160470Y+4400699D01*
X-3272845Y+4288324D01*
X-3640501Y+4288324D01*
X-3640501Y+4415310D01*
X-3789290Y+4564099D01*
X-3999710Y+4564099D01*
X-4085300Y+4478509D01*
X-4160790Y+4553999D01*
X-4232633Y+4553999D01*
X-4451124Y+4772490D01*
X-5952776Y+4772490D01*
X-5743602Y+4981664D01*
X-5743602Y+5318336D01*
X-5981664Y+5556398D01*
X-6318336Y+5556398D01*
X-6332455Y+5542279D01*
X-6541437Y+5542279D01*
X-6555557Y+5556399D01*
X-6892229Y+5556399D01*
X-6892230Y+5556398D01*
X-7318336Y+5556399D01*
X-7556399Y+5318336D01*
X-7556399Y+4981664D01*
X-7402703Y+4827968D01*
X-7454799Y+4775872D01*
X-7454799Y+4523368D01*
X-7276252Y+4344821D01*
X-7023748Y+4344821D01*
X-6927092Y+4441477D01*
X-6927092Y+3497190D01*
X-6776702Y+3346801D01*
X-6437999Y+3346801D01*
X-6437999Y+3294790D01*
X-6289210Y+3146001D01*
X-6078790Y+3146001D01*
X-6078599Y+3146192D01*
X-6078599Y+3070601D01*
X-6038608Y+3070601D01*
X-6075000Y+3034209D01*
X-6094790Y+3053999D01*
X-6305210Y+3053999D01*
X-6356010Y+3003199D01*
X-6474167Y+3003199D01*
X-7072079Y+2405287D01*
X-7110790Y+2443999D01*
X-7321210Y+2443999D01*
X-7372011Y+2393198D01*
X-7396001Y+2393198D01*
X-7396001Y+2596801D01*
X-7372010Y+2596801D01*
X-7321210Y+2546001D01*
X-7110790Y+2546001D01*
X-6962001Y+2694790D01*
X-6962001Y+2905210D01*
X-7110790Y+3053999D01*
X-7321210Y+3053999D01*
X-7372011Y+3003198D01*
X-7396001Y+3003198D01*
X-7396001Y+3196801D01*
X-7356010Y+3196801D01*
X-7305210Y+3146001D01*
X-7094790Y+3146001D01*
X-6946001Y+3294790D01*
X-6946001Y+3505210D01*
X-7094790Y+3653999D01*
X-7305210Y+3653999D01*
X-7356010Y+3603199D01*
X-7396001Y+3603199D01*
X-7396001Y+3796801D01*
X-7356010Y+3796801D01*
X-7305210Y+3746001D01*
X-7094790Y+3746001D01*
X-6946001Y+3894790D01*
X-6946001Y+4105210D01*
X-7094790Y+4253999D01*
X-7305210Y+4253999D01*
X-7356010Y+4203199D01*
X-7396001Y+4203199D01*
X-7396001Y+4253999D01*
X-7903999Y+4253999D01*
X-7903999Y+634790D01*
X-7755210Y+486001D01*
X-7544790Y+486001D01*
X-7396001Y+634790D01*
X-7396001Y+786801D01*
X-7372010Y+786801D01*
X-7321210Y+736001D01*
X-7206299Y+736001D01*
X-7206299Y-783915D01*
X-7242401Y-747813D01*
X-7242401Y-687201D01*
X-7801199Y-687201D01*
X-7801199Y-1398399D01*
X-7737699Y-1398399D01*
X-7737699Y-1868299D01*
X-7427508Y-1868299D01*
X-7436010Y-1876801D01*
X-7504167Y-1876801D01*
X-7698867Y-2071501D01*
X-7739699Y-2071501D01*
X-7739699Y-2147701D01*
X-7795067Y-2147701D01*
X-8008511Y-2361145D01*
X-8008511Y-4778855D01*
X-7494167Y-5293199D01*
X-3895833Y-5293199D01*
X-3829559Y-5226925D01*
X-3829559Y-5286599D01*
X-3540560Y-5286599D01*
X-3540560Y-7038940D01*
X-7274402Y-7038940D01*
X-7180101Y-6944639D01*
X-7180101Y-6555361D01*
X-7455361Y-6280101D01*
X-7844639Y-6280101D01*
X-8051940Y-6487402D01*
X-8051940Y+5736402D01*
X-7814639Y+5499101D01*
X-7425361Y+5499101D01*
X-7150101Y+5774361D01*
X-7150101Y+6163639D01*
X-7364402Y+6377940D01*
X+1309440Y+6377940D01*
X+1309440Y-4247600D01*
X-19899Y+5555361D02*
X-19899Y+5944639D01*
X+255361Y+6219899D01*
X+644639Y+6219899D01*
X+919899Y+5944639D01*
X+919899Y+5555361D01*
X+644639Y+5280101D01*
X+255361Y+5280101D01*
X-19899Y+5555361D01*
X-3303999Y+2837999D02*
X-2796001Y+2837999D01*
X-2796001Y+2330001D01*
X-3303999Y+2330001D01*
X-3303999Y+2837999D01*
X-5683199Y-973990D02*
X-5733999Y-1024790D01*
X-5733999Y-1235210D01*
X-5695899Y-1273310D01*
X-5695899Y-1309501D01*
X-5783901Y-1309501D01*
X-5783901Y+861267D01*
X-5946001Y+1023367D01*
X-5946001Y+1095210D01*
X-6094790Y+1243999D01*
X-6258635Y+1243999D01*
X-6166633Y+1336001D01*
X-6094790Y+1336001D01*
X-5946001Y+1484790D01*
X-5946001Y+1695210D01*
X-6094790Y+1843999D01*
X-6258635Y+1843999D01*
X-6166633Y+1936001D01*
X-6094790Y+1936001D01*
X-5946001Y+2084790D01*
X-5946001Y+2295210D01*
X-6094790Y+2443999D01*
X-6305210Y+2443999D01*
X-6453999Y+2295210D01*
X-6453999Y+2223367D01*
X-6799901Y+1877465D01*
X-6799901Y+2102733D01*
X-6330922Y+2571712D01*
X-6305210Y+2546001D01*
X-6094790Y+2546001D01*
X-5975000Y+2665791D01*
X-5955210Y+2646001D01*
X-5744790Y+2646001D01*
X-5683199Y+2707592D01*
X-5683199Y-973990D01*
X-7321210Y+1936001D02*
X-7206299Y+1936001D01*
X-7206299Y+1843999D01*
X-7321210Y+1843999D01*
X-7372010Y+1793199D01*
X-7396001Y+1793199D01*
X-7396001Y+1986801D01*
X-7372010Y+1986801D01*
X-7321210Y+1936001D01*
X-7321210Y+1336001D02*
X-7206299Y+1336001D01*
X-7206299Y+1243999D01*
X-7321210Y+1243999D01*
X-7372010Y+1193199D01*
X-7396001Y+1193199D01*
X-7396001Y+1386801D01*
X-7372010Y+1386801D01*
X-7321210Y+1336001D01*
X-628893Y-1897842D02*
X-684799Y-1953748D01*
X-684799Y-2206252D01*
X-628893Y-2262159D01*
X-720335Y-2353601D01*
X-1676001Y-2353601D01*
X-1676001Y-1728399D01*
X-798336Y-1728399D01*
X-628893Y-1897842D01*
X-3159399Y-1374599D02*
X-3159399Y-1882599D01*
X-2600601Y-1882599D01*
X-2600601Y-1663208D01*
X-2535410Y-1728399D01*
X-2183999Y-1728399D01*
X-2183999Y-2353601D01*
X-2548336Y-2353601D01*
X-2590601Y-2395866D01*
X-2590601Y-2277401D01*
X-3149399Y-2277401D01*
X-3149399Y-2302801D01*
X-3969833Y-2302801D01*
X-3980501Y-2292133D01*
X-3980501Y-2071501D01*
X-5614135Y-2071501D01*
X-5410933Y-1868299D01*
X-3980501Y-1868299D01*
X-3980501Y-1647667D01*
X-3682033Y-1349199D01*
X-3159399Y-1349199D01*
X-3159399Y-1374599D01*
X-7150000Y+4421021D02*
X-7150000Y+4649620D01*
X-7378599Y+4649620D02*
X-7150000Y+4649620D01*
X-7898387Y+5690613D02*
X-7620000Y+5969000D01*
X-7341613Y+5690613D02*
X-7620000Y+5969000D01*
X-7341613Y+6247387D02*
X-7620000Y+5969000D01*
X-7898387Y+6247387D02*
X-7620000Y+5969000D01*
X-2378500Y+3962551D02*
X-2378500Y+4134000D01*
X-2378500Y+4305449D02*
X-2378500Y+4134000D01*
X-2549949Y+4134000D02*
X-2378500Y+4134000D01*
X-2000000Y+4122201D02*
X-2000000Y+4300000D01*
X-1822201Y+4300000D02*
X-2000000Y+4300000D01*
X-7827799Y+3146000D02*
X-7650000Y+3146000D01*
X-7472201Y+3146000D02*
X-7650000Y+3146000D01*
X-7827799Y+3746000D02*
X-7650000Y+3746000D01*
X-7472201Y+3746000D02*
X-7650000Y+3746000D01*
X-3894500Y+3116301D02*
X-3894500Y+3294100D01*
X-3716701Y+3294100D02*
X-3894500Y+3294100D01*
X-3050000Y+2406201D02*
X-3050000Y+2584000D01*
X-2872201Y+2584000D02*
X-3050000Y+2584000D01*
X-3050000Y+2761799D02*
X-3050000Y+2584000D01*
X-3227799Y+2584000D02*
X-3050000Y+2584000D01*
X-5850000Y+2722201D02*
X-5850000Y+2900000D01*
X-5322201Y+3750000D02*
X-5500000Y+3750000D01*
X-5733100Y-2554099D02*
X-5733100Y-2350900D01*
X-5225100Y-1792099D02*
X-5225100Y-1588900D01*
X-5980000Y-3717799D02*
X-5980000Y-3540000D01*
X-5980000Y-3362201D02*
X-5980000Y-3540000D01*
X-6157799Y-3540000D02*
X-5980000Y-3540000D01*
X-4783005Y-3371406D02*
X-4783005Y-3549205D01*
X-4783005Y-3727004D02*
X-4783005Y-3549205D01*
X-4605206Y-3549205D02*
X-4783005Y-3549205D01*
X-7472201Y+2546000D02*
X-7650000Y+2546000D01*
X-7827799Y+2546000D02*
X-7650000Y+2546000D01*
X-7472201Y+1936000D02*
X-7650000Y+1936000D01*
X-7827799Y+1936000D02*
X-7650000Y+1936000D01*
X-7472201Y+1340000D02*
X-7650000Y+1340000D01*
X-7827799Y+1340000D02*
X-7650000Y+1340000D01*
X-7650000Y+562201D02*
X-7650000Y+740000D01*
X-7472201Y+740000D02*
X-7650000Y+740000D01*
X-7827799Y+740000D02*
X-7650000Y+740000D01*
X-4392201Y+84000D02*
X-4570000Y+84000D01*
X-4570000Y+261799D02*
X-4570000Y+84000D01*
X-6472201Y-2850000D02*
X-6650000Y-2850000D01*
X-6650000Y-3027799D02*
X-6650000Y-2850000D01*
X-3550160Y-4397601D02*
X-3550160Y-4550000D01*
X-3753359Y-4550000D02*
X-3550160Y-4550000D01*
X-3083199Y-1654000D02*
X-2880000Y-1654000D01*
X-2880000Y-1806399D02*
X-2880000Y-1654000D01*
X-3073199Y-3014000D02*
X-2870000Y-3014000D01*
X-2870000Y-3166399D02*
X-2870000Y-3014000D01*
X-1752201Y-2254000D02*
X-1930000Y-2254000D01*
X-2107799Y-2254000D02*
X-1930000Y-2254000D01*
X-1752201Y-1876000D02*
X-1930000Y-1876000D01*
X-2107799Y-1876000D02*
X-1930000Y-1876000D01*
X-2354000Y-4087799D02*
X-2354000Y-3910000D01*
X-2176201Y-3910000D02*
X-2354000Y-3910000D01*
X-2531799Y-3910000D02*
X-2354000Y-3910000D01*
X-2554499Y-240000D02*
X-2364000Y-240000D01*
X-2173501Y-240000D02*
X-2364000Y-240000D01*
X-2364000Y-49501D02*
X-2364000Y-240000D01*
D13*
X-7150000Y+5150000D03*
X-7150000Y+4649620D03*
D14*
X-7620000Y+5969000D03*
X+450000Y+5750000D03*
X-7650000Y-6750000D03*
X-353560Y-6407000D03*
D13*
X-3550000Y+5150000D03*
X-6150000Y+5150000D03*
D15*
X-2378500Y+4134000D03*
D16*
X-2378500Y+5150000D03*
X-2000000Y+4650000D03*
X-2000000Y+4300000D03*
D17*
X-7650000Y+3400000D03*
D16*
X-7650000Y+3146000D03*
X-7200000Y+3400000D03*
X-6184000Y+3400000D03*
D17*
X-7650000Y+4000000D03*
D16*
X-7650000Y+3746000D03*
X-7200000Y+4000000D03*
X-6184000Y+4000000D03*
D17*
X-3050000Y+5150000D03*
D18*
X-3050000Y+4134000D03*
D16*
X-3894500Y+3294100D03*
X-3894500Y+4310100D03*
D19*
X-5777000Y+4327000D03*
X-5650000Y+4200000D03*
X-5777000Y+4073000D03*
D16*
X-4266000Y+3284000D03*
X-4266000Y+4300000D03*
D17*
X-3050000Y+2584000D03*
D18*
X-3050000Y+3600000D03*
D70*
X-5850000Y+3350000D03*
X-5596000Y+3350000D03*
X-5342000Y+3350000D03*
D16*
X-5500000Y+2900000D03*
X-5850000Y+2900000D03*
X-5850000Y+3750000D03*
X-5500000Y+3750000D03*
D70*
X-7511100Y-2350900D03*
X-7257100Y-2350900D03*
X-7003100Y-2350900D03*
X-6749100Y-2350900D03*
X-6495100Y-2350900D03*
X-6241100Y-2350900D03*
X-5987100Y-2350900D03*
X-5733100Y-2350900D03*
X-5479100Y-2350900D03*
X-5225100Y-2350900D03*
X-4971100Y-2350900D03*
X-4717100Y-2350900D03*
X-4463100Y-2350900D03*
X-4209100Y-2350900D03*
X-4209100Y-1588900D03*
X-4463100Y-1588900D03*
X-4717100Y-1588900D03*
X-4971100Y-1588900D03*
X-5225100Y-1588900D03*
X-5479100Y-1588900D03*
X-5733100Y-1588900D03*
X-5987100Y-1588900D03*
X-6241100Y-1588900D03*
X-6495100Y-1588900D03*
X-6749100Y-1588900D03*
X-7003100Y-1588900D03*
X-7257100Y-1588900D03*
X-7509100Y-1588900D03*
D16*
X-5480000Y-1130000D03*
X-5130000Y-1130000D03*
X-5130200Y-3112695D03*
X-5638200Y-3112695D03*
X-5980000Y-3540000D03*
X-5630000Y-3540000D03*
X-4783005Y-3549205D03*
X-5133005Y-3549205D03*
D71*
X-7521800Y-1169800D03*
X-7521800Y-915800D03*
D16*
X-6200000Y+2800000D03*
X-7216000Y+2800000D03*
X-6200000Y+2190000D03*
X-7216000Y+2190000D03*
D17*
X-7650000Y+2800000D03*
D16*
X-7650000Y+2546000D03*
D17*
X-7650000Y+2190000D03*
D16*
X-7650000Y+1936000D03*
D17*
X-7650000Y+1594000D03*
D16*
X-7650000Y+1340000D03*
D17*
X-7650000Y+994000D03*
D16*
X-7650000Y+740000D03*
X-6200000Y+1590000D03*
X-7216000Y+1590000D03*
X-6200000Y+990000D03*
X-7216000Y+990000D03*
D17*
X-4570000Y-170000D03*
X-4570000Y+84000D03*
D13*
X-438160Y-5000000D03*
X-438160Y-5500380D03*
D16*
X-6014000Y-1880000D03*
X-7030000Y-1880000D03*
X-6650000Y-3866000D03*
X-6650000Y-2850000D03*
D71*
X-2788160Y-5058000D03*
X-2788160Y-4804000D03*
X-2788160Y-4550000D03*
X-3550160Y-4550000D03*
X-3550160Y-4804000D03*
X-3550160Y-5058000D03*
D17*
X-1272160Y-6600000D03*
D18*
X-2288160Y-6600000D03*
D16*
X-1288160Y-6100000D03*
X-2304160Y-6100000D03*
X-2304160Y-5650000D03*
X-1288160Y-5650000D03*
X-7280000Y-2080000D03*
X-6264000Y-2080000D03*
D17*
X-2304160Y-5150000D03*
D18*
X-1288160Y-5150000D03*
D71*
X-7500000Y-3354000D03*
X-7500000Y-3100000D03*
D13*
X-380000Y-2588000D03*
X-380000Y-2080000D03*
X-380000Y-1572000D03*
D71*
X-2880000Y-1146000D03*
X-2880000Y-1400000D03*
X-2880000Y-1654000D03*
X-2870000Y-2506000D03*
X-2870000Y-2760000D03*
X-2870000Y-3014000D03*
D17*
X-1930000Y-2254000D03*
D18*
X-1930000Y-3270000D03*
D17*
X-1930000Y-1876000D03*
D18*
X-1930000Y-860000D03*
D16*
X-2354000Y-3540000D03*
X-3370000Y-3540000D03*
D17*
X-2354000Y-3910000D03*
D18*
X-3370000Y-3910000D03*
D16*
X-2360000Y-660000D03*
X-3376000Y-660000D03*
D18*
X-2364000Y-240000D03*
X-3380000Y-240000D03*
D20*
X-8214500Y-7201500D02*
X+1472000Y-7201500D01*
X+1472000Y+6540500D01*
X-8214500Y+6540500D01*
X-8214500Y-7201500D01*
M02*
