G04 PROTEUS GERBER X2 FILE*
%TF.GenerationSoftware,Labcenter,Proteus,8.15-SP1-Build34318*%
%TF.CreationDate,2023-09-22T14:22:51+00:00*%
%TF.FileFunction,Legend,Top*%
%TF.FilePolarity,Positive*%
%TF.Part,Single*%
%TF.SameCoordinates,{a03bde03-d8f0-4a32-bc8c-763bbf401456}*%
%FSLAX45Y45*%
%MOMM*%
G01*
%TA.AperFunction,Profile*%
%ADD23C,0.203200*%
%TA.AperFunction,Material*%
%ADD24C,0.203200*%
%TA.AperFunction,NonMaterial*%
%ADD25C,0.203200*%
%TD.AperFunction*%
D23*
X-8214500Y-6651500D02*
X+5622000Y-6651500D01*
X+5622000Y+6540500D01*
X-8214500Y+6540500D01*
X-8214500Y-6651500D01*
D24*
X-7531000Y+5404000D02*
X-6769000Y+5404000D01*
X-6769000Y+4388000D02*
X-7531000Y+4388000D01*
X-7531000Y+5404000D02*
X-7531000Y+4388000D01*
X-6769000Y+5404000D02*
X-6769000Y+4388000D01*
X-7254140Y+5579260D02*
X-7254140Y+5564020D01*
X-7238265Y+5548780D01*
X-7174765Y+5548780D01*
X-7158890Y+5564020D01*
X-7158890Y+5640220D01*
X-7111265Y+5624980D02*
X-7095390Y+5640220D01*
X-7047765Y+5640220D01*
X-7031890Y+5624980D01*
X-7031890Y+5609740D01*
X-7047765Y+5594500D01*
X-7095390Y+5594500D01*
X-7111265Y+5579260D01*
X-7111265Y+5548780D01*
X-7031890Y+5548780D01*
D25*
X-7320000Y+5969000D02*
X-7320966Y+5993052D01*
X-7328807Y+6041158D01*
X-7345161Y+6089264D01*
X-7371703Y+6137370D01*
X-7412212Y+6185389D01*
X-7460318Y+6222972D01*
X-7508424Y+6247479D01*
X-7556530Y+6262209D01*
X-7604636Y+6268606D01*
X-7620000Y+6269000D01*
X-7920000Y+5969000D02*
X-7919034Y+5993052D01*
X-7911193Y+6041158D01*
X-7894839Y+6089264D01*
X-7868297Y+6137370D01*
X-7827788Y+6185389D01*
X-7779682Y+6222972D01*
X-7731576Y+6247479D01*
X-7683470Y+6262209D01*
X-7635364Y+6268606D01*
X-7620000Y+6269000D01*
X-7920000Y+5969000D02*
X-7919034Y+5944948D01*
X-7911193Y+5896842D01*
X-7894839Y+5848736D01*
X-7868297Y+5800630D01*
X-7827788Y+5752611D01*
X-7779682Y+5715028D01*
X-7731576Y+5690521D01*
X-7683470Y+5675791D01*
X-7635364Y+5669394D01*
X-7620000Y+5669000D01*
X-7320000Y+5969000D02*
X-7320966Y+5944948D01*
X-7328807Y+5896842D01*
X-7345161Y+5848736D01*
X-7371703Y+5800630D01*
X-7412212Y+5752611D01*
X-7460318Y+5715028D01*
X-7508424Y+5690521D01*
X-7556530Y+5675791D01*
X-7604636Y+5669394D01*
X-7620000Y+5669000D01*
X+4059526Y+5969000D02*
X+4058559Y+5993077D01*
X+4050710Y+6041233D01*
X+4034340Y+6089389D01*
X+4007773Y+6137545D01*
X+3967224Y+6185614D01*
X+3919068Y+6223240D01*
X+3870912Y+6247776D01*
X+3822756Y+6262524D01*
X+3774600Y+6268931D01*
X+3759200Y+6269326D01*
X+3458874Y+5969000D02*
X+3459841Y+5993077D01*
X+3467690Y+6041233D01*
X+3484060Y+6089389D01*
X+3510627Y+6137545D01*
X+3551176Y+6185614D01*
X+3599332Y+6223240D01*
X+3647488Y+6247776D01*
X+3695644Y+6262524D01*
X+3743800Y+6268931D01*
X+3759200Y+6269326D01*
X+3458874Y+5969000D02*
X+3459841Y+5944923D01*
X+3467690Y+5896767D01*
X+3484060Y+5848611D01*
X+3510627Y+5800455D01*
X+3551176Y+5752386D01*
X+3599332Y+5714760D01*
X+3647488Y+5690224D01*
X+3695644Y+5675476D01*
X+3743800Y+5669069D01*
X+3759200Y+5668674D01*
X+4059526Y+5969000D02*
X+4058559Y+5944923D01*
X+4050710Y+5896767D01*
X+4034340Y+5848611D01*
X+4007773Y+5800455D01*
X+3967224Y+5752386D01*
X+3919068Y+5714760D01*
X+3870912Y+5690224D01*
X+3822756Y+5675476D01*
X+3774600Y+5669069D01*
X+3759200Y+5668674D01*
X+5270742Y-6107000D02*
X+5269704Y-6081079D01*
X+5261281Y-6029236D01*
X+5243717Y-5977393D01*
X+5215229Y-5925550D01*
X+5171779Y-5873775D01*
X+5119936Y-5833009D01*
X+5068093Y-5806380D01*
X+5016250Y-5790301D01*
X+4964407Y-5783196D01*
X+4946440Y-5782698D01*
X+4622138Y-6107000D02*
X+4623176Y-6081079D01*
X+4631599Y-6029236D01*
X+4649163Y-5977393D01*
X+4677651Y-5925550D01*
X+4721101Y-5873775D01*
X+4772944Y-5833009D01*
X+4824787Y-5806380D01*
X+4876630Y-5790301D01*
X+4928473Y-5783196D01*
X+4946440Y-5782698D01*
X+4622138Y-6107000D02*
X+4623176Y-6132921D01*
X+4631599Y-6184764D01*
X+4649163Y-6236607D01*
X+4677651Y-6288450D01*
X+4721101Y-6340225D01*
X+4772944Y-6380991D01*
X+4824787Y-6407620D01*
X+4876630Y-6423699D01*
X+4928473Y-6430804D01*
X+4946440Y-6431302D01*
X+5270742Y-6107000D02*
X+5269704Y-6132921D01*
X+5261281Y-6184764D01*
X+5243717Y-6236607D01*
X+5215229Y-6288450D01*
X+5171779Y-6340225D01*
X+5119936Y-6380991D01*
X+5068093Y-6407620D01*
X+5016250Y-6423699D01*
X+4964407Y-6430804D01*
X+4946440Y-6431302D01*
X-7296000Y-6157000D02*
X-7297037Y-6131102D01*
X-7305454Y-6079305D01*
X-7323002Y-6027508D01*
X-7351466Y-5975711D01*
X-7394881Y-5923982D01*
X-7446678Y-5883257D01*
X-7498475Y-5856654D01*
X-7550272Y-5840592D01*
X-7602069Y-5833497D01*
X-7620000Y-5833000D01*
X-7944000Y-6157000D02*
X-7942963Y-6131102D01*
X-7934546Y-6079305D01*
X-7916998Y-6027508D01*
X-7888534Y-5975711D01*
X-7845119Y-5923982D01*
X-7793322Y-5883257D01*
X-7741525Y-5856654D01*
X-7689728Y-5840592D01*
X-7637931Y-5833497D01*
X-7620000Y-5833000D01*
X-7944000Y-6157000D02*
X-7942963Y-6182898D01*
X-7934546Y-6234695D01*
X-7916998Y-6286492D01*
X-7888534Y-6338289D01*
X-7845119Y-6390018D01*
X-7793322Y-6430743D01*
X-7741525Y-6457346D01*
X-7689728Y-6473408D01*
X-7637931Y-6480503D01*
X-7620000Y-6481000D01*
X-7296000Y-6157000D02*
X-7297037Y-6182898D01*
X-7305454Y-6234695D01*
X-7323002Y-6286492D01*
X-7351466Y-6338289D01*
X-7394881Y-6390018D01*
X-7446678Y-6430743D01*
X-7498475Y-6457346D01*
X-7550272Y-6473408D01*
X-7602069Y-6480503D01*
X-7620000Y-6481000D01*
X-7957300Y+3980700D02*
X-8058900Y+3980700D01*
X-8109700Y+4031500D01*
X-8109700Y+4082300D01*
X-8058900Y+4133100D01*
X-7957300Y+4133100D01*
X-8008100Y+3980700D02*
X-8008100Y+4133100D01*
X-8109700Y+4260100D02*
X-7957300Y+4260100D01*
X-8058900Y+4463300D02*
X-7957300Y+4463300D01*
X-8109700Y+4463300D02*
X-8109700Y+4463300D01*
X-7957300Y+4590300D02*
X-8058900Y+4590300D01*
X-8033500Y+4590300D02*
X-8058900Y+4615700D01*
X-8008100Y+4666500D01*
X-8058900Y+4717300D01*
X-8033500Y+4742700D01*
X-7957300Y+4742700D01*
X-8008100Y+4793500D02*
X-8008100Y+4945900D01*
X-8033500Y+4945900D01*
X-8058900Y+4920500D01*
X-8058900Y+4818900D01*
X-8033500Y+4793500D01*
X-7982700Y+4793500D01*
X-7957300Y+4818900D01*
X-7957300Y+4920500D01*
X-7957300Y+4996700D02*
X-8058900Y+4996700D01*
X-8033500Y+4996700D02*
X-8058900Y+5022100D01*
X-8058900Y+5123700D01*
X-8033500Y+5149100D01*
X-7957300Y+5149100D01*
X-8109700Y+5225300D02*
X-7982700Y+5225300D01*
X-7957300Y+5250700D01*
X-7957300Y+5326900D01*
X-7982700Y+5352300D01*
X-8058900Y+5199900D02*
X-8058900Y+5326900D01*
X-8058900Y+5428500D02*
X-8058900Y+5530100D01*
X-8033500Y+5555500D01*
X-7957300Y+5555500D01*
X-7957300Y+5428500D01*
X-7982700Y+5403100D01*
X-8008100Y+5428500D01*
X-8008100Y+5555500D01*
X-8033500Y+5758700D02*
X-8058900Y+5733300D01*
X-8058900Y+5631700D01*
X-8033500Y+5606300D01*
X-7982700Y+5606300D01*
X-7957300Y+5631700D01*
X-7957300Y+5733300D01*
X-7982700Y+5758700D01*
X-8058900Y+5885700D02*
X-7957300Y+5885700D01*
X-8109700Y+5885700D02*
X-8109700Y+5885700D01*
X-8033500Y+6012700D02*
X-8058900Y+6038100D01*
X-8058900Y+6139700D01*
X-8033500Y+6165100D01*
X-7982700Y+6165100D01*
X-7957300Y+6139700D01*
X-7957300Y+6038100D01*
X-7982700Y+6012700D01*
X-8033500Y+6012700D01*
X-7957300Y+6215900D02*
X-8058900Y+6215900D01*
X-8033500Y+6215900D02*
X-8058900Y+6241300D01*
X-8058900Y+6342900D01*
X-8033500Y+6368300D01*
X-7957300Y+6368300D01*
X-7487500Y+5316500D02*
X-7335100Y+5316500D01*
X-7411300Y+5367300D02*
X-7411300Y+5265700D01*
X-7503005Y+4585500D02*
X-7376005Y+4585500D01*
D24*
X-6350000Y+4650000D02*
X-6350000Y+5650000D01*
X-3350000Y+5650000D02*
X-3350000Y+4650000D01*
X-6350000Y+5650000D02*
X-3350000Y+5650000D01*
X-6350000Y+4650000D02*
X-3350000Y+4650000D01*
X-3217920Y+4959500D02*
X-3309360Y+4959500D01*
X-3309360Y+5054750D01*
X-3263640Y+4959500D02*
X-3263640Y+5023000D01*
X-3309360Y+5086500D02*
X-3233160Y+5086500D01*
X-3217920Y+5102375D01*
X-3217920Y+5165875D01*
X-3233160Y+5181750D01*
X-3309360Y+5181750D01*
X-3278880Y+5245250D02*
X-3309360Y+5277000D01*
X-3217920Y+5277000D01*
X-2538520Y+4324500D02*
X-2218480Y+4324500D01*
X-2218480Y+4959500D01*
X-2538520Y+4959500D01*
X-2538520Y+4324500D01*
X-2378500Y+4324500D02*
X-2378500Y+4261000D01*
X-2378500Y+4959500D02*
X-2378500Y+5023000D01*
X-2226100Y+4819800D02*
X-2530900Y+4819800D01*
X-2336400Y+4465000D02*
X-2427840Y+4465000D01*
X-2427840Y+4528500D01*
X-2397360Y+4560250D01*
X-2366880Y+4560250D01*
X-2336400Y+4528500D01*
X-2336400Y+4465000D01*
X-2397360Y+4623750D02*
X-2427840Y+4655500D01*
X-2336400Y+4655500D01*
X-2000000Y+4750000D02*
X-1979553Y+4745825D01*
X-1960644Y+4733008D01*
X-1943640Y+4711108D01*
X-1928906Y+4679688D01*
X-1916809Y+4638306D01*
X-1907715Y+4586523D01*
X-1901990Y+4523901D01*
X-1900000Y+4450000D01*
X-2000000Y+4750000D02*
X-2020447Y+4745825D01*
X-2039356Y+4733008D01*
X-2056360Y+4711108D01*
X-2071094Y+4679688D01*
X-2083191Y+4638306D01*
X-2092285Y+4586523D01*
X-2098010Y+4523901D01*
X-2100000Y+4450000D01*
X-2000000Y+4200000D02*
X-1979553Y+4204077D01*
X-1960644Y+4216211D01*
X-1943640Y+4236255D01*
X-1928906Y+4264062D01*
X-1916809Y+4299487D01*
X-1907715Y+4342383D01*
X-1901990Y+4392603D01*
X-1900000Y+4450000D01*
X-2000000Y+4200000D02*
X-2020447Y+4204077D01*
X-2039356Y+4216211D01*
X-2056360Y+4236255D01*
X-2071094Y+4264062D01*
X-2083191Y+4299487D01*
X-2092285Y+4342383D01*
X-2098010Y+4392603D01*
X-2100000Y+4450000D01*
X-1933160Y+4943250D02*
X-1917920Y+4927375D01*
X-1917920Y+4879750D01*
X-1948400Y+4848000D01*
X-1978880Y+4848000D01*
X-2009360Y+4879750D01*
X-2009360Y+4927375D01*
X-1994120Y+4943250D01*
X-1994120Y+5070250D02*
X-2009360Y+5054375D01*
X-2009360Y+5006750D01*
X-1994120Y+4990875D01*
X-1933160Y+4990875D01*
X-1917920Y+5006750D01*
X-1917920Y+5054375D01*
X-1933160Y+5070250D01*
X-1948400Y+5070250D01*
X-1963640Y+5054375D01*
X-1963640Y+4990875D01*
X-1813120Y+4382920D02*
X-1546420Y+4382920D01*
X-1546420Y+4901080D01*
X-1813120Y+4901080D01*
X-1813120Y+4382920D01*
X-1810580Y+4464200D02*
X-1548960Y+4464200D01*
X-1678500Y+4311800D02*
X-1678500Y+4382920D01*
X-1678500Y+4901080D02*
X-1678500Y+4972200D01*
X-1653760Y+4515000D02*
X-1745200Y+4515000D01*
X-1745200Y+4578500D01*
X-1714720Y+4610250D01*
X-1684240Y+4610250D01*
X-1653760Y+4578500D01*
X-1653760Y+4515000D01*
X-1729960Y+4657875D02*
X-1745200Y+4673750D01*
X-1745200Y+4721375D01*
X-1729960Y+4737250D01*
X-1714720Y+4737250D01*
X-1699480Y+4721375D01*
X-1699480Y+4673750D01*
X-1684240Y+4657875D01*
X-1653760Y+4657875D01*
X-1653760Y+4737250D01*
X-7396000Y+3273000D02*
X-7396827Y+3293483D01*
X-7403545Y+3334450D01*
X-7417563Y+3375417D01*
X-7440341Y+3416384D01*
X-7475141Y+3457229D01*
X-7516108Y+3488845D01*
X-7557075Y+3509392D01*
X-7598042Y+3521629D01*
X-7639009Y+3526762D01*
X-7650000Y+3527000D01*
X-7904000Y+3273000D02*
X-7903173Y+3293483D01*
X-7896455Y+3334450D01*
X-7882437Y+3375417D01*
X-7859659Y+3416384D01*
X-7824859Y+3457229D01*
X-7783892Y+3488845D01*
X-7742925Y+3509392D01*
X-7701958Y+3521629D01*
X-7660991Y+3526762D01*
X-7650000Y+3527000D01*
X-7904000Y+3273000D02*
X-7903173Y+3252517D01*
X-7896455Y+3211550D01*
X-7882437Y+3170583D01*
X-7859659Y+3129616D01*
X-7824859Y+3088771D01*
X-7783892Y+3057155D01*
X-7742925Y+3036608D01*
X-7701958Y+3024371D01*
X-7660991Y+3019238D01*
X-7650000Y+3019000D01*
X-7396000Y+3273000D02*
X-7396827Y+3252517D01*
X-7403545Y+3211550D01*
X-7417563Y+3170583D01*
X-7440341Y+3129616D01*
X-7475141Y+3088771D01*
X-7516108Y+3057155D01*
X-7557075Y+3036608D01*
X-7598042Y+3024371D01*
X-7639009Y+3019238D01*
X-7650000Y+3019000D01*
X-7396000Y+3590500D02*
X-7396000Y+3463500D01*
X-7332500Y+3527000D02*
X-7459500Y+3527000D01*
X-7350420Y+2827750D02*
X-7441860Y+2827750D01*
X-7441860Y+2891250D01*
X-7411380Y+2923000D01*
X-7380900Y+2923000D01*
X-7350420Y+2891250D01*
X-7350420Y+2827750D01*
X-7426620Y+3050000D02*
X-7441860Y+3034125D01*
X-7441860Y+2986500D01*
X-7426620Y+2970625D01*
X-7365660Y+2970625D01*
X-7350420Y+2986500D01*
X-7350420Y+3034125D01*
X-7365660Y+3050000D01*
X-7380900Y+3050000D01*
X-7396140Y+3034125D01*
X-7396140Y+2970625D01*
X-7073000Y+3400000D02*
X-6946000Y+3400000D01*
X-6946000Y+3336500D02*
X-6438000Y+3336500D01*
X-6438000Y+3463500D01*
X-6946000Y+3463500D01*
X-6946000Y+3336500D01*
X-6438000Y+3400000D02*
X-6311000Y+3400000D01*
X-6895200Y+3364440D02*
X-6895200Y+3455880D01*
X-6815825Y+3455880D01*
X-6799950Y+3440640D01*
X-6799950Y+3425400D01*
X-6815825Y+3410160D01*
X-6895200Y+3410160D01*
X-6815825Y+3410160D02*
X-6799950Y+3394920D01*
X-6799950Y+3364440D01*
X-6736450Y+3425400D02*
X-6704700Y+3455880D01*
X-6704700Y+3364440D01*
X-6625325Y+3440640D02*
X-6609450Y+3455880D01*
X-6561825Y+3455880D01*
X-6545950Y+3440640D01*
X-6545950Y+3425400D01*
X-6561825Y+3410160D01*
X-6609450Y+3410160D01*
X-6625325Y+3394920D01*
X-6625325Y+3364440D01*
X-6545950Y+3364440D01*
X-7396000Y+3873000D02*
X-7396827Y+3893483D01*
X-7403545Y+3934450D01*
X-7417563Y+3975417D01*
X-7440341Y+4016384D01*
X-7475141Y+4057229D01*
X-7516108Y+4088845D01*
X-7557075Y+4109392D01*
X-7598042Y+4121629D01*
X-7639009Y+4126762D01*
X-7650000Y+4127000D01*
X-7904000Y+3873000D02*
X-7903173Y+3893483D01*
X-7896455Y+3934450D01*
X-7882437Y+3975417D01*
X-7859659Y+4016384D01*
X-7824859Y+4057229D01*
X-7783892Y+4088845D01*
X-7742925Y+4109392D01*
X-7701958Y+4121629D01*
X-7660991Y+4126762D01*
X-7650000Y+4127000D01*
X-7904000Y+3873000D02*
X-7903173Y+3852517D01*
X-7896455Y+3811550D01*
X-7882437Y+3770583D01*
X-7859659Y+3729616D01*
X-7824859Y+3688771D01*
X-7783892Y+3657155D01*
X-7742925Y+3636608D01*
X-7701958Y+3624371D01*
X-7660991Y+3619238D01*
X-7650000Y+3619000D01*
X-7396000Y+3873000D02*
X-7396827Y+3852517D01*
X-7403545Y+3811550D01*
X-7417563Y+3770583D01*
X-7440341Y+3729616D01*
X-7475141Y+3688771D01*
X-7516108Y+3657155D01*
X-7557075Y+3636608D01*
X-7598042Y+3624371D01*
X-7639009Y+3619238D01*
X-7650000Y+3619000D01*
X-7396000Y+4190500D02*
X-7396000Y+4063500D01*
X-7332500Y+4127000D02*
X-7459500Y+4127000D01*
X-7350420Y+3427750D02*
X-7441860Y+3427750D01*
X-7441860Y+3491250D01*
X-7411380Y+3523000D01*
X-7380900Y+3523000D01*
X-7350420Y+3491250D01*
X-7350420Y+3427750D01*
X-7441860Y+3570625D02*
X-7441860Y+3650000D01*
X-7426620Y+3650000D01*
X-7350420Y+3570625D01*
X-7073000Y+4000000D02*
X-6946000Y+4000000D01*
X-6946000Y+3936500D02*
X-6438000Y+3936500D01*
X-6438000Y+4063500D01*
X-6946000Y+4063500D01*
X-6946000Y+3936500D01*
X-6438000Y+4000000D02*
X-6311000Y+4000000D01*
X-6882500Y+3951740D02*
X-6882500Y+4043180D01*
X-6803125Y+4043180D01*
X-6787250Y+4027940D01*
X-6787250Y+4012700D01*
X-6803125Y+3997460D01*
X-6882500Y+3997460D01*
X-6803125Y+3997460D02*
X-6787250Y+3982220D01*
X-6787250Y+3951740D01*
X-6723750Y+4012700D02*
X-6692000Y+4043180D01*
X-6692000Y+3951740D01*
X-6612625Y+4027940D02*
X-6596750Y+4043180D01*
X-6549125Y+4043180D01*
X-6533250Y+4027940D01*
X-6533250Y+4012700D01*
X-6549125Y+3997460D01*
X-6533250Y+3982220D01*
X-6533250Y+3966980D01*
X-6549125Y+3951740D01*
X-6596750Y+3951740D01*
X-6612625Y+3966980D01*
X-6580875Y+3997460D02*
X-6549125Y+3997460D01*
X-1350000Y+4200000D02*
X-1370447Y+4204175D01*
X-1389356Y+4216992D01*
X-1406360Y+4238892D01*
X-1421094Y+4270312D01*
X-1433191Y+4311694D01*
X-1442285Y+4363477D01*
X-1448010Y+4426099D01*
X-1450000Y+4500000D01*
X-1350000Y+4200000D02*
X-1329553Y+4204175D01*
X-1310644Y+4216992D01*
X-1293640Y+4238892D01*
X-1278906Y+4270312D01*
X-1266809Y+4311694D01*
X-1257715Y+4363477D01*
X-1251990Y+4426099D01*
X-1250000Y+4500000D01*
X-1350000Y+4750000D02*
X-1370447Y+4745923D01*
X-1389356Y+4733789D01*
X-1406360Y+4713745D01*
X-1421094Y+4685938D01*
X-1433191Y+4650513D01*
X-1442285Y+4607617D01*
X-1448010Y+4557397D01*
X-1450000Y+4500000D01*
X-1350000Y+4750000D02*
X-1329553Y+4745923D01*
X-1310644Y+4733789D01*
X-1293640Y+4713745D01*
X-1278906Y+4685938D01*
X-1266809Y+4650513D01*
X-1257715Y+4607617D01*
X-1251990Y+4557397D01*
X-1250000Y+4500000D01*
X-1304280Y+4877850D02*
X-1289040Y+4861975D01*
X-1289040Y+4814350D01*
X-1319520Y+4782600D01*
X-1350000Y+4782600D01*
X-1380480Y+4814350D01*
X-1380480Y+4861975D01*
X-1365240Y+4877850D01*
X-1380480Y+4925475D02*
X-1380480Y+5004850D01*
X-1365240Y+5004850D01*
X-1289040Y+4925475D01*
X-723000Y+3500000D02*
X-723827Y+3520483D01*
X-730545Y+3561450D01*
X-744563Y+3602417D01*
X-767341Y+3643384D01*
X-802141Y+3684229D01*
X-843108Y+3715845D01*
X-884075Y+3736392D01*
X-925042Y+3748629D01*
X-966009Y+3753762D01*
X-977000Y+3754000D01*
X-1231000Y+3500000D02*
X-1230173Y+3520483D01*
X-1223455Y+3561450D01*
X-1209437Y+3602417D01*
X-1186659Y+3643384D01*
X-1151859Y+3684229D01*
X-1110892Y+3715845D01*
X-1069925Y+3736392D01*
X-1028958Y+3748629D01*
X-987991Y+3753762D01*
X-977000Y+3754000D01*
X-1231000Y+3500000D02*
X-1230173Y+3479517D01*
X-1223455Y+3438550D01*
X-1209437Y+3397583D01*
X-1186659Y+3356616D01*
X-1151859Y+3315771D01*
X-1110892Y+3284155D01*
X-1069925Y+3263608D01*
X-1028958Y+3251371D01*
X-987991Y+3246238D01*
X-977000Y+3246000D01*
X-723000Y+3500000D02*
X-723827Y+3479517D01*
X-730545Y+3438550D01*
X-744563Y+3397583D01*
X-767341Y+3356616D01*
X-802141Y+3315771D01*
X-843108Y+3284155D01*
X-884075Y+3263608D01*
X-925042Y+3251371D01*
X-966009Y+3246238D01*
X-977000Y+3246000D01*
X-1167500Y+3627000D02*
X-1040500Y+3627000D01*
X-1104000Y+3690500D02*
X-1104000Y+3563500D01*
X-1008750Y+3809880D02*
X-1024625Y+3794640D01*
X-1072250Y+3794640D01*
X-1104000Y+3825120D01*
X-1104000Y+3855600D01*
X-1072250Y+3886080D01*
X-1024625Y+3886080D01*
X-1008750Y+3870840D01*
X-945250Y+3855600D02*
X-913500Y+3886080D01*
X-913500Y+3794640D01*
X-2239000Y+2250000D02*
X-2112000Y+2250000D01*
X-2112000Y+2186500D02*
X-1604000Y+2186500D01*
X-1604000Y+2313500D01*
X-2112000Y+2313500D01*
X-2112000Y+2186500D01*
X-1604000Y+2250000D02*
X-1477000Y+2250000D01*
X-1985000Y+2201740D02*
X-1985000Y+2293180D01*
X-1905625Y+2293180D01*
X-1889750Y+2277940D01*
X-1889750Y+2262700D01*
X-1905625Y+2247460D01*
X-1985000Y+2247460D01*
X-1905625Y+2247460D02*
X-1889750Y+2232220D01*
X-1889750Y+2201740D01*
X-1826250Y+2247460D02*
X-1842125Y+2262700D01*
X-1842125Y+2277940D01*
X-1826250Y+2293180D01*
X-1778625Y+2293180D01*
X-1762750Y+2277940D01*
X-1762750Y+2262700D01*
X-1778625Y+2247460D01*
X-1826250Y+2247460D01*
X-1842125Y+2232220D01*
X-1842125Y+2216980D01*
X-1826250Y+2201740D01*
X-1778625Y+2201740D01*
X-1762750Y+2216980D01*
X-1762750Y+2232220D01*
X-1778625Y+2247460D01*
X-2509520Y+2827020D02*
X-2242820Y+2827020D01*
X-2242820Y+3345180D01*
X-2509520Y+3345180D01*
X-2509520Y+2827020D01*
X-2506980Y+2908300D02*
X-2245360Y+2908300D01*
X-2374900Y+2755900D02*
X-2374900Y+2827020D01*
X-2374900Y+3345180D02*
X-2374900Y+3416300D01*
X-2321560Y+2959100D02*
X-2413000Y+2959100D01*
X-2413000Y+3022600D01*
X-2382520Y+3054350D01*
X-2352040Y+3054350D01*
X-2321560Y+3022600D01*
X-2321560Y+2959100D01*
X-2397760Y+3101975D02*
X-2413000Y+3117850D01*
X-2413000Y+3165475D01*
X-2397760Y+3181350D01*
X-2382520Y+3181350D01*
X-2367280Y+3165475D01*
X-2352040Y+3181350D01*
X-2336800Y+3181350D01*
X-2321560Y+3165475D01*
X-2321560Y+3117850D01*
X-2336800Y+3101975D01*
X-2367280Y+3133725D02*
X-2367280Y+3165475D01*
X-3184620Y+4382920D02*
X-2917920Y+4382920D01*
X-2917920Y+4901080D01*
X-3184620Y+4901080D01*
X-3184620Y+4382920D01*
X-3182080Y+4464200D02*
X-2920460Y+4464200D01*
X-3050000Y+4311800D02*
X-3050000Y+4382920D01*
X-3050000Y+4901080D02*
X-3050000Y+4972200D01*
X-3009360Y+4527700D02*
X-3100800Y+4527700D01*
X-3100800Y+4591200D01*
X-3070320Y+4622950D01*
X-3039840Y+4622950D01*
X-3009360Y+4591200D01*
X-3009360Y+4527700D01*
X-3055080Y+4686450D02*
X-3070320Y+4670575D01*
X-3085560Y+4670575D01*
X-3100800Y+4686450D01*
X-3100800Y+4734075D01*
X-3085560Y+4749950D01*
X-3070320Y+4749950D01*
X-3055080Y+4734075D01*
X-3055080Y+4686450D01*
X-3039840Y+4670575D01*
X-3024600Y+4670575D01*
X-3009360Y+4686450D01*
X-3009360Y+4734075D01*
X-3024600Y+4749950D01*
X-3039840Y+4749950D01*
X-3055080Y+4734075D01*
X-3894500Y+3421100D02*
X-3894500Y+3548100D01*
X-3958000Y+3548100D02*
X-3831000Y+3548100D01*
X-3831000Y+4056100D01*
X-3958000Y+4056100D01*
X-3958000Y+3548100D01*
X-3894500Y+4056100D02*
X-3894500Y+4183100D01*
X-3846240Y+3611600D02*
X-3937680Y+3611600D01*
X-3937680Y+3690975D01*
X-3922440Y+3706850D01*
X-3907200Y+3706850D01*
X-3891960Y+3690975D01*
X-3891960Y+3611600D01*
X-3891960Y+3690975D02*
X-3876720Y+3706850D01*
X-3846240Y+3706850D01*
X-3907200Y+3770350D02*
X-3937680Y+3802100D01*
X-3846240Y+3802100D01*
X-3937680Y+3881475D02*
X-3937680Y+3960850D01*
X-3922440Y+3960850D01*
X-3846240Y+3881475D01*
X-5904000Y+4390500D02*
X-5904000Y+4009500D01*
X-5777000Y+4441300D02*
X-5800688Y+4439117D01*
X-5823633Y+4433362D01*
X-5864312Y+4415900D01*
X-5904000Y+4390500D01*
X-5777000Y+4441300D02*
X-5725065Y+4440438D01*
X-5677037Y+4429046D01*
X-5633846Y+4408204D01*
X-5596422Y+4378991D01*
X-5565695Y+4342484D01*
X-5542596Y+4299764D01*
X-5528054Y+4251910D01*
X-5523000Y+4200000D01*
X-5777000Y+3958700D02*
X-5800688Y+3960883D01*
X-5823633Y+3966638D01*
X-5864312Y+3984100D01*
X-5904000Y+4009500D01*
X-5777000Y+3958700D02*
X-5725065Y+3959562D01*
X-5677037Y+3970954D01*
X-5633846Y+3991796D01*
X-5596422Y+4021009D01*
X-5565695Y+4057516D01*
X-5542596Y+4100236D01*
X-5528054Y+4148090D01*
X-5523000Y+4200000D01*
X-5566180Y+4352400D02*
X-5596660Y+4384150D01*
X-5596660Y+4415900D01*
X-5566180Y+4447650D01*
X-5535700Y+4447650D01*
X-5505220Y+4415900D01*
X-5505220Y+4384150D01*
X-5535700Y+4352400D01*
X-5566180Y+4352400D01*
X-5535700Y+4415900D02*
X-5505220Y+4447650D01*
X-5596660Y+4495275D02*
X-5596660Y+4574650D01*
X-5581420Y+4574650D01*
X-5505220Y+4495275D01*
X-4266000Y+3411000D02*
X-4266000Y+3538000D01*
X-4329500Y+3538000D02*
X-4202500Y+3538000D01*
X-4202500Y+4046000D01*
X-4329500Y+4046000D01*
X-4329500Y+3538000D01*
X-4266000Y+4046000D02*
X-4266000Y+4173000D01*
X-4230440Y+3601500D02*
X-4321880Y+3601500D01*
X-4321880Y+3680875D01*
X-4306640Y+3696750D01*
X-4291400Y+3696750D01*
X-4276160Y+3680875D01*
X-4276160Y+3601500D01*
X-4276160Y+3680875D02*
X-4260920Y+3696750D01*
X-4230440Y+3696750D01*
X-4291400Y+3760250D02*
X-4321880Y+3792000D01*
X-4230440Y+3792000D01*
X-4291400Y+3950750D02*
X-4276160Y+3934875D01*
X-4276160Y+3887250D01*
X-4291400Y+3871375D01*
X-4306640Y+3871375D01*
X-4321880Y+3887250D01*
X-4321880Y+3934875D01*
X-4306640Y+3950750D01*
X-4245680Y+3950750D01*
X-4230440Y+3934875D01*
X-4230440Y+3887250D01*
X-3182080Y+2832920D02*
X-2915380Y+2832920D01*
X-2915380Y+3351080D01*
X-3182080Y+3351080D01*
X-3182080Y+2832920D01*
X-2917920Y+3269800D02*
X-3179540Y+3269800D01*
X-3050000Y+3422200D02*
X-3050000Y+3351080D01*
X-3050000Y+2832920D02*
X-3050000Y+2761800D01*
X-2999200Y+2952300D02*
X-3090640Y+2952300D01*
X-3090640Y+3015800D01*
X-3060160Y+3047550D01*
X-3029680Y+3047550D01*
X-2999200Y+3015800D01*
X-2999200Y+2952300D01*
X-3060160Y+3174550D02*
X-3044920Y+3158675D01*
X-3044920Y+3111050D01*
X-3060160Y+3095175D01*
X-3075400Y+3095175D01*
X-3090640Y+3111050D01*
X-3090640Y+3158675D01*
X-3075400Y+3174550D01*
X-3014440Y+3174550D01*
X-2999200Y+3158675D01*
X-2999200Y+3111050D01*
X-2832100Y+1524000D02*
X-2832927Y+1544483D01*
X-2839645Y+1585450D01*
X-2853663Y+1626417D01*
X-2876441Y+1667384D01*
X-2911241Y+1708229D01*
X-2952208Y+1739845D01*
X-2993175Y+1760392D01*
X-3034142Y+1772629D01*
X-3075109Y+1777762D01*
X-3086100Y+1778000D01*
X-3340100Y+1524000D02*
X-3339273Y+1544483D01*
X-3332555Y+1585450D01*
X-3318537Y+1626417D01*
X-3295759Y+1667384D01*
X-3260959Y+1708229D01*
X-3219992Y+1739845D01*
X-3179025Y+1760392D01*
X-3138058Y+1772629D01*
X-3097091Y+1777762D01*
X-3086100Y+1778000D01*
X-3340100Y+1524000D02*
X-3339273Y+1503517D01*
X-3332555Y+1462550D01*
X-3318537Y+1421583D01*
X-3295759Y+1380616D01*
X-3260959Y+1339771D01*
X-3219992Y+1308155D01*
X-3179025Y+1287608D01*
X-3138058Y+1275371D01*
X-3097091Y+1270238D01*
X-3086100Y+1270000D01*
X-2832100Y+1524000D02*
X-2832927Y+1503517D01*
X-2839645Y+1462550D01*
X-2853663Y+1421583D01*
X-2876441Y+1380616D01*
X-2911241Y+1339771D01*
X-2952208Y+1308155D01*
X-2993175Y+1287608D01*
X-3034142Y+1275371D01*
X-3075109Y+1270238D01*
X-3086100Y+1270000D01*
X-2959100Y+1714500D02*
X-2959100Y+1587500D01*
X-2895600Y+1651000D02*
X-3022600Y+1651000D01*
X-2893060Y+1492250D02*
X-2877820Y+1476375D01*
X-2877820Y+1428750D01*
X-2908300Y+1397000D01*
X-2938780Y+1397000D01*
X-2969260Y+1428750D01*
X-2969260Y+1476375D01*
X-2954020Y+1492250D01*
X-2923540Y+1555750D02*
X-2938780Y+1539875D01*
X-2954020Y+1539875D01*
X-2969260Y+1555750D01*
X-2969260Y+1603375D01*
X-2954020Y+1619250D01*
X-2938780Y+1619250D01*
X-2923540Y+1603375D01*
X-2923540Y+1555750D01*
X-2908300Y+1539875D01*
X-2893060Y+1539875D01*
X-2877820Y+1555750D01*
X-2877820Y+1603375D01*
X-2893060Y+1619250D01*
X-2908300Y+1619250D01*
X-2923540Y+1603375D01*
X-3517900Y+1201000D02*
X-3538347Y+1205175D01*
X-3557256Y+1217992D01*
X-3574260Y+1239892D01*
X-3588994Y+1271312D01*
X-3601091Y+1312694D01*
X-3610185Y+1364477D01*
X-3615910Y+1427099D01*
X-3617900Y+1501000D01*
X-3517900Y+1201000D02*
X-3497453Y+1205175D01*
X-3478544Y+1217992D01*
X-3461540Y+1239892D01*
X-3446806Y+1271312D01*
X-3434709Y+1312694D01*
X-3425615Y+1364477D01*
X-3419890Y+1427099D01*
X-3417900Y+1501000D01*
X-3517900Y+1751000D02*
X-3538347Y+1746923D01*
X-3557256Y+1734789D01*
X-3574260Y+1714745D01*
X-3588994Y+1686938D01*
X-3601091Y+1651513D01*
X-3610185Y+1608617D01*
X-3615910Y+1558397D01*
X-3617900Y+1501000D01*
X-3517900Y+1751000D02*
X-3497453Y+1746923D01*
X-3478544Y+1734789D01*
X-3461540Y+1714745D01*
X-3446806Y+1686938D01*
X-3434709Y+1651513D01*
X-3425615Y+1608617D01*
X-3419890Y+1558397D01*
X-3417900Y+1501000D01*
X-3307080Y+1154950D02*
X-3291840Y+1139075D01*
X-3291840Y+1091450D01*
X-3322320Y+1059700D01*
X-3352800Y+1059700D01*
X-3383280Y+1091450D01*
X-3383280Y+1139075D01*
X-3368040Y+1154950D01*
X-3368040Y+1202575D02*
X-3383280Y+1218450D01*
X-3383280Y+1266075D01*
X-3368040Y+1281950D01*
X-3352800Y+1281950D01*
X-3337560Y+1266075D01*
X-3322320Y+1281950D01*
X-3307080Y+1281950D01*
X-3291840Y+1266075D01*
X-3291840Y+1218450D01*
X-3307080Y+1202575D01*
X-3337560Y+1234325D02*
X-3337560Y+1266075D01*
X-4114800Y+1778000D02*
X-3987800Y+1778000D01*
X-4495800Y+1778000D02*
X-4368800Y+1778000D01*
X-4241800Y+1651000D02*
X-4215924Y+1653436D01*
X-4191952Y+1660485D01*
X-4170362Y+1671762D01*
X-4151630Y+1686878D01*
X-4136231Y+1705446D01*
X-4124642Y+1727081D01*
X-4117340Y+1751394D01*
X-4114800Y+1778000D01*
X-4241800Y+1651000D02*
X-4268406Y+1653436D01*
X-4292719Y+1660485D01*
X-4314354Y+1671762D01*
X-4332922Y+1686878D01*
X-4348038Y+1705446D01*
X-4359315Y+1727081D01*
X-4366364Y+1751394D01*
X-4368800Y+1778000D01*
X-4495800Y+1778000D02*
X-4495800Y+0D01*
X-3987800Y+0D01*
X-3987800Y+1778000D01*
X-4368800Y+1910080D02*
X-4368800Y+1833880D01*
X-4352925Y+1818640D01*
X-4289425Y+1818640D01*
X-4273550Y+1833880D01*
X-4273550Y+1910080D01*
X-4210050Y+1879600D02*
X-4178300Y+1910080D01*
X-4178300Y+1818640D01*
X-3373000Y+650000D02*
X-3246000Y+650000D01*
X-3246000Y+586500D02*
X-2738000Y+586500D01*
X-2738000Y+713500D01*
X-3246000Y+713500D01*
X-3246000Y+586500D01*
X-2738000Y+650000D02*
X-2611000Y+650000D01*
X-3119000Y+589040D02*
X-3119000Y+680480D01*
X-3039625Y+680480D01*
X-3023750Y+665240D01*
X-3023750Y+650000D01*
X-3039625Y+634760D01*
X-3119000Y+634760D01*
X-3039625Y+634760D02*
X-3023750Y+619520D01*
X-3023750Y+589040D01*
X-2976125Y+665240D02*
X-2960250Y+680480D01*
X-2912625Y+680480D01*
X-2896750Y+665240D01*
X-2896750Y+650000D01*
X-2912625Y+634760D01*
X-2960250Y+634760D01*
X-2976125Y+619520D01*
X-2976125Y+589040D01*
X-2896750Y+589040D01*
X-1388400Y+364400D02*
X-1389227Y+384883D01*
X-1395945Y+425850D01*
X-1409963Y+466817D01*
X-1432741Y+507784D01*
X-1467541Y+548629D01*
X-1508508Y+580245D01*
X-1549475Y+600792D01*
X-1590442Y+613029D01*
X-1631409Y+618162D01*
X-1642400Y+618400D01*
X-1896400Y+364400D02*
X-1895573Y+384883D01*
X-1888855Y+425850D01*
X-1874837Y+466817D01*
X-1852059Y+507784D01*
X-1817259Y+548629D01*
X-1776292Y+580245D01*
X-1735325Y+600792D01*
X-1694358Y+613029D01*
X-1653391Y+618162D01*
X-1642400Y+618400D01*
X-1896400Y+364400D02*
X-1895573Y+343917D01*
X-1888855Y+302950D01*
X-1874837Y+261983D01*
X-1852059Y+221016D01*
X-1817259Y+180171D01*
X-1776292Y+148555D01*
X-1735325Y+128008D01*
X-1694358Y+115771D01*
X-1653391Y+110638D01*
X-1642400Y+110400D01*
X-1388400Y+364400D02*
X-1389227Y+343917D01*
X-1395945Y+302950D01*
X-1409963Y+261983D01*
X-1432741Y+221016D01*
X-1467541Y+180171D01*
X-1508508Y+148555D01*
X-1549475Y+128008D01*
X-1590442Y+115771D01*
X-1631409Y+110638D01*
X-1642400Y+110400D01*
X-1871900Y+457300D02*
X-1930800Y+480100D01*
X-1900800Y+553400D01*
X-1897700Y+554500D02*
X-1833600Y+526600D01*
X-1702200Y-232500D02*
X-1732680Y-200750D01*
X-1732680Y-169000D01*
X-1702200Y-137250D01*
X-1671720Y-137250D01*
X-1641240Y-169000D01*
X-1641240Y-200750D01*
X-1671720Y-232500D01*
X-1702200Y-232500D01*
X-1671720Y-169000D02*
X-1641240Y-137250D01*
X-1702200Y-73750D02*
X-1732680Y-42000D01*
X-1641240Y-42000D01*
X-1121700Y+1558200D02*
X-1121700Y+1431200D01*
X-1185200Y+923200D02*
X-1058200Y+923200D01*
X-1058200Y+1431200D01*
X-1185200Y+1431200D01*
X-1185200Y+923200D01*
X-1121700Y+923200D02*
X-1121700Y+796200D01*
X-1065820Y+1050200D02*
X-1157260Y+1050200D01*
X-1157260Y+1129575D01*
X-1142020Y+1145450D01*
X-1126780Y+1145450D01*
X-1111540Y+1129575D01*
X-1111540Y+1050200D01*
X-1111540Y+1129575D02*
X-1096300Y+1145450D01*
X-1065820Y+1145450D01*
X-1142020Y+1272450D02*
X-1157260Y+1256575D01*
X-1157260Y+1208950D01*
X-1142020Y+1193075D01*
X-1081060Y+1193075D01*
X-1065820Y+1208950D01*
X-1065820Y+1256575D01*
X-1081060Y+1272450D01*
X-1096300Y+1272450D01*
X-1111540Y+1256575D01*
X-1111540Y+1193075D01*
X-3373000Y+900000D02*
X-3246000Y+900000D01*
X-3246000Y+836500D02*
X-2738000Y+836500D01*
X-2738000Y+963500D01*
X-3246000Y+963500D01*
X-3246000Y+836500D01*
X-2738000Y+900000D02*
X-2611000Y+900000D01*
X-3119000Y+851740D02*
X-3119000Y+943180D01*
X-3039625Y+943180D01*
X-3023750Y+927940D01*
X-3023750Y+912700D01*
X-3039625Y+897460D01*
X-3119000Y+897460D01*
X-3039625Y+897460D02*
X-3023750Y+882220D01*
X-3023750Y+851740D01*
X-2976125Y+927940D02*
X-2960250Y+943180D01*
X-2912625Y+943180D01*
X-2896750Y+927940D01*
X-2896750Y+912700D01*
X-2912625Y+897460D01*
X-2896750Y+882220D01*
X-2896750Y+866980D01*
X-2912625Y+851740D01*
X-2960250Y+851740D01*
X-2976125Y+866980D01*
X-2944375Y+897460D02*
X-2912625Y+897460D01*
X-1439200Y+1050200D02*
X-1440027Y+1070683D01*
X-1446745Y+1111650D01*
X-1460763Y+1152617D01*
X-1483541Y+1193584D01*
X-1518341Y+1234429D01*
X-1559308Y+1266045D01*
X-1600275Y+1286592D01*
X-1641242Y+1298829D01*
X-1682209Y+1303962D01*
X-1693200Y+1304200D01*
X-1947200Y+1050200D02*
X-1946373Y+1070683D01*
X-1939655Y+1111650D01*
X-1925637Y+1152617D01*
X-1902859Y+1193584D01*
X-1868059Y+1234429D01*
X-1827092Y+1266045D01*
X-1786125Y+1286592D01*
X-1745158Y+1298829D01*
X-1704191Y+1303962D01*
X-1693200Y+1304200D01*
X-1947200Y+1050200D02*
X-1946373Y+1029717D01*
X-1939655Y+988750D01*
X-1925637Y+947783D01*
X-1902859Y+906816D01*
X-1868059Y+865971D01*
X-1827092Y+834355D01*
X-1786125Y+813808D01*
X-1745158Y+801571D01*
X-1704191Y+796438D01*
X-1693200Y+796200D01*
X-1439200Y+1050200D02*
X-1440027Y+1029717D01*
X-1446745Y+988750D01*
X-1460763Y+947783D01*
X-1483541Y+906816D01*
X-1518341Y+865971D01*
X-1559308Y+834355D01*
X-1600275Y+813808D01*
X-1641242Y+801571D01*
X-1682209Y+796438D01*
X-1693200Y+796200D01*
X-1922700Y+1143100D02*
X-1981600Y+1165900D01*
X-1951600Y+1239200D01*
X-1948500Y+1240300D02*
X-1884400Y+1212400D01*
X-1727600Y+1405800D02*
X-1758080Y+1437550D01*
X-1758080Y+1469300D01*
X-1727600Y+1501050D01*
X-1697120Y+1501050D01*
X-1666640Y+1469300D01*
X-1666640Y+1437550D01*
X-1697120Y+1405800D01*
X-1727600Y+1405800D01*
X-1697120Y+1469300D02*
X-1666640Y+1501050D01*
X-1742840Y+1548675D02*
X-1758080Y+1564550D01*
X-1758080Y+1612175D01*
X-1742840Y+1628050D01*
X-1727600Y+1628050D01*
X-1712360Y+1612175D01*
X-1712360Y+1564550D01*
X-1697120Y+1548675D01*
X-1666640Y+1548675D01*
X-1666640Y+1628050D01*
X-2163100Y+1558200D02*
X-2163100Y+1431200D01*
X-2226600Y+923200D02*
X-2099600Y+923200D01*
X-2099600Y+1431200D01*
X-2226600Y+1431200D01*
X-2226600Y+923200D01*
X-2163100Y+923200D02*
X-2163100Y+796200D01*
X-2107220Y+1088300D02*
X-2198660Y+1088300D01*
X-2198660Y+1167675D01*
X-2183420Y+1183550D01*
X-2168180Y+1183550D01*
X-2152940Y+1167675D01*
X-2152940Y+1088300D01*
X-2152940Y+1167675D02*
X-2137700Y+1183550D01*
X-2107220Y+1183550D01*
X-2168180Y+1247050D02*
X-2198660Y+1278800D01*
X-2107220Y+1278800D01*
X-177800Y+152400D02*
X+76200Y+152400D01*
X+76200Y+914400D01*
X-177800Y+914400D01*
X-177800Y+152400D01*
X+76200Y+914400D02*
X+203200Y+914400D01*
X+203200Y+152400D01*
X+76200Y+152400D01*
X+76200Y+914400D02*
X+203200Y+787400D01*
X+76200Y+787400D02*
X+203200Y+660400D01*
X+76200Y+660400D02*
X+203200Y+533400D01*
X+76200Y+533400D02*
X+203200Y+406400D01*
X+76200Y+406400D02*
X+203200Y+279400D01*
X+76200Y+279400D02*
X+203200Y+152400D01*
X+274320Y+406400D02*
X+243840Y+438150D01*
X+243840Y+469900D01*
X+274320Y+501650D01*
X+304800Y+501650D01*
X+335280Y+469900D01*
X+335280Y+438150D01*
X+304800Y+406400D01*
X+274320Y+406400D01*
X+304800Y+469900D02*
X+335280Y+501650D01*
X+259080Y+549275D02*
X+243840Y+565150D01*
X+243840Y+612775D01*
X+259080Y+628650D01*
X+274320Y+628650D01*
X+289560Y+612775D01*
X+304800Y+628650D01*
X+320040Y+628650D01*
X+335280Y+612775D01*
X+335280Y+565150D01*
X+320040Y+549275D01*
X+289560Y+581025D02*
X+289560Y+612775D01*
X-177800Y+1244600D02*
X+76200Y+1244600D01*
X+76200Y+2006600D01*
X-177800Y+2006600D01*
X-177800Y+1244600D01*
X+76200Y+2006600D02*
X+203200Y+2006600D01*
X+203200Y+1244600D01*
X+76200Y+1244600D01*
X+76200Y+2006600D02*
X+203200Y+1879600D01*
X+76200Y+1879600D02*
X+203200Y+1752600D01*
X+76200Y+1752600D02*
X+203200Y+1625600D01*
X+76200Y+1625600D02*
X+203200Y+1498600D01*
X+76200Y+1498600D02*
X+203200Y+1371600D01*
X+76200Y+1371600D02*
X+203200Y+1244600D01*
X+274320Y+1498600D02*
X+243840Y+1530350D01*
X+243840Y+1562100D01*
X+274320Y+1593850D01*
X+304800Y+1593850D01*
X+335280Y+1562100D01*
X+335280Y+1530350D01*
X+304800Y+1498600D01*
X+274320Y+1498600D01*
X+304800Y+1562100D02*
X+335280Y+1593850D01*
X+243840Y+1720850D02*
X+243840Y+1641475D01*
X+274320Y+1641475D01*
X+274320Y+1704975D01*
X+289560Y+1720850D01*
X+320040Y+1720850D01*
X+335280Y+1704975D01*
X+335280Y+1657350D01*
X+320040Y+1641475D01*
X-355600Y+901700D02*
X-355600Y+774700D01*
X-419100Y+266700D02*
X-292100Y+266700D01*
X-292100Y+774700D01*
X-419100Y+774700D01*
X-419100Y+266700D01*
X-355600Y+266700D02*
X-355600Y+139700D01*
X-299720Y+419100D02*
X-391160Y+419100D01*
X-391160Y+498475D01*
X-375920Y+514350D01*
X-360680Y+514350D01*
X-345440Y+498475D01*
X-345440Y+419100D01*
X-345440Y+498475D02*
X-330200Y+514350D01*
X-299720Y+514350D01*
X-391160Y+561975D02*
X-391160Y+641350D01*
X-375920Y+641350D01*
X-299720Y+561975D01*
X-355600Y+1498600D02*
X-355600Y+1625600D01*
X-419100Y+1625600D02*
X-292100Y+1625600D01*
X-292100Y+2133600D01*
X-419100Y+2133600D01*
X-419100Y+1625600D01*
X-355600Y+2133600D02*
X-355600Y+2260600D01*
X-307340Y+1739900D02*
X-398780Y+1739900D01*
X-398780Y+1819275D01*
X-383540Y+1835150D01*
X-368300Y+1835150D01*
X-353060Y+1819275D01*
X-353060Y+1739900D01*
X-353060Y+1819275D02*
X-337820Y+1835150D01*
X-307340Y+1835150D01*
X-368300Y+1962150D02*
X-353060Y+1946275D01*
X-353060Y+1898650D01*
X-368300Y+1882775D01*
X-383540Y+1882775D01*
X-398780Y+1898650D01*
X-398780Y+1946275D01*
X-383540Y+1962150D01*
X-322580Y+1962150D01*
X-307340Y+1946275D01*
X-307340Y+1898650D01*
X+419100Y+139700D02*
X+419100Y+266700D01*
X+355600Y+266700D02*
X+482600Y+266700D01*
X+482600Y+774700D01*
X+355600Y+774700D01*
X+355600Y+266700D01*
X+419100Y+774700D02*
X+419100Y+901700D01*
X+454660Y+317500D02*
X+363220Y+317500D01*
X+363220Y+396875D01*
X+378460Y+412750D01*
X+393700Y+412750D01*
X+408940Y+396875D01*
X+408940Y+317500D01*
X+408940Y+396875D02*
X+424180Y+412750D01*
X+454660Y+412750D01*
X+393700Y+476250D02*
X+363220Y+508000D01*
X+454660Y+508000D01*
X+439420Y+571500D02*
X+378460Y+571500D01*
X+363220Y+587375D01*
X+363220Y+650875D01*
X+378460Y+666750D01*
X+439420Y+666750D01*
X+454660Y+650875D01*
X+454660Y+587375D01*
X+439420Y+571500D01*
X+454660Y+571500D02*
X+363220Y+666750D01*
X+419100Y+1498600D02*
X+419100Y+1625600D01*
X+355600Y+1625600D02*
X+482600Y+1625600D01*
X+482600Y+2133600D01*
X+355600Y+2133600D01*
X+355600Y+1625600D01*
X+419100Y+2133600D02*
X+419100Y+2260600D01*
X+454660Y+1689100D02*
X+363220Y+1689100D01*
X+363220Y+1768475D01*
X+378460Y+1784350D01*
X+393700Y+1784350D01*
X+408940Y+1768475D01*
X+408940Y+1689100D01*
X+408940Y+1768475D02*
X+424180Y+1784350D01*
X+454660Y+1784350D01*
X+393700Y+1847850D02*
X+363220Y+1879600D01*
X+454660Y+1879600D01*
X+393700Y+1974850D02*
X+363220Y+2006600D01*
X+454660Y+2006600D01*
X+3539000Y-1648600D02*
X+3536521Y-1582258D01*
X+3516435Y-1449572D01*
X+3474795Y-1316886D01*
X+3408059Y-1184200D01*
X+3308642Y-1051514D01*
X+3177464Y-932986D01*
X+3044778Y-852063D01*
X+2912092Y-799113D01*
X+2779406Y-769069D01*
X+2650000Y-759600D01*
X+1761000Y-1648600D02*
X+1763479Y-1582258D01*
X+1783565Y-1449572D01*
X+1825205Y-1316886D01*
X+1891941Y-1184200D01*
X+1991358Y-1051514D01*
X+2122536Y-932986D01*
X+2255222Y-852063D01*
X+2387908Y-799113D01*
X+2520594Y-769069D01*
X+2650000Y-759600D01*
X+1761000Y-1648600D02*
X+1763479Y-1714942D01*
X+1783565Y-1847628D01*
X+1825205Y-1980314D01*
X+1891941Y-2113000D01*
X+1991358Y-2245686D01*
X+2122536Y-2364214D01*
X+2255222Y-2445137D01*
X+2387908Y-2498087D01*
X+2520594Y-2528131D01*
X+2650000Y-2537600D01*
X+3539000Y-1648600D02*
X+3536521Y-1714942D01*
X+3516435Y-1847628D01*
X+3474795Y-1980314D01*
X+3408059Y-2113000D01*
X+3308642Y-2245686D01*
X+3177464Y-2364214D01*
X+3044778Y-2445137D01*
X+2912092Y-2498087D01*
X+2779406Y-2528131D01*
X+2650000Y-2537600D01*
X+3056400Y+58280D02*
X+3767600Y-995820D01*
X+2269000Y+96380D02*
X+2299748Y+141902D01*
X+2336389Y+182899D01*
X+2378389Y+218895D01*
X+2425210Y+249415D01*
X+2476318Y+273982D01*
X+2531176Y+292119D01*
X+2589248Y+303350D01*
X+2650000Y+307200D01*
X+3056400Y+58280D02*
X+3023623Y+113461D01*
X+2984685Y+162539D01*
X+2940091Y+205129D01*
X+2890348Y+240842D01*
X+2835961Y+269293D01*
X+2777437Y+290095D01*
X+2715281Y+302859D01*
X+2650000Y+307200D01*
X+3945400Y-1648600D02*
X+3942448Y-1739157D01*
X+3933692Y-1827749D01*
X+3919280Y-1914080D01*
X+3899362Y-1997850D01*
X+3874086Y-2078763D01*
X+3843602Y-2156521D01*
X+3808056Y-2230826D01*
X+3767600Y-2301380D01*
X+3945400Y-1648600D02*
X+3942448Y-1558043D01*
X+3933692Y-1469451D01*
X+3919280Y-1383120D01*
X+3899362Y-1299350D01*
X+3874086Y-1218437D01*
X+3843602Y-1140679D01*
X+3808056Y-1066374D01*
X+3767600Y-995820D01*
X+3043700Y-3383420D02*
X+3011156Y-3430837D01*
X+2972898Y-3473669D01*
X+2929400Y-3511382D01*
X+2881140Y-3543440D01*
X+2828594Y-3569306D01*
X+2772238Y-3588446D01*
X+2712548Y-3600322D01*
X+2650000Y-3604400D01*
X+2256300Y-3368180D02*
X+2287281Y-3419169D01*
X+2324602Y-3465097D01*
X+2367698Y-3505429D01*
X+2416002Y-3539630D01*
X+2468950Y-3567163D01*
X+2525976Y-3587493D01*
X+2586515Y-3600084D01*
X+2650000Y-3604400D01*
X+1532400Y-2303920D02*
X+2256300Y-3368180D01*
X+3767600Y-2301380D02*
X+3043700Y-3383420D01*
X+2269000Y+96380D02*
X+1532400Y-995820D01*
X+1354600Y-1648600D02*
X+1357552Y-1739162D01*
X+1366308Y-1827789D01*
X+1380720Y-1914214D01*
X+1400638Y-1998168D01*
X+1425914Y-2079383D01*
X+1456398Y-2157592D01*
X+1491944Y-2232527D01*
X+1532400Y-2303920D01*
X+1354600Y-1648600D02*
X+1357552Y-1558043D01*
X+1366308Y-1469451D01*
X+1380720Y-1383120D01*
X+1400638Y-1299350D01*
X+1425914Y-1218437D01*
X+1456398Y-1140679D01*
X+1491944Y-1066374D01*
X+1532400Y-995820D01*
X+2523000Y+408800D02*
X+2554750Y+439280D01*
X+2586500Y+439280D01*
X+2618250Y+408800D01*
X+2618250Y+378320D01*
X+2586500Y+347840D01*
X+2554750Y+347840D01*
X+2523000Y+378320D01*
X+2523000Y+408800D01*
X+2586500Y+378320D02*
X+2618250Y+347840D01*
X+2745250Y+378320D02*
X+2650000Y+378320D01*
X+2713500Y+439280D01*
X+2713500Y+347840D01*
X+3530600Y+3664700D02*
X+3528121Y+3731042D01*
X+3508035Y+3863728D01*
X+3466395Y+3996414D01*
X+3399659Y+4129100D01*
X+3300242Y+4261786D01*
X+3169064Y+4380314D01*
X+3036378Y+4461237D01*
X+2903692Y+4514187D01*
X+2771006Y+4544231D01*
X+2641600Y+4553700D01*
X+1752600Y+3664700D02*
X+1755079Y+3731042D01*
X+1775165Y+3863728D01*
X+1816805Y+3996414D01*
X+1883541Y+4129100D01*
X+1982958Y+4261786D01*
X+2114136Y+4380314D01*
X+2246822Y+4461237D01*
X+2379508Y+4514187D01*
X+2512194Y+4544231D01*
X+2641600Y+4553700D01*
X+1752600Y+3664700D02*
X+1755079Y+3598358D01*
X+1775165Y+3465672D01*
X+1816805Y+3332986D01*
X+1883541Y+3200300D01*
X+1982958Y+3067614D01*
X+2114136Y+2949086D01*
X+2246822Y+2868163D01*
X+2379508Y+2815213D01*
X+2512194Y+2785169D01*
X+2641600Y+2775700D01*
X+3530600Y+3664700D02*
X+3528121Y+3598358D01*
X+3508035Y+3465672D01*
X+3466395Y+3332986D01*
X+3399659Y+3200300D01*
X+3300242Y+3067614D01*
X+3169064Y+2949086D01*
X+3036378Y+2868163D01*
X+2903692Y+2815213D01*
X+2771006Y+2785169D01*
X+2641600Y+2775700D01*
X+3048000Y+5371580D02*
X+3759200Y+4317480D01*
X+2260600Y+5409680D02*
X+2291348Y+5455202D01*
X+2327989Y+5496199D01*
X+2369989Y+5532195D01*
X+2416810Y+5562715D01*
X+2467918Y+5587282D01*
X+2522776Y+5605419D01*
X+2580848Y+5616650D01*
X+2641600Y+5620500D01*
X+3048000Y+5371580D02*
X+3015223Y+5426761D01*
X+2976285Y+5475839D01*
X+2931691Y+5518429D01*
X+2881948Y+5554142D01*
X+2827561Y+5582593D01*
X+2769037Y+5603395D01*
X+2706881Y+5616159D01*
X+2641600Y+5620500D01*
X+3937000Y+3664700D02*
X+3934048Y+3574143D01*
X+3925292Y+3485551D01*
X+3910880Y+3399220D01*
X+3890962Y+3315450D01*
X+3865686Y+3234537D01*
X+3835202Y+3156779D01*
X+3799656Y+3082474D01*
X+3759200Y+3011920D01*
X+3937000Y+3664700D02*
X+3934048Y+3755257D01*
X+3925292Y+3843849D01*
X+3910880Y+3930180D01*
X+3890962Y+4013950D01*
X+3865686Y+4094863D01*
X+3835202Y+4172621D01*
X+3799656Y+4246926D01*
X+3759200Y+4317480D01*
X+3035300Y+1929880D02*
X+3002756Y+1882463D01*
X+2964498Y+1839631D01*
X+2921000Y+1801918D01*
X+2872740Y+1769860D01*
X+2820194Y+1743994D01*
X+2763838Y+1724854D01*
X+2704148Y+1712978D01*
X+2641600Y+1708900D01*
X+2247900Y+1945120D02*
X+2278881Y+1894131D01*
X+2316202Y+1848203D01*
X+2359298Y+1807871D01*
X+2407602Y+1773670D01*
X+2460550Y+1746137D01*
X+2517576Y+1725807D01*
X+2578115Y+1713216D01*
X+2641600Y+1708900D01*
X+1524000Y+3009380D02*
X+2247900Y+1945120D01*
X+3759200Y+3011920D02*
X+3035300Y+1929880D01*
X+2260600Y+5409680D02*
X+1524000Y+4317480D01*
X+1346200Y+3664700D02*
X+1349152Y+3574138D01*
X+1357908Y+3485511D01*
X+1372320Y+3399086D01*
X+1392238Y+3315132D01*
X+1417514Y+3233917D01*
X+1447998Y+3155708D01*
X+1483544Y+3080773D01*
X+1524000Y+3009380D01*
X+1346200Y+3664700D02*
X+1349152Y+3755257D01*
X+1357908Y+3843849D01*
X+1372320Y+3930180D01*
X+1392238Y+4013950D01*
X+1417514Y+4094863D01*
X+1447998Y+4172621D01*
X+1483544Y+4246926D01*
X+1524000Y+4317480D01*
X+2514600Y+5722100D02*
X+2546350Y+5752580D01*
X+2578100Y+5752580D01*
X+2609850Y+5722100D01*
X+2609850Y+5691620D01*
X+2578100Y+5661140D01*
X+2546350Y+5661140D01*
X+2514600Y+5691620D01*
X+2514600Y+5722100D01*
X+2578100Y+5691620D02*
X+2609850Y+5661140D01*
X+2736850Y+5737340D02*
X+2720975Y+5752580D01*
X+2673350Y+5752580D01*
X+2657475Y+5737340D01*
X+2657475Y+5676380D01*
X+2673350Y+5661140D01*
X+2720975Y+5661140D01*
X+2736850Y+5676380D01*
X+2736850Y+5691620D01*
X+2720975Y+5706860D01*
X+2657475Y+5706860D01*
X+617920Y-67080D02*
X+884620Y-67080D01*
X+884620Y+451080D01*
X+617920Y+451080D01*
X+617920Y-67080D01*
X+882080Y+369800D02*
X+620460Y+369800D01*
X+750000Y+522200D02*
X+750000Y+451080D01*
X+750000Y-67080D02*
X+750000Y-138200D01*
X+788100Y+65000D02*
X+696660Y+65000D01*
X+696660Y+128500D01*
X+727140Y+160250D01*
X+757620Y+160250D01*
X+788100Y+128500D01*
X+788100Y+65000D01*
X+757620Y+287250D02*
X+757620Y+192000D01*
X+696660Y+255500D01*
X+788100Y+255500D01*
X+604520Y+1303020D02*
X+871220Y+1303020D01*
X+871220Y+1821180D01*
X+604520Y+1821180D01*
X+604520Y+1303020D01*
X+868680Y+1739900D02*
X+607060Y+1739900D01*
X+736600Y+1892300D02*
X+736600Y+1821180D01*
X+736600Y+1303020D02*
X+736600Y+1231900D01*
X+787400Y+1409700D02*
X+695960Y+1409700D01*
X+695960Y+1473200D01*
X+726440Y+1504950D01*
X+756920Y+1504950D01*
X+787400Y+1473200D01*
X+787400Y+1409700D01*
X+695960Y+1631950D02*
X+695960Y+1552575D01*
X+726440Y+1552575D01*
X+726440Y+1616075D01*
X+741680Y+1631950D01*
X+772160Y+1631950D01*
X+787400Y+1616075D01*
X+787400Y+1568450D01*
X+772160Y+1552575D01*
X-5977000Y+3223000D02*
X-5215000Y+3223000D01*
X-5215000Y+3477000D01*
X-5977000Y+3477000D01*
X-5977000Y+3223000D01*
X-5977000Y+3477000D02*
X-5977000Y+3604000D01*
X-5215000Y+3604000D01*
X-5215000Y+3477000D01*
X-5977000Y+3477000D02*
X-5850000Y+3604000D01*
X-5850000Y+3477000D02*
X-5723000Y+3604000D01*
X-5723000Y+3477000D02*
X-5596000Y+3604000D01*
X-5596000Y+3477000D02*
X-5469000Y+3604000D01*
X-5469000Y+3477000D02*
X-5342000Y+3604000D01*
X-5342000Y+3477000D02*
X-5215000Y+3604000D01*
X-5723000Y+3736080D02*
X-5723000Y+3659880D01*
X-5707125Y+3644640D01*
X-5643625Y+3644640D01*
X-5627750Y+3659880D01*
X-5627750Y+3736080D01*
X-5580125Y+3720840D02*
X-5564250Y+3736080D01*
X-5516625Y+3736080D01*
X-5500750Y+3720840D01*
X-5500750Y+3705600D01*
X-5516625Y+3690360D01*
X-5500750Y+3675120D01*
X-5500750Y+3659880D01*
X-5516625Y+3644640D01*
X-5564250Y+3644640D01*
X-5580125Y+3659880D01*
X-5548375Y+3690360D02*
X-5516625Y+3690360D01*
X-5400000Y+2900000D02*
X-5404175Y+2879553D01*
X-5416992Y+2860645D01*
X-5438891Y+2843640D01*
X-5470312Y+2828906D01*
X-5511694Y+2816809D01*
X-5563476Y+2807715D01*
X-5626099Y+2801990D01*
X-5700000Y+2800000D01*
X-5400000Y+2900000D02*
X-5404175Y+2920447D01*
X-5416992Y+2939355D01*
X-5438891Y+2956360D01*
X-5470312Y+2971094D01*
X-5511694Y+2983191D01*
X-5563476Y+2992285D01*
X-5626099Y+2998010D01*
X-5700000Y+3000000D01*
X-5950000Y+2900000D02*
X-5945923Y+2879553D01*
X-5933789Y+2860645D01*
X-5913745Y+2843640D01*
X-5885938Y+2828906D01*
X-5850513Y+2816809D01*
X-5807617Y+2807715D01*
X-5757397Y+2801990D01*
X-5700000Y+2800000D01*
X-5950000Y+2900000D02*
X-5945923Y+2920447D01*
X-5933789Y+2939355D01*
X-5913745Y+2956360D01*
X-5885938Y+2971094D01*
X-5850513Y+2983191D01*
X-5807617Y+2992285D01*
X-5757397Y+2998010D01*
X-5700000Y+3000000D01*
X-5722250Y+2656160D02*
X-5738125Y+2640920D01*
X-5785750Y+2640920D01*
X-5817500Y+2671400D01*
X-5817500Y+2701880D01*
X-5785750Y+2732360D01*
X-5738125Y+2732360D01*
X-5722250Y+2717120D01*
X-5658750Y+2701880D02*
X-5627000Y+2732360D01*
X-5627000Y+2640920D01*
X-5563500Y+2656160D02*
X-5563500Y+2717120D01*
X-5547625Y+2732360D01*
X-5484125Y+2732360D01*
X-5468250Y+2717120D01*
X-5468250Y+2656160D01*
X-5484125Y+2640920D01*
X-5547625Y+2640920D01*
X-5563500Y+2656160D01*
X-5563500Y+2640920D02*
X-5468250Y+2732360D01*
X-5950000Y+3750000D02*
X-5945825Y+3770447D01*
X-5933008Y+3789355D01*
X-5911109Y+3806360D01*
X-5879688Y+3821094D01*
X-5838306Y+3833191D01*
X-5786524Y+3842285D01*
X-5723901Y+3848010D01*
X-5650000Y+3850000D01*
X-5950000Y+3750000D02*
X-5945825Y+3729553D01*
X-5933008Y+3710645D01*
X-5911109Y+3693640D01*
X-5879688Y+3678906D01*
X-5838306Y+3666809D01*
X-5786524Y+3657715D01*
X-5723901Y+3651990D01*
X-5650000Y+3650000D01*
X-5400000Y+3750000D02*
X-5404077Y+3770447D01*
X-5416211Y+3789355D01*
X-5436255Y+3806360D01*
X-5464062Y+3821094D01*
X-5499487Y+3833191D01*
X-5542383Y+3842285D01*
X-5592603Y+3848010D01*
X-5650000Y+3850000D01*
X-5400000Y+3750000D02*
X-5404077Y+3729553D01*
X-5416211Y+3710645D01*
X-5436255Y+3693640D01*
X-5464062Y+3678906D01*
X-5499487Y+3666809D01*
X-5542383Y+3657715D01*
X-5592603Y+3651990D01*
X-5650000Y+3650000D01*
X-5754750Y+3932880D02*
X-5770625Y+3917640D01*
X-5818250Y+3917640D01*
X-5850000Y+3948120D01*
X-5850000Y+3978600D01*
X-5818250Y+4009080D01*
X-5770625Y+4009080D01*
X-5754750Y+3993840D01*
X-5627750Y+3978600D02*
X-5643625Y+3963360D01*
X-5691250Y+3963360D01*
X-5707125Y+3978600D01*
X-5707125Y+3993840D01*
X-5691250Y+4009080D01*
X-5643625Y+4009080D01*
X-5627750Y+3993840D01*
X-5627750Y+3932880D01*
X-5643625Y+3917640D01*
X-5691250Y+3917640D01*
X-7572600Y-2223900D02*
X-4143600Y-2223900D01*
X-4143600Y-1715900D01*
X-7572600Y-1715900D01*
X-7572600Y-2223900D02*
X-7572600Y-2096900D01*
X-7572600Y-1715900D02*
X-7572600Y-1842900D01*
X-7572600Y-2096900D02*
X-7546632Y-2094373D01*
X-7522618Y-2087102D01*
X-7501023Y-2075552D01*
X-7482311Y-2060189D01*
X-7466948Y-2041477D01*
X-7455398Y-2019881D01*
X-7448127Y-1995867D01*
X-7445600Y-1969900D01*
X-7572600Y-1842900D02*
X-7546632Y-1845427D01*
X-7522618Y-1852698D01*
X-7501023Y-1864247D01*
X-7482311Y-1879611D01*
X-7466948Y-1898323D01*
X-7455398Y-1919918D01*
X-7448127Y-1943932D01*
X-7445600Y-1969900D01*
X-7514616Y-2183260D02*
X-7514641Y-2182663D01*
X-7514843Y-2181467D01*
X-7515267Y-2180271D01*
X-7515961Y-2179075D01*
X-7517021Y-2177896D01*
X-7518217Y-2177033D01*
X-7519413Y-2176484D01*
X-7520609Y-2176175D01*
X-7521800Y-2176076D01*
X-7528984Y-2183260D02*
X-7528959Y-2182663D01*
X-7528757Y-2181467D01*
X-7528333Y-2180271D01*
X-7527639Y-2179075D01*
X-7526579Y-2177896D01*
X-7525383Y-2177033D01*
X-7524187Y-2176484D01*
X-7522991Y-2176175D01*
X-7521800Y-2176076D01*
X-7528984Y-2183260D02*
X-7528959Y-2183857D01*
X-7528757Y-2185053D01*
X-7528333Y-2186249D01*
X-7527639Y-2187445D01*
X-7526579Y-2188624D01*
X-7525383Y-2189487D01*
X-7524187Y-2190036D01*
X-7522991Y-2190345D01*
X-7521800Y-2190444D01*
X-7514616Y-2183260D02*
X-7514641Y-2183857D01*
X-7514843Y-2185053D01*
X-7515267Y-2186249D01*
X-7515961Y-2187445D01*
X-7517021Y-2188624D01*
X-7518217Y-2189487D01*
X-7519413Y-2190036D01*
X-7520609Y-2190345D01*
X-7521800Y-2190444D01*
X-7704680Y-2096900D02*
X-7628480Y-2096900D01*
X-7613240Y-2081025D01*
X-7613240Y-2017525D01*
X-7628480Y-2001650D01*
X-7704680Y-2001650D01*
X-7689440Y-1954025D02*
X-7704680Y-1938150D01*
X-7704680Y-1890525D01*
X-7689440Y-1874650D01*
X-7674200Y-1874650D01*
X-7658960Y-1890525D01*
X-7658960Y-1938150D01*
X-7643720Y-1954025D01*
X-7613240Y-1954025D01*
X-7613240Y-1874650D01*
X-5580000Y-1130000D02*
X-5575825Y-1109553D01*
X-5563008Y-1090645D01*
X-5541109Y-1073640D01*
X-5509688Y-1058906D01*
X-5468306Y-1046809D01*
X-5416524Y-1037715D01*
X-5353901Y-1031990D01*
X-5280000Y-1030000D01*
X-5580000Y-1130000D02*
X-5575825Y-1150447D01*
X-5563008Y-1169355D01*
X-5541109Y-1186360D01*
X-5509688Y-1201094D01*
X-5468306Y-1213191D01*
X-5416524Y-1222285D01*
X-5353901Y-1228010D01*
X-5280000Y-1230000D01*
X-5030000Y-1130000D02*
X-5034077Y-1109553D01*
X-5046211Y-1090645D01*
X-5066255Y-1073640D01*
X-5094062Y-1058906D01*
X-5129487Y-1046809D01*
X-5172383Y-1037715D01*
X-5222603Y-1031990D01*
X-5280000Y-1030000D01*
X-5030000Y-1130000D02*
X-5034077Y-1150447D01*
X-5046211Y-1169355D01*
X-5066255Y-1186360D01*
X-5094062Y-1201094D01*
X-5129487Y-1213191D01*
X-5172383Y-1222285D01*
X-5222603Y-1228010D01*
X-5280000Y-1230000D01*
X-5448250Y-947120D02*
X-5464125Y-962360D01*
X-5511750Y-962360D01*
X-5543500Y-931880D01*
X-5543500Y-901400D01*
X-5511750Y-870920D01*
X-5464125Y-870920D01*
X-5448250Y-886160D01*
X-5384750Y-901400D02*
X-5353000Y-870920D01*
X-5353000Y-962360D01*
X-5257750Y-901400D02*
X-5226000Y-870920D01*
X-5226000Y-962360D01*
X-2300800Y-1191600D02*
X-2300800Y-1318600D01*
X-2364300Y-1826600D02*
X-2237300Y-1826600D01*
X-2237300Y-1318600D01*
X-2364300Y-1318600D01*
X-2364300Y-1826600D01*
X-2300800Y-1826600D02*
X-2300800Y-1953600D01*
X-2270320Y-1775800D02*
X-2361760Y-1775800D01*
X-2361760Y-1696425D01*
X-2346520Y-1680550D01*
X-2331280Y-1680550D01*
X-2316040Y-1696425D01*
X-2316040Y-1775800D01*
X-2316040Y-1696425D02*
X-2300800Y-1680550D01*
X-2270320Y-1680550D01*
X-2331280Y-1617050D02*
X-2361760Y-1585300D01*
X-2270320Y-1585300D01*
X-2300800Y-1426550D02*
X-2300800Y-1521800D01*
X-2361760Y-1458300D01*
X-2270320Y-1458300D01*
X-2021400Y-1953600D02*
X-2021400Y-1826600D01*
X-2084900Y-1826600D02*
X-1957900Y-1826600D01*
X-1957900Y-1318600D01*
X-2084900Y-1318600D01*
X-2084900Y-1826600D01*
X-2021400Y-1318600D02*
X-2021400Y-1191600D01*
X-1985840Y-1763100D02*
X-2077280Y-1763100D01*
X-2077280Y-1683725D01*
X-2062040Y-1667850D01*
X-2046800Y-1667850D01*
X-2031560Y-1683725D01*
X-2031560Y-1763100D01*
X-2031560Y-1683725D02*
X-2016320Y-1667850D01*
X-1985840Y-1667850D01*
X-2046800Y-1604350D02*
X-2077280Y-1572600D01*
X-1985840Y-1572600D01*
X-2077280Y-1413850D02*
X-2077280Y-1493225D01*
X-2046800Y-1493225D01*
X-2046800Y-1429725D01*
X-2031560Y-1413850D01*
X-2001080Y-1413850D01*
X-1985840Y-1429725D01*
X-1985840Y-1477350D01*
X-2001080Y-1493225D01*
X-1742000Y-1191600D02*
X-1742000Y-1318600D01*
X-1805500Y-1826600D02*
X-1678500Y-1826600D01*
X-1678500Y-1318600D01*
X-1805500Y-1318600D01*
X-1805500Y-1826600D01*
X-1742000Y-1826600D02*
X-1742000Y-1953600D01*
X-1686120Y-1763100D02*
X-1777560Y-1763100D01*
X-1777560Y-1683725D01*
X-1762320Y-1667850D01*
X-1747080Y-1667850D01*
X-1731840Y-1683725D01*
X-1731840Y-1763100D01*
X-1731840Y-1683725D02*
X-1716600Y-1667850D01*
X-1686120Y-1667850D01*
X-1747080Y-1604350D02*
X-1777560Y-1572600D01*
X-1686120Y-1572600D01*
X-1762320Y-1413850D02*
X-1777560Y-1429725D01*
X-1777560Y-1477350D01*
X-1762320Y-1493225D01*
X-1701360Y-1493225D01*
X-1686120Y-1477350D01*
X-1686120Y-1429725D01*
X-1701360Y-1413850D01*
X-1716600Y-1413850D01*
X-1731840Y-1429725D01*
X-1731840Y-1493225D01*
X-5003200Y-3366695D02*
X-5765200Y-3366695D01*
X-5892200Y-3239695D01*
X-5892200Y-2985695D01*
X-5765200Y-2858695D01*
X-5003200Y-2858695D01*
X-4876200Y-2985695D01*
X-4876200Y-3239695D01*
X-5003200Y-3366695D01*
X-5511200Y-3407335D02*
X-5415950Y-3498775D01*
X-5511200Y-3498775D02*
X-5415950Y-3407335D01*
X-5352450Y-3437815D02*
X-5320700Y-3407335D01*
X-5320700Y-3498775D01*
X-6080000Y-3540000D02*
X-6075825Y-3519553D01*
X-6063008Y-3500645D01*
X-6041109Y-3483640D01*
X-6009688Y-3468906D01*
X-5968306Y-3456809D01*
X-5916524Y-3447715D01*
X-5853901Y-3441990D01*
X-5780000Y-3440000D01*
X-6080000Y-3540000D02*
X-6075825Y-3560447D01*
X-6063008Y-3579355D01*
X-6041109Y-3596360D01*
X-6009688Y-3611094D01*
X-5968306Y-3623191D01*
X-5916524Y-3632285D01*
X-5853901Y-3638010D01*
X-5780000Y-3640000D01*
X-5530000Y-3540000D02*
X-5534077Y-3519553D01*
X-5546211Y-3500645D01*
X-5566255Y-3483640D01*
X-5594062Y-3468906D01*
X-5629487Y-3456809D01*
X-5672383Y-3447715D01*
X-5722603Y-3441990D01*
X-5780000Y-3440000D01*
X-5530000Y-3540000D02*
X-5534077Y-3560447D01*
X-5546211Y-3579355D01*
X-5566255Y-3596360D01*
X-5594062Y-3611094D01*
X-5629487Y-3623191D01*
X-5672383Y-3632285D01*
X-5722603Y-3638010D01*
X-5780000Y-3640000D01*
X-5872050Y-3788920D02*
X-5887925Y-3804160D01*
X-5935550Y-3804160D01*
X-5967300Y-3773680D01*
X-5967300Y-3743200D01*
X-5935550Y-3712720D01*
X-5887925Y-3712720D01*
X-5872050Y-3727960D01*
X-5824425Y-3727960D02*
X-5808550Y-3712720D01*
X-5760925Y-3712720D01*
X-5745050Y-3727960D01*
X-5745050Y-3743200D01*
X-5760925Y-3758440D01*
X-5808550Y-3758440D01*
X-5824425Y-3773680D01*
X-5824425Y-3804160D01*
X-5745050Y-3804160D01*
X-4683005Y-3549205D02*
X-4687180Y-3569652D01*
X-4699997Y-3588560D01*
X-4721897Y-3605565D01*
X-4753318Y-3620299D01*
X-4794700Y-3632396D01*
X-4846482Y-3641490D01*
X-4909104Y-3647215D01*
X-4983005Y-3649205D01*
X-4683005Y-3549205D02*
X-4687180Y-3528758D01*
X-4699997Y-3509850D01*
X-4721897Y-3492845D01*
X-4753318Y-3478111D01*
X-4794700Y-3466014D01*
X-4846482Y-3456920D01*
X-4909104Y-3451195D01*
X-4983005Y-3449205D01*
X-5233005Y-3549205D02*
X-5228928Y-3569652D01*
X-5216794Y-3588560D01*
X-5196750Y-3605565D01*
X-5168942Y-3620299D01*
X-5133517Y-3632396D01*
X-5090622Y-3641490D01*
X-5040402Y-3647215D01*
X-4983005Y-3649205D01*
X-5233005Y-3549205D02*
X-5228928Y-3528758D01*
X-5216794Y-3509850D01*
X-5196750Y-3492845D01*
X-5168942Y-3478111D01*
X-5133517Y-3466014D01*
X-5090622Y-3456920D01*
X-5040402Y-3451195D01*
X-4983005Y-3449205D01*
X-4941755Y-3793045D02*
X-4957630Y-3808285D01*
X-5005255Y-3808285D01*
X-5037005Y-3777805D01*
X-5037005Y-3747325D01*
X-5005255Y-3716845D01*
X-4957630Y-3716845D01*
X-4941755Y-3732085D01*
X-4814755Y-3777805D02*
X-4910005Y-3777805D01*
X-4846505Y-3716845D01*
X-4846505Y-3808285D01*
X-4236300Y+1930400D02*
X-4240475Y+1909953D01*
X-4253292Y+1891045D01*
X-4275191Y+1874040D01*
X-4306612Y+1859306D01*
X-4347994Y+1847209D01*
X-4399776Y+1838115D01*
X-4462399Y+1832390D01*
X-4536300Y+1830400D01*
X-4236300Y+1930400D02*
X-4240475Y+1950847D01*
X-4253292Y+1969755D01*
X-4275191Y+1986760D01*
X-4306612Y+2001494D01*
X-4347994Y+2013591D01*
X-4399776Y+2022685D01*
X-4462399Y+2028410D01*
X-4536300Y+2030400D01*
X-4786300Y+1930400D02*
X-4782223Y+1909953D01*
X-4770089Y+1891045D01*
X-4750045Y+1874040D01*
X-4722238Y+1859306D01*
X-4686813Y+1847209D01*
X-4643917Y+1838115D01*
X-4593697Y+1832390D01*
X-4536300Y+1830400D01*
X-4786300Y+1930400D02*
X-4782223Y+1950847D01*
X-4770089Y+1969755D01*
X-4750045Y+1986760D01*
X-4722238Y+2001494D01*
X-4686813Y+2013591D01*
X-4643917Y+2022685D01*
X-4593697Y+2028410D01*
X-4536300Y+2030400D01*
X-4495050Y+1686560D02*
X-4510925Y+1671320D01*
X-4558550Y+1671320D01*
X-4590300Y+1701800D01*
X-4590300Y+1732280D01*
X-4558550Y+1762760D01*
X-4510925Y+1762760D01*
X-4495050Y+1747520D01*
X-4368050Y+1762760D02*
X-4447425Y+1762760D01*
X-4447425Y+1732280D01*
X-4383925Y+1732280D01*
X-4368050Y+1717040D01*
X-4368050Y+1686560D01*
X-4383925Y+1671320D01*
X-4431550Y+1671320D01*
X-4447425Y+1686560D01*
X-4994500Y+2109500D02*
X-4105500Y+2109500D01*
X-4105500Y+2490500D01*
X-4994500Y+2490500D01*
X-4994500Y+2109500D01*
X-4778600Y+2363500D02*
X-4778902Y+2370822D01*
X-4781357Y+2385467D01*
X-4786489Y+2400112D01*
X-4794864Y+2414757D01*
X-4807678Y+2429261D01*
X-4822323Y+2440065D01*
X-4836968Y+2446993D01*
X-4851613Y+2450969D01*
X-4866258Y+2452391D01*
X-4867500Y+2452400D01*
X-4956400Y+2363500D02*
X-4956098Y+2370822D01*
X-4953643Y+2385467D01*
X-4948511Y+2400112D01*
X-4940136Y+2414757D01*
X-4927322Y+2429261D01*
X-4912677Y+2440065D01*
X-4898032Y+2446993D01*
X-4883387Y+2450969D01*
X-4868742Y+2452391D01*
X-4867500Y+2452400D01*
X-4956400Y+2363500D02*
X-4956098Y+2356178D01*
X-4953643Y+2341533D01*
X-4948511Y+2326888D01*
X-4940136Y+2312243D01*
X-4927322Y+2297739D01*
X-4912677Y+2286935D01*
X-4898032Y+2280007D01*
X-4883387Y+2276031D01*
X-4868742Y+2274609D01*
X-4867500Y+2274600D01*
X-4778600Y+2363500D02*
X-4778902Y+2356178D01*
X-4781357Y+2341533D01*
X-4786489Y+2326888D01*
X-4794864Y+2312243D01*
X-4807678Y+2297739D01*
X-4822323Y+2286935D01*
X-4836968Y+2280007D01*
X-4851613Y+2276031D01*
X-4866258Y+2274609D01*
X-4867500Y+2274600D01*
X-4931000Y+2300000D02*
X-4804000Y+2427000D01*
X-4740500Y+2531140D02*
X-4740500Y+2622580D01*
X-4661125Y+2622580D01*
X-4645250Y+2607340D01*
X-4645250Y+2592100D01*
X-4661125Y+2576860D01*
X-4740500Y+2576860D01*
X-4661125Y+2576860D02*
X-4645250Y+2561620D01*
X-4645250Y+2531140D01*
X-4613500Y+2622580D02*
X-4613500Y+2576860D01*
X-4565875Y+2531140D01*
X-4518250Y+2576860D01*
X-4518250Y+2622580D01*
X-4454750Y+2592100D02*
X-4423000Y+2622580D01*
X-4423000Y+2531140D01*
X-3889000Y+2300000D02*
X-3762000Y+2300000D01*
X-3762000Y+2236500D02*
X-3254000Y+2236500D01*
X-3254000Y+2363500D01*
X-3762000Y+2363500D01*
X-3762000Y+2236500D01*
X-3254000Y+2300000D02*
X-3127000Y+2300000D01*
X-3609600Y+2251740D02*
X-3609600Y+2343180D01*
X-3530225Y+2343180D01*
X-3514350Y+2327940D01*
X-3514350Y+2312700D01*
X-3530225Y+2297460D01*
X-3609600Y+2297460D01*
X-3530225Y+2297460D02*
X-3514350Y+2282220D01*
X-3514350Y+2251740D01*
X-3387350Y+2282220D02*
X-3482600Y+2282220D01*
X-3419100Y+2343180D01*
X-3419100Y+2251740D01*
X-7902800Y-1423800D02*
X-7267800Y-1423800D01*
X-7267800Y-661800D01*
X-7902800Y-661800D01*
X-7902800Y-1423800D01*
X-7775800Y-1423800D02*
X-7775800Y-661800D01*
X-7673920Y-1169800D02*
X-7658680Y-1169800D01*
X-7643440Y-1153925D01*
X-7643440Y-1090425D01*
X-7658680Y-1074550D01*
X-7734880Y-1074550D01*
X-7704400Y-1011050D02*
X-7734880Y-979300D01*
X-7643440Y-979300D01*
X+4354400Y+215900D02*
X+5370400Y+215900D01*
X+4354400Y+1739900D02*
X+5370400Y+1739900D01*
X+5370400Y+215900D02*
X+5370400Y+1739900D01*
X+4354400Y+1739900D02*
X+4354400Y+215900D01*
X+4283280Y+850900D02*
X+4298520Y+850900D01*
X+4313760Y+866775D01*
X+4313760Y+930275D01*
X+4298520Y+946150D01*
X+4222320Y+946150D01*
X+4237560Y+993775D02*
X+4222320Y+1009650D01*
X+4222320Y+1057275D01*
X+4237560Y+1073150D01*
X+4252800Y+1073150D01*
X+4268040Y+1057275D01*
X+4283280Y+1073150D01*
X+4298520Y+1073150D01*
X+4313760Y+1057275D01*
X+4313760Y+1009650D01*
X+4298520Y+993775D01*
X+4268040Y+1025525D02*
X+4268040Y+1057275D01*
X-391000Y-1880000D02*
X-518000Y-1880000D01*
X-1026000Y-1943500D02*
X-518000Y-1943500D01*
X-518000Y-1816500D01*
X-1026000Y-1816500D01*
X-1026000Y-1943500D01*
X-1026000Y-1880000D02*
X-1153000Y-1880000D01*
X-899000Y-1923180D02*
X-899000Y-1831740D01*
X-819625Y-1831740D01*
X-803750Y-1846980D01*
X-803750Y-1862220D01*
X-819625Y-1877460D01*
X-899000Y-1877460D01*
X-819625Y-1877460D02*
X-803750Y-1892700D01*
X-803750Y-1923180D01*
X-676750Y-1831740D02*
X-756125Y-1831740D01*
X-756125Y-1862220D01*
X-692625Y-1862220D01*
X-676750Y-1877460D01*
X-676750Y-1907940D01*
X-692625Y-1923180D01*
X-740250Y-1923180D01*
X-756125Y-1907940D01*
X-391000Y-1580000D02*
X-518000Y-1580000D01*
X-1026000Y-1643500D02*
X-518000Y-1643500D01*
X-518000Y-1516500D01*
X-1026000Y-1516500D01*
X-1026000Y-1643500D01*
X-1026000Y-1580000D02*
X-1153000Y-1580000D01*
X-949800Y-1623180D02*
X-949800Y-1531740D01*
X-870425Y-1531740D01*
X-854550Y-1546980D01*
X-854550Y-1562220D01*
X-870425Y-1577460D01*
X-949800Y-1577460D01*
X-870425Y-1577460D02*
X-854550Y-1592700D01*
X-854550Y-1623180D01*
X-806925Y-1546980D02*
X-791050Y-1531740D01*
X-743425Y-1531740D01*
X-727550Y-1546980D01*
X-727550Y-1562220D01*
X-743425Y-1577460D01*
X-791050Y-1577460D01*
X-806925Y-1592700D01*
X-806925Y-1623180D01*
X-727550Y-1623180D01*
X-695800Y-1607940D02*
X-695800Y-1546980D01*
X-679925Y-1531740D01*
X-616425Y-1531740D01*
X-600550Y-1546980D01*
X-600550Y-1607940D01*
X-616425Y-1623180D01*
X-679925Y-1623180D01*
X-695800Y-1607940D01*
X-695800Y-1623180D02*
X-600550Y-1531740D01*
X-2812080Y-2647080D02*
X-2545380Y-2647080D01*
X-2545380Y-2128920D01*
X-2812080Y-2128920D01*
X-2812080Y-2647080D01*
X-2547920Y-2210200D02*
X-2809540Y-2210200D01*
X-2680000Y-2057800D02*
X-2680000Y-2128920D01*
X-2680000Y-2647080D02*
X-2680000Y-2718200D01*
X-2680000Y-2603900D02*
X-2771440Y-2603900D01*
X-2771440Y-2540400D01*
X-2740960Y-2508650D01*
X-2710480Y-2508650D01*
X-2680000Y-2540400D01*
X-2680000Y-2603900D01*
X-2740960Y-2445150D02*
X-2771440Y-2413400D01*
X-2680000Y-2413400D01*
X-2695240Y-2349900D02*
X-2756200Y-2349900D01*
X-2771440Y-2334025D01*
X-2771440Y-2270525D01*
X-2756200Y-2254650D01*
X-2695240Y-2254650D01*
X-2680000Y-2270525D01*
X-2680000Y-2334025D01*
X-2695240Y-2349900D01*
X-2680000Y-2349900D02*
X-2771440Y-2254650D01*
X-2834620Y-1267080D02*
X-2567920Y-1267080D01*
X-2567920Y-748920D01*
X-2834620Y-748920D01*
X-2834620Y-1267080D01*
X-2832080Y-1185800D02*
X-2570460Y-1185800D01*
X-2700000Y-1338200D02*
X-2700000Y-1267080D01*
X-2700000Y-748920D02*
X-2700000Y-677800D01*
X-2659360Y-1147700D02*
X-2750800Y-1147700D01*
X-2750800Y-1084200D01*
X-2720320Y-1052450D01*
X-2689840Y-1052450D01*
X-2659360Y-1084200D01*
X-2659360Y-1147700D01*
X-2720320Y-988950D02*
X-2750800Y-957200D01*
X-2659360Y-957200D01*
X-2720320Y-861950D02*
X-2750800Y-830200D01*
X-2659360Y-830200D01*
X-6327000Y+2800000D02*
X-6454000Y+2800000D01*
X-6962000Y+2736500D02*
X-6454000Y+2736500D01*
X-6454000Y+2863500D01*
X-6962000Y+2863500D01*
X-6962000Y+2736500D01*
X-6962000Y+2800000D02*
X-7089000Y+2800000D01*
X-6898500Y+2756820D02*
X-6898500Y+2848260D01*
X-6819125Y+2848260D01*
X-6803250Y+2833020D01*
X-6803250Y+2817780D01*
X-6819125Y+2802540D01*
X-6898500Y+2802540D01*
X-6819125Y+2802540D02*
X-6803250Y+2787300D01*
X-6803250Y+2756820D01*
X-6755625Y+2833020D02*
X-6739750Y+2848260D01*
X-6692125Y+2848260D01*
X-6676250Y+2833020D01*
X-6676250Y+2817780D01*
X-6692125Y+2802540D01*
X-6739750Y+2802540D01*
X-6755625Y+2787300D01*
X-6755625Y+2756820D01*
X-6676250Y+2756820D01*
X-6612750Y+2817780D02*
X-6581000Y+2848260D01*
X-6581000Y+2756820D01*
X-6327000Y+2200000D02*
X-6454000Y+2200000D01*
X-6962000Y+2136500D02*
X-6454000Y+2136500D01*
X-6454000Y+2263500D01*
X-6962000Y+2263500D01*
X-6962000Y+2136500D01*
X-6962000Y+2200000D02*
X-7089000Y+2200000D01*
X-6898500Y+2156820D02*
X-6898500Y+2248260D01*
X-6819125Y+2248260D01*
X-6803250Y+2233020D01*
X-6803250Y+2217780D01*
X-6819125Y+2202540D01*
X-6898500Y+2202540D01*
X-6819125Y+2202540D02*
X-6803250Y+2187300D01*
X-6803250Y+2156820D01*
X-6755625Y+2233020D02*
X-6739750Y+2248260D01*
X-6692125Y+2248260D01*
X-6676250Y+2233020D01*
X-6676250Y+2217780D01*
X-6692125Y+2202540D01*
X-6739750Y+2202540D01*
X-6755625Y+2187300D01*
X-6755625Y+2156820D01*
X-6676250Y+2156820D01*
X-6628625Y+2233020D02*
X-6612750Y+2248260D01*
X-6565125Y+2248260D01*
X-6549250Y+2233020D01*
X-6549250Y+2217780D01*
X-6565125Y+2202540D01*
X-6612750Y+2202540D01*
X-6628625Y+2187300D01*
X-6628625Y+2156820D01*
X-6549250Y+2156820D01*
X-6327000Y+1600000D02*
X-6454000Y+1600000D01*
X-6962000Y+1536500D02*
X-6454000Y+1536500D01*
X-6454000Y+1663500D01*
X-6962000Y+1663500D01*
X-6962000Y+1536500D01*
X-6962000Y+1600000D02*
X-7089000Y+1600000D01*
X-6923900Y+1556820D02*
X-6923900Y+1648260D01*
X-6844525Y+1648260D01*
X-6828650Y+1633020D01*
X-6828650Y+1617780D01*
X-6844525Y+1602540D01*
X-6923900Y+1602540D01*
X-6844525Y+1602540D02*
X-6828650Y+1587300D01*
X-6828650Y+1556820D01*
X-6781025Y+1633020D02*
X-6765150Y+1648260D01*
X-6717525Y+1648260D01*
X-6701650Y+1633020D01*
X-6701650Y+1617780D01*
X-6717525Y+1602540D01*
X-6765150Y+1602540D01*
X-6781025Y+1587300D01*
X-6781025Y+1556820D01*
X-6701650Y+1556820D01*
X-6654025Y+1633020D02*
X-6638150Y+1648260D01*
X-6590525Y+1648260D01*
X-6574650Y+1633020D01*
X-6574650Y+1617780D01*
X-6590525Y+1602540D01*
X-6574650Y+1587300D01*
X-6574650Y+1572060D01*
X-6590525Y+1556820D01*
X-6638150Y+1556820D01*
X-6654025Y+1572060D01*
X-6622275Y+1602540D02*
X-6590525Y+1602540D01*
X-6327000Y+1000000D02*
X-6454000Y+1000000D01*
X-6962000Y+936500D02*
X-6454000Y+936500D01*
X-6454000Y+1063500D01*
X-6962000Y+1063500D01*
X-6962000Y+936500D01*
X-6962000Y+1000000D02*
X-7089000Y+1000000D01*
X-6898500Y+944120D02*
X-6898500Y+1035560D01*
X-6819125Y+1035560D01*
X-6803250Y+1020320D01*
X-6803250Y+1005080D01*
X-6819125Y+989840D01*
X-6898500Y+989840D01*
X-6819125Y+989840D02*
X-6803250Y+974600D01*
X-6803250Y+944120D01*
X-6755625Y+1020320D02*
X-6739750Y+1035560D01*
X-6692125Y+1035560D01*
X-6676250Y+1020320D01*
X-6676250Y+1005080D01*
X-6692125Y+989840D01*
X-6739750Y+989840D01*
X-6755625Y+974600D01*
X-6755625Y+944120D01*
X-6676250Y+944120D01*
X-6549250Y+974600D02*
X-6644500Y+974600D01*
X-6581000Y+1035560D01*
X-6581000Y+944120D01*
X-7396000Y+2673000D02*
X-7396827Y+2693483D01*
X-7403545Y+2734450D01*
X-7417563Y+2775417D01*
X-7440341Y+2816384D01*
X-7475141Y+2857229D01*
X-7516108Y+2888845D01*
X-7557075Y+2909392D01*
X-7598042Y+2921629D01*
X-7639009Y+2926762D01*
X-7650000Y+2927000D01*
X-7904000Y+2673000D02*
X-7903173Y+2693483D01*
X-7896455Y+2734450D01*
X-7882437Y+2775417D01*
X-7859659Y+2816384D01*
X-7824859Y+2857229D01*
X-7783892Y+2888845D01*
X-7742925Y+2909392D01*
X-7701958Y+2921629D01*
X-7660991Y+2926762D01*
X-7650000Y+2927000D01*
X-7904000Y+2673000D02*
X-7903173Y+2652517D01*
X-7896455Y+2611550D01*
X-7882437Y+2570583D01*
X-7859659Y+2529616D01*
X-7824859Y+2488771D01*
X-7783892Y+2457155D01*
X-7742925Y+2436608D01*
X-7701958Y+2424371D01*
X-7660991Y+2419238D01*
X-7650000Y+2419000D01*
X-7396000Y+2673000D02*
X-7396827Y+2652517D01*
X-7403545Y+2611550D01*
X-7417563Y+2570583D01*
X-7440341Y+2529616D01*
X-7475141Y+2488771D01*
X-7516108Y+2457155D01*
X-7557075Y+2436608D01*
X-7598042Y+2424371D01*
X-7639009Y+2419238D01*
X-7650000Y+2419000D01*
X-7396000Y+2990500D02*
X-7396000Y+2863500D01*
X-7332500Y+2927000D02*
X-7459500Y+2927000D01*
X-7378220Y+2209450D02*
X-7469660Y+2209450D01*
X-7469660Y+2272950D01*
X-7439180Y+2304700D01*
X-7408700Y+2304700D01*
X-7378220Y+2272950D01*
X-7378220Y+2209450D01*
X-7439180Y+2368200D02*
X-7469660Y+2399950D01*
X-7378220Y+2399950D01*
X-7454420Y+2479325D02*
X-7469660Y+2495200D01*
X-7469660Y+2542825D01*
X-7454420Y+2558700D01*
X-7439180Y+2558700D01*
X-7423940Y+2542825D01*
X-7423940Y+2495200D01*
X-7408700Y+2479325D01*
X-7378220Y+2479325D01*
X-7378220Y+2558700D01*
X-7396000Y+2073000D02*
X-7396827Y+2093483D01*
X-7403545Y+2134450D01*
X-7417563Y+2175417D01*
X-7440341Y+2216384D01*
X-7475141Y+2257229D01*
X-7516108Y+2288845D01*
X-7557075Y+2309392D01*
X-7598042Y+2321629D01*
X-7639009Y+2326762D01*
X-7650000Y+2327000D01*
X-7904000Y+2073000D02*
X-7903173Y+2093483D01*
X-7896455Y+2134450D01*
X-7882437Y+2175417D01*
X-7859659Y+2216384D01*
X-7824859Y+2257229D01*
X-7783892Y+2288845D01*
X-7742925Y+2309392D01*
X-7701958Y+2321629D01*
X-7660991Y+2326762D01*
X-7650000Y+2327000D01*
X-7904000Y+2073000D02*
X-7903173Y+2052517D01*
X-7896455Y+2011550D01*
X-7882437Y+1970583D01*
X-7859659Y+1929616D01*
X-7824859Y+1888771D01*
X-7783892Y+1857155D01*
X-7742925Y+1836608D01*
X-7701958Y+1824371D01*
X-7660991Y+1819238D01*
X-7650000Y+1819000D01*
X-7396000Y+2073000D02*
X-7396827Y+2052517D01*
X-7403545Y+2011550D01*
X-7417563Y+1970583D01*
X-7440341Y+1929616D01*
X-7475141Y+1888771D01*
X-7516108Y+1857155D01*
X-7557075Y+1836608D01*
X-7598042Y+1824371D01*
X-7639009Y+1819238D01*
X-7650000Y+1819000D01*
X-7396000Y+2390500D02*
X-7396000Y+2263500D01*
X-7332500Y+2327000D02*
X-7459500Y+2327000D01*
X-7314720Y+1622150D02*
X-7406160Y+1622150D01*
X-7406160Y+1685650D01*
X-7375680Y+1717400D01*
X-7345200Y+1717400D01*
X-7314720Y+1685650D01*
X-7314720Y+1622150D01*
X-7375680Y+1780900D02*
X-7406160Y+1812650D01*
X-7314720Y+1812650D01*
X-7390920Y+1892025D02*
X-7406160Y+1907900D01*
X-7406160Y+1955525D01*
X-7390920Y+1971400D01*
X-7375680Y+1971400D01*
X-7360440Y+1955525D01*
X-7345200Y+1971400D01*
X-7329960Y+1971400D01*
X-7314720Y+1955525D01*
X-7314720Y+1907900D01*
X-7329960Y+1892025D01*
X-7360440Y+1923775D02*
X-7360440Y+1955525D01*
X-7396000Y+1473000D02*
X-7396827Y+1493483D01*
X-7403545Y+1534450D01*
X-7417563Y+1575417D01*
X-7440341Y+1616384D01*
X-7475141Y+1657229D01*
X-7516108Y+1688845D01*
X-7557075Y+1709392D01*
X-7598042Y+1721629D01*
X-7639009Y+1726762D01*
X-7650000Y+1727000D01*
X-7904000Y+1473000D02*
X-7903173Y+1493483D01*
X-7896455Y+1534450D01*
X-7882437Y+1575417D01*
X-7859659Y+1616384D01*
X-7824859Y+1657229D01*
X-7783892Y+1688845D01*
X-7742925Y+1709392D01*
X-7701958Y+1721629D01*
X-7660991Y+1726762D01*
X-7650000Y+1727000D01*
X-7904000Y+1473000D02*
X-7903173Y+1452517D01*
X-7896455Y+1411550D01*
X-7882437Y+1370583D01*
X-7859659Y+1329616D01*
X-7824859Y+1288771D01*
X-7783892Y+1257155D01*
X-7742925Y+1236608D01*
X-7701958Y+1224371D01*
X-7660991Y+1219238D01*
X-7650000Y+1219000D01*
X-7396000Y+1473000D02*
X-7396827Y+1452517D01*
X-7403545Y+1411550D01*
X-7417563Y+1370583D01*
X-7440341Y+1329616D01*
X-7475141Y+1288771D01*
X-7516108Y+1257155D01*
X-7557075Y+1236608D01*
X-7598042Y+1224371D01*
X-7639009Y+1219238D01*
X-7650000Y+1219000D01*
X-7396000Y+1790500D02*
X-7396000Y+1663500D01*
X-7332500Y+1727000D02*
X-7459500Y+1727000D01*
X-7352820Y+1009450D02*
X-7444260Y+1009450D01*
X-7444260Y+1072950D01*
X-7413780Y+1104700D01*
X-7383300Y+1104700D01*
X-7352820Y+1072950D01*
X-7352820Y+1009450D01*
X-7413780Y+1168200D02*
X-7444260Y+1199950D01*
X-7352820Y+1199950D01*
X-7383300Y+1358700D02*
X-7383300Y+1263450D01*
X-7444260Y+1326950D01*
X-7352820Y+1326950D01*
X-7396000Y+873000D02*
X-7396827Y+893483D01*
X-7403545Y+934450D01*
X-7417563Y+975417D01*
X-7440341Y+1016384D01*
X-7475141Y+1057229D01*
X-7516108Y+1088845D01*
X-7557075Y+1109392D01*
X-7598042Y+1121629D01*
X-7639009Y+1126762D01*
X-7650000Y+1127000D01*
X-7904000Y+873000D02*
X-7903173Y+893483D01*
X-7896455Y+934450D01*
X-7882437Y+975417D01*
X-7859659Y+1016384D01*
X-7824859Y+1057229D01*
X-7783892Y+1088845D01*
X-7742925Y+1109392D01*
X-7701958Y+1121629D01*
X-7660991Y+1126762D01*
X-7650000Y+1127000D01*
X-7904000Y+873000D02*
X-7903173Y+852517D01*
X-7896455Y+811550D01*
X-7882437Y+770583D01*
X-7859659Y+729616D01*
X-7824859Y+688771D01*
X-7783892Y+657155D01*
X-7742925Y+636608D01*
X-7701958Y+624371D01*
X-7660991Y+619238D01*
X-7650000Y+619000D01*
X-7396000Y+873000D02*
X-7396827Y+852517D01*
X-7403545Y+811550D01*
X-7417563Y+770583D01*
X-7440341Y+729616D01*
X-7475141Y+688771D01*
X-7516108Y+657155D01*
X-7557075Y+636608D01*
X-7598042Y+624371D01*
X-7639009Y+619238D01*
X-7650000Y+619000D01*
X-7396000Y+1190500D02*
X-7396000Y+1063500D01*
X-7332500Y+1127000D02*
X-7459500Y+1127000D01*
X-7352820Y+396750D02*
X-7444260Y+396750D01*
X-7444260Y+460250D01*
X-7413780Y+492000D01*
X-7383300Y+492000D01*
X-7352820Y+460250D01*
X-7352820Y+396750D01*
X-7413780Y+555500D02*
X-7444260Y+587250D01*
X-7352820Y+587250D01*
X-7444260Y+746000D02*
X-7444260Y+666625D01*
X-7413780Y+666625D01*
X-7413780Y+730125D01*
X-7398540Y+746000D01*
X-7368060Y+746000D01*
X-7352820Y+730125D01*
X-7352820Y+682500D01*
X-7368060Y+666625D01*
X-7396000Y+277000D02*
X-7396827Y+297483D01*
X-7403545Y+338450D01*
X-7417563Y+379417D01*
X-7440341Y+420384D01*
X-7475141Y+461229D01*
X-7516108Y+492845D01*
X-7557075Y+513392D01*
X-7598042Y+525629D01*
X-7639009Y+530762D01*
X-7650000Y+531000D01*
X-7904000Y+277000D02*
X-7903173Y+297483D01*
X-7896455Y+338450D01*
X-7882437Y+379417D01*
X-7859659Y+420384D01*
X-7824859Y+461229D01*
X-7783892Y+492845D01*
X-7742925Y+513392D01*
X-7701958Y+525629D01*
X-7660991Y+530762D01*
X-7650000Y+531000D01*
X-7904000Y+277000D02*
X-7903173Y+256517D01*
X-7896455Y+215550D01*
X-7882437Y+174583D01*
X-7859659Y+133616D01*
X-7824859Y+92771D01*
X-7783892Y+61155D01*
X-7742925Y+40608D01*
X-7701958Y+28371D01*
X-7660991Y+23238D01*
X-7650000Y+23000D01*
X-7396000Y+277000D02*
X-7396827Y+256517D01*
X-7403545Y+215550D01*
X-7417563Y+174583D01*
X-7440341Y+133616D01*
X-7475141Y+92771D01*
X-7516108Y+61155D01*
X-7557075Y+40608D01*
X-7598042Y+28371D01*
X-7639009Y+23238D01*
X-7650000Y+23000D01*
X-7396000Y+594500D02*
X-7396000Y+467500D01*
X-7332500Y+531000D02*
X-7459500Y+531000D01*
X-7390920Y-199250D02*
X-7482360Y-199250D01*
X-7482360Y-135750D01*
X-7451880Y-104000D01*
X-7421400Y-104000D01*
X-7390920Y-135750D01*
X-7390920Y-199250D01*
X-7451880Y-40500D02*
X-7482360Y-8750D01*
X-7390920Y-8750D01*
X-7467120Y+150000D02*
X-7482360Y+134125D01*
X-7482360Y+86500D01*
X-7467120Y+70625D01*
X-7406160Y+70625D01*
X-7390920Y+86500D01*
X-7390920Y+134125D01*
X-7406160Y+150000D01*
X-7421400Y+150000D01*
X-7436640Y+134125D01*
X-7436640Y+70625D01*
X-7396000Y-323000D02*
X-7396827Y-302517D01*
X-7403545Y-261550D01*
X-7417563Y-220583D01*
X-7440341Y-179616D01*
X-7475141Y-138771D01*
X-7516108Y-107155D01*
X-7557075Y-86608D01*
X-7598042Y-74371D01*
X-7639009Y-69238D01*
X-7650000Y-69000D01*
X-7904000Y-323000D02*
X-7903173Y-302517D01*
X-7896455Y-261550D01*
X-7882437Y-220583D01*
X-7859659Y-179616D01*
X-7824859Y-138771D01*
X-7783892Y-107155D01*
X-7742925Y-86608D01*
X-7701958Y-74371D01*
X-7660991Y-69238D01*
X-7650000Y-69000D01*
X-7904000Y-323000D02*
X-7903173Y-343483D01*
X-7896455Y-384450D01*
X-7882437Y-425417D01*
X-7859659Y-466384D01*
X-7824859Y-507229D01*
X-7783892Y-538845D01*
X-7742925Y-559392D01*
X-7701958Y-571629D01*
X-7660991Y-576762D01*
X-7650000Y-577000D01*
X-7396000Y-323000D02*
X-7396827Y-343483D01*
X-7403545Y-384450D01*
X-7417563Y-425417D01*
X-7440341Y-466384D01*
X-7475141Y-507229D01*
X-7516108Y-538845D01*
X-7557075Y-559392D01*
X-7598042Y-571629D01*
X-7639009Y-576762D01*
X-7650000Y-577000D01*
X-7396000Y-5500D02*
X-7396000Y-132500D01*
X-7332500Y-69000D02*
X-7459500Y-69000D01*
X-7378220Y-799250D02*
X-7469660Y-799250D01*
X-7469660Y-735750D01*
X-7439180Y-704000D01*
X-7408700Y-704000D01*
X-7378220Y-735750D01*
X-7378220Y-799250D01*
X-7439180Y-640500D02*
X-7469660Y-608750D01*
X-7378220Y-608750D01*
X-7469660Y-529375D02*
X-7469660Y-450000D01*
X-7454420Y-450000D01*
X-7378220Y-529375D01*
X-6327000Y+400000D02*
X-6454000Y+400000D01*
X-6962000Y+336500D02*
X-6454000Y+336500D01*
X-6454000Y+463500D01*
X-6962000Y+463500D01*
X-6962000Y+336500D01*
X-6962000Y+400000D02*
X-7089000Y+400000D01*
X-6898500Y+356820D02*
X-6898500Y+448260D01*
X-6819125Y+448260D01*
X-6803250Y+433020D01*
X-6803250Y+417780D01*
X-6819125Y+402540D01*
X-6898500Y+402540D01*
X-6819125Y+402540D02*
X-6803250Y+387300D01*
X-6803250Y+356820D01*
X-6755625Y+433020D02*
X-6739750Y+448260D01*
X-6692125Y+448260D01*
X-6676250Y+433020D01*
X-6676250Y+417780D01*
X-6692125Y+402540D01*
X-6739750Y+402540D01*
X-6755625Y+387300D01*
X-6755625Y+356820D01*
X-6676250Y+356820D01*
X-6549250Y+448260D02*
X-6628625Y+448260D01*
X-6628625Y+417780D01*
X-6565125Y+417780D01*
X-6549250Y+402540D01*
X-6549250Y+372060D01*
X-6565125Y+356820D01*
X-6612750Y+356820D01*
X-6628625Y+372060D01*
X-6327000Y-200000D02*
X-6454000Y-200000D01*
X-6962000Y-263500D02*
X-6454000Y-263500D01*
X-6454000Y-136500D01*
X-6962000Y-136500D01*
X-6962000Y-263500D01*
X-6962000Y-200000D02*
X-7089000Y-200000D01*
X-6885800Y-243180D02*
X-6885800Y-151740D01*
X-6806425Y-151740D01*
X-6790550Y-166980D01*
X-6790550Y-182220D01*
X-6806425Y-197460D01*
X-6885800Y-197460D01*
X-6806425Y-197460D02*
X-6790550Y-212700D01*
X-6790550Y-243180D01*
X-6742925Y-166980D02*
X-6727050Y-151740D01*
X-6679425Y-151740D01*
X-6663550Y-166980D01*
X-6663550Y-182220D01*
X-6679425Y-197460D01*
X-6727050Y-197460D01*
X-6742925Y-212700D01*
X-6742925Y-243180D01*
X-6663550Y-243180D01*
X-6536550Y-166980D02*
X-6552425Y-151740D01*
X-6600050Y-151740D01*
X-6615925Y-166980D01*
X-6615925Y-227940D01*
X-6600050Y-243180D01*
X-6552425Y-243180D01*
X-6536550Y-227940D01*
X-6536550Y-212700D01*
X-6552425Y-197460D01*
X-6615925Y-197460D01*
X-4107000Y-4211000D02*
X-3853000Y-4211000D01*
X-3853000Y-3703000D01*
X-4107000Y-3703000D01*
X-4107000Y-4211000D01*
X-3720920Y-4211000D02*
X-3812360Y-4211000D01*
X-3812360Y-4131625D01*
X-3797120Y-4115750D01*
X-3781880Y-4115750D01*
X-3766640Y-4131625D01*
X-3751400Y-4115750D01*
X-3736160Y-4115750D01*
X-3720920Y-4131625D01*
X-3720920Y-4211000D01*
X-3766640Y-4211000D02*
X-3766640Y-4131625D01*
X-3812360Y-4084000D02*
X-3736160Y-4084000D01*
X-3720920Y-4068125D01*
X-3720920Y-4004625D01*
X-3736160Y-3988750D01*
X-3812360Y-3988750D01*
X-3812360Y-3957000D02*
X-3812360Y-3861750D01*
X-3720920Y-3957000D01*
X-3720920Y-3861750D01*
X-3781880Y-3798250D02*
X-3812360Y-3766500D01*
X-3720920Y-3766500D01*
D25*
X+550000Y-3800000D02*
X+546360Y-3695560D01*
X+516912Y-3486679D01*
X+456167Y-3277798D01*
X+359778Y-3068917D01*
X+218960Y-2860036D01*
X+22475Y-2657944D01*
X-186406Y-2508906D01*
X-395287Y-2406338D01*
X-604168Y-2340411D01*
X-813049Y-2306265D01*
X-950000Y-2300000D01*
X-2450000Y-3800000D02*
X-2446360Y-3695560D01*
X-2416912Y-3486679D01*
X-2356167Y-3277798D01*
X-2259778Y-3068917D01*
X-2118960Y-2860036D01*
X-1922475Y-2657944D01*
X-1713594Y-2508906D01*
X-1504713Y-2406338D01*
X-1295832Y-2340411D01*
X-1086951Y-2306265D01*
X-950000Y-2300000D01*
X-2450000Y-3800000D02*
X-2446360Y-3904440D01*
X-2416912Y-4113321D01*
X-2356167Y-4322202D01*
X-2259778Y-4531083D01*
X-2118960Y-4739964D01*
X-1922475Y-4942056D01*
X-1713594Y-5091094D01*
X-1504713Y-5193662D01*
X-1295832Y-5259589D01*
X-1086951Y-5293735D01*
X-950000Y-5300000D01*
X+550000Y-3800000D02*
X+546360Y-3904440D01*
X+516912Y-4113321D01*
X+456167Y-4322202D01*
X+359778Y-4531083D01*
X+218960Y-4739964D01*
X+22475Y-4942056D01*
X-186406Y-5091094D01*
X-395287Y-5193662D01*
X-604168Y-5259589D01*
X-813049Y-5293735D01*
X-950000Y-5300000D01*
X-780000Y-3980000D02*
X-780502Y-3967742D01*
X-784578Y-3943225D01*
X-793094Y-3918708D01*
X-806968Y-3894191D01*
X-828194Y-3869839D01*
X-852711Y-3851445D01*
X-877228Y-3839589D01*
X-901745Y-3832685D01*
X-926262Y-3830047D01*
X-930000Y-3830000D01*
X-1080000Y-3980000D02*
X-1079498Y-3967742D01*
X-1075422Y-3943225D01*
X-1066906Y-3918708D01*
X-1053032Y-3894191D01*
X-1031806Y-3869839D01*
X-1007289Y-3851445D01*
X-982772Y-3839589D01*
X-958255Y-3832685D01*
X-933738Y-3830047D01*
X-930000Y-3830000D01*
X-1080000Y-3980000D02*
X-1079498Y-3992258D01*
X-1075422Y-4016775D01*
X-1066906Y-4041292D01*
X-1053032Y-4065809D01*
X-1031806Y-4090161D01*
X-1007289Y-4108555D01*
X-982772Y-4120411D01*
X-958255Y-4127315D01*
X-933738Y-4129953D01*
X-930000Y-4130000D01*
X-780000Y-3980000D02*
X-780502Y-3992258D01*
X-784578Y-4016775D01*
X-793094Y-4041292D01*
X-806968Y-4065809D01*
X-828194Y-4090161D01*
X-852711Y-4108555D01*
X-877228Y-4120411D01*
X-901745Y-4127315D01*
X-926262Y-4129953D01*
X-930000Y-4130000D01*
X-1530000Y-3533200D02*
X-1530000Y-3380800D01*
X-1403000Y-3380800D01*
X-1377600Y-3406200D01*
X-1377600Y-3431600D01*
X-1403000Y-3457000D01*
X-1377600Y-3482400D01*
X-1377600Y-3507800D01*
X-1403000Y-3533200D01*
X-1530000Y-3533200D01*
X-1530000Y-3457000D02*
X-1403000Y-3457000D01*
X-1326800Y-3380800D02*
X-1326800Y-3507800D01*
X-1301400Y-3533200D01*
X-1199800Y-3533200D01*
X-1174400Y-3507800D01*
X-1174400Y-3380800D01*
X-1123600Y-3380800D02*
X-971200Y-3380800D01*
X-1123600Y-3533200D01*
X-971200Y-3533200D01*
X-920400Y-3380800D02*
X-768000Y-3380800D01*
X-920400Y-3533200D01*
X-768000Y-3533200D01*
X-564800Y-3533200D02*
X-717200Y-3533200D01*
X-717200Y-3380800D01*
X-564800Y-3380800D01*
X-717200Y-3457000D02*
X-615600Y-3457000D01*
X-514000Y-3533200D02*
X-514000Y-3380800D01*
X-387000Y-3380800D01*
X-361600Y-3406200D01*
X-361600Y-3431600D01*
X-387000Y-3457000D01*
X-514000Y-3457000D01*
X-387000Y-3457000D02*
X-361600Y-3482400D01*
X-361600Y-3533200D01*
D24*
X+4480840Y-4446000D02*
X+5242840Y-4446000D01*
X+5242840Y-5462000D02*
X+4480840Y-5462000D01*
X+4480840Y-4446000D02*
X+4480840Y-5462000D01*
X+5242840Y-4446000D02*
X+5242840Y-5462000D01*
X+5344440Y-5081000D02*
X+5359680Y-5081000D01*
X+5374920Y-5065125D01*
X+5374920Y-5001625D01*
X+5359680Y-4985750D01*
X+5283480Y-4985750D01*
X+5283480Y-4858750D02*
X+5283480Y-4938125D01*
X+5313960Y-4938125D01*
X+5313960Y-4874625D01*
X+5329200Y-4858750D01*
X+5359680Y-4858750D01*
X+5374920Y-4874625D01*
X+5374920Y-4922250D01*
X+5359680Y-4938125D01*
X-6141000Y-1880000D02*
X-6268000Y-1880000D01*
X-6776000Y-1943500D02*
X-6268000Y-1943500D01*
X-6268000Y-1816500D01*
X-6776000Y-1816500D01*
X-6776000Y-1943500D01*
X-6776000Y-1880000D02*
X-6903000Y-1880000D01*
X-6712500Y-1925580D02*
X-6712500Y-1834140D01*
X-6633125Y-1834140D01*
X-6617250Y-1849380D01*
X-6617250Y-1864620D01*
X-6633125Y-1879860D01*
X-6712500Y-1879860D01*
X-6633125Y-1879860D02*
X-6617250Y-1895100D01*
X-6617250Y-1925580D01*
X-6569625Y-1849380D02*
X-6553750Y-1834140D01*
X-6506125Y-1834140D01*
X-6490250Y-1849380D01*
X-6490250Y-1864620D01*
X-6506125Y-1879860D01*
X-6553750Y-1879860D01*
X-6569625Y-1895100D01*
X-6569625Y-1925580D01*
X-6490250Y-1925580D01*
X-6442625Y-1834140D02*
X-6363250Y-1834140D01*
X-6363250Y-1849380D01*
X-6442625Y-1925580D01*
X-6650000Y-3739000D02*
X-6650000Y-3612000D01*
X-6713500Y-3612000D02*
X-6586500Y-3612000D01*
X-6586500Y-3104000D01*
X-6713500Y-3104000D01*
X-6713500Y-3612000D01*
X-6650000Y-3104000D02*
X-6650000Y-2977000D01*
X-6604140Y-3548500D02*
X-6695580Y-3548500D01*
X-6695580Y-3469125D01*
X-6680340Y-3453250D01*
X-6665100Y-3453250D01*
X-6649860Y-3469125D01*
X-6649860Y-3548500D01*
X-6649860Y-3469125D02*
X-6634620Y-3453250D01*
X-6604140Y-3453250D01*
X-6680340Y-3405625D02*
X-6695580Y-3389750D01*
X-6695580Y-3342125D01*
X-6680340Y-3326250D01*
X-6665100Y-3326250D01*
X-6649860Y-3342125D01*
X-6649860Y-3389750D01*
X-6634620Y-3405625D01*
X-6604140Y-3405625D01*
X-6604140Y-3326250D01*
X-6649860Y-3262750D02*
X-6665100Y-3278625D01*
X-6680340Y-3278625D01*
X-6695580Y-3262750D01*
X-6695580Y-3215125D01*
X-6680340Y-3199250D01*
X-6665100Y-3199250D01*
X-6649860Y-3215125D01*
X-6649860Y-3262750D01*
X-6634620Y-3278625D01*
X-6619380Y-3278625D01*
X-6604140Y-3262750D01*
X-6604140Y-3215125D01*
X-6619380Y-3199250D01*
X-6634620Y-3199250D01*
X-6649860Y-3215125D01*
X+2384840Y-4885000D02*
X+2257840Y-4885000D01*
X+2130840Y-4758000D02*
X+2104964Y-4760436D01*
X+2080992Y-4767485D01*
X+2059402Y-4778762D01*
X+2040670Y-4793878D01*
X+2025271Y-4812446D01*
X+2013682Y-4834081D01*
X+2006380Y-4858394D01*
X+2003840Y-4885000D01*
X+2130840Y-4758000D02*
X+2157446Y-4760436D01*
X+2181759Y-4767485D01*
X+2203394Y-4778762D01*
X+2221962Y-4793878D01*
X+2237078Y-4812446D01*
X+2248355Y-4834081D01*
X+2255404Y-4858394D01*
X+2257840Y-4885000D01*
X+2003840Y-4885000D02*
X+1876840Y-4885000D01*
X+2384840Y-4123000D02*
X+1876840Y-4123000D01*
X+2384840Y-4885000D02*
X+2384840Y-4123000D01*
X+1876840Y-4885000D02*
X+1876840Y-4123000D01*
X+2003840Y-4925640D02*
X+2003840Y-5001840D01*
X+2019715Y-5017080D01*
X+2083215Y-5017080D01*
X+2099090Y-5001840D01*
X+2099090Y-4925640D01*
X+2226090Y-4986600D02*
X+2130840Y-4986600D01*
X+2194340Y-4925640D01*
X+2194340Y-5017080D01*
X+3260760Y-6432080D02*
X+3778920Y-6432080D01*
X+3778920Y-6165380D01*
X+3260760Y-6165380D01*
X+3260760Y-6432080D01*
X+3342040Y-6167920D02*
X+3342040Y-6429540D01*
X+3189640Y-6300000D02*
X+3260760Y-6300000D01*
X+3778920Y-6300000D02*
X+3850040Y-6300000D01*
X+3329340Y-6374740D02*
X+3329340Y-6283300D01*
X+3392840Y-6283300D01*
X+3424590Y-6313780D01*
X+3424590Y-6344260D01*
X+3392840Y-6374740D01*
X+3329340Y-6374740D01*
X+3488090Y-6313780D02*
X+3519840Y-6283300D01*
X+3519840Y-6374740D01*
X+3615090Y-6329020D02*
X+3599215Y-6313780D01*
X+3599215Y-6298540D01*
X+3615090Y-6283300D01*
X+3662715Y-6283300D01*
X+3678590Y-6298540D01*
X+3678590Y-6313780D01*
X+3662715Y-6329020D01*
X+3615090Y-6329020D01*
X+3599215Y-6344260D01*
X+3599215Y-6359500D01*
X+3615090Y-6374740D01*
X+3662715Y-6374740D01*
X+3678590Y-6359500D01*
X+3678590Y-6344260D01*
X+3662715Y-6329020D01*
X+3884840Y-5800000D02*
X+3757840Y-5800000D01*
X+3249840Y-5863500D02*
X+3757840Y-5863500D01*
X+3757840Y-5736500D01*
X+3249840Y-5736500D01*
X+3249840Y-5863500D01*
X+3249840Y-5800000D02*
X+3122840Y-5800000D01*
X+3313340Y-5845580D02*
X+3313340Y-5754140D01*
X+3392715Y-5754140D01*
X+3408590Y-5769380D01*
X+3408590Y-5784620D01*
X+3392715Y-5799860D01*
X+3313340Y-5799860D01*
X+3392715Y-5799860D02*
X+3408590Y-5815100D01*
X+3408590Y-5845580D01*
X+3472090Y-5784620D02*
X+3503840Y-5754140D01*
X+3503840Y-5845580D01*
X+3599090Y-5799860D02*
X+3583215Y-5784620D01*
X+3583215Y-5769380D01*
X+3599090Y-5754140D01*
X+3646715Y-5754140D01*
X+3662590Y-5769380D01*
X+3662590Y-5784620D01*
X+3646715Y-5799860D01*
X+3599090Y-5799860D01*
X+3583215Y-5815100D01*
X+3583215Y-5830340D01*
X+3599090Y-5845580D01*
X+3646715Y-5845580D01*
X+3662590Y-5830340D01*
X+3662590Y-5815100D01*
X+3646715Y-5799860D01*
X+3122840Y-5350000D02*
X+3249840Y-5350000D01*
X+3249840Y-5413500D02*
X+3757840Y-5413500D01*
X+3757840Y-5286500D01*
X+3249840Y-5286500D01*
X+3249840Y-5413500D01*
X+3757840Y-5350000D02*
X+3884840Y-5350000D01*
X+3313340Y-5395860D02*
X+3313340Y-5304420D01*
X+3392715Y-5304420D01*
X+3408590Y-5319660D01*
X+3408590Y-5334900D01*
X+3392715Y-5350140D01*
X+3313340Y-5350140D01*
X+3392715Y-5350140D02*
X+3408590Y-5365380D01*
X+3408590Y-5395860D01*
X+3456215Y-5319660D02*
X+3472090Y-5304420D01*
X+3519715Y-5304420D01*
X+3535590Y-5319660D01*
X+3535590Y-5334900D01*
X+3519715Y-5350140D01*
X+3472090Y-5350140D01*
X+3456215Y-5365380D01*
X+3456215Y-5395860D01*
X+3535590Y-5395860D01*
X+3662590Y-5334900D02*
X+3646715Y-5350140D01*
X+3599090Y-5350140D01*
X+3583215Y-5334900D01*
X+3583215Y-5319660D01*
X+3599090Y-5304420D01*
X+3646715Y-5304420D01*
X+3662590Y-5319660D01*
X+3662590Y-5380620D01*
X+3646715Y-5395860D01*
X+3599090Y-5395860D01*
X-7153000Y-2080000D02*
X-7026000Y-2080000D01*
X-7026000Y-2143500D02*
X-6518000Y-2143500D01*
X-6518000Y-2016500D01*
X-7026000Y-2016500D01*
X-7026000Y-2143500D01*
X-6518000Y-2080000D02*
X-6391000Y-2080000D01*
X-6962500Y-2125860D02*
X-6962500Y-2034420D01*
X-6883125Y-2034420D01*
X-6867250Y-2049660D01*
X-6867250Y-2064900D01*
X-6883125Y-2080140D01*
X-6962500Y-2080140D01*
X-6883125Y-2080140D02*
X-6867250Y-2095380D01*
X-6867250Y-2125860D01*
X-6819625Y-2049660D02*
X-6803750Y-2034420D01*
X-6756125Y-2034420D01*
X-6740250Y-2049660D01*
X-6740250Y-2064900D01*
X-6756125Y-2080140D01*
X-6740250Y-2095380D01*
X-6740250Y-2110620D01*
X-6756125Y-2125860D01*
X-6803750Y-2125860D01*
X-6819625Y-2110620D01*
X-6787875Y-2080140D02*
X-6756125Y-2080140D01*
X-6708500Y-2110620D02*
X-6708500Y-2049660D01*
X-6692625Y-2034420D01*
X-6629125Y-2034420D01*
X-6613250Y-2049660D01*
X-6613250Y-2110620D01*
X-6629125Y-2125860D01*
X-6692625Y-2125860D01*
X-6708500Y-2110620D01*
X-6708500Y-2125860D02*
X-6613250Y-2034420D01*
X+3244760Y-4984620D02*
X+3762920Y-4984620D01*
X+3762920Y-4717920D01*
X+3244760Y-4717920D01*
X+3244760Y-4984620D01*
X+3681640Y-4982080D02*
X+3681640Y-4720460D01*
X+3834040Y-4850000D02*
X+3762920Y-4850000D01*
X+3244760Y-4850000D02*
X+3173640Y-4850000D01*
X+3313340Y-4916700D02*
X+3313340Y-4825260D01*
X+3376840Y-4825260D01*
X+3408590Y-4855740D01*
X+3408590Y-4886220D01*
X+3376840Y-4916700D01*
X+3313340Y-4916700D01*
X+3472090Y-4855740D02*
X+3503840Y-4825260D01*
X+3503840Y-4916700D01*
X+3662590Y-4855740D02*
X+3646715Y-4870980D01*
X+3599090Y-4870980D01*
X+3583215Y-4855740D01*
X+3583215Y-4840500D01*
X+3599090Y-4825260D01*
X+3646715Y-4825260D01*
X+3662590Y-4840500D01*
X+3662590Y-4901460D01*
X+3646715Y-4916700D01*
X+3599090Y-4916700D01*
D25*
X+5377800Y-1200000D02*
X+5403200Y-1174600D01*
X+5403200Y-1073000D01*
X+5377800Y-1047600D01*
X+5352400Y-1047600D01*
X+5327000Y-1073000D01*
X+5327000Y-1174600D01*
X+5301600Y-1200000D01*
X+5276200Y-1200000D01*
X+5250800Y-1174600D01*
X+5250800Y-1073000D01*
X+5276200Y-1047600D01*
X+5301600Y-971400D02*
X+5301600Y-869800D01*
X+5327000Y-844400D01*
X+5403200Y-844400D01*
X+5403200Y-971400D01*
X+5377800Y-996800D01*
X+5352400Y-971400D01*
X+5352400Y-844400D01*
X+5250800Y-717400D02*
X+5403200Y-717400D01*
X+5301600Y-514200D02*
X+5403200Y-514200D01*
X+5250800Y-514200D02*
X+5250800Y-514200D01*
X+5327000Y-234800D02*
X+5301600Y-260200D01*
X+5301600Y-361800D01*
X+5327000Y-387200D01*
X+5377800Y-387200D01*
X+5403200Y-361800D01*
X+5403200Y-260200D01*
X+5377800Y-234800D01*
X+5403200Y-234800D02*
X+5250800Y-234800D01*
X+5301600Y-158600D02*
X+5301600Y-57000D01*
X+5327000Y-31600D01*
X+5403200Y-31600D01*
X+5403200Y-158600D01*
X+5377800Y-184000D01*
X+5352400Y-158600D01*
X+5352400Y-31600D01*
X+5301600Y+247800D02*
X+5301600Y+349400D01*
X+5327000Y+374800D01*
X+5403200Y+374800D01*
X+5403200Y+247800D01*
X+5377800Y+222400D01*
X+5352400Y+247800D01*
X+5352400Y+374800D01*
X+5250800Y+628800D02*
X+5250800Y+781200D01*
X+5250800Y+705000D02*
X+5403200Y+705000D01*
X+5403200Y+832000D02*
X+5301600Y+832000D01*
X+5327000Y+832000D02*
X+5301600Y+857400D01*
X+5301600Y+959000D01*
X+5327000Y+984400D01*
X+5301600Y+1060600D02*
X+5301600Y+1162200D01*
X+5327000Y+1187600D01*
X+5403200Y+1187600D01*
X+5403200Y+1060600D01*
X+5377800Y+1035200D01*
X+5352400Y+1060600D01*
X+5352400Y+1187600D01*
X+5403200Y+1238400D02*
X+5301600Y+1238400D01*
X+5327000Y+1238400D02*
X+5301600Y+1263800D01*
X+5301600Y+1365400D01*
X+5327000Y+1390800D01*
X+5403200Y+1390800D01*
X+5301600Y+1568600D02*
X+5301600Y+1467000D01*
X+5327000Y+1441600D01*
X+5352400Y+1467000D01*
X+5352400Y+1568600D01*
X+5377800Y+1594000D01*
X+5403200Y+1568600D01*
X+5403200Y+1441600D01*
X+5403200Y+1670200D02*
X+5276200Y+1670200D01*
X+5250800Y+1695600D01*
X+5250800Y+1771800D01*
X+5276200Y+1797200D01*
X+5327000Y+1644800D02*
X+5327000Y+1746400D01*
X+5327000Y+1848000D02*
X+5301600Y+1873400D01*
X+5301600Y+1975000D01*
X+5327000Y+2000400D01*
X+5377800Y+2000400D01*
X+5403200Y+1975000D01*
X+5403200Y+1873400D01*
X+5377800Y+1848000D01*
X+5327000Y+1848000D01*
X+5403200Y+2051200D02*
X+5301600Y+2051200D01*
X+5327000Y+2051200D02*
X+5301600Y+2076600D01*
X+5301600Y+2178200D01*
X+5327000Y+2203600D01*
X+5403200Y+2254400D02*
X+5301600Y+2254400D01*
X+5327000Y+2254400D02*
X+5301600Y+2279800D01*
X+5352400Y+2330600D01*
X+5301600Y+2381400D01*
X+5327000Y+2406800D01*
X+5403200Y+2406800D01*
X+5301600Y+2483000D02*
X+5301600Y+2584600D01*
X+5327000Y+2610000D01*
X+5403200Y+2610000D01*
X+5403200Y+2483000D01*
X+5377800Y+2457600D01*
X+5352400Y+2483000D01*
X+5352400Y+2610000D01*
X+5327000Y+2813200D02*
X+5301600Y+2787800D01*
X+5301600Y+2686200D01*
X+5327000Y+2660800D01*
X+5377800Y+2660800D01*
X+5403200Y+2686200D01*
X+5403200Y+2787800D01*
X+5377800Y+2813200D01*
X+5403200Y+2813200D02*
X+5250800Y+2813200D01*
X+5327000Y+2864000D02*
X+5301600Y+2889400D01*
X+5301600Y+2991000D01*
X+5327000Y+3016400D01*
X+5377800Y+3016400D01*
X+5403200Y+2991000D01*
X+5403200Y+2889400D01*
X+5377800Y+2864000D01*
X+5327000Y+2864000D01*
X+5403200Y+3067200D02*
X+5301600Y+3067200D01*
X+5327000Y+3067200D02*
X+5301600Y+3092600D01*
X+5301600Y+3194200D01*
X+5327000Y+3219600D01*
X+5427800Y-6400000D02*
X+5453200Y-6374600D01*
X+5453200Y-6273000D01*
X+5427800Y-6247600D01*
X+5402400Y-6247600D01*
X+5377000Y-6273000D01*
X+5377000Y-6374600D01*
X+5351600Y-6400000D01*
X+5326200Y-6400000D01*
X+5300800Y-6374600D01*
X+5300800Y-6273000D01*
X+5326200Y-6247600D01*
X+5402400Y-6196800D02*
X+5402400Y-6044400D01*
X+5377000Y-6044400D01*
X+5351600Y-6069800D01*
X+5351600Y-6171400D01*
X+5377000Y-6196800D01*
X+5427800Y-6196800D01*
X+5453200Y-6171400D01*
X+5453200Y-6069800D01*
X+5453200Y-5993600D02*
X+5351600Y-5993600D01*
X+5377000Y-5993600D02*
X+5351600Y-5968200D01*
X+5351600Y-5866600D01*
X+5377000Y-5841200D01*
X+5453200Y-5841200D01*
X+5351600Y-5663400D02*
X+5351600Y-5765000D01*
X+5377000Y-5790400D01*
X+5402400Y-5765000D01*
X+5402400Y-5663400D01*
X+5427800Y-5638000D01*
X+5453200Y-5663400D01*
X+5453200Y-5790400D01*
X+5351600Y-5561800D02*
X+5351600Y-5460200D01*
X+5377000Y-5434800D01*
X+5453200Y-5434800D01*
X+5453200Y-5561800D01*
X+5427800Y-5587200D01*
X+5402400Y-5561800D01*
X+5402400Y-5434800D01*
X+5377000Y-5231600D02*
X+5351600Y-5257000D01*
X+5351600Y-5358600D01*
X+5377000Y-5384000D01*
X+5427800Y-5384000D01*
X+5453200Y-5358600D01*
X+5453200Y-5257000D01*
X+5427800Y-5231600D01*
X+5453200Y-5231600D02*
X+5300800Y-5231600D01*
X+5377000Y-5180800D02*
X+5351600Y-5155400D01*
X+5351600Y-5053800D01*
X+5377000Y-5028400D01*
X+5427800Y-5028400D01*
X+5453200Y-5053800D01*
X+5453200Y-5155400D01*
X+5427800Y-5180800D01*
X+5377000Y-5180800D01*
X+5377000Y-4622000D02*
X+5351600Y-4647400D01*
X+5351600Y-4749000D01*
X+5377000Y-4774400D01*
X+5427800Y-4774400D01*
X+5453200Y-4749000D01*
X+5453200Y-4647400D01*
X+5427800Y-4622000D01*
X+5453200Y-4622000D02*
X+5300800Y-4622000D01*
X+5402400Y-4571200D02*
X+5402400Y-4418800D01*
X+5377000Y-4418800D01*
X+5351600Y-4444200D01*
X+5351600Y-4545800D01*
X+5377000Y-4571200D01*
X+5427800Y-4571200D01*
X+5453200Y-4545800D01*
X+5453200Y-4444200D01*
X+5300800Y-4291800D02*
X+5453200Y-4291800D01*
X+5351600Y-3834600D02*
X+5351600Y-3936200D01*
X+5377000Y-3961600D01*
X+5402400Y-3936200D01*
X+5402400Y-3834600D01*
X+5427800Y-3809200D01*
X+5453200Y-3834600D01*
X+5453200Y-3961600D01*
X+5402400Y-3758400D02*
X+5402400Y-3606000D01*
X+5377000Y-3606000D01*
X+5351600Y-3631400D01*
X+5351600Y-3733000D01*
X+5377000Y-3758400D01*
X+5427800Y-3758400D01*
X+5453200Y-3733000D01*
X+5453200Y-3631400D01*
X+5377000Y-3402800D02*
X+5351600Y-3428200D01*
X+5351600Y-3529800D01*
X+5377000Y-3555200D01*
X+5427800Y-3555200D01*
X+5453200Y-3529800D01*
X+5453200Y-3428200D01*
X+5427800Y-3402800D01*
X+5351600Y-3352000D02*
X+5427800Y-3352000D01*
X+5453200Y-3326600D01*
X+5453200Y-3225000D01*
X+5427800Y-3199600D01*
X+5453200Y-3199600D02*
X+5351600Y-3199600D01*
X+5453200Y-3148800D02*
X+5351600Y-3148800D01*
X+5377000Y-3148800D02*
X+5351600Y-3123400D01*
X+5351600Y-3021800D01*
X+5377000Y-2996400D01*
X+5453200Y-2996400D01*
X+5377000Y-2793200D02*
X+5351600Y-2818600D01*
X+5351600Y-2920200D01*
X+5377000Y-2945600D01*
X+5427800Y-2945600D01*
X+5453200Y-2920200D01*
X+5453200Y-2818600D01*
X+5427800Y-2793200D01*
X+5453200Y-2793200D02*
X+5300800Y-2793200D01*
X+5351600Y-2717000D02*
X+5351600Y-2615400D01*
X+5377000Y-2590000D01*
X+5453200Y-2590000D01*
X+5453200Y-2717000D01*
X+5427800Y-2742400D01*
X+5402400Y-2717000D01*
X+5402400Y-2590000D01*
X+5453200Y-2539200D02*
X+5351600Y-2539200D01*
X+5377000Y-2539200D02*
X+5351600Y-2513800D01*
X+5351600Y-2412200D01*
X+5377000Y-2386800D01*
X+5351600Y-2259800D02*
X+5453200Y-2259800D01*
X+5300800Y-2259800D02*
X+5300800Y-2259800D01*
X+5377000Y-2132800D02*
X+5351600Y-2107400D01*
X+5351600Y-2005800D01*
X+5377000Y-1980400D01*
X+5427800Y-1980400D01*
X+5453200Y-2005800D01*
X+5453200Y-2107400D01*
X+5427800Y-2132800D01*
X+5377000Y-2132800D01*
D24*
X-3700000Y-2199000D02*
X-3700000Y-2072000D01*
X-3763500Y-2072000D02*
X-3636500Y-2072000D01*
X-3636500Y-1564000D01*
X-3763500Y-1564000D01*
X-3763500Y-2072000D01*
X-3700000Y-1564000D02*
X-3700000Y-1437000D01*
X-3654140Y-2008500D02*
X-3745580Y-2008500D01*
X-3745580Y-1929125D01*
X-3730340Y-1913250D01*
X-3715100Y-1913250D01*
X-3699860Y-1929125D01*
X-3699860Y-2008500D01*
X-3699860Y-1929125D02*
X-3684620Y-1913250D01*
X-3654140Y-1913250D01*
X-3730340Y-1865625D02*
X-3745580Y-1849750D01*
X-3745580Y-1802125D01*
X-3730340Y-1786250D01*
X-3715100Y-1786250D01*
X-3699860Y-1802125D01*
X-3684620Y-1786250D01*
X-3669380Y-1786250D01*
X-3654140Y-1802125D01*
X-3654140Y-1849750D01*
X-3669380Y-1865625D01*
X-3699860Y-1833875D02*
X-3699860Y-1802125D01*
X-3715100Y-1722750D02*
X-3745580Y-1691000D01*
X-3654140Y-1691000D01*
X-3350000Y-2199000D02*
X-3350000Y-2072000D01*
X-3413500Y-2072000D02*
X-3286500Y-2072000D01*
X-3286500Y-1564000D01*
X-3413500Y-1564000D01*
X-3413500Y-2072000D01*
X-3350000Y-1564000D02*
X-3350000Y-1437000D01*
X-3304140Y-2008500D02*
X-3395580Y-2008500D01*
X-3395580Y-1929125D01*
X-3380340Y-1913250D01*
X-3365100Y-1913250D01*
X-3349860Y-1929125D01*
X-3349860Y-2008500D01*
X-3349860Y-1929125D02*
X-3334620Y-1913250D01*
X-3304140Y-1913250D01*
X-3380340Y-1865625D02*
X-3395580Y-1849750D01*
X-3395580Y-1802125D01*
X-3380340Y-1786250D01*
X-3365100Y-1786250D01*
X-3349860Y-1802125D01*
X-3334620Y-1786250D01*
X-3319380Y-1786250D01*
X-3304140Y-1802125D01*
X-3304140Y-1849750D01*
X-3319380Y-1865625D01*
X-3349860Y-1833875D02*
X-3349860Y-1802125D01*
X-3380340Y-1738625D02*
X-3395580Y-1722750D01*
X-3395580Y-1675125D01*
X-3380340Y-1659250D01*
X-3365100Y-1659250D01*
X-3349860Y-1675125D01*
X-3349860Y-1722750D01*
X-3334620Y-1738625D01*
X-3304140Y-1738625D01*
X-3304140Y-1659250D01*
X-3482080Y-3377080D02*
X-3215380Y-3377080D01*
X-3215380Y-2858920D01*
X-3482080Y-2858920D01*
X-3482080Y-3377080D01*
X-3217920Y-2940200D02*
X-3479540Y-2940200D01*
X-3350000Y-2787800D02*
X-3350000Y-2858920D01*
X-3350000Y-3377080D02*
X-3350000Y-3448200D01*
X-3333300Y-3348500D02*
X-3424740Y-3348500D01*
X-3424740Y-3285000D01*
X-3394260Y-3253250D01*
X-3363780Y-3253250D01*
X-3333300Y-3285000D01*
X-3333300Y-3348500D01*
X-3409500Y-3205625D02*
X-3424740Y-3189750D01*
X-3424740Y-3142125D01*
X-3409500Y-3126250D01*
X-3394260Y-3126250D01*
X-3379020Y-3142125D01*
X-3379020Y-3189750D01*
X-3363780Y-3205625D01*
X-3333300Y-3205625D01*
X-3333300Y-3126250D01*
X-3348540Y-3094500D02*
X-3409500Y-3094500D01*
X-3424740Y-3078625D01*
X-3424740Y-3015125D01*
X-3409500Y-2999250D01*
X-3348540Y-2999250D01*
X-3333300Y-3015125D01*
X-3333300Y-3078625D01*
X-3348540Y-3094500D01*
X-3333300Y-3094500D02*
X-3424740Y-2999250D01*
X-3822080Y-3387080D02*
X-3555380Y-3387080D01*
X-3555380Y-2868920D01*
X-3822080Y-2868920D01*
X-3822080Y-3387080D01*
X-3557920Y-2950200D02*
X-3819540Y-2950200D01*
X-3690000Y-2797800D02*
X-3690000Y-2868920D01*
X-3690000Y-3387080D02*
X-3690000Y-3458200D01*
X-3663300Y-3338500D02*
X-3754740Y-3338500D01*
X-3754740Y-3275000D01*
X-3724260Y-3243250D01*
X-3693780Y-3243250D01*
X-3663300Y-3275000D01*
X-3663300Y-3338500D01*
X-3739500Y-3195625D02*
X-3754740Y-3179750D01*
X-3754740Y-3132125D01*
X-3739500Y-3116250D01*
X-3724260Y-3116250D01*
X-3709020Y-3132125D01*
X-3709020Y-3179750D01*
X-3693780Y-3195625D01*
X-3663300Y-3195625D01*
X-3663300Y-3116250D01*
X-3724260Y-3052750D02*
X-3754740Y-3021000D01*
X-3663300Y-3021000D01*
X-7881000Y-3608000D02*
X-7246000Y-3608000D01*
X-7246000Y-2846000D01*
X-7881000Y-2846000D01*
X-7881000Y-3608000D01*
X-7754000Y-3608000D02*
X-7754000Y-2846000D01*
X-7652120Y-3354000D02*
X-7636880Y-3354000D01*
X-7621640Y-3338125D01*
X-7621640Y-3274625D01*
X-7636880Y-3258750D01*
X-7713080Y-3258750D01*
X-7697840Y-3131750D02*
X-7713080Y-3147625D01*
X-7713080Y-3195250D01*
X-7697840Y-3211125D01*
X-7636880Y-3211125D01*
X-7621640Y-3195250D01*
X-7621640Y-3147625D01*
X-7636880Y-3131750D01*
X-7652120Y-3131750D01*
X-7667360Y-3147625D01*
X-7667360Y-3211125D01*
D25*
X-7946800Y-3850000D02*
X-8099200Y-3850000D01*
X-8099200Y-3723000D01*
X-8073800Y-3697600D01*
X-8048400Y-3697600D01*
X-8023000Y-3723000D01*
X-8023000Y-3850000D01*
X-8048400Y-3646800D02*
X-7972200Y-3646800D01*
X-7946800Y-3621400D01*
X-7946800Y-3519800D01*
X-7972200Y-3494400D01*
X-7946800Y-3494400D02*
X-8048400Y-3494400D01*
X-8099200Y-3367400D02*
X-7946800Y-3367400D01*
X-8048400Y-3113400D02*
X-8048400Y-3215000D01*
X-8023000Y-3240400D01*
X-7997600Y-3215000D01*
X-7997600Y-3113400D01*
X-7972200Y-3088000D01*
X-7946800Y-3113400D01*
X-7946800Y-3240400D01*
X-8048400Y-3011800D02*
X-8048400Y-2910200D01*
X-8023000Y-2884800D01*
X-7946800Y-2884800D01*
X-7946800Y-3011800D01*
X-7972200Y-3037200D01*
X-7997600Y-3011800D01*
X-7997600Y-2884800D01*
X-8023000Y-2681600D02*
X-8048400Y-2707000D01*
X-8048400Y-2808600D01*
X-8023000Y-2834000D01*
X-7972200Y-2834000D01*
X-7946800Y-2808600D01*
X-7946800Y-2707000D01*
X-7972200Y-2681600D01*
X-7946800Y-2681600D02*
X-8099200Y-2681600D01*
X-8023000Y-2630800D02*
X-8048400Y-2605400D01*
X-8048400Y-2503800D01*
X-8023000Y-2478400D01*
X-7972200Y-2478400D01*
X-7946800Y-2503800D01*
X-7946800Y-2605400D01*
X-7972200Y-2630800D01*
X-8023000Y-2630800D01*
X-7946800Y-2427600D02*
X-8048400Y-2427600D01*
X-8023000Y-2427600D02*
X-8048400Y-2402200D01*
X-8048400Y-2300600D01*
X-8023000Y-2275200D01*
X-8099200Y-1600000D02*
X-8099200Y-1447600D01*
X-8099200Y-1523800D02*
X-7946800Y-1523800D01*
X-8099200Y-1396800D02*
X-7946800Y-1244400D01*
X-7946800Y-1396800D02*
X-8099200Y-1244400D01*
X-7946800Y-812600D02*
X-8073800Y-939600D01*
X-8099200Y-914200D01*
X-8099200Y-863400D01*
X-8073800Y-838000D01*
X-7997600Y-965000D01*
X-7972200Y-965000D01*
X-7946800Y-939600D01*
X-7946800Y-888800D01*
X-8023000Y-812600D01*
X-7946800Y-584000D02*
X-8099200Y-584000D01*
X-8099200Y-457000D01*
X-8073800Y-431600D01*
X-8048400Y-431600D01*
X-8023000Y-457000D01*
X-8023000Y-584000D01*
X-8023000Y-457000D02*
X-7997600Y-431600D01*
X-7946800Y-431600D01*
X-8099200Y-380800D02*
X-7946800Y-228400D01*
X-7946800Y-380800D02*
X-8099200Y-228400D01*
X+1180498Y-990000D02*
X+1180158Y-981735D01*
X+1177391Y-965204D01*
X+1171607Y-948673D01*
X+1162172Y-932142D01*
X+1147737Y-915760D01*
X+1131206Y-903526D01*
X+1114675Y-895673D01*
X+1098144Y-891153D01*
X+1081613Y-889515D01*
X+1080000Y-889502D01*
X+979502Y-990000D02*
X+979842Y-981735D01*
X+982609Y-965204D01*
X+988393Y-948673D01*
X+997828Y-932142D01*
X+1012263Y-915760D01*
X+1028794Y-903526D01*
X+1045325Y-895673D01*
X+1061856Y-891153D01*
X+1078387Y-889515D01*
X+1080000Y-889502D01*
X+979502Y-990000D02*
X+979842Y-998265D01*
X+982609Y-1014796D01*
X+988393Y-1031327D01*
X+997828Y-1047858D01*
X+1012263Y-1064240D01*
X+1028794Y-1076474D01*
X+1045325Y-1084327D01*
X+1061856Y-1088847D01*
X+1078387Y-1090485D01*
X+1080000Y-1090498D01*
X+1180498Y-990000D02*
X+1180158Y-998265D01*
X+1177391Y-1014796D01*
X+1171607Y-1031327D01*
X+1162172Y-1047858D01*
X+1147737Y-1064240D01*
X+1131206Y-1076474D01*
X+1114675Y-1084327D01*
X+1098144Y-1088847D01*
X+1081613Y-1090485D01*
X+1080000Y-1090498D01*
X+1190498Y+1630000D02*
X+1190158Y+1638265D01*
X+1187391Y+1654796D01*
X+1181607Y+1671327D01*
X+1172172Y+1687858D01*
X+1157737Y+1704240D01*
X+1141206Y+1716474D01*
X+1124675Y+1724327D01*
X+1108144Y+1728847D01*
X+1091613Y+1730485D01*
X+1090000Y+1730498D01*
X+989502Y+1630000D02*
X+989842Y+1638265D01*
X+992609Y+1654796D01*
X+998393Y+1671327D01*
X+1007828Y+1687858D01*
X+1022263Y+1704240D01*
X+1038794Y+1716474D01*
X+1055325Y+1724327D01*
X+1071856Y+1728847D01*
X+1088387Y+1730485D01*
X+1090000Y+1730498D01*
X+989502Y+1630000D02*
X+989842Y+1621735D01*
X+992609Y+1605204D01*
X+998393Y+1588673D01*
X+1007828Y+1572142D01*
X+1022263Y+1555760D01*
X+1038794Y+1543526D01*
X+1055325Y+1535673D01*
X+1071856Y+1531153D01*
X+1088387Y+1529515D01*
X+1090000Y+1529502D01*
X+1190498Y+1630000D02*
X+1190158Y+1621735D01*
X+1187391Y+1605204D01*
X+1181607Y+1588673D01*
X+1172172Y+1572142D01*
X+1157737Y+1555760D01*
X+1141206Y+1543526D01*
X+1124675Y+1535673D01*
X+1108144Y+1531153D01*
X+1091613Y+1529515D01*
X+1090000Y+1529502D01*
X+1030000Y-890000D02*
X+1030000Y+1540000D01*
X+1130000Y+1530000D02*
X+1130000Y-890000D01*
X+1280000Y+866800D02*
X+1280000Y+1019200D01*
X+1407000Y+1019200D01*
X+1432400Y+993800D01*
X+1432400Y+968400D01*
X+1407000Y+943000D01*
X+1280000Y+943000D01*
X+1483200Y+968400D02*
X+1483200Y+892200D01*
X+1508600Y+866800D01*
X+1610200Y+866800D01*
X+1635600Y+892200D01*
X+1635600Y+866800D02*
X+1635600Y+968400D01*
X+1686400Y+917600D02*
X+1838800Y+917600D01*
X+1838800Y+943000D01*
X+1813400Y+968400D01*
X+1711800Y+968400D01*
X+1686400Y+943000D01*
X+1686400Y+892200D01*
X+1711800Y+866800D01*
X+1813400Y+866800D01*
X+1889600Y+866800D02*
X+1889600Y+968400D01*
X+1889600Y+943000D02*
X+1915000Y+968400D01*
X+2016600Y+968400D01*
X+2042000Y+943000D01*
X+2042000Y+866800D01*
X+2118200Y+1019200D02*
X+2118200Y+892200D01*
X+2143600Y+866800D01*
X+2219800Y+866800D01*
X+2245200Y+892200D01*
X+2092800Y+968400D02*
X+2219800Y+968400D01*
X+2296000Y+917600D02*
X+2448400Y+917600D01*
X+2448400Y+943000D01*
X+2423000Y+968400D01*
X+2321400Y+968400D01*
X+2296000Y+943000D01*
X+2296000Y+892200D01*
X+2321400Y+866800D01*
X+2423000Y+866800D01*
X-7350000Y+3666800D02*
X-7350000Y+3819200D01*
X-7197600Y+3819200D01*
X-7350000Y+3743000D02*
X-7248400Y+3743000D01*
X-7146800Y+3768400D02*
X-7146800Y+3692200D01*
X-7121400Y+3666800D01*
X-7019800Y+3666800D01*
X-6994400Y+3692200D01*
X-6994400Y+3666800D02*
X-6994400Y+3768400D01*
X-6816600Y+3768400D02*
X-6918200Y+3768400D01*
X-6943600Y+3743000D01*
X-6918200Y+3717600D01*
X-6816600Y+3717600D01*
X-6791200Y+3692200D01*
X-6816600Y+3666800D01*
X-6943600Y+3666800D01*
X-6664200Y+3768400D02*
X-6664200Y+3666800D01*
X-6664200Y+3819200D02*
X-6664200Y+3819200D01*
X-6537200Y+3743000D02*
X-6511800Y+3768400D01*
X-6410200Y+3768400D01*
X-6384800Y+3743000D01*
X-6384800Y+3692200D01*
X-6410200Y+3666800D01*
X-6511800Y+3666800D01*
X-6537200Y+3692200D01*
X-6537200Y+3666800D02*
X-6537200Y+3819200D01*
X-6257800Y+3819200D02*
X-6257800Y+3666800D01*
X-6130800Y+3717600D02*
X-5978400Y+3717600D01*
X-5978400Y+3743000D01*
X-6003800Y+3768400D01*
X-6105400Y+3768400D01*
X-6130800Y+3743000D01*
X-6130800Y+3692200D01*
X-6105400Y+3666800D01*
X-6003800Y+3666800D01*
X-7420000Y+3066800D02*
X-7420000Y+3168400D01*
X-7369200Y+3219200D01*
X-7318400Y+3219200D01*
X-7267600Y+3168400D01*
X-7267600Y+3066800D01*
X-7420000Y+3117600D02*
X-7267600Y+3117600D01*
X-7140600Y+3219200D02*
X-7140600Y+3066800D01*
X-6937400Y+3168400D02*
X-6937400Y+3066800D01*
X-6937400Y+3219200D02*
X-6937400Y+3219200D01*
X-6810400Y+3066800D02*
X-6810400Y+3168400D01*
X-6810400Y+3143000D02*
X-6785000Y+3168400D01*
X-6734200Y+3117600D01*
X-6683400Y+3168400D01*
X-6658000Y+3143000D01*
X-6658000Y+3066800D01*
X-6607200Y+3117600D02*
X-6454800Y+3117600D01*
X-6454800Y+3143000D01*
X-6480200Y+3168400D01*
X-6581800Y+3168400D01*
X-6607200Y+3143000D01*
X-6607200Y+3092200D01*
X-6581800Y+3066800D01*
X-6480200Y+3066800D01*
X-6404000Y+3066800D02*
X-6404000Y+3168400D01*
X-6404000Y+3143000D02*
X-6378600Y+3168400D01*
X-6277000Y+3168400D01*
X-6251600Y+3143000D01*
X-6251600Y+3066800D01*
X-6175400Y+3219200D02*
X-6175400Y+3092200D01*
X-6150000Y+3066800D01*
X-6073800Y+3066800D01*
X-6048400Y+3092200D01*
X-6200800Y+3168400D02*
X-6073800Y+3168400D01*
X-5972200Y+3168400D02*
X-5870600Y+3168400D01*
X-5845200Y+3143000D01*
X-5845200Y+3066800D01*
X-5972200Y+3066800D01*
X-5997600Y+3092200D01*
X-5972200Y+3117600D01*
X-5845200Y+3117600D01*
X-5642000Y+3143000D02*
X-5667400Y+3168400D01*
X-5769000Y+3168400D01*
X-5794400Y+3143000D01*
X-5794400Y+3092200D01*
X-5769000Y+3066800D01*
X-5667400Y+3066800D01*
X-5642000Y+3092200D01*
X-5515000Y+3168400D02*
X-5515000Y+3066800D01*
X-5515000Y+3219200D02*
X-5515000Y+3219200D01*
X-5388000Y+3143000D02*
X-5362600Y+3168400D01*
X-5261000Y+3168400D01*
X-5235600Y+3143000D01*
X-5235600Y+3092200D01*
X-5261000Y+3066800D01*
X-5362600Y+3066800D01*
X-5388000Y+3092200D01*
X-5388000Y+3143000D01*
X-5184800Y+3066800D02*
X-5184800Y+3168400D01*
X-5184800Y+3143000D02*
X-5159400Y+3168400D01*
X-5057800Y+3168400D01*
X-5032400Y+3143000D01*
X-5032400Y+3066800D01*
X-6988400Y+2407600D02*
X-6937600Y+2407600D01*
X-6937600Y+2356800D01*
X-7039200Y+2356800D01*
X-7090000Y+2407600D01*
X-7090000Y+2458400D01*
X-7039200Y+2509200D01*
X-6963000Y+2509200D01*
X-6937600Y+2483800D01*
X-6886800Y+2407600D02*
X-6734400Y+2407600D01*
X-6734400Y+2433000D01*
X-6759800Y+2458400D01*
X-6861400Y+2458400D01*
X-6886800Y+2433000D01*
X-6886800Y+2382200D01*
X-6861400Y+2356800D01*
X-6759800Y+2356800D01*
X-6683600Y+2356800D02*
X-6683600Y+2458400D01*
X-6683600Y+2433000D02*
X-6658200Y+2458400D01*
X-6556600Y+2458400D01*
X-6531200Y+2433000D01*
X-6531200Y+2356800D01*
X-6480400Y+2407600D02*
X-6328000Y+2407600D01*
X-6328000Y+2433000D01*
X-6353400Y+2458400D01*
X-6455000Y+2458400D01*
X-6480400Y+2433000D01*
X-6480400Y+2382200D01*
X-6455000Y+2356800D01*
X-6353400Y+2356800D01*
X-6277200Y+2356800D02*
X-6277200Y+2458400D01*
X-6277200Y+2433000D02*
X-6251800Y+2458400D01*
X-6150200Y+2458400D01*
X-6124800Y+2433000D01*
X-6048600Y+2458400D02*
X-5947000Y+2458400D01*
X-5921600Y+2433000D01*
X-5921600Y+2356800D01*
X-6048600Y+2356800D01*
X-6074000Y+2382200D01*
X-6048600Y+2407600D01*
X-5921600Y+2407600D01*
X-5794600Y+2509200D02*
X-5794600Y+2356800D01*
X-6837600Y+1792200D02*
X-6863000Y+1766800D01*
X-6939200Y+1766800D01*
X-6990000Y+1817600D01*
X-6990000Y+1868400D01*
X-6939200Y+1919200D01*
X-6863000Y+1919200D01*
X-6837600Y+1893800D01*
X-6761400Y+1919200D02*
X-6659800Y+1919200D01*
X-6710600Y+1919200D02*
X-6710600Y+1766800D01*
X-6761400Y+1766800D02*
X-6659800Y+1766800D01*
X-7170000Y+1309200D02*
X-7017600Y+1309200D01*
X-7170000Y+1156800D01*
X-7017600Y+1156800D01*
X-6966800Y+1207600D02*
X-6814400Y+1207600D01*
X-6814400Y+1233000D01*
X-6839800Y+1258400D01*
X-6941400Y+1258400D01*
X-6966800Y+1233000D01*
X-6966800Y+1182200D01*
X-6941400Y+1156800D01*
X-6839800Y+1156800D01*
X-6763600Y+1156800D02*
X-6763600Y+1258400D01*
X-6763600Y+1233000D02*
X-6738200Y+1258400D01*
X-6636600Y+1258400D01*
X-6611200Y+1233000D01*
X-6611200Y+1156800D01*
X-6560400Y+1207600D02*
X-6408000Y+1207600D01*
X-6408000Y+1233000D01*
X-6433400Y+1258400D01*
X-6535000Y+1258400D01*
X-6560400Y+1233000D01*
X-6560400Y+1182200D01*
X-6535000Y+1156800D01*
X-6433400Y+1156800D01*
X-6357200Y+1156800D02*
X-6357200Y+1258400D01*
X-6357200Y+1233000D02*
X-6331800Y+1258400D01*
X-6230200Y+1258400D01*
X-6204800Y+1233000D01*
X-7350000Y+759200D02*
X-7197600Y+759200D01*
X-7273800Y+759200D02*
X-7273800Y+606800D01*
X-7146800Y+606800D02*
X-7146800Y+708400D01*
X-7146800Y+683000D02*
X-7121400Y+708400D01*
X-7019800Y+708400D01*
X-6994400Y+683000D01*
X-6918200Y+708400D02*
X-6816600Y+708400D01*
X-6791200Y+683000D01*
X-6791200Y+606800D01*
X-6918200Y+606800D01*
X-6943600Y+632200D01*
X-6918200Y+657600D01*
X-6791200Y+657600D01*
X-6740400Y+606800D02*
X-6740400Y+708400D01*
X-6740400Y+683000D02*
X-6715000Y+708400D01*
X-6613400Y+708400D01*
X-6588000Y+683000D01*
X-6588000Y+606800D01*
X-6410200Y+708400D02*
X-6511800Y+708400D01*
X-6537200Y+683000D01*
X-6511800Y+657600D01*
X-6410200Y+657600D01*
X-6384800Y+632200D01*
X-6410200Y+606800D01*
X-6537200Y+606800D01*
X-6308600Y+606800D02*
X-6308600Y+733800D01*
X-6283200Y+759200D01*
X-6207000Y+759200D01*
X-6181600Y+733800D01*
X-6334000Y+683000D02*
X-6232400Y+683000D01*
X-6130800Y+683000D02*
X-6105400Y+708400D01*
X-6003800Y+708400D01*
X-5978400Y+683000D01*
X-5978400Y+632200D01*
X-6003800Y+606800D01*
X-6105400Y+606800D01*
X-6130800Y+632200D01*
X-6130800Y+683000D01*
X-5927600Y+606800D02*
X-5927600Y+708400D01*
X-5927600Y+683000D02*
X-5902200Y+708400D01*
X-5800600Y+708400D01*
X-5775200Y+683000D01*
X-5724400Y+606800D02*
X-5724400Y+708400D01*
X-5724400Y+683000D02*
X-5699000Y+708400D01*
X-5648200Y+657600D01*
X-5597400Y+708400D01*
X-5572000Y+683000D01*
X-5572000Y+606800D01*
X-5495800Y+708400D02*
X-5394200Y+708400D01*
X-5368800Y+683000D01*
X-5368800Y+606800D01*
X-5495800Y+606800D01*
X-5521200Y+632200D01*
X-5495800Y+657600D01*
X-5368800Y+657600D01*
X-5165600Y+683000D02*
X-5191000Y+708400D01*
X-5292600Y+708400D01*
X-5318000Y+683000D01*
X-5318000Y+632200D01*
X-5292600Y+606800D01*
X-5191000Y+606800D01*
X-5165600Y+632200D01*
X-5165600Y+606800D02*
X-5165600Y+759200D01*
X-5114800Y+683000D02*
X-5089400Y+708400D01*
X-4987800Y+708400D01*
X-4962400Y+683000D01*
X-4962400Y+632200D01*
X-4987800Y+606800D01*
X-5089400Y+606800D01*
X-5114800Y+632200D01*
X-5114800Y+683000D01*
X-4911600Y+606800D02*
X-4911600Y+708400D01*
X-4911600Y+683000D02*
X-4886200Y+708400D01*
X-4784600Y+708400D01*
X-4759200Y+683000D01*
X-7284600Y+209200D02*
X-7183000Y+209200D01*
X-7233800Y+209200D02*
X-7233800Y+56800D01*
X-7284600Y+56800D02*
X-7183000Y+56800D01*
X-7106800Y+56800D02*
X-7106800Y+158400D01*
X-7106800Y+133000D02*
X-7081400Y+158400D01*
X-6979800Y+158400D01*
X-6954400Y+133000D01*
X-6954400Y+56800D01*
X-6827400Y+158400D02*
X-6827400Y+56800D01*
X-6827400Y+209200D02*
X-6827400Y+209200D01*
X-6675000Y+209200D02*
X-6675000Y+82200D01*
X-6649600Y+56800D01*
X-6573400Y+56800D01*
X-6548000Y+82200D01*
X-6700400Y+158400D02*
X-6573400Y+158400D01*
X-7210000Y-563200D02*
X-7210000Y-410800D01*
X-7057600Y-563200D01*
X-7057600Y-410800D01*
X-7006800Y-487000D02*
X-6981400Y-461600D01*
X-6879800Y-461600D01*
X-6854400Y-487000D01*
X-6854400Y-537800D01*
X-6879800Y-563200D01*
X-6981400Y-563200D01*
X-7006800Y-537800D01*
X-7006800Y-487000D01*
X-6803600Y-563200D02*
X-6803600Y-461600D01*
X-6803600Y-487000D02*
X-6778200Y-461600D01*
X-6676600Y-461600D01*
X-6651200Y-487000D01*
X-6600400Y-563200D02*
X-6600400Y-461600D01*
X-6600400Y-487000D02*
X-6575000Y-461600D01*
X-6524200Y-512400D01*
X-6473400Y-461600D01*
X-6448000Y-487000D01*
X-6448000Y-563200D01*
X-6371800Y-461600D02*
X-6270200Y-461600D01*
X-6244800Y-487000D01*
X-6244800Y-563200D01*
X-6371800Y-563200D01*
X-6397200Y-537800D01*
X-6371800Y-512400D01*
X-6244800Y-512400D01*
X-6117800Y-410800D02*
X-6117800Y-563200D01*
M02*
