G04 PROTEUS GERBER X2 FILE*
%TF.GenerationSoftware,Labcenter,Proteus,8.15-SP1-Build34318*%
%TF.CreationDate,2023-09-22T14:21:38+00:00*%
%TF.FileFunction,Copper,L2,Bot*%
%TF.FilePolarity,Positive*%
%TF.Part,Single*%
%TF.SameCoordinates,{a466e6c0-664c-42de-9dbf-b86146abdc4f}*%
%FSLAX45Y45*%
%MOMM*%
G01*
%TA.AperFunction,Conductor*%
%ADD10C,1.016000*%
%ADD11C,1.524000*%
%ADD12C,5.080000*%
%TA.AperFunction,ViaPad*%
%ADD13C,2.032000*%
%TA.AperFunction,ComponentPad*%
%ADD14C,3.048000*%
%TA.AperFunction,OtherPad,Unknown*%
%ADD15C,6.350000*%
%TA.AperFunction,ComponentPad*%
%ADD16R,1.905000X1.905000*%
%ADD17C,2.032000*%
%ADD18R,2.032000X2.032000*%
%ADD19C,2.286000*%
%TA.AperFunction,ComponentPad*%
%ADD70C,1.524000*%
%AMDIL011*
4,1,8,
-1.270000,0.457200,-0.965200,0.762000,0.965200,0.762000,1.270000,0.457200,1.270000,-0.457200,
0.965200,-0.762000,-0.965200,-0.762000,-1.270000,-0.457200,-1.270000,0.457200,
0*%
%TA.AperFunction,ComponentPad*%
%ADD71DIL011*%
%TA.AperFunction,ComponentPad*%
%ADD20C,1.270000*%
%TA.AperFunction,ComponentPad*%
%ADD21C,2.540000*%
%ADD22C,7.112000*%
%AMDIL015*
4,1,8,
-0.762000,0.965200,-0.457200,1.270000,0.457200,1.270000,0.762000,0.965200,0.762000,-0.965200,
0.457200,-1.270000,-0.457200,-1.270000,-0.762000,-0.965200,-0.762000,0.965200,
0*%
%TA.AperFunction,ComponentPad*%
%ADD23DIL015*%
%TA.AperFunction,ComponentPad*%
%ADD24C,1.778000*%
%TA.AperFunction,Profile*%
%ADD25C,0.203200*%
%TD.AperFunction*%
%TA.AperFunction,Conductor*%
G36*
X-8051940Y+6201598D02*
X-8051940Y+6377940D01*
X-7875598Y+6377940D01*
X-8051940Y+6201598D01*
G37*
%TD.AperFunction*%
%TA.AperFunction,Conductor*%
G36*
X+3289301Y+6163639D02*
X+3289301Y+5774361D01*
X+3493963Y+5569699D01*
X+2953620Y+5569699D01*
X+2852020Y+5671299D01*
X+2431180Y+5671299D01*
X+2133601Y+5373720D01*
X+2133601Y+4952880D01*
X+2280082Y+4806399D01*
X+848335Y+4806399D01*
X+104836Y+5549899D01*
X-1831364Y+5549899D01*
X-1837864Y+5556399D01*
X-3375165Y+5556399D01*
X-3454646Y+5635880D01*
X-3646530Y+5556399D01*
X-3711836Y+5556399D01*
X-3758016Y+5510219D01*
X-3956399Y+5428046D01*
X-3956399Y+4981664D01*
X-3718336Y+4743601D01*
X-2253999Y+4743601D01*
X-2253999Y+4544790D01*
X-2184209Y+4475000D01*
X-2253999Y+4405210D01*
X-2253999Y+4381649D01*
X-2626149Y+4381649D01*
X-2626149Y+3886351D01*
X-2130851Y+3886351D01*
X-2130851Y+4071642D01*
X-2105210Y+4046001D01*
X-1945199Y+4046001D01*
X-1945199Y+4023530D01*
X-1788970Y+3867301D01*
X-1584837Y+3867301D01*
X-1584837Y+2374372D01*
X-1603999Y+2355210D01*
X-1603999Y+2144790D01*
X-1553199Y+2093990D01*
X-1553199Y+1888399D01*
X-2007090Y+1888399D01*
X-2057890Y+1939199D01*
X-2268310Y+1939199D01*
X-2319110Y+1888399D01*
X-2378967Y+1888399D01*
X-2832101Y+1435265D01*
X-2832101Y+1617633D01*
X-2453733Y+1996001D01*
X-2260790Y+1996001D01*
X-2112001Y+2144790D01*
X-2112001Y+2355210D01*
X-2162801Y+2406010D01*
X-2162801Y+2413030D01*
X-2108201Y+2467630D01*
X-2108201Y+2688570D01*
X-2264430Y+2844799D01*
X-2485370Y+2844799D01*
X-2641599Y+2688570D01*
X-2641599Y+2467630D01*
X-2619999Y+2446030D01*
X-2619999Y+2404467D01*
X-2746001Y+2278465D01*
X-2746001Y+2405210D01*
X-2796001Y+2455210D01*
X-2796001Y+2837999D01*
X-3303999Y+2837999D01*
X-3303999Y+2503199D01*
X-3544168Y+2503199D01*
X-3762001Y+2285366D01*
X-3762001Y+2405210D01*
X-3910790Y+2553999D01*
X-4121210Y+2553999D01*
X-4156000Y+2519209D01*
X-4190790Y+2553999D01*
X-4401210Y+2553999D01*
X-4423000Y+2532209D01*
X-4444790Y+2553999D01*
X-4655210Y+2553999D01*
X-4677001Y+2532208D01*
X-4698790Y+2553999D01*
X-4909210Y+2553999D01*
X-5057999Y+2405210D01*
X-5057999Y+2333367D01*
X-5067666Y+2323700D01*
X-5067666Y+1390299D01*
X-4902199Y+1224832D01*
X-4902199Y-101599D01*
X-4543199Y-101599D01*
X-4543199Y-809435D01*
X-5076801Y-275833D01*
X-5076801Y+2725833D01*
X-4620311Y+3182323D01*
X-4626169Y+3196465D01*
X-4519999Y+3302635D01*
X-4519999Y+3178790D01*
X-4371210Y+3030001D01*
X-4160790Y+3030001D01*
X-4075200Y+3115591D01*
X-3999710Y+3040101D01*
X-3789290Y+3040101D01*
X-3640501Y+3188890D01*
X-3640501Y+3396801D01*
X-3223970Y+3396801D01*
X-3160470Y+3333301D01*
X-2939530Y+3333301D01*
X-2783301Y+3489530D01*
X-2783301Y+3710470D01*
X-2939530Y+3866699D01*
X-3160470Y+3866699D01*
X-3223970Y+3803199D01*
X-4594167Y+3803199D01*
X-5083199Y+3314168D01*
X-5083199Y+3294167D01*
X-5113401Y+3263965D01*
X-5113401Y+3629399D01*
X-5261392Y+3629399D01*
X-5246001Y+3644790D01*
X-5246001Y+3855210D01*
X-5387592Y+3996801D01*
X-5285083Y+3996801D01*
X-5163708Y+3875426D01*
X-3815832Y+3875426D01*
X-3809332Y+3881926D01*
X-3175095Y+3881926D01*
X-3160470Y+3867301D01*
X-2939530Y+3867301D01*
X-2783301Y+4023530D01*
X-2783301Y+4244470D01*
X-2939530Y+4400699D01*
X-3160470Y+4400699D01*
X-3272845Y+4288324D01*
X-3640501Y+4288324D01*
X-3640501Y+4415310D01*
X-3789290Y+4564099D01*
X-3999710Y+4564099D01*
X-4085300Y+4478509D01*
X-4160790Y+4553999D01*
X-4232633Y+4553999D01*
X-4451124Y+4772490D01*
X-5952776Y+4772490D01*
X-5743602Y+4981664D01*
X-5743602Y+5318336D01*
X-5981664Y+5556398D01*
X-6318336Y+5556398D01*
X-6332455Y+5542279D01*
X-6541437Y+5542279D01*
X-6555557Y+5556399D01*
X-6892229Y+5556399D01*
X-6892230Y+5556398D01*
X-7318336Y+5556399D01*
X-7556399Y+5318336D01*
X-7556399Y+4981664D01*
X-7402703Y+4827968D01*
X-7454799Y+4775872D01*
X-7454799Y+4523368D01*
X-7276252Y+4344821D01*
X-7023748Y+4344821D01*
X-6927092Y+4441477D01*
X-6927092Y+3497190D01*
X-6776702Y+3346801D01*
X-6437999Y+3346801D01*
X-6437999Y+3294790D01*
X-6289210Y+3146001D01*
X-6078790Y+3146001D01*
X-6078599Y+3146192D01*
X-6078599Y+3070601D01*
X-6038608Y+3070601D01*
X-6075000Y+3034209D01*
X-6094790Y+3053999D01*
X-6305210Y+3053999D01*
X-6356010Y+3003199D01*
X-6474167Y+3003199D01*
X-7067079Y+2410287D01*
X-7110790Y+2453999D01*
X-7321210Y+2453999D01*
X-7372011Y+2403198D01*
X-7396001Y+2403198D01*
X-7396001Y+2596801D01*
X-7372010Y+2596801D01*
X-7321210Y+2546001D01*
X-7110790Y+2546001D01*
X-6962001Y+2694790D01*
X-6962001Y+2905210D01*
X-7110790Y+3053999D01*
X-7321210Y+3053999D01*
X-7372011Y+3003198D01*
X-7396001Y+3003198D01*
X-7396001Y+3196801D01*
X-7356010Y+3196801D01*
X-7305210Y+3146001D01*
X-7094790Y+3146001D01*
X-6946001Y+3294790D01*
X-6946001Y+3505210D01*
X-7094790Y+3653999D01*
X-7305210Y+3653999D01*
X-7356010Y+3603199D01*
X-7396001Y+3603199D01*
X-7396001Y+3796801D01*
X-7356010Y+3796801D01*
X-7305210Y+3746001D01*
X-7094790Y+3746001D01*
X-6946001Y+3894790D01*
X-6946001Y+4105210D01*
X-7094790Y+4253999D01*
X-7305210Y+4253999D01*
X-7356010Y+4203199D01*
X-7396001Y+4203199D01*
X-7396001Y+4253999D01*
X-7903999Y+4253999D01*
X-7903999Y-555210D01*
X-7772008Y-687201D01*
X-7801199Y-687201D01*
X-7801199Y-1398399D01*
X-7737699Y-1398399D01*
X-7737699Y-1868299D01*
X-7427508Y-1868299D01*
X-7436010Y-1876801D01*
X-7504167Y-1876801D01*
X-7698867Y-2071501D01*
X-7739699Y-2071501D01*
X-7739699Y-2147701D01*
X-7795067Y-2147701D01*
X-8008510Y-2361144D01*
X-8008510Y-4478856D01*
X-7494167Y-4993199D01*
X-445833Y-4993199D01*
X-159833Y-4707199D01*
X+1470441Y-4707199D01*
X+1470441Y-4986599D01*
X+1759440Y-4986599D01*
X+1759440Y-6488940D01*
X-7287402Y-6488940D01*
X-7150101Y-6351639D01*
X-7150101Y-5962361D01*
X-7425361Y-5687101D01*
X-7814639Y-5687101D01*
X-8051940Y-5924402D01*
X-8051940Y+5736402D01*
X-7814639Y+5499101D01*
X-7425361Y+5499101D01*
X-7150101Y+5774361D01*
X-7150101Y+6163639D01*
X-7364402Y+6377940D01*
X+3503602Y+6377940D01*
X+3289301Y+6163639D01*
G37*
%TD.AperFunction*%
%LPC*%
G36*
X-2628899Y+3848099D02*
X-2120901Y+3848099D01*
X-2120901Y+3340101D01*
X-2628899Y+3340101D01*
X-2628899Y+3848099D01*
G37*
%LPD*%
%TA.AperFunction,Conductor*%
G36*
X+5459440Y-3972634D02*
X+5434406Y-3947600D01*
X+1848714Y-3947600D01*
X+1774913Y-4021401D01*
X+1470441Y-4021401D01*
X+1470441Y-4300801D01*
X-328167Y-4300801D01*
X-614167Y-4586801D01*
X-7325833Y-4586801D01*
X-7602114Y-4310520D01*
X-7602114Y-3582599D01*
X-7220601Y-3582599D01*
X-7220601Y-3577199D01*
X-6980167Y-3577199D01*
X-6853199Y-3704167D01*
X-6853199Y-3709990D01*
X-6903999Y-3760790D01*
X-6903999Y-3971210D01*
X-6755210Y-4119999D01*
X-6544790Y-4119999D01*
X-6396001Y-3971210D01*
X-6396001Y-3760790D01*
X-6446801Y-3709990D01*
X-6446801Y-3535833D01*
X-6811833Y-3170801D01*
X-6913435Y-3170801D01*
X-6800922Y-3058288D01*
X-6755210Y-3103999D01*
X-6544790Y-3103999D01*
X-6396001Y-2955210D01*
X-6396001Y-2744790D01*
X-6510492Y-2630299D01*
X-5682299Y-2630299D01*
X-5682299Y-2858696D01*
X-5743410Y-2858696D01*
X-5892199Y-3007485D01*
X-5892199Y-3217905D01*
X-5779657Y-3330448D01*
X-5805000Y-3355791D01*
X-5874790Y-3286001D01*
X-6085210Y-3286001D01*
X-6233999Y-3434790D01*
X-6233999Y-3645210D01*
X-6085210Y-3793999D01*
X-5874790Y-3793999D01*
X-5805000Y-3724209D01*
X-5735210Y-3793999D01*
X-5524790Y-3793999D01*
X-5386105Y-3655314D01*
X-5238215Y-3803204D01*
X-5027795Y-3803204D01*
X-4958005Y-3733414D01*
X-4888215Y-3803204D01*
X-4677795Y-3803204D01*
X-4529006Y-3654415D01*
X-4529006Y-3443995D01*
X-4677795Y-3295206D01*
X-4888215Y-3295206D01*
X-4958006Y-3364997D01*
X-4990649Y-3332353D01*
X-4876201Y-3217905D01*
X-4876201Y-3031165D01*
X-4233999Y-3673367D01*
X-4233999Y-4337999D01*
X-3726001Y-4337999D01*
X-3726001Y-3889999D01*
X-3436001Y-3889999D01*
X-3436001Y-3879999D01*
X-3096001Y-3879999D01*
X-3096001Y-3372001D01*
X-3603999Y-3372001D01*
X-3603999Y-3382001D01*
X-3943999Y-3382001D01*
X-3943999Y-3388635D01*
X-4239435Y-3093199D01*
X-3435833Y-3093199D01*
X-3146801Y-2804167D01*
X-3146801Y-2783970D01*
X-3083301Y-2720470D01*
X-3083301Y-2499530D01*
X-3123811Y-2459020D01*
X-3096001Y-2431210D01*
X-3096001Y-2283799D01*
X-2456810Y-2283799D01*
X-2406010Y-2334599D01*
X-2195590Y-2334599D01*
X-2161100Y-2300109D01*
X-2126610Y-2334599D01*
X-1916190Y-2334599D01*
X-1872720Y-2291129D01*
X-1841949Y-2321899D01*
X-1642051Y-2321899D01*
X-1500701Y-2180549D01*
X-1500701Y-2083199D01*
X-1436010Y-2083199D01*
X-1385210Y-2133999D01*
X-1174790Y-2133999D01*
X-1026001Y-1985210D01*
X-1026001Y-1774790D01*
X-1070791Y-1730000D01*
X-1026001Y-1685210D01*
X-1026001Y-1474790D01*
X-1174790Y-1326001D01*
X-1385210Y-1326001D01*
X-1436010Y-1376801D01*
X-2462030Y-1376801D01*
X-2571032Y-1267799D01*
X-2456810Y-1267799D01*
X-2406010Y-1318599D01*
X-2195590Y-1318599D01*
X-2161100Y-1284109D01*
X-2126610Y-1318599D01*
X-1916190Y-1318599D01*
X-1872720Y-1275129D01*
X-1841949Y-1305899D01*
X-1642051Y-1305899D01*
X-1500701Y-1164549D01*
X-1500701Y-964651D01*
X-1642051Y-823301D01*
X-1841949Y-823301D01*
X-1872720Y-854072D01*
X-1916190Y-810601D01*
X-2126610Y-810601D01*
X-2161100Y-845091D01*
X-2195590Y-810601D01*
X-2406010Y-810601D01*
X-2439022Y-843613D01*
X-2528635Y-753999D01*
X-2446001Y-753999D01*
X-2446001Y-246001D01*
X-2916801Y-246001D01*
X-2916801Y+775833D01*
X-2737999Y+954635D01*
X-2737999Y+794790D01*
X-2718209Y+775000D01*
X-2737999Y+755210D01*
X-2737999Y+544790D01*
X-2687199Y+493990D01*
X-2687199Y+399833D01*
X-2448567Y+161201D01*
X-1871528Y+161201D01*
X-1858828Y+148501D01*
X-1858299Y+148501D01*
X-1858299Y+147972D01*
X-1731828Y+21501D01*
X-1552972Y+21501D01*
X-1540272Y+34201D01*
X-1337253Y+34201D01*
X-918501Y+452953D01*
X-918501Y+513190D01*
X-867701Y+563990D01*
X-867701Y+709841D01*
X-470870Y+709841D01*
X-441570Y+739141D01*
X-330199Y+739141D01*
X-330199Y+266699D01*
X-460810Y+266699D01*
X-609599Y+117910D01*
X-609599Y-92510D01*
X-460810Y-241299D01*
X-250390Y-241299D01*
X-101601Y-92510D01*
X-101601Y+50801D01*
X+165101Y+50801D01*
X+165101Y-92510D01*
X+313890Y-241299D01*
X+496001Y-241299D01*
X+496001Y-569999D01*
X+1003999Y-569999D01*
X+1003999Y-62001D01*
X+673099Y-62001D01*
X+673099Y+50801D01*
X+1126334Y+50801D01*
X+1407543Y-230408D01*
X+1407543Y-551427D01*
X+2039897Y-1183781D01*
X+1990709Y-1183781D01*
X+1827041Y-1347449D01*
X+1827041Y-1578911D01*
X+1990709Y-1742579D01*
X+2222171Y-1742579D01*
X+2385839Y-1578911D01*
X+2385839Y-1347449D01*
X+2247498Y-1209108D01*
X+2616202Y-1209108D01*
X+2914161Y-1507067D01*
X+2914161Y-1578911D01*
X+3077829Y-1742579D01*
X+3309291Y-1742579D01*
X+3472959Y-1578911D01*
X+3472959Y-1347449D01*
X+3309291Y-1183781D01*
X+3237447Y-1183781D01*
X+2805576Y-751910D01*
X+2254598Y-751910D01*
X+1864739Y-362051D01*
X+1864739Y-41032D01*
X+1518906Y+304801D01*
X+2341913Y+304801D01*
X+2364147Y+282566D01*
X+2142001Y+60420D01*
X+2142001Y-360420D01*
X+2439580Y-657999D01*
X+2860420Y-657999D01*
X+3157999Y-360420D01*
X+3157999Y+60420D01*
X+2878599Y+339820D01*
X+2878599Y+414689D01*
X+2744689Y+548599D01*
X+2744687Y+548599D01*
X+2531287Y+761999D01*
X+1016699Y+761999D01*
X+1016699Y+810470D01*
X+990599Y+836570D01*
X+990599Y+1143001D01*
X+3079189Y+1143001D01*
X+3213099Y+1276911D01*
X+3213099Y+1276913D01*
X+3431868Y+1495682D01*
X+3431868Y+3701698D01*
X+3457718Y+3727548D01*
X+3643601Y+3541665D01*
X+3643601Y+949564D01*
X+4021664Y+571501D01*
X+4557601Y+571501D01*
X+4557601Y+369936D01*
X+4456001Y+268336D01*
X+4456001Y-2509265D01*
X+4274465Y-2690801D01*
X+2912020Y-2690801D01*
X+2860420Y-2639201D01*
X+2439580Y-2639201D01*
X+2142001Y-2936780D01*
X+2142001Y-3174001D01*
X+581367Y-3174001D01*
X+513199Y-3105833D01*
X+513199Y-1875833D01*
X+420565Y-1783199D01*
X+894167Y-1783199D01*
X+1282699Y-1394667D01*
X+1282699Y-1156010D01*
X+1333499Y-1105210D01*
X+1333499Y-894790D01*
X+1184710Y-746001D01*
X+974290Y-746001D01*
X+825501Y-894790D01*
X+825501Y-1105210D01*
X+876301Y-1156010D01*
X+876301Y-1226333D01*
X+725833Y-1376801D01*
X-107990Y-1376801D01*
X-158790Y-1326001D01*
X-369210Y-1326001D01*
X-517999Y-1474790D01*
X-517999Y-1685210D01*
X-473209Y-1730000D01*
X-517999Y-1774790D01*
X-517999Y-1985210D01*
X-369210Y-2133999D01*
X-158790Y-2133999D01*
X-107990Y-2083199D01*
X+106801Y-2083199D01*
X+106801Y-3274167D01*
X+413033Y-3580399D01*
X+2364780Y-3580399D01*
X+2439580Y-3655199D01*
X+2860420Y-3655199D01*
X+3012020Y-3503599D01*
X+4611136Y-3503599D01*
X+5268799Y-2845936D01*
X+5268799Y+268336D01*
X+5167199Y+369936D01*
X+5167199Y+596152D01*
X+5039451Y+723900D01*
X+5167199Y+851648D01*
X+5167199Y+1104152D01*
X+5039451Y+1231900D01*
X+5167199Y+1359648D01*
X+5167199Y+1558423D01*
X+5268799Y+1660023D01*
X+5268799Y+4785936D01*
X+5030735Y+5023999D01*
X+4485035Y+5569699D01*
X+4024437Y+5569699D01*
X+4229099Y+5774361D01*
X+4229099Y+6163639D01*
X+4014798Y+6377940D01*
X+5459440Y+6377940D01*
X+5459440Y-3972634D01*
G37*
%TD.AperFunction*%
%LPC*%
G36*
X-2933999Y-2642001D02*
X-2426001Y-2642001D01*
X-2426001Y-3149999D01*
X-2933999Y-3149999D01*
X-2933999Y-2642001D01*
G37*
%LPD*%
%TA.AperFunction,Conductor*%
G36*
X-1603999Y+4544790D02*
X-1534209Y+4475000D01*
X-1603999Y+4405210D01*
X-1603999Y+4400699D01*
X-1746001Y+4400699D01*
X-1746001Y+4405210D01*
X-1815791Y+4475000D01*
X-1746001Y+4544790D01*
X-1746001Y+4737101D01*
X-1603999Y+4737101D01*
X-1603999Y+4544790D01*
G37*
%TD.AperFunction*%
%TA.AperFunction,Conductor*%
G36*
X+273601Y+4231665D02*
X+273601Y+4231664D01*
X+511664Y+3993601D01*
X+1846391Y+3993601D01*
X+1818641Y+3965851D01*
X+1818641Y+3734389D01*
X+1982309Y+3570721D01*
X+2213771Y+3570721D01*
X+2377439Y+3734389D01*
X+2377439Y+3965851D01*
X+2349689Y+3993601D01*
X+2933511Y+3993601D01*
X+2905761Y+3965851D01*
X+2905761Y+3734389D01*
X+2974670Y+3665480D01*
X+2974670Y+2551449D01*
X+2852020Y+2674099D01*
X+2431180Y+2674099D01*
X+2133601Y+2376520D01*
X+2133601Y+1955680D01*
X+2235081Y+1854199D01*
X+1222810Y+1854199D01*
X+1197410Y+1879599D01*
X+986990Y+1879599D01*
X+961590Y+1854199D01*
X+939799Y+1854199D01*
X+939799Y+1896130D01*
X+1003299Y+1959630D01*
X+1003299Y+2180570D01*
X+847070Y+2336799D01*
X+673099Y+2336799D01*
X+673099Y+2492810D01*
X+524310Y+2641599D01*
X+313890Y+2641599D01*
X+165101Y+2492810D01*
X+165101Y+2282390D01*
X+313890Y+2133601D01*
X+469901Y+2133601D01*
X+469901Y+1959630D01*
X+533401Y+1896130D01*
X+533401Y+1854199D01*
X+228599Y+1854199D01*
X+228599Y+2108199D01*
X-330199Y+2108199D01*
X-330199Y+2082799D01*
X-361027Y+2082799D01*
X-571498Y+1872328D01*
X-571498Y+1788160D01*
X-571499Y+1514910D01*
X-609599Y+1476810D01*
X-609599Y+1380399D01*
X-1591072Y+1380399D01*
X-1603772Y+1393099D01*
X-1782628Y+1393099D01*
X-1909099Y+1266628D01*
X-1909099Y+1266099D01*
X-1909628Y+1266099D01*
X-1922328Y+1253399D01*
X-2417967Y+1253399D01*
X-2517367Y+1153999D01*
X-2538635Y+1153999D01*
X-2261433Y+1431201D01*
X-2057890Y+1431201D01*
X-2007090Y+1482001D01*
X-1277710Y+1482001D01*
X-1226910Y+1431201D01*
X-1016490Y+1431201D01*
X-867701Y+1579990D01*
X-867701Y+1790410D01*
X-1016490Y+1939199D01*
X-1146801Y+1939199D01*
X-1146801Y+2093990D01*
X-1096001Y+2144790D01*
X-1096001Y+2355210D01*
X-1127639Y+2386848D01*
X-1127639Y+3252351D01*
X-961560Y+3252351D01*
X-955210Y+3246001D01*
X-744790Y+3246001D01*
X-596001Y+3394790D01*
X-596001Y+3605210D01*
X-744790Y+3753999D01*
X-955210Y+3753999D01*
X-961560Y+3747649D01*
X-1127639Y+3747649D01*
X-1127639Y+4026835D01*
X-1121401Y+4033073D01*
X-1121401Y+4169390D01*
X-1096001Y+4194790D01*
X-1096001Y+4405210D01*
X-1165791Y+4475000D01*
X-1096001Y+4544790D01*
X-1096001Y+4737101D01*
X-231835Y+4737101D01*
X+273601Y+4231665D01*
G37*
%TD.AperFunction*%
%LPC*%
G36*
X-609599Y+2282390D02*
X-609599Y+2492810D01*
X-460810Y+2641599D01*
X-250390Y+2641599D01*
X-101601Y+2492810D01*
X-101601Y+2282390D01*
X-250390Y+2133601D01*
X-460810Y+2133601D01*
X-609599Y+2282390D01*
G37*
%LPD*%
%TA.AperFunction,Conductor*%
G36*
X-5696799Y+2174165D02*
X-5925833Y+2403199D01*
X-6043990Y+2403199D01*
X-6094790Y+2453999D01*
X-6305210Y+2453999D01*
X-6453999Y+2305210D01*
X-6453999Y+2094790D01*
X-6305210Y+1946001D01*
X-6094790Y+1946001D01*
X-6069079Y+1971712D01*
X-5936299Y+1838933D01*
X-5936299Y-176335D01*
X-5946001Y-166633D01*
X-5946001Y-94790D01*
X-6094790Y+53999D01*
X-6246326Y+53999D01*
X-6246326Y+146001D01*
X-6094790Y+146001D01*
X-5946001Y+294790D01*
X-5946001Y+505210D01*
X-6094790Y+653999D01*
X-6305210Y+653999D01*
X-6356010Y+603199D01*
X-6426801Y+603199D01*
X-6426801Y+685833D01*
X-6335922Y+776712D01*
X-6305210Y+746001D01*
X-6094790Y+746001D01*
X-5946001Y+894790D01*
X-5946001Y+1105210D01*
X-6094790Y+1253999D01*
X-6305210Y+1253999D01*
X-6356010Y+1203199D01*
X-6484167Y+1203199D01*
X-6596801Y+1090565D01*
X-6596801Y+1255833D01*
X-6455833Y+1396801D01*
X-6356010Y+1396801D01*
X-6305210Y+1346001D01*
X-6094790Y+1346001D01*
X-5946001Y+1494790D01*
X-5946001Y+1705210D01*
X-6094790Y+1853999D01*
X-6305210Y+1853999D01*
X-6356010Y+1803199D01*
X-6624167Y+1803199D01*
X-6799901Y+1627465D01*
X-6799901Y+2102733D01*
X-6330922Y+2571712D01*
X-6305210Y+2546001D01*
X-6094790Y+2546001D01*
X-5975000Y+2665791D01*
X-5955210Y+2646001D01*
X-5744790Y+2646001D01*
X-5696799Y+2693992D01*
X-5696799Y+2174165D01*
G37*
%TD.AperFunction*%
%TA.AperFunction,Conductor*%
G36*
X-7321210Y+1946001D02*
X-7206299Y+1946001D01*
X-7206299Y+1853999D01*
X-7321210Y+1853999D01*
X-7372011Y+1803198D01*
X-7396001Y+1803198D01*
X-7396001Y+1996801D01*
X-7372011Y+1996801D01*
X-7321210Y+1946001D01*
G37*
%TD.AperFunction*%
%TA.AperFunction,Conductor*%
G36*
X-7321210Y+1346001D02*
X-7206299Y+1346001D01*
X-7206299Y+1253999D01*
X-7321210Y+1253999D01*
X-7372011Y+1203198D01*
X-7396001Y+1203198D01*
X-7396001Y+1396801D01*
X-7372011Y+1396801D01*
X-7321210Y+1346001D01*
G37*
%TD.AperFunction*%
%TA.AperFunction,Conductor*%
G36*
X+165101Y+1133910D02*
X+165101Y+1015999D01*
X+7966Y+1015999D01*
X-101601Y+1125566D01*
X-101601Y+1133910D01*
X-110693Y+1143001D01*
X+174192Y+1143001D01*
X+165101Y+1133910D01*
G37*
%TD.AperFunction*%
%TA.AperFunction,Conductor*%
G36*
X+313890Y+774701D02*
X+483301Y+774701D01*
X+483301Y+761999D01*
X+228599Y+761999D01*
X+228599Y+859992D01*
X+313890Y+774701D01*
G37*
%TD.AperFunction*%
%TA.AperFunction,Conductor*%
G36*
X-7321210Y+746001D02*
X-7206299Y+746001D01*
X-7206299Y+653999D01*
X-7321210Y+653999D01*
X-7372010Y+603199D01*
X-7396001Y+603199D01*
X-7396001Y+796801D01*
X-7372011Y+796801D01*
X-7321210Y+746001D01*
G37*
%TD.AperFunction*%
%TA.AperFunction,Conductor*%
G36*
X-7321210Y+146001D02*
X-7206299Y+146001D01*
X-7206299Y+53999D01*
X-7321210Y+53999D01*
X-7372010Y+3199D01*
X-7396001Y+3199D01*
X-7396001Y+196801D01*
X-7372010Y+196801D01*
X-7321210Y+146001D01*
G37*
%TD.AperFunction*%
%TA.AperFunction,Conductor*%
G36*
X-7321210Y-453999D02*
X-7206299Y-453999D01*
X-7206299Y-783915D01*
X-7242401Y-747813D01*
X-7242401Y-687201D01*
X-7527992Y-687201D01*
X-7396001Y-555210D01*
X-7396001Y-403199D01*
X-7372010Y-403199D01*
X-7321210Y-453999D01*
G37*
%TD.AperFunction*%
%TA.AperFunction,Conductor*%
G36*
X-5051365Y-876001D02*
X-5235210Y-876001D01*
X-5290401Y-931192D01*
X-5290401Y-636965D01*
X-5051365Y-876001D01*
G37*
%TD.AperFunction*%
%TA.AperFunction,Conductor*%
G36*
X-3323199Y-450000D02*
X-3323199Y-534167D01*
X-2608066Y-1249301D01*
X-2810470Y-1249301D01*
X-2937970Y-1376801D01*
X-3096001Y-1376801D01*
X-3096001Y-1204790D01*
X-3244790Y-1056001D01*
X-3316633Y-1056001D01*
X-3862457Y-510177D01*
X-3862457Y-101599D01*
X-3581401Y-101599D01*
X-3581401Y+396001D01*
X-3394790Y+396001D01*
X-3323199Y+467592D01*
X-3323199Y-450000D01*
G37*
%TD.AperFunction*%
%TA.AperFunction,Conductor*%
G36*
X-4606783Y-1923301D02*
X-4458583Y-2071501D01*
X-5614135Y-2071501D01*
X-5410933Y-1868299D01*
X-4661785Y-1868299D01*
X-4606783Y-1923301D01*
G37*
%TD.AperFunction*%
D10*
X-3771900Y+1651000D02*
X-3860800Y+1651000D01*
X-3771900Y+1651000D02*
X-3517900Y+1651000D01*
X-4622800Y+889000D02*
X-4622800Y+635000D01*
X-3517900Y+1651000D02*
X-3308011Y+1651000D01*
X-3086100Y+1651000D01*
X-3675900Y+1143000D02*
X-3860800Y+1143000D01*
X-3517900Y+1301000D02*
X-3517900Y+1143000D01*
X-3675900Y+1143000D01*
X-3086100Y+1397000D02*
X-3086100Y+1239520D01*
X-3182620Y+1143000D01*
X-3517900Y+1143000D01*
X-2163100Y+669200D02*
X-1947200Y+669200D01*
X-1693200Y+923200D01*
X-368300Y+1358900D02*
X-368300Y+1788160D01*
X-276860Y+1879600D01*
X-50800Y+1879600D01*
X-1121700Y+669200D02*
X-1121700Y+537120D01*
X-1421420Y+237400D01*
X-1642400Y+237400D01*
X+736600Y+2070100D02*
X+736600Y+1638300D01*
X+749300Y+1625600D01*
X+736600Y+1054100D02*
X+444500Y+1054100D01*
X+419100Y+1028700D01*
X-4622800Y+635000D02*
X-4622800Y+596900D01*
X-4622800Y+381000D01*
X-4622800Y+1143000D02*
X-4417061Y+1143000D01*
X-4336300Y+1223761D01*
X-4336300Y+1930400D01*
X-4686300Y+1930400D02*
X-4686300Y+1765300D01*
X-4572000Y+1651000D01*
X-4622800Y+1651000D01*
X-4550000Y+2300000D02*
X-4804000Y+2300000D01*
X-7509100Y-1588900D02*
X-7519800Y-1588900D01*
X-7519800Y-1163097D01*
X-7514274Y-1157571D01*
X-7534500Y-1169800D01*
X-7521800Y-1169800D01*
X-7257100Y-1588900D02*
X-7267800Y-1588900D01*
X-7267800Y-1009780D01*
X-7361780Y-915800D01*
X-7521800Y-915800D01*
X-355600Y+1371600D02*
X-368300Y+1358900D01*
X-441960Y+942340D02*
X-555037Y+942340D01*
X-355600Y+1028700D02*
X-355600Y+942340D01*
X-50800Y+787400D02*
X-205740Y+942340D01*
X-355600Y+942340D01*
X-441960Y+942340D01*
D11*
X-50800Y+1625600D02*
X+749300Y+1625600D01*
X+1092200Y+1625600D01*
X+2451100Y+1625600D01*
X+2512750Y+1687250D01*
X+2641600Y+1816100D01*
D10*
X+2451100Y+1625600D02*
X+2512750Y+1687250D01*
X+2641600Y+1816100D01*
X+2641600Y+2015458D02*
X+2656324Y+2030182D01*
X+2641600Y+2066100D01*
D11*
X-50800Y+1371600D02*
X+419100Y+1371600D01*
X+2984500Y+1371600D01*
X+3156450Y+1543550D01*
X+3185160Y+1572260D01*
D10*
X+3156450Y+1543550D01*
X+2984500Y+1371600D01*
D11*
X+2641600Y+5049288D02*
X+2607576Y+5083312D01*
X+2641600Y+5063300D01*
X+2641600Y+1950000D02*
X+2641600Y+2015458D01*
X+2641600Y+2066100D01*
X+2641600Y+2116100D01*
X+2641600Y+2166100D01*
X+2641600Y+1816100D02*
X+2641600Y+1950000D01*
X+3185160Y+1572260D02*
X+3203269Y+1590369D01*
X+3203269Y+3722689D01*
X+3203269Y+3832011D01*
X+3185160Y+3850120D01*
X+2641600Y+5049288D02*
X+2641600Y+5063300D01*
X+2641600Y+5113300D01*
X+2641600Y+5163300D01*
X+750000Y+700000D02*
X+750000Y+533400D01*
X-50800Y+533400D02*
X+750000Y+533400D01*
X+419100Y+12700D02*
X+419100Y+274313D01*
X+414013Y+279400D01*
X-50800Y+279400D02*
X+414013Y+279400D01*
X+1221021Y+279400D01*
X+1636141Y-135720D01*
X+1636141Y-456739D01*
X+2159911Y-980509D01*
X+2710889Y-980509D01*
X+3193560Y-1463180D01*
X+750000Y+533400D02*
X+2436600Y+533400D01*
X+2650000Y+320000D01*
X+2650000Y-150000D01*
D10*
X+2700000Y-3097200D02*
X+2650000Y-3097200D01*
X-4336300Y+1930400D02*
X-3829601Y+1930400D01*
X-3460001Y+2300000D01*
X-3000000Y+2300000D01*
D11*
X-6150000Y+5150000D02*
X-6650000Y+5150000D01*
D10*
X-5225100Y-1588900D02*
X-5238700Y-1588900D01*
X-5238700Y-1329300D01*
X-5142700Y-1233300D01*
X-5142700Y-1130000D01*
X-5130000Y-1130000D01*
X-4296000Y+2300000D02*
X-4017300Y+2300000D01*
X-4016000Y+2298700D01*
X-4016000Y+2300000D01*
X-4622800Y+1397000D02*
X-4787001Y+1397000D01*
X-4864467Y+1474466D01*
X-4864467Y+2239533D01*
X-4804000Y+2300000D01*
X-4880000Y+3230000D02*
X-4824000Y+3286000D01*
X-5850000Y+2900000D02*
X-5850000Y+3072469D01*
X-5811130Y+3111339D01*
X-5768469Y+3154000D01*
X-5642000Y+3154000D01*
X-5596000Y+3200000D01*
X-5596000Y+3350000D01*
X-5596000Y+3654000D01*
X-5500000Y+3750000D01*
D11*
X-6650000Y+5150000D02*
X-6723893Y+5150000D01*
D10*
X-5342000Y+3350000D02*
X-5342000Y+3071600D01*
X-5412000Y+3001600D01*
X-5500000Y+2900000D01*
X-5777000Y+4327000D02*
X-5777000Y+4567030D01*
X-5774739Y+4569291D01*
X-4535291Y+4569291D01*
X-4266000Y+4300000D01*
X-5777000Y+4073000D02*
X-5850000Y+4000000D01*
X-5850000Y+3851600D01*
X-5850000Y+3750000D01*
X-4200000Y+4078625D02*
X-4125975Y+4078625D01*
X-5650000Y+4200000D02*
X-5200916Y+4200000D01*
X-5079541Y+4078625D01*
X-4200000Y+4078625D01*
X-4125975Y+4078625D02*
X-3900000Y+4078625D01*
X-4266000Y+3284000D02*
X-4266000Y+3596844D01*
X-4269156Y+3600000D01*
X-4824000Y+3286000D02*
X-4510000Y+3600000D01*
X-4269156Y+3600000D01*
X-5500000Y+3750000D02*
X-5046922Y+3750000D01*
X-4986470Y+3810452D01*
X-3542044Y+3810452D01*
X-3483682Y+3868814D01*
X-2722379Y+3868814D01*
X-5850000Y+3350000D02*
X-5850000Y+3550000D01*
X-5850000Y+3750000D01*
X-5248656Y-1748656D02*
X-5248656Y-1612456D01*
X-5225100Y-1588900D01*
X-5733100Y-2350900D02*
X-5733100Y-2233100D01*
X-5580000Y-2080000D01*
X-5248656Y-1748656D02*
X-5225100Y-1725100D01*
X-5225100Y-1588900D01*
X+2995840Y-5350000D02*
X+2589840Y-5350000D01*
X+2511840Y-5272000D01*
X+2511840Y-4758000D01*
X+4861840Y-4700000D02*
X+4861840Y-4500000D01*
X+2515840Y-4500000D01*
X+2511840Y-4504000D01*
X+4027840Y-6300000D02*
X+4857841Y-5469999D01*
X+4857841Y-5200380D01*
X+4861840Y-5200380D01*
X+2995840Y-4850000D02*
X+3271840Y-4850000D01*
X+3381840Y-4960000D01*
X+3381840Y-5670000D01*
X+3251840Y-5800000D01*
X+2995840Y-5800000D01*
X+4011840Y-4850000D02*
X+3876694Y-4850000D01*
X+3661840Y-5064854D01*
X+3661840Y-5980839D01*
X+3336520Y-6306159D01*
X+3017999Y-6306159D01*
X+3011840Y-6300000D01*
X+4011840Y-5800000D02*
X+4019794Y-5792046D01*
X+4019794Y-5451600D01*
X+4011840Y-5350000D01*
D12*
X-6723893Y+5135880D02*
X-6164120Y+5135880D01*
X-6150000Y+5150000D01*
X+4862400Y+4617600D02*
X+4430712Y+5049288D01*
X+4316700Y+5163300D01*
X+2641600Y+5163300D01*
X+4400000Y+977900D02*
X+4190000Y+977900D01*
X+4050000Y+1117900D01*
X+4050000Y+3710000D01*
X+3360000Y+4400000D01*
X+1200000Y+4400000D01*
X+680000Y+4400000D01*
X-63500Y+5143500D01*
X-1672000Y+5143500D01*
X-2006200Y+5143500D01*
X-3050000Y+5150000D02*
X-3062700Y+5150000D01*
D11*
X-3056200Y+5156500D02*
X-3062700Y+5150000D01*
X-3075400Y+5137300D01*
X-3050000Y+5150000D01*
X-2000000Y+4650000D02*
X-2000000Y+5137300D01*
X-2006200Y+5143500D01*
X-2012700Y+5150000D01*
X+4862400Y+977900D02*
X+4400000Y+977900D01*
X+3360000Y+4400000D02*
X+1200000Y+4400000D01*
X+680000Y+4400000D01*
X-1672000Y+5143500D02*
X-1678500Y+5150000D01*
X+4862400Y+1485900D02*
X+4862400Y+1828359D01*
D12*
X+4862400Y+4617600D01*
X+4862400Y+100000D02*
X+4862400Y-2677600D01*
X+4442800Y-3097200D01*
X+2713500Y-3097200D01*
X+2700000Y-3097200D01*
X+2650000Y-3147200D01*
D11*
X+4862400Y+469900D02*
X+4862400Y+100000D01*
X-1350000Y+4300000D02*
X-1350000Y+4127762D01*
D12*
X+2106440Y-1463180D02*
X+2106440Y-1736658D01*
X+2065489Y-1777609D01*
D10*
X-3900000Y+4078625D02*
X-3900000Y+4085125D01*
X-3894500Y+4085125D01*
X-3098875Y+4085125D01*
X-3050000Y+4134000D01*
X-3894500Y+4310100D02*
X-3894500Y+4085125D01*
X-3894500Y+4084125D01*
X-3900000Y+4078625D01*
D12*
X-2006200Y+5143500D02*
X-2006200Y+5150000D01*
X-2012700Y+5150000D01*
X-2019300Y+5150000D01*
X-2378500Y+5150000D01*
X-2901800Y+5150000D01*
X-3050000Y+5150000D01*
D11*
X-2006200Y+5150000D02*
X-1678500Y+5150000D01*
D12*
X-3062700Y+5150000D02*
X-3543500Y+5150000D01*
X-3550000Y+5156500D01*
X-3550000Y+5150000D01*
D11*
X-3543500Y+5150000D01*
X-3062700Y+5150000D02*
X-3050000Y+5150000D01*
D10*
X-4269156Y+3600000D02*
X-3050000Y+3600000D01*
D12*
X-7669500Y+5919500D02*
X-6832782Y+5919500D01*
X-6800781Y+5887499D01*
D11*
X-6723893Y+5150000D02*
X-6723893Y+5164120D01*
X-7135880Y+5164120D01*
X-7150000Y+5150000D01*
D12*
X-6723893Y+5150000D01*
X-6723893Y+5135880D01*
X-7620000Y+5969000D02*
X-7669500Y+5919500D01*
X-7731201Y+5857799D01*
X-7731201Y+5239278D01*
D11*
X-1678500Y+4134000D02*
X-1356238Y+4134000D01*
X-1350000Y+4127762D01*
X-1104000Y+3500000D02*
X-1356238Y+3500000D01*
D10*
X-3860800Y+889000D02*
X-3860800Y+900000D01*
X-3500000Y+900000D01*
X-3860800Y+635000D02*
X-3860800Y+650000D01*
X-3500000Y+650000D01*
X-368300Y+1358900D02*
X-368300Y+1329600D01*
X-520700Y+1177200D01*
X-1693200Y+1177200D01*
X-555037Y+942340D02*
X-555037Y+913040D01*
X-1220760Y+913040D01*
X-1642400Y+491400D01*
D11*
X-2391400Y+2250000D02*
X-2391400Y+2578100D01*
X-2374900Y+2578100D01*
D10*
X-2366000Y+2250000D02*
X-2391400Y+2250000D01*
X-2487100Y+2250000D01*
X-3086100Y+1651000D01*
X-1350000Y+2250000D02*
X-1350000Y+1709896D01*
X-1374696Y+1685200D01*
X-1121700Y+1685200D02*
X-1374696Y+1685200D01*
X-2163100Y+1685200D01*
X-2484000Y+650000D02*
X-2484000Y+484000D01*
X-2364400Y+364400D01*
X-1769400Y+364400D01*
X-2484000Y+900000D02*
X-2333800Y+1050200D01*
X-1820200Y+1050200D01*
X-3860800Y+381000D02*
X-3860800Y+93197D01*
X-3860163Y+92560D01*
X-3860800Y+127000D01*
X-5492700Y-1588900D02*
X-5479100Y-1588900D01*
X-5492700Y-1588900D02*
X-5492700Y-1130000D01*
X-5480000Y-1130000D01*
X-6014000Y-1880000D02*
X-5710000Y-1880000D01*
X-5492700Y-1662700D01*
X-5492700Y-1588900D01*
X-7280000Y-2080000D02*
X-7420000Y-2080000D01*
X-7511100Y-2171100D01*
X-7511100Y-2350900D01*
X-6014000Y-1880000D02*
X-6180000Y-1880000D01*
X-6264000Y-1964000D01*
X-6264000Y-2080000D01*
X-1280000Y-1880000D02*
X-2680000Y-1880000D01*
X-2680131Y-1880131D01*
X-2680000Y-1880000D01*
X-4463100Y-1588900D02*
X-4463100Y-1779618D01*
X-4362587Y-1880131D01*
X-2680131Y-1880131D01*
X-5580000Y-2080000D02*
X-5345655Y-2080000D01*
X-5248656Y-1983001D01*
X-5248656Y-1980000D01*
X-5248656Y-1748656D01*
X-4880000Y+3230000D02*
X-4860000Y+3230000D01*
X-5280000Y+2810000D01*
X-5280000Y-360000D01*
X-4717100Y-922900D01*
X-4717100Y-1588900D01*
X-5500000Y+2900000D02*
X-5493600Y+2900000D01*
X-5493600Y-1116400D01*
X-5480000Y-1130000D01*
X+2650000Y-3147200D02*
X+2650000Y-3377200D01*
X+497200Y-3377200D01*
X+310000Y-3190000D01*
X+310000Y-1960000D01*
X+230000Y-1880000D01*
X-264000Y-1880000D01*
X+1749840Y-4504000D02*
X-244000Y-4504000D01*
X-530000Y-4790000D01*
X-7410000Y-4790000D01*
X-7805312Y-4394688D01*
X-7805312Y-2445312D01*
X-7710900Y-2350900D01*
X-7511100Y-2350900D01*
X-2680000Y-1550000D02*
X-2680000Y-1580000D01*
X-2700000Y-1516000D01*
X-2680000Y-1496000D02*
X-2680000Y-1550000D01*
X-6670000Y+3550000D02*
X-6723893Y+3603893D01*
X-6723893Y+3581358D01*
X-6670000Y+3550000D02*
X-6692535Y+3550000D01*
X-6723893Y+3581358D01*
X-6723893Y+3603893D02*
X-6723893Y+5135880D01*
X-6184000Y+4000000D02*
X-6184000Y+4319291D01*
X-5934000Y+4569291D01*
X-5950000Y+4569291D01*
X-5934000Y+4569291D02*
X-5774739Y+4569291D01*
X-6184000Y+3400000D02*
X-6184000Y+3548113D01*
X-6182113Y+3550000D01*
X-5850000Y+3550000D02*
X-6182113Y+3550000D01*
X-6670000Y+3550000D01*
X-7200000Y+4000000D02*
X-7650000Y+4000000D01*
X-7200000Y+3400000D02*
X-7650000Y+3400000D01*
X-7216000Y+2800000D02*
X-7650000Y+2800000D01*
X-7216000Y+2200000D02*
X-7650000Y+2200000D01*
X-7216000Y+1600000D02*
X-7650000Y+1600000D01*
X-7216000Y+1000000D02*
X-7650000Y+1000000D01*
X-7216000Y+400000D02*
X-7646000Y+400000D01*
X-7650000Y+404000D01*
X-7650000Y-196000D02*
X-7646000Y-200000D01*
X-7216000Y-200000D01*
X-5733100Y-1588900D02*
X-5733100Y+1923100D01*
X-6010000Y+2200000D01*
X-6200000Y+2200000D01*
X-6200000Y-200000D02*
X-5984939Y-415061D01*
X-5984939Y-1461900D01*
X-5987100Y-1588900D01*
X-6241100Y-1588900D02*
X-6241100Y-498901D01*
X-6449525Y-290476D01*
X-6449525Y+300475D01*
X-6350000Y+400000D01*
X-6200000Y+400000D01*
X-6495100Y-1588900D02*
X-6495100Y-594900D01*
X-6630000Y-460000D01*
X-6630000Y+770000D01*
X-6400000Y+1000000D01*
X-6200000Y+1000000D01*
X-6749100Y-1588900D02*
X-6749100Y-700900D01*
X-6800000Y-650000D01*
X-6800000Y+1340000D01*
X-6540000Y+1600000D01*
X-6200000Y+1600000D01*
X-7003100Y-1588900D02*
X-7003100Y+2186900D01*
X-6390000Y+2800000D01*
X-6200000Y+2800000D01*
X-7030000Y-2324000D02*
X-7003100Y-2350900D01*
X-7030000Y-1880000D02*
X-7030000Y-2324000D01*
X-7500000Y-3354000D02*
X-7500000Y-3374000D01*
X-6896000Y-3374000D01*
X-6650000Y-3620000D01*
X-6650000Y-3866000D01*
X-7003100Y-2350900D02*
X-7003100Y-2973100D01*
X-7130000Y-3100000D01*
X-7500000Y-3100000D01*
X+1079500Y-1000000D02*
X+1079500Y-1310500D01*
X+810000Y-1580000D01*
X-264000Y-1580000D01*
D11*
X-1356238Y+3530000D02*
X-1356238Y+3500000D01*
X-1356238Y+2256238D01*
X-1350000Y+2250000D01*
X-1356238Y+4134000D02*
X-1356238Y+3530000D01*
D10*
X-3860800Y+1651000D02*
X-4088016Y+1651000D01*
X-4160520Y+1578496D01*
X-4160520Y+1120000D01*
X-4540000Y+900526D02*
X-4592982Y+900526D01*
X-4622800Y+889000D01*
X-4160520Y+1120000D02*
X-4379994Y+900526D01*
X-4540000Y+900526D01*
X-2600000Y-1580000D02*
X-2680000Y-1580000D01*
X-4200200Y-1580000D01*
X-4209100Y-1588900D01*
X-1280000Y-1580000D02*
X-2600000Y-1580000D01*
X-3690000Y-2460000D02*
X-3690000Y-2386345D01*
X-3725658Y-2350687D01*
X-3700000Y-2326000D01*
X-3690000Y-2460000D02*
X-3690000Y-2610000D01*
X-3770000Y-2690000D01*
X-4340000Y-2690000D01*
X-4463100Y-2566900D01*
X-4463100Y-2350900D01*
X-3690000Y-2620000D02*
X-3690000Y-2610000D01*
X-3350000Y-2326000D02*
X-3350000Y-2560000D01*
X-6650000Y-2850000D02*
X-6500000Y-2700000D01*
X-6290000Y-2700000D01*
X-3980000Y-3830000D02*
X-3980000Y-3640000D01*
X-4971100Y-2648900D01*
X-4971100Y-2350900D01*
X-3350000Y-2560000D02*
X-3350000Y-2610000D01*
X-3350000Y-2720000D01*
X-3520000Y-2890000D01*
X-4440000Y-2890000D01*
X-4717100Y-2612900D01*
X-4717100Y-2350900D01*
X-5225100Y-2960000D02*
X-5225100Y-3017795D01*
X-5225100Y-3457110D01*
X-5133005Y-3549205D01*
X-5225100Y-2350900D02*
X-5225100Y-2960000D01*
X-5225100Y-3017795D02*
X-5130200Y-3112695D01*
X-5479100Y-2870000D02*
X-5479100Y-2953595D01*
X-5479100Y-3389100D01*
X-5630000Y-3540000D01*
X-5479100Y-2350900D02*
X-5479100Y-2870000D01*
X-5479100Y-2953595D02*
X-5638200Y-3112695D01*
X-2000000Y+4300000D02*
X-1982274Y+4300000D01*
X-1736606Y+4545668D01*
X-1732421Y+4545668D01*
X-1454332Y+4545668D01*
X-1350000Y+4650000D01*
X-3086100Y+1397000D02*
X-2977833Y+1397000D01*
X-2785999Y+1588834D01*
X-3700000Y-1310000D02*
X-3840000Y-1310000D01*
X-4340000Y-810000D01*
X-4340000Y+649999D01*
X-4100999Y+889000D01*
X-3860800Y+889000D01*
X-3860800Y+635000D02*
X-3897505Y+635000D01*
X-4065656Y+466849D01*
X-4065656Y-594344D01*
X-3350000Y-1310000D01*
X-2700000Y-500000D02*
X-2700000Y+465539D01*
X-2880571Y+646110D01*
X-2880571Y+804325D01*
X-2405925Y+1278971D01*
X-2021400Y-2080600D02*
X-2300800Y-2080600D01*
X-3938800Y-2080600D01*
X-4209100Y-2350900D01*
X-2021400Y-1064600D02*
X-1742000Y-1064600D01*
X-2710000Y-860000D02*
X-2505400Y-1064600D01*
X-2300800Y-1064600D01*
X-2710000Y-860000D02*
X-3120000Y-450000D01*
X-3120000Y+860000D01*
X-2294800Y+1685200D01*
X-2163100Y+1685200D01*
X-2700000Y-500000D02*
X-1566622Y-500000D01*
X-1124166Y-942456D01*
X-1521842Y-1340132D01*
X-1643712Y-1340132D01*
X-2531113Y-1340132D01*
X-3042693Y-828552D01*
D13*
X+1092200Y+1625600D03*
X+1079500Y-1000000D03*
D11*
X-8051940Y+6201598D02*
X-8051940Y+6377940D01*
X-7875598Y+6377940D01*
X-8051940Y+6201598D01*
X+3289301Y+6163639D02*
X+3289301Y+5774361D01*
X+3493963Y+5569699D01*
X+2953620Y+5569699D01*
X+2852020Y+5671299D01*
X+2431180Y+5671299D01*
X+2133601Y+5373720D01*
X+2133601Y+4952880D01*
X+2280082Y+4806399D01*
X+848335Y+4806399D01*
X+104836Y+5549899D01*
X-1831364Y+5549899D01*
X-1837864Y+5556399D01*
X-3375165Y+5556399D01*
X-3454646Y+5635880D01*
X-3646530Y+5556399D01*
X-3711836Y+5556399D01*
X-3758016Y+5510219D01*
X-3956399Y+5428046D01*
X-3956399Y+4981664D01*
X-3718336Y+4743601D01*
X-2253999Y+4743601D01*
X-2253999Y+4544790D01*
X-2184209Y+4475000D01*
X-2253999Y+4405210D01*
X-2253999Y+4381649D01*
X-2626149Y+4381649D01*
X-2626149Y+3886351D01*
X-2130851Y+3886351D01*
X-2130851Y+4071642D01*
X-2105210Y+4046001D01*
X-1945199Y+4046001D01*
X-1945199Y+4023530D01*
X-1788970Y+3867301D01*
X-1584837Y+3867301D01*
X-1584837Y+2374372D01*
X-1603999Y+2355210D01*
X-1603999Y+2144790D01*
X-1553199Y+2093990D01*
X-1553199Y+1888399D01*
X-2007090Y+1888399D01*
X-2057890Y+1939199D01*
X-2268310Y+1939199D01*
X-2319110Y+1888399D01*
X-2378967Y+1888399D01*
X-2832101Y+1435265D01*
X-2832101Y+1617633D01*
X-2453733Y+1996001D01*
X-2260790Y+1996001D01*
X-2112001Y+2144790D01*
X-2112001Y+2355210D01*
X-2162801Y+2406010D01*
X-2162801Y+2413030D01*
X-2108201Y+2467630D01*
X-2108201Y+2688570D01*
X-2264430Y+2844799D01*
X-2485370Y+2844799D01*
X-2641599Y+2688570D01*
X-2641599Y+2467630D01*
X-2619999Y+2446030D01*
X-2619999Y+2404467D01*
X-2746001Y+2278465D01*
X-2746001Y+2405210D01*
X-2796001Y+2455210D01*
X-2796001Y+2837999D01*
X-3303999Y+2837999D01*
X-3303999Y+2503199D01*
X-3544168Y+2503199D01*
X-3762001Y+2285366D01*
X-3762001Y+2405210D01*
X-3910790Y+2553999D01*
X-4121210Y+2553999D01*
X-4156000Y+2519209D01*
X-4190790Y+2553999D01*
X-4401210Y+2553999D01*
X-4423000Y+2532209D01*
X-4444790Y+2553999D01*
X-4655210Y+2553999D01*
X-4677001Y+2532208D01*
X-4698790Y+2553999D01*
X-4909210Y+2553999D01*
X-5057999Y+2405210D01*
X-5057999Y+2333367D01*
X-5067666Y+2323700D01*
X-5067666Y+1390299D01*
X-4902199Y+1224832D01*
X-4902199Y-101599D01*
X-4543199Y-101599D01*
X-4543199Y-809435D01*
X-5076801Y-275833D01*
X-5076801Y+2725833D01*
X-4620311Y+3182323D01*
X-4626169Y+3196465D01*
X-4519999Y+3302635D01*
X-4519999Y+3178790D01*
X-4371210Y+3030001D01*
X-4160790Y+3030001D01*
X-4075200Y+3115591D01*
X-3999710Y+3040101D01*
X-3789290Y+3040101D01*
X-3640501Y+3188890D01*
X-3640501Y+3396801D01*
X-3223970Y+3396801D01*
X-3160470Y+3333301D01*
X-2939530Y+3333301D01*
X-2783301Y+3489530D01*
X-2783301Y+3710470D01*
X-2939530Y+3866699D01*
X-3160470Y+3866699D01*
X-3223970Y+3803199D01*
X-4594167Y+3803199D01*
X-5083199Y+3314168D01*
X-5083199Y+3294167D01*
X-5113401Y+3263965D01*
X-5113401Y+3629399D01*
X-5261392Y+3629399D01*
X-5246001Y+3644790D01*
X-5246001Y+3855210D01*
X-5387592Y+3996801D01*
X-5285083Y+3996801D01*
X-5163708Y+3875426D01*
X-3815832Y+3875426D01*
X-3809332Y+3881926D01*
X-3175095Y+3881926D01*
X-3160470Y+3867301D01*
X-2939530Y+3867301D01*
X-2783301Y+4023530D01*
X-2783301Y+4244470D01*
X-2939530Y+4400699D01*
X-3160470Y+4400699D01*
X-3272845Y+4288324D01*
X-3640501Y+4288324D01*
X-3640501Y+4415310D01*
X-3789290Y+4564099D01*
X-3999710Y+4564099D01*
X-4085300Y+4478509D01*
X-4160790Y+4553999D01*
X-4232633Y+4553999D01*
X-4451124Y+4772490D01*
X-5952776Y+4772490D01*
X-5743602Y+4981664D01*
X-5743602Y+5318336D01*
X-5981664Y+5556398D01*
X-6318336Y+5556398D01*
X-6332455Y+5542279D01*
X-6541437Y+5542279D01*
X-6555557Y+5556399D01*
X-6892229Y+5556399D01*
X-6892230Y+5556398D01*
X-7318336Y+5556399D01*
X-7556399Y+5318336D01*
X-7556399Y+4981664D01*
X-7402703Y+4827968D01*
X-7454799Y+4775872D01*
X-7454799Y+4523368D01*
X-7276252Y+4344821D01*
X-7023748Y+4344821D01*
X-6927092Y+4441477D01*
X-6927092Y+3497190D01*
X-6776702Y+3346801D01*
X-6437999Y+3346801D01*
X-6437999Y+3294790D01*
X-6289210Y+3146001D01*
X-6078790Y+3146001D01*
X-6078599Y+3146192D01*
X-6078599Y+3070601D01*
X-6038608Y+3070601D01*
X-6075000Y+3034209D01*
X-6094790Y+3053999D01*
X-6305210Y+3053999D01*
X-6356010Y+3003199D01*
X-6474167Y+3003199D01*
X-7067079Y+2410287D01*
X-7110790Y+2453999D01*
X-7321210Y+2453999D01*
X-7372011Y+2403198D01*
X-7396001Y+2403198D01*
X-7396001Y+2596801D01*
X-7372010Y+2596801D01*
X-7321210Y+2546001D01*
X-7110790Y+2546001D01*
X-6962001Y+2694790D01*
X-6962001Y+2905210D01*
X-7110790Y+3053999D01*
X-7321210Y+3053999D01*
X-7372011Y+3003198D01*
X-7396001Y+3003198D01*
X-7396001Y+3196801D01*
X-7356010Y+3196801D01*
X-7305210Y+3146001D01*
X-7094790Y+3146001D01*
X-6946001Y+3294790D01*
X-6946001Y+3505210D01*
X-7094790Y+3653999D01*
X-7305210Y+3653999D01*
X-7356010Y+3603199D01*
X-7396001Y+3603199D01*
X-7396001Y+3796801D01*
X-7356010Y+3796801D01*
X-7305210Y+3746001D01*
X-7094790Y+3746001D01*
X-6946001Y+3894790D01*
X-6946001Y+4105210D01*
X-7094790Y+4253999D01*
X-7305210Y+4253999D01*
X-7356010Y+4203199D01*
X-7396001Y+4203199D01*
X-7396001Y+4253999D01*
X-7903999Y+4253999D01*
X-7903999Y-555210D01*
X-7772008Y-687201D01*
X-7801199Y-687201D01*
X-7801199Y-1398399D01*
X-7737699Y-1398399D01*
X-7737699Y-1868299D01*
X-7427508Y-1868299D01*
X-7436010Y-1876801D01*
X-7504167Y-1876801D01*
X-7698867Y-2071501D01*
X-7739699Y-2071501D01*
X-7739699Y-2147701D01*
X-7795067Y-2147701D01*
X-8008510Y-2361144D01*
X-8008510Y-4478856D01*
X-7494167Y-4993199D01*
X-445833Y-4993199D01*
X-159833Y-4707199D01*
X+1470441Y-4707199D01*
X+1470441Y-4986599D01*
X+1759440Y-4986599D01*
X+1759440Y-6488940D01*
X-7287402Y-6488940D01*
X-7150101Y-6351639D01*
X-7150101Y-5962361D01*
X-7425361Y-5687101D01*
X-7814639Y-5687101D01*
X-8051940Y-5924402D01*
X-8051940Y+5736402D01*
X-7814639Y+5499101D01*
X-7425361Y+5499101D01*
X-7150101Y+5774361D01*
X-7150101Y+6163639D01*
X-7364402Y+6377940D01*
X+3503602Y+6377940D01*
X+3289301Y+6163639D01*
X-2628899Y+3848099D02*
X-2120901Y+3848099D01*
X-2120901Y+3340101D01*
X-2628899Y+3340101D01*
X-2628899Y+3848099D01*
X+5459440Y-3972634D02*
X+5434406Y-3947600D01*
X+1848714Y-3947600D01*
X+1774913Y-4021401D01*
X+1470441Y-4021401D01*
X+1470441Y-4300801D01*
X-328167Y-4300801D01*
X-614167Y-4586801D01*
X-7325833Y-4586801D01*
X-7602114Y-4310520D01*
X-7602114Y-3582599D01*
X-7220601Y-3582599D01*
X-7220601Y-3577199D01*
X-6980167Y-3577199D01*
X-6853199Y-3704167D01*
X-6853199Y-3709990D01*
X-6903999Y-3760790D01*
X-6903999Y-3971210D01*
X-6755210Y-4119999D01*
X-6544790Y-4119999D01*
X-6396001Y-3971210D01*
X-6396001Y-3760790D01*
X-6446801Y-3709990D01*
X-6446801Y-3535833D01*
X-6811833Y-3170801D01*
X-6913435Y-3170801D01*
X-6800922Y-3058288D01*
X-6755210Y-3103999D01*
X-6544790Y-3103999D01*
X-6396001Y-2955210D01*
X-6396001Y-2744790D01*
X-6510492Y-2630299D01*
X-5682299Y-2630299D01*
X-5682299Y-2858696D01*
X-5743410Y-2858696D01*
X-5892199Y-3007485D01*
X-5892199Y-3217905D01*
X-5779657Y-3330448D01*
X-5805000Y-3355791D01*
X-5874790Y-3286001D01*
X-6085210Y-3286001D01*
X-6233999Y-3434790D01*
X-6233999Y-3645210D01*
X-6085210Y-3793999D01*
X-5874790Y-3793999D01*
X-5805000Y-3724209D01*
X-5735210Y-3793999D01*
X-5524790Y-3793999D01*
X-5386105Y-3655314D01*
X-5238215Y-3803204D01*
X-5027795Y-3803204D01*
X-4958005Y-3733414D01*
X-4888215Y-3803204D01*
X-4677795Y-3803204D01*
X-4529006Y-3654415D01*
X-4529006Y-3443995D01*
X-4677795Y-3295206D01*
X-4888215Y-3295206D01*
X-4958006Y-3364997D01*
X-4990649Y-3332353D01*
X-4876201Y-3217905D01*
X-4876201Y-3031165D01*
X-4233999Y-3673367D01*
X-4233999Y-4337999D01*
X-3726001Y-4337999D01*
X-3726001Y-3889999D01*
X-3436001Y-3889999D01*
X-3436001Y-3879999D01*
X-3096001Y-3879999D01*
X-3096001Y-3372001D01*
X-3603999Y-3372001D01*
X-3603999Y-3382001D01*
X-3943999Y-3382001D01*
X-3943999Y-3388635D01*
X-4239435Y-3093199D01*
X-3435833Y-3093199D01*
X-3146801Y-2804167D01*
X-3146801Y-2783970D01*
X-3083301Y-2720470D01*
X-3083301Y-2499530D01*
X-3123811Y-2459020D01*
X-3096001Y-2431210D01*
X-3096001Y-2283799D01*
X-2456810Y-2283799D01*
X-2406010Y-2334599D01*
X-2195590Y-2334599D01*
X-2161100Y-2300109D01*
X-2126610Y-2334599D01*
X-1916190Y-2334599D01*
X-1872720Y-2291129D01*
X-1841949Y-2321899D01*
X-1642051Y-2321899D01*
X-1500701Y-2180549D01*
X-1500701Y-2083199D01*
X-1436010Y-2083199D01*
X-1385210Y-2133999D01*
X-1174790Y-2133999D01*
X-1026001Y-1985210D01*
X-1026001Y-1774790D01*
X-1070791Y-1730000D01*
X-1026001Y-1685210D01*
X-1026001Y-1474790D01*
X-1174790Y-1326001D01*
X-1385210Y-1326001D01*
X-1436010Y-1376801D01*
X-2462030Y-1376801D01*
X-2571032Y-1267799D01*
X-2456810Y-1267799D01*
X-2406010Y-1318599D01*
X-2195590Y-1318599D01*
X-2161100Y-1284109D01*
X-2126610Y-1318599D01*
X-1916190Y-1318599D01*
X-1872720Y-1275129D01*
X-1841949Y-1305899D01*
X-1642051Y-1305899D01*
X-1500701Y-1164549D01*
X-1500701Y-964651D01*
X-1642051Y-823301D01*
X-1841949Y-823301D01*
X-1872720Y-854072D01*
X-1916190Y-810601D01*
X-2126610Y-810601D01*
X-2161100Y-845091D01*
X-2195590Y-810601D01*
X-2406010Y-810601D01*
X-2439022Y-843613D01*
X-2528635Y-753999D01*
X-2446001Y-753999D01*
X-2446001Y-246001D01*
X-2916801Y-246001D01*
X-2916801Y+775833D01*
X-2737999Y+954635D01*
X-2737999Y+794790D01*
X-2718209Y+775000D01*
X-2737999Y+755210D01*
X-2737999Y+544790D01*
X-2687199Y+493990D01*
X-2687199Y+399833D01*
X-2448567Y+161201D01*
X-1871528Y+161201D01*
X-1858828Y+148501D01*
X-1858299Y+148501D01*
X-1858299Y+147972D01*
X-1731828Y+21501D01*
X-1552972Y+21501D01*
X-1540272Y+34201D01*
X-1337253Y+34201D01*
X-918501Y+452953D01*
X-918501Y+513190D01*
X-867701Y+563990D01*
X-867701Y+709841D01*
X-470870Y+709841D01*
X-441570Y+739141D01*
X-330199Y+739141D01*
X-330199Y+266699D01*
X-460810Y+266699D01*
X-609599Y+117910D01*
X-609599Y-92510D01*
X-460810Y-241299D01*
X-250390Y-241299D01*
X-101601Y-92510D01*
X-101601Y+50801D01*
X+165101Y+50801D01*
X+165101Y-92510D01*
X+313890Y-241299D01*
X+496001Y-241299D01*
X+496001Y-569999D01*
X+1003999Y-569999D01*
X+1003999Y-62001D01*
X+673099Y-62001D01*
X+673099Y+50801D01*
X+1126334Y+50801D01*
X+1407543Y-230408D01*
X+1407543Y-551427D01*
X+2039897Y-1183781D01*
X+1990709Y-1183781D01*
X+1827041Y-1347449D01*
X+1827041Y-1578911D01*
X+1990709Y-1742579D01*
X+2222171Y-1742579D01*
X+2385839Y-1578911D01*
X+2385839Y-1347449D01*
X+2247498Y-1209108D01*
X+2616202Y-1209108D01*
X+2914161Y-1507067D01*
X+2914161Y-1578911D01*
X+3077829Y-1742579D01*
X+3309291Y-1742579D01*
X+3472959Y-1578911D01*
X+3472959Y-1347449D01*
X+3309291Y-1183781D01*
X+3237447Y-1183781D01*
X+2805576Y-751910D01*
X+2254598Y-751910D01*
X+1864739Y-362051D01*
X+1864739Y-41032D01*
X+1518906Y+304801D01*
X+2341913Y+304801D01*
X+2364147Y+282566D01*
X+2142001Y+60420D01*
X+2142001Y-360420D01*
X+2439580Y-657999D01*
X+2860420Y-657999D01*
X+3157999Y-360420D01*
X+3157999Y+60420D01*
X+2878599Y+339820D01*
X+2878599Y+414689D01*
X+2744689Y+548599D01*
X+2744687Y+548599D01*
X+2531287Y+761999D01*
X+1016699Y+761999D01*
X+1016699Y+810470D01*
X+990599Y+836570D01*
X+990599Y+1143001D01*
X+3079189Y+1143001D01*
X+3213099Y+1276911D01*
X+3213099Y+1276913D01*
X+3431868Y+1495682D01*
X+3431868Y+3701698D01*
X+3457718Y+3727548D01*
X+3643601Y+3541665D01*
X+3643601Y+949564D01*
X+4021664Y+571501D01*
X+4557601Y+571501D01*
X+4557601Y+369936D01*
X+4456001Y+268336D01*
X+4456001Y-2509265D01*
X+4274465Y-2690801D01*
X+2912020Y-2690801D01*
X+2860420Y-2639201D01*
X+2439580Y-2639201D01*
X+2142001Y-2936780D01*
X+2142001Y-3174001D01*
X+581367Y-3174001D01*
X+513199Y-3105833D01*
X+513199Y-1875833D01*
X+420565Y-1783199D01*
X+894167Y-1783199D01*
X+1282699Y-1394667D01*
X+1282699Y-1156010D01*
X+1333499Y-1105210D01*
X+1333499Y-894790D01*
X+1184710Y-746001D01*
X+974290Y-746001D01*
X+825501Y-894790D01*
X+825501Y-1105210D01*
X+876301Y-1156010D01*
X+876301Y-1226333D01*
X+725833Y-1376801D01*
X-107990Y-1376801D01*
X-158790Y-1326001D01*
X-369210Y-1326001D01*
X-517999Y-1474790D01*
X-517999Y-1685210D01*
X-473209Y-1730000D01*
X-517999Y-1774790D01*
X-517999Y-1985210D01*
X-369210Y-2133999D01*
X-158790Y-2133999D01*
X-107990Y-2083199D01*
X+106801Y-2083199D01*
X+106801Y-3274167D01*
X+413033Y-3580399D01*
X+2364780Y-3580399D01*
X+2439580Y-3655199D01*
X+2860420Y-3655199D01*
X+3012020Y-3503599D01*
X+4611136Y-3503599D01*
X+5268799Y-2845936D01*
X+5268799Y+268336D01*
X+5167199Y+369936D01*
X+5167199Y+596152D01*
X+5039451Y+723900D01*
X+5167199Y+851648D01*
X+5167199Y+1104152D01*
X+5039451Y+1231900D01*
X+5167199Y+1359648D01*
X+5167199Y+1558423D01*
X+5268799Y+1660023D01*
X+5268799Y+4785936D01*
X+5030735Y+5023999D01*
X+4485035Y+5569699D01*
X+4024437Y+5569699D01*
X+4229099Y+5774361D01*
X+4229099Y+6163639D01*
X+4014798Y+6377940D01*
X+5459440Y+6377940D01*
X+5459440Y-3972634D01*
X-2933999Y-2642001D02*
X-2426001Y-2642001D01*
X-2426001Y-3149999D01*
X-2933999Y-3149999D01*
X-2933999Y-2642001D01*
X-1603999Y+4544790D02*
X-1534209Y+4475000D01*
X-1603999Y+4405210D01*
X-1603999Y+4400699D01*
X-1746001Y+4400699D01*
X-1746001Y+4405210D01*
X-1815791Y+4475000D01*
X-1746001Y+4544790D01*
X-1746001Y+4737101D01*
X-1603999Y+4737101D01*
X-1603999Y+4544790D01*
X+273601Y+4231665D02*
X+273601Y+4231664D01*
X+511664Y+3993601D01*
X+1846391Y+3993601D01*
X+1818641Y+3965851D01*
X+1818641Y+3734389D01*
X+1982309Y+3570721D01*
X+2213771Y+3570721D01*
X+2377439Y+3734389D01*
X+2377439Y+3965851D01*
X+2349689Y+3993601D01*
X+2933511Y+3993601D01*
X+2905761Y+3965851D01*
X+2905761Y+3734389D01*
X+2974670Y+3665480D01*
X+2974670Y+2551449D01*
X+2852020Y+2674099D01*
X+2431180Y+2674099D01*
X+2133601Y+2376520D01*
X+2133601Y+1955680D01*
X+2235081Y+1854199D01*
X+1222810Y+1854199D01*
X+1197410Y+1879599D01*
X+986990Y+1879599D01*
X+961590Y+1854199D01*
X+939799Y+1854199D01*
X+939799Y+1896130D01*
X+1003299Y+1959630D01*
X+1003299Y+2180570D01*
X+847070Y+2336799D01*
X+673099Y+2336799D01*
X+673099Y+2492810D01*
X+524310Y+2641599D01*
X+313890Y+2641599D01*
X+165101Y+2492810D01*
X+165101Y+2282390D01*
X+313890Y+2133601D01*
X+469901Y+2133601D01*
X+469901Y+1959630D01*
X+533401Y+1896130D01*
X+533401Y+1854199D01*
X+228599Y+1854199D01*
X+228599Y+2108199D01*
X-330199Y+2108199D01*
X-330199Y+2082799D01*
X-361027Y+2082799D01*
X-571498Y+1872328D01*
X-571498Y+1788160D01*
X-571499Y+1514910D01*
X-609599Y+1476810D01*
X-609599Y+1380399D01*
X-1591072Y+1380399D01*
X-1603772Y+1393099D01*
X-1782628Y+1393099D01*
X-1909099Y+1266628D01*
X-1909099Y+1266099D01*
X-1909628Y+1266099D01*
X-1922328Y+1253399D01*
X-2417967Y+1253399D01*
X-2517367Y+1153999D01*
X-2538635Y+1153999D01*
X-2261433Y+1431201D01*
X-2057890Y+1431201D01*
X-2007090Y+1482001D01*
X-1277710Y+1482001D01*
X-1226910Y+1431201D01*
X-1016490Y+1431201D01*
X-867701Y+1579990D01*
X-867701Y+1790410D01*
X-1016490Y+1939199D01*
X-1146801Y+1939199D01*
X-1146801Y+2093990D01*
X-1096001Y+2144790D01*
X-1096001Y+2355210D01*
X-1127639Y+2386848D01*
X-1127639Y+3252351D01*
X-961560Y+3252351D01*
X-955210Y+3246001D01*
X-744790Y+3246001D01*
X-596001Y+3394790D01*
X-596001Y+3605210D01*
X-744790Y+3753999D01*
X-955210Y+3753999D01*
X-961560Y+3747649D01*
X-1127639Y+3747649D01*
X-1127639Y+4026835D01*
X-1121401Y+4033073D01*
X-1121401Y+4169390D01*
X-1096001Y+4194790D01*
X-1096001Y+4405210D01*
X-1165791Y+4475000D01*
X-1096001Y+4544790D01*
X-1096001Y+4737101D01*
X-231835Y+4737101D01*
X+273601Y+4231665D01*
X-609599Y+2282390D02*
X-609599Y+2492810D01*
X-460810Y+2641599D01*
X-250390Y+2641599D01*
X-101601Y+2492810D01*
X-101601Y+2282390D01*
X-250390Y+2133601D01*
X-460810Y+2133601D01*
X-609599Y+2282390D01*
X-5696799Y+2174165D02*
X-5925833Y+2403199D01*
X-6043990Y+2403199D01*
X-6094790Y+2453999D01*
X-6305210Y+2453999D01*
X-6453999Y+2305210D01*
X-6453999Y+2094790D01*
X-6305210Y+1946001D01*
X-6094790Y+1946001D01*
X-6069079Y+1971712D01*
X-5936299Y+1838933D01*
X-5936299Y-176335D01*
X-5946001Y-166633D01*
X-5946001Y-94790D01*
X-6094790Y+53999D01*
X-6246326Y+53999D01*
X-6246326Y+146001D01*
X-6094790Y+146001D01*
X-5946001Y+294790D01*
X-5946001Y+505210D01*
X-6094790Y+653999D01*
X-6305210Y+653999D01*
X-6356010Y+603199D01*
X-6426801Y+603199D01*
X-6426801Y+685833D01*
X-6335922Y+776712D01*
X-6305210Y+746001D01*
X-6094790Y+746001D01*
X-5946001Y+894790D01*
X-5946001Y+1105210D01*
X-6094790Y+1253999D01*
X-6305210Y+1253999D01*
X-6356010Y+1203199D01*
X-6484167Y+1203199D01*
X-6596801Y+1090565D01*
X-6596801Y+1255833D01*
X-6455833Y+1396801D01*
X-6356010Y+1396801D01*
X-6305210Y+1346001D01*
X-6094790Y+1346001D01*
X-5946001Y+1494790D01*
X-5946001Y+1705210D01*
X-6094790Y+1853999D01*
X-6305210Y+1853999D01*
X-6356010Y+1803199D01*
X-6624167Y+1803199D01*
X-6799901Y+1627465D01*
X-6799901Y+2102733D01*
X-6330922Y+2571712D01*
X-6305210Y+2546001D01*
X-6094790Y+2546001D01*
X-5975000Y+2665791D01*
X-5955210Y+2646001D01*
X-5744790Y+2646001D01*
X-5696799Y+2693992D01*
X-5696799Y+2174165D01*
X-7321210Y+1946001D02*
X-7206299Y+1946001D01*
X-7206299Y+1853999D01*
X-7321210Y+1853999D01*
X-7372011Y+1803198D01*
X-7396001Y+1803198D01*
X-7396001Y+1996801D01*
X-7372011Y+1996801D01*
X-7321210Y+1946001D01*
X-7321210Y+1346001D02*
X-7206299Y+1346001D01*
X-7206299Y+1253999D01*
X-7321210Y+1253999D01*
X-7372011Y+1203198D01*
X-7396001Y+1203198D01*
X-7396001Y+1396801D01*
X-7372011Y+1396801D01*
X-7321210Y+1346001D01*
X+165101Y+1133910D02*
X+165101Y+1015999D01*
X+7966Y+1015999D01*
X-101601Y+1125566D01*
X-101601Y+1133910D01*
X-110693Y+1143001D01*
X+174192Y+1143001D01*
X+165101Y+1133910D01*
X+313890Y+774701D02*
X+483301Y+774701D01*
X+483301Y+761999D01*
X+228599Y+761999D01*
X+228599Y+859992D01*
X+313890Y+774701D01*
X-7321210Y+746001D02*
X-7206299Y+746001D01*
X-7206299Y+653999D01*
X-7321210Y+653999D01*
X-7372010Y+603199D01*
X-7396001Y+603199D01*
X-7396001Y+796801D01*
X-7372011Y+796801D01*
X-7321210Y+746001D01*
X-7321210Y+146001D02*
X-7206299Y+146001D01*
X-7206299Y+53999D01*
X-7321210Y+53999D01*
X-7372010Y+3199D01*
X-7396001Y+3199D01*
X-7396001Y+196801D01*
X-7372010Y+196801D01*
X-7321210Y+146001D01*
X-7321210Y-453999D02*
X-7206299Y-453999D01*
X-7206299Y-783915D01*
X-7242401Y-747813D01*
X-7242401Y-687201D01*
X-7527992Y-687201D01*
X-7396001Y-555210D01*
X-7396001Y-403199D01*
X-7372010Y-403199D01*
X-7321210Y-453999D01*
X-5051365Y-876001D02*
X-5235210Y-876001D01*
X-5290401Y-931192D01*
X-5290401Y-636965D01*
X-5051365Y-876001D01*
X-3323199Y-450000D02*
X-3323199Y-534167D01*
X-2608066Y-1249301D01*
X-2810470Y-1249301D01*
X-2937970Y-1376801D01*
X-3096001Y-1376801D01*
X-3096001Y-1204790D01*
X-3244790Y-1056001D01*
X-3316633Y-1056001D01*
X-3862457Y-510177D01*
X-3862457Y-101599D01*
X-3581401Y-101599D01*
X-3581401Y+396001D01*
X-3394790Y+396001D01*
X-3323199Y+467592D01*
X-3323199Y-450000D01*
X-4606783Y-1923301D02*
X-4458583Y-2071501D01*
X-5614135Y-2071501D01*
X-5410933Y-1868299D01*
X-4661785Y-1868299D01*
X-4606783Y-1923301D01*
X-7150000Y+4421021D02*
X-7150000Y+4649620D01*
X-7378599Y+4649620D02*
X-7150000Y+4649620D01*
X-7898387Y+5690613D02*
X-7620000Y+5969000D01*
X-7341613Y+5690613D02*
X-7620000Y+5969000D01*
X-7341613Y+6247387D02*
X-7620000Y+5969000D01*
X-7898387Y+6247387D02*
X-7620000Y+5969000D01*
X-2378500Y+3962551D02*
X-2378500Y+4134000D01*
X-2378500Y+4305449D02*
X-2378500Y+4134000D01*
X-2549949Y+4134000D02*
X-2378500Y+4134000D01*
X-2000000Y+4122201D02*
X-2000000Y+4300000D01*
X-7827799Y+3146000D02*
X-7650000Y+3146000D01*
X-7472201Y+3146000D02*
X-7650000Y+3146000D01*
X-7827799Y+3746000D02*
X-7650000Y+3746000D01*
X-7472201Y+3746000D02*
X-7650000Y+3746000D01*
X-1527799Y+4650000D02*
X-1350000Y+4650000D01*
X-1172201Y+4650000D02*
X-1350000Y+4650000D01*
X-672201Y+3500000D02*
X-850000Y+3500000D01*
X-850000Y+3322201D02*
X-850000Y+3500000D01*
X-850000Y+3677799D02*
X-850000Y+3500000D01*
X-2374900Y+3416301D02*
X-2374900Y+3594100D01*
X-2197101Y+3594100D02*
X-2374900Y+3594100D01*
X-2374900Y+3771899D02*
X-2374900Y+3594100D01*
X-2552699Y+3594100D02*
X-2374900Y+3594100D01*
X-3894500Y+3116301D02*
X-3894500Y+3294100D01*
X-3716701Y+3294100D02*
X-3894500Y+3294100D01*
X-2872201Y+2584000D02*
X-3050000Y+2584000D01*
X-3050000Y+2761799D02*
X-3050000Y+2584000D01*
X-3227799Y+2584000D02*
X-3050000Y+2584000D01*
X-4825999Y+127000D02*
X-4622800Y+127000D01*
X-4622800Y-25399D02*
X-4622800Y+127000D01*
X-3860800Y-25399D02*
X-3860800Y+127000D01*
X-3657601Y+127000D02*
X-3860800Y+127000D01*
X-3657601Y+381000D02*
X-3860800Y+381000D01*
X-533399Y+12700D02*
X-355600Y+12700D01*
X-177801Y+12700D02*
X-355600Y+12700D01*
X-355600Y-165099D02*
X-355600Y+12700D01*
X-355600Y+190499D02*
X-355600Y+12700D01*
X-533399Y+2387600D02*
X-355600Y+2387600D01*
X-177801Y+2387600D02*
X-355600Y+2387600D01*
X-355600Y+2209801D02*
X-355600Y+2387600D01*
X-355600Y+2565399D02*
X-355600Y+2387600D01*
X+241301Y+1028700D02*
X+419100Y+1028700D01*
X+419100Y+850901D02*
X+419100Y+1028700D01*
X+241301Y+2387600D02*
X+419100Y+2387600D01*
X+596899Y+2387600D02*
X+419100Y+2387600D01*
X+419100Y+2209801D02*
X+419100Y+2387600D01*
X+419100Y+2565399D02*
X+419100Y+2387600D01*
X+1903241Y-1463180D02*
X+2106440Y-1463180D01*
X+2309639Y-1463180D02*
X+2106440Y-1463180D01*
X+2106440Y-1666379D02*
X+2106440Y-1463180D01*
X+1894841Y+3850120D02*
X+2098040Y+3850120D01*
X+2301239Y+3850120D02*
X+2098040Y+3850120D01*
X+2098040Y+3646921D02*
X+2098040Y+3850120D01*
X+750000Y-493799D02*
X+750000Y-316000D01*
X+927799Y-316000D02*
X+750000Y-316000D01*
X+750000Y-138201D02*
X+750000Y-316000D01*
X+572201Y-316000D02*
X+750000Y-316000D01*
X+914399Y+1054100D02*
X+736600Y+1054100D01*
X-5850000Y+2722201D02*
X-5850000Y+2900000D01*
X-5322201Y+3750000D02*
X-5500000Y+3750000D01*
X-5733100Y-2554099D02*
X-5733100Y-2350900D01*
X-5225100Y-1792099D02*
X-5225100Y-1588900D01*
X-5130000Y-952201D02*
X-5130000Y-1130000D01*
X-1742000Y-2245699D02*
X-1742000Y-2080600D01*
X-1576901Y-2080600D02*
X-1742000Y-2080600D01*
X-5980000Y-3717799D02*
X-5980000Y-3540000D01*
X-5980000Y-3362201D02*
X-5980000Y-3540000D01*
X-6157799Y-3540000D02*
X-5980000Y-3540000D01*
X-4783005Y-3371406D02*
X-4783005Y-3549205D01*
X-4783005Y-3727004D02*
X-4783005Y-3549205D01*
X-4605206Y-3549205D02*
X-4783005Y-3549205D01*
X-2680000Y-3073799D02*
X-2680000Y-2896000D01*
X-2502201Y-2896000D02*
X-2680000Y-2896000D01*
X-2680000Y-2718201D02*
X-2680000Y-2896000D01*
X-2857799Y-2896000D02*
X-2680000Y-2896000D01*
X-2522201Y-500000D02*
X-2700000Y-500000D01*
X-2700000Y-322201D02*
X-2700000Y-500000D01*
X-7472201Y+2546000D02*
X-7650000Y+2546000D01*
X-7827799Y+2546000D02*
X-7650000Y+2546000D01*
X-7472201Y+1946000D02*
X-7650000Y+1946000D01*
X-7827799Y+1946000D02*
X-7650000Y+1946000D01*
X-7472201Y+1346000D02*
X-7650000Y+1346000D01*
X-7827799Y+1346000D02*
X-7650000Y+1346000D01*
X-7472201Y+746000D02*
X-7650000Y+746000D01*
X-7827799Y+746000D02*
X-7650000Y+746000D01*
X-7472201Y+150000D02*
X-7650000Y+150000D01*
X-7827799Y+150000D02*
X-7650000Y+150000D01*
X-7472201Y-450000D02*
X-7650000Y-450000D01*
X-7827799Y-450000D02*
X-7650000Y-450000D01*
X-4157799Y-4084000D02*
X-3980000Y-4084000D01*
X-3980000Y-4261799D02*
X-3980000Y-4084000D01*
X-3802201Y-4084000D02*
X-3980000Y-4084000D01*
X-6472201Y-2850000D02*
X-6650000Y-2850000D01*
X-6650000Y-3027799D02*
X-6650000Y-2850000D01*
X+1749840Y-4097601D02*
X+1749840Y-4250000D01*
X+1546641Y-4250000D02*
X+1749840Y-4250000D01*
X-3350000Y-3803799D02*
X-3350000Y-3626000D01*
X-3172201Y-3626000D02*
X-3350000Y-3626000D01*
X-3350000Y-3448201D02*
X-3350000Y-3626000D01*
X-3690000Y-3813799D02*
X-3690000Y-3636000D01*
X-3690000Y-3458201D02*
X-3690000Y-3636000D01*
D14*
X-7150000Y+5150000D03*
X-7150000Y+4649620D03*
D15*
X-7620000Y+5969000D03*
X+3759200Y+5969000D03*
X-7620000Y-6157000D03*
X+4946440Y-6107000D03*
D14*
X-3550000Y+5150000D03*
X-6150000Y+5150000D03*
D16*
X-2378500Y+4134000D03*
D17*
X-2378500Y+5150000D03*
X-2000000Y+4650000D03*
X-2000000Y+4300000D03*
D18*
X-1678500Y+5150000D03*
D19*
X-1678500Y+4134000D03*
D18*
X-7650000Y+3400000D03*
D17*
X-7650000Y+3146000D03*
X-7200000Y+3400000D03*
X-6184000Y+3400000D03*
D18*
X-7650000Y+4000000D03*
D17*
X-7650000Y+3746000D03*
X-7200000Y+4000000D03*
X-6184000Y+4000000D03*
X-1350000Y+4300000D03*
X-1350000Y+4650000D03*
D16*
X-1104000Y+3500000D03*
D17*
X-850000Y+3500000D03*
X-2366000Y+2250000D03*
X-1350000Y+2250000D03*
D18*
X-2374900Y+3594100D03*
D19*
X-2374900Y+2578100D03*
D18*
X-3050000Y+5150000D03*
D19*
X-3050000Y+4134000D03*
D17*
X-3894500Y+3294100D03*
X-3894500Y+4310100D03*
D70*
X-5777000Y+4327000D03*
X-5650000Y+4200000D03*
X-5777000Y+4073000D03*
D17*
X-4266000Y+3284000D03*
X-4266000Y+4300000D03*
D18*
X-3050000Y+2584000D03*
D19*
X-3050000Y+3600000D03*
D18*
X-3086100Y+1651000D03*
D17*
X-3086100Y+1397000D03*
X-3517900Y+1301000D03*
X-3517900Y+1651000D03*
D71*
X-4622800Y+1651000D03*
X-4622800Y+1397000D03*
X-4622800Y+1143000D03*
X-4622800Y+889000D03*
X-4622800Y+635000D03*
X-4622800Y+381000D03*
X-4622800Y+127000D03*
X-3860800Y+127000D03*
X-3860800Y+381000D03*
X-3860800Y+635000D03*
X-3860800Y+889000D03*
X-3860800Y+1143000D03*
X-3860800Y+1397000D03*
X-3860800Y+1651000D03*
D17*
X-3500000Y+650000D03*
X-2484000Y+650000D03*
D20*
X-1642400Y+491400D03*
X-1769400Y+364400D03*
X-1642400Y+237400D03*
D17*
X-1121700Y+1685200D03*
X-1121700Y+669200D03*
X-3500000Y+900000D03*
X-2484000Y+900000D03*
D20*
X-1693200Y+1177200D03*
X-1820200Y+1050200D03*
X-1693200Y+923200D03*
D17*
X-2163100Y+1685200D03*
X-2163100Y+669200D03*
D71*
X-50800Y+787400D03*
X-50800Y+533400D03*
X-50800Y+279400D03*
X-50800Y+1879600D03*
X-50800Y+1625600D03*
X-50800Y+1371600D03*
D17*
X-355600Y+1028700D03*
X-355600Y+12700D03*
X-355600Y+1371600D03*
X-355600Y+2387600D03*
X+419100Y+12700D03*
X+419100Y+1028700D03*
X+419100Y+1371600D03*
X+419100Y+2387600D03*
D21*
X+2106440Y-1463180D03*
X+3193560Y-1463180D03*
D22*
X+2650000Y-150000D03*
X+2650000Y-3147200D03*
D21*
X+2098040Y+3850120D03*
X+3185160Y+3850120D03*
D22*
X+2641600Y+5163300D03*
X+2641600Y+2166100D03*
D18*
X+750000Y-316000D03*
D19*
X+750000Y+700000D03*
D18*
X+736600Y+1054100D03*
D19*
X+736600Y+2070100D03*
D23*
X-5850000Y+3350000D03*
X-5596000Y+3350000D03*
X-5342000Y+3350000D03*
D17*
X-5500000Y+2900000D03*
X-5850000Y+2900000D03*
X-5850000Y+3750000D03*
X-5500000Y+3750000D03*
D23*
X-7511100Y-2350900D03*
X-7257100Y-2350900D03*
X-7003100Y-2350900D03*
X-6749100Y-2350900D03*
X-6495100Y-2350900D03*
X-6241100Y-2350900D03*
X-5987100Y-2350900D03*
X-5733100Y-2350900D03*
X-5479100Y-2350900D03*
X-5225100Y-2350900D03*
X-4971100Y-2350900D03*
X-4717100Y-2350900D03*
X-4463100Y-2350900D03*
X-4209100Y-2350900D03*
X-4209100Y-1588900D03*
X-4463100Y-1588900D03*
X-4717100Y-1588900D03*
X-4971100Y-1588900D03*
X-5225100Y-1588900D03*
X-5479100Y-1588900D03*
X-5733100Y-1588900D03*
X-5987100Y-1588900D03*
X-6241100Y-1588900D03*
X-6495100Y-1588900D03*
X-6749100Y-1588900D03*
X-7003100Y-1588900D03*
X-7257100Y-1588900D03*
X-7509100Y-1588900D03*
D17*
X-5480000Y-1130000D03*
X-5130000Y-1130000D03*
X-2300800Y-1064600D03*
X-2300800Y-2080600D03*
X-2021400Y-2080600D03*
X-2021400Y-1064600D03*
D24*
X-1742000Y-1064600D03*
X-1742000Y-2080600D03*
D17*
X-5130200Y-3112695D03*
X-5638200Y-3112695D03*
X-5980000Y-3540000D03*
X-5630000Y-3540000D03*
X-4783005Y-3549205D03*
X-5133005Y-3549205D03*
X-4336300Y+1930400D03*
X-4686300Y+1930400D03*
X-4804000Y+2300000D03*
X-4296000Y+2300000D03*
X-4550000Y+2300000D03*
X-4016000Y+2300000D03*
X-3000000Y+2300000D03*
D71*
X-7521800Y-1169800D03*
X-7521800Y-915800D03*
D14*
X+4862400Y+469900D03*
X+4862400Y+977900D03*
X+4862400Y+1485900D03*
D17*
X-264000Y-1880000D03*
X-1280000Y-1880000D03*
X-264000Y-1580000D03*
X-1280000Y-1580000D03*
D18*
X-2680000Y-2896000D03*
D19*
X-2680000Y-1880000D03*
D18*
X-2700000Y-500000D03*
D19*
X-2700000Y-1516000D03*
D17*
X-6200000Y+2800000D03*
X-7216000Y+2800000D03*
X-6200000Y+2200000D03*
X-7216000Y+2200000D03*
X-6200000Y+1600000D03*
X-7216000Y+1600000D03*
X-6200000Y+1000000D03*
X-7216000Y+1000000D03*
D18*
X-7650000Y+2800000D03*
D17*
X-7650000Y+2546000D03*
D18*
X-7650000Y+2200000D03*
D17*
X-7650000Y+1946000D03*
D18*
X-7650000Y+1600000D03*
D17*
X-7650000Y+1346000D03*
D18*
X-7650000Y+1000000D03*
D17*
X-7650000Y+746000D03*
D18*
X-7650000Y+404000D03*
D17*
X-7650000Y+150000D03*
D18*
X-7650000Y-196000D03*
D17*
X-7650000Y-450000D03*
X-6200000Y+400000D03*
X-7216000Y+400000D03*
X-6200000Y-200000D03*
X-7216000Y-200000D03*
D18*
X-3980000Y-3830000D03*
X-3980000Y-4084000D03*
D14*
X+4861840Y-4700000D03*
X+4861840Y-5200380D03*
D17*
X-6014000Y-1880000D03*
X-7030000Y-1880000D03*
X-6650000Y-3866000D03*
X-6650000Y-2850000D03*
D71*
X+2511840Y-4758000D03*
X+2511840Y-4504000D03*
X+2511840Y-4250000D03*
X+1749840Y-4250000D03*
X+1749840Y-4504000D03*
X+1749840Y-4758000D03*
D18*
X+4027840Y-6300000D03*
D19*
X+3011840Y-6300000D03*
D17*
X+4011840Y-5800000D03*
X+2995840Y-5800000D03*
X+2995840Y-5350000D03*
X+4011840Y-5350000D03*
X-7280000Y-2080000D03*
X-6264000Y-2080000D03*
D18*
X+2995840Y-4850000D03*
D19*
X+4011840Y-4850000D03*
D17*
X-3700000Y-2326000D03*
X-3700000Y-1310000D03*
X-3350000Y-2326000D03*
X-3350000Y-1310000D03*
D18*
X-3350000Y-3626000D03*
D19*
X-3350000Y-2610000D03*
D18*
X-3690000Y-3636000D03*
D19*
X-3690000Y-2620000D03*
D71*
X-7500000Y-3354000D03*
X-7500000Y-3100000D03*
D25*
X-8214500Y-6651500D02*
X+5622000Y-6651500D01*
X+5622000Y+6540500D01*
X-8214500Y+6540500D01*
X-8214500Y-6651500D01*
M02*
